<?xml version="1.0" encoding="UTF-8"?><svg xmlns="http://www.w3.org/2000/svg" viewBox="0 0 228.47 228.47"><g id="a"/><g id="b"><g id="c"><g><path d="M0,114.23H210.62v112.23c0,1.1-.9,2-2,2H7c-3.86,0-7-3.14-7-7V114.23H0Z" style="fill:#d9d2b1;"/><path d="M228.47,96.39v99.96c0,3.93-3.21,7.14-7.14,7.14H49.98V89.25H221.33c3.93,0,7.14,3.21,7.14,7.14Z" style="fill:#f7f5ee;"/><path d="M87.46,135.65h-3.57c-2.96,0-5.35-2.39-5.35-5.35s2.39-5.35,5.35-5.35h5.35c1.96,0,3.57,1.61,3.57,3.57s1.61,3.57,3.57,3.57c6.77,0,3.5-14.28-7.14-14.28v-3.57c0-1.97-1.6-3.57-3.57-3.57s-3.57,1.6-3.57,3.57v3.75c-6.04,.88-10.71,6.04-10.71,12.31,0,6.89,5.6,12.49,12.49,12.49h3.57c5.31,0,7.28,6.85,3.07,9.75-1.81,1.28-3.35,.96-8.42,.96-1.96,0-3.57-1.61-3.57-3.57s-1.61-3.57-3.57-3.57c-6.77,0-3.5,14.28,7.14,14.28v3.57c0,1.97,1.6,3.57,3.57,3.57s3.57-1.6,3.57-3.57v-3.71c6.71-1.13,10.71-6.57,10.71-12.36,0-6.73-5.46-12.49-12.49-12.49Z" style="fill:#c885e9;"/><path d="M49.98,89.25v114.23c0-13.82-11.17-24.99-24.99-24.99S0,189.67,0,203.48V89.25c0-13.82,11.17-24.99,24.99-24.99s24.99,11.17,24.99,24.99Z" style="fill:#e5e0c9;"/><rect x="121.37" y="121.37" width="85.68" height="7.14" style="fill:#e5e0c9;"/><rect x="121.37" y="139.22" width="85.68" height="7.14" style="fill:#e5e0c9;"/><path d="M210.62,89.25v33.59c-4.81,11.24-5.85,13.71-7,16.39h-21.7c-.43-1.01,.22,.53-4.57-10.71h29.7v-7.14h-32.13v-32.13h35.7Z" style="fill:#e5e0c9;"/><path d="M200.55,146.36l-4.5,10.46c-1.25,2.86-5.32,2.86-6.57,0l-4.5-10.46h15.56Z" style="fill:#e5e0c9;"/><polygon points="203.62 139.22 200.55 146.36 184.99 146.36 181.92 139.22 203.62 139.22" style="fill:#d9d2b1;"/><path d="M207.05,121.37v7.14h-29.7c-2.85-6.66-2.43-5.19-2.43-7.14h32.13Z" style="fill:#d9d2b1;"/><rect x="121.37" y="157.07" width="49.98" height="7.14" style="fill:#e5e0c9;"/><rect x="157.07" y="178.49" width="49.98" height="7.14" style="fill:#c782e9;"/><rect x="182.06" y="21.42" width="21.42" height="99.96" style="fill:#c885e9;"/><path d="M203.48,121.37c-7.33,17.14-4.91,11.5-10.71,24.99-5.8-13.49-3.38-7.85-10.71-24.99h21.42Z" style="fill:#c782e9;"/><path d="M214.19,78.54c-1.97,0-3.57-1.6-3.57-3.57V28.56c0-3.94-3.2-7.14-7.14-7.14h-21.42c-1.97,0-3.57-1.6-3.57-3.57s1.6-3.57,3.57-3.57h21.42c7.87,0,14.28,6.4,14.28,14.28v46.41c0,1.97-1.6,3.57-3.57,3.57Z" style="fill:#a93edd;"/><path d="M192.77,0c-2.88,0-7.14,2.25-7.14,7.14v7.14h14.28V7.14c0-3.94-3.2-7.14-7.14-7.14Z" style="fill:#bc69e4;"/><polygon points="197.38 135.65 192.77 146.36 188.17 135.65 197.38 135.65" style="fill:#9f28d9;"/></g></g></g></svg>