<?xml version="1.0" encoding="UTF-8"?><svg xmlns="http://www.w3.org/2000/svg" viewBox="0 0 207.05 228.47"><g id="a"/><g id="b"><g id="c"><g><path d="M178.49,46.41v46.41c0,55.69-33.32,106.7-85.68,128.51C41.41,199.91,7.14,149.53,7.14,92.82V46.41L92.82,7.14l85.68,39.27Z" style="fill:#f7f5ee;"/><path d="M181.45,39.91L95.78,.64c-1.89-.86-4.03-.86-5.93,0L4.18,39.91c-2.53,1.18-4.18,3.71-4.18,6.5v46.41c0,59.26,35.34,112.31,90.07,135.12,1.78,.71,3.71,.71,5.5,0,54.96-22.83,90.07-76.3,90.07-135.12V46.41c0-2.78-1.64-5.32-4.18-6.5ZM92.82,213.55C45.02,192.38,14.28,145.29,14.28,92.82V50.98L92.82,14.99l78.54,35.98v41.84c0,51.83-30.14,99.31-78.54,120.73Z" style="fill:#a93edd;"/><path d="M161.39,143.26c-8.46,20.56-22.03,38.7-39.52,52.69-3.78-26.06,14.6-49.26,39.52-52.69Z" style="fill:#e5e0c9;"/><path d="M176.56,143.61c-9.75,26.56-27.1,49.8-50.05,66.76-2.32-4.43-3.89-9.32-4.64-14.42,17.49-13.99,31.06-32.13,39.52-52.69,4.51-.69,9.81-.65,15.17,.36Z" style="fill:#9f28d9;"/><circle cx="167.78" cy="189.2" r="39.27" style="fill:#bc69e4;"/><circle cx="167.78" cy="189.2" r="28.56" style="fill:#c885e9;"/><path d="M167.78,199.91c-1.94,0-2.02-.54-9.66-8.19-1.39-1.39-1.39-3.65,0-5.05s3.65-1.39,5.05,0l4.62,4.62,11.76-11.76c1.39-1.39,3.65-1.39,5.05,0s1.39,3.65,0,5.05l-14.28,14.28c-.7,.7-1.61,1.05-2.52,1.05Z" style="fill:#f7f5ee;"/><circle cx="92.82" cy="107.1" r="57.12" style="fill:#bc69e4;"/><circle cx="92.82" cy="107.1" r="46.41" style="fill:#c885e9;"/><path d="M94.6,135.65h-5.35c-13.61,0-18.22-17.85-10.71-17.85,1.97,0,3.57,1.6,3.57,3.57,0,3.94,3.2,7.14,7.14,7.14h5.35c4.92,0,8.92-4,8.92-8.92s-4-8.92-8.92-8.92h-3.57c-8.86,0-16.06-7.21-16.06-16.06s7.21-16.06,16.06-16.06h5.35c13.61,0,18.22,17.85,10.71,17.85-1.97,0-3.57-1.6-3.57-3.57,0-3.94-3.2-7.14-7.14-7.14h-5.35c-4.92,0-8.92,4-8.92,8.92s4,8.92,8.92,8.92h3.57c8.86,0,16.06,7.21,16.06,16.06s-7.21,16.06-16.06,16.06Z" style="fill:#f7f5ee;"/><path d="M92.82,142.79c-1.97,0-3.57-1.6-3.57-3.57V74.97c0-1.97,1.6-3.57,3.57-3.57s3.57,1.6,3.57,3.57v64.26c0,1.97-1.6,3.57-3.57,3.57Z" style="fill:#f7f5ee;"/></g></g></g></svg>