<?xml version="1.0" encoding="UTF-8"?><svg xmlns="http://www.w3.org/2000/svg" viewBox="0 0 228.47 228.47"><g id="a"/><g id="b"><g id="c"><g><path d="M221.33,67.83V207.05H7.14V67.83c0-5.93,4.78-10.71,10.71-10.71H210.62c5.93,0,10.71,4.78,10.71,10.71Z" style="fill:#c782e9;"/><path d="M214.19,67.83v14.28H71.4l-14.28-17.85H210.62c1.96,0,3.57,1.61,3.57,3.57Z" style="fill:#a93edd;"/><path d="M1,207.05H227.47c.55,0,1,.45,1,1v17.42c0,1.66-1.34,3-3,3H3c-1.66,0-3-1.34-3-3v-17.42c0-.55,.45-1,1-1Z" style="fill:#a93edd;"/><path d="M214.19,82.11v117.8H14.28V67.83c0-1.96,1.61-3.57,3.57-3.57h50.26c4.32,0,8.42,1.96,11.14,5.35,5.54,6.93,5.86,7.36,6.25,7.75,2.68,3.03,6.57,4.75,10.6,4.75h118.09Z" style="fill:#fff;"/><path d="M202.55,64.26H25.92c.55-.67,1.22-1.24,7.71-7.14H194.84c5.77,5.24,7.08,6.37,7.71,7.14Z" style="fill:#a93edd;"/><path d="M205.8,82.11c-2.5,6.28-8.64,10.71-15.78,10.71H38.45c-14.8,0-22.51-17.71-12.53-28.56h31.2l14.28,17.85H205.8Z" style="fill:#f7f5ee;"/><path d="M205.8,82.11H71.4l-14.28-17.85H202.55c4.63,5.03,5.64,12.13,3.25,17.85Z" style="fill:#9f28d9;"/><path d="M139.22,214.19h-49.98c-2.88,0-7.14-2.25-7.14-7.14h64.26c0,2.88-2.25,7.14-7.14,7.14Z" style="fill:#f7f5ee;"/><path d="M190.01,85.67H38.46c-9.06,0-13.31-11.18-6.66-17.23L101.81,4.8c7.03-6.4,17.8-6.41,24.85,0l70.01,63.65c6.65,6.04,2.39,17.23-6.66,17.23Z" style="fill:#c782e9;"/><path d="M35.7,85.67h42.84v12.28c0,1.1-.9,2-2,2H37.7c-1.1,0-2-.9-2-2v-12.28h0Z" style="fill:#a93edd;"/><path d="M92.82,85.67h42.84v12.28c0,1.1-.9,2-2,2h-38.84c-1.1,0-2-.9-2-2v-12.28h0Z" style="fill:#a93edd;"/><path d="M37.7,178.49h38.84c1.1,0,2,.9,2,2v12.28H35.7v-12.28c0-1.1,.9-2,2-2Z" style="fill:#a93edd;"/><path d="M29.56,192.77H198.91c.55,0,1,.45,1,1v6.14H28.56v-6.14c0-.55,.45-1,1-1Z" style="fill:#9f28d9;"/><rect x="42.84" y="99.95" width="28.56" height="78.54" style="fill:#c782e9;"/><path d="M149.93,85.67h42.84v12.28c0,1.1-.9,2-2,2h-38.84c-1.1,0-2-.9-2-2v-12.28h0Z" style="fill:#a93edd;"/><path d="M151.93,178.49h38.84c1.1,0,2,.9,2,2v12.28h-42.84v-12.28c0-1.1,.9-2,2-2Z" style="fill:#a93edd;"/><path d="M94.82,178.49h38.84c1.1,0,2,.9,2,2v12.28h-42.84v-12.28c0-1.1,.9-2,2-2Z" style="fill:#a93edd;"/><rect x="157.07" y="99.95" width="28.56" height="78.54" style="fill:#c782e9;"/><circle cx="114.23" cy="49.98" r="14.28" style="fill:#f7f5ee;"/><path d="M153.5,53.55h-10.71c-1.97,0-3.57-1.6-3.57-3.57,0-1.02,.79-3.57,3.57-3.57h10.71c1.97,0,3.57,1.6,3.57,3.57,0,1.02-.79,3.57-3.57,3.57Z" style="fill:#f7f5ee;"/><path d="M85.68,53.55h-10.71c-1.97,0-3.57-1.6-3.57-3.57,0-1.02,.79-3.57,3.57-3.57h10.71c1.97,0,3.57,1.6,3.57,3.57,0,1.02-.79,3.57-3.57,3.57Z" style="fill:#f7f5ee;"/><circle cx="114.23" cy="139.22" r="46.41" style="fill:#bc69e4;"/><circle cx="114.23" cy="139.22" r="35.7" style="fill:#c885e9;"/><path d="M116.02,160.64h-5.35c-10.64,0-13.92-14.28-7.14-14.28,1.97,0,3.57,1.6,3.57,3.57,0,.71,.63,3.57,3.57,3.57h5.35c2.95,0,5.35-2.4,5.35-5.35s-2.4-5.35-5.35-5.35h-3.57c-6.89,0-12.49-5.61-12.49-12.49s5.61-12.49,12.49-12.49h5.35c10.56,0,14.07,14.28,7.14,14.28-1.97,0-3.57-1.6-3.57-3.57,0-2.94-2.86-3.57-3.57-3.57h-5.35c-2.95,0-5.35,2.4-5.35,5.35s2.4,5.35,5.35,5.35h3.57c6.89,0,12.49,5.61,12.49,12.49s-5.61,12.49-12.49,12.49Z" style="fill:#f7f5ee;"/><path d="M114.23,124.94c-1.97,0-3.57-1.6-3.57-3.57v-7.14c0-1.97,1.6-3.57,3.57-3.57s3.57,1.6,3.57,3.57v7.14c0,1.97-1.6,3.57-3.57,3.57Z" style="fill:#f7f5ee;"/><path d="M114.23,167.78c-1.97,0-3.57-1.6-3.57-3.57v-7.14c0-1.97,1.6-3.57,3.57-3.57s3.57,1.6,3.57,3.57v7.14c0,1.97-1.6,3.57-3.57,3.57Z" style="fill:#f7f5ee;"/><circle cx="17.85" cy="46.41" r="3.57" style="fill:#c885e9;"/><circle cx="32.13" cy="46.41" r="3.57" style="fill:#c885e9;"/></g></g></g></svg>