<?xml version="1.0" encoding="UTF-8"?><svg xmlns="http://www.w3.org/2000/svg" viewBox="0 0 228.47 228.53"><g id="a"/><g id="b"><g id="c"><g><path d="M228.47,114.29c0,62.76-50.73,114.23-114.23,114.23S0,177.37,0,114.29C0,56.03,43.62,7.95,99.96,.95,167.42-7.81,228.47,45.11,228.47,114.29Z" style="fill:#f7f5ee;"/><path d="M114.23,201.75v26.77C51.16,228.53,0,177.37,0,114.29H20.21c5.28,0,10.32,2.36,13.71,6.43l7.14,8.57c3.39,4.07,8.42,6.43,13.71,6.43h14.85c5.6,0,10.92,2.64,14.28,7.14,15.56,20.77,16.06,19.56,16.06,30.34,0,5.6,2.64,10.92,7.14,14.28,4.5,3.36,7.14,8.67,7.14,14.28Z" style="fill:#c885e9;"/><path d="M224.86,142.85c-2.25,8.78-5.53,17.17-9.71,24.99h-18.81c0,3.14-1.39,5.96-3.57,7.92v19.92l-6.28-1.25c-4.96-1-9-4.57-10.57-9.35l-1.36-4.07c-1.93-5.75-7.28-9.6-13.35-9.6-4.78,0-9.28-2.46-11.85-6.5l-17.31-27.24c36.15-38.98,28.84-31.12,35.88-38.63,4.67-3.59,9.81-3.24,13.53-.36,.72,.55,10.03,10.66,41.16,44.16h2.25Z" style="fill:#bc69e4;"/><path d="M228.47,114.29c0,31.36-12.72,60.52-34.34,81.68-1.81-.38-.34-.08-7.64-1.54-4.96-1-9-4.57-10.57-9.35l-1.36-4.07c-1.93-5.75-7.28-9.6-13.35-9.6-4.78,0-9.28-2.46-11.85-6.5-18.9-29.73-17.23-27.12-17.46-27.45-2.14-3.39-2.75-7.53-1.64-11.39l3.89-13.67c.96-3.36,.64-7-.96-10.14l-10.5-21.03c-1.6-3.27-2.26-3.44-17.67-16.28-3.21-2.68-5.07-6.64-5.07-10.78V.95C167.42-7.81,228.47,45.11,228.47,114.29Z" style="fill:#c885e9;"/><path d="M192.77,195.68v1.57c-20.46,19.38-48.12,31.27-78.54,31.27v-7.14c0-3.14,1.39-5.96,3.57-7.93,0-3.64-.3-7.22,3.57-10.71v-26.99c-3.92-3.53-3.57-7.42-3.57-10.71-4.05-3.65-3.57-7.71-3.57-11.49,0-5.89,4.82-10.71,10.71-10.71h2.28l4.82-5.18,17.31,27.24c2.57,4.03,7.07,6.5,11.85,6.5,6.07,0,11.42,3.86,13.35,9.6l1.36,4.07c1.57,4.78,5.6,8.35,10.57,9.35l6.28,1.25Z" style="fill:#e5e0c9;"/><path d="M224.86,142.85c-2.25,8.78-5.53,17.17-9.71,24.99h-18.81c0,3.14-1.39,5.96-3.57,7.92v19.92l-6.28-1.25c-4.96-1-9-4.57-10.57-9.35l-1.36-4.07c-1.93-5.75-7.28-9.6-13.35-9.6-4.78,0-9.28-2.46-11.85-6.5l-17.31-27.24c36.15-38.98,28.84-31.12,35.88-38.63,4.67-3.59,9.81-3.24,13.53-.36,.72,.55,10.03,10.66,41.16,44.16h2.25Z" style="fill:#bc69e4;"/><path d="M223.51,154.31l-46.41-49.98c-1.29-1-3.07-1-4.36,0-6.49,6.96,2.5-2.71-46.41,49.98-2.66,2.04-1.27,6.39,2.18,6.39h92.82c3.44,0,4.84-4.35,2.18-6.39Z" style="fill:#c782e9;"/><rect x="121.37" y="149.99" width="107.1" height="10.71" rx="1" ry="1" style="fill:#a93edd;"/><path d="M122.37,217.82h105.1c.55,0,1,.45,1,1v9.71H121.37v-9.71c0-.55,.45-1,1-1Z" style="fill:#a93edd;"/><path d="M124.94,160.7h28.56v9.71c0,.55-.45,1-1,1h-26.56c-.55,0-1-.45-1-1v-9.71h0Z" style="fill:#c782e9;"/><path d="M125.94,207.11h26.56c.55,0,1,.45,1,1v9.71h-28.56v-9.71c0-.55,.45-1,1-1Z" style="fill:#c782e9;"/><rect x="128.51" y="171.41" width="21.42" height="35.7" style="fill:#a93edd;"/><path d="M160.64,160.7h28.56v9.71c0,.55-.45,1-1,1h-26.56c-.55,0-1-.45-1-1v-9.71h0Z" style="fill:#c782e9;"/><path d="M161.64,207.11h26.56c.55,0,1,.45,1,1v9.71h-28.56v-9.71c0-.55,.45-1,1-1Z" style="fill:#c782e9;"/><rect x="164.21" y="171.41" width="21.42" height="35.7" style="fill:#a93edd;"/><path d="M196.34,160.7h28.56v9.71c0,.55-.45,1-1,1h-26.56c-.55,0-1-.45-1-1v-9.71h0Z" style="fill:#c782e9;"/><path d="M197.34,207.11h26.56c.55,0,1,.45,1,1v9.71h-28.56v-9.71c0-.55,.45-1,1-1Z" style="fill:#c782e9;"/><circle cx="174.92" cy="132.14" r="7.14" style="fill:#fff;"/><rect x="199.91" y="171.41" width="21.42" height="35.7" style="fill:#a93edd;"/></g></g></g></svg>