<?xml version="1.0" encoding="UTF-8"?><svg xmlns="http://www.w3.org/2000/svg" viewBox="0 0 228.47 228.47"><g id="a"/><g id="b"><g id="c"><g><path d="M221.33,228.47H7.14c-3.94,0-7.14-3.2-7.14-7.14,0-2.88,2.25-7.14,7.14-7.14H221.33c3.94,0,7.14,3.2,7.14,7.14,0,2.88-2.25,7.14-7.14,7.14Z" style="fill:#a93edd;"/><path d="M149.93,214.19H78.54l9.18-30.61c.91-3.02,3.69-5.09,6.84-5.09h39.35c3.15,0,5.93,2.07,6.84,5.09l9.18,30.61Z" style="fill:#c885e9;"/><path d="M114.23,178.49H42.84l9.18-30.61c.91-3.02,3.69-5.09,6.84-5.09h39.35c3.15,0,5.93,2.07,6.84,5.09l9.18,30.61Z" style="fill:#bc69e4;"/><path d="M185.63,178.49H114.23l9.18-30.61c.91-3.02,3.69-5.09,6.84-5.09h39.35c3.15,0,5.93,2.07,6.84,5.09l9.18,30.61Z" style="fill:#bc69e4;"/><path d="M149.93,142.79H78.54l9.18-30.61c.91-3.02,3.69-5.09,6.84-5.09h39.35c3.15,0,5.93,2.07,6.84,5.09l9.18,30.61Z" style="fill:#c885e9;"/><path d="M221.33,214.19h-71.4l9.18-30.61c.91-3.02,3.69-5.09,6.84-5.09h39.35c3.15,0,5.93,2.07,6.84,5.09l9.18,30.61Z" style="fill:#c885e9;"/><path d="M78.54,214.19H7.14l9.18-30.61c.91-3.02,3.69-5.09,6.84-5.09H62.51c3.15,0,5.93,2.07,6.84,5.09l9.18,30.61Z" style="fill:#c885e9;"/><circle cx="114.23" cy="53.55" r="53.55" style="fill:#bc69e4;"/><path d="M33.06,29.55c-5.61,3.05-9.65,8.54-11.06,15l-.52,2.38c-.86,3.96-6.37,4.15-7.27,0l-.52-2.38c-1.4-6.47-5.45-11.95-11.06-15-3.56-1.94-3.48-7.23,0-9.12,5.61-3.05,9.65-8.54,11.06-15l.52-2.38c.86-3.96,6.37-4.15,7.27,0l.52,2.38c1.4,6.47,5.45,11.95,11.06,15,3.56,1.94,3.48,7.23,0,9.12Z" style="fill:#c885e9;"/><path d="M225.83,36.69c-5.61,3.05-9.65,8.54-11.06,15l-.52,2.38c-.86,3.96-6.37,4.15-7.27,0l-.52-2.38c-1.4-6.47-5.45-11.95-11.06-15-3.56-1.94-3.48-7.23,0-9.12,5.61-3.05,9.65-8.54,11.06-15l.52-2.38c.86-3.96,6.37-4.15,7.27,0l.52,2.38c1.4,6.47,5.45,11.95,11.06,15,3.56,1.94,3.48,7.23,0,9.12Z" style="fill:#c885e9;"/><circle cx="114.23" cy="53.55" r="42.84" style="fill:#c885e9;"/><path d="M116.02,82.11h-5.35c-7.87,0-14.28-6.4-14.28-14.28,0-1.97,1.6-3.57,3.57-3.57s3.57,1.6,3.57,3.57c0,3.94,3.2,7.14,7.14,7.14h5.35c4.92,0,8.92-4,8.92-8.92s-4-8.92-8.92-8.92h-3.57c-8.86,0-16.06-7.21-16.06-16.06s7.21-16.06,16.06-16.06h5.35c7.87,0,14.28,6.4,14.28,14.28,0,1.97-1.6,3.57-3.57,3.57s-3.57-1.6-3.57-3.57c0-3.94-3.2-7.14-7.14-7.14h-5.35c-4.92,0-8.92,4-8.92,8.92s4,8.92,8.92,8.92h3.57c8.86,0,16.06,7.21,16.06,16.06s-7.21,16.06-16.06,16.06Z" style="fill:#f7f5ee;"/><path d="M114.23,89.25c-1.97,0-3.57-1.6-3.57-3.57V21.42c0-1.97,1.6-3.57,3.57-3.57s3.57,1.6,3.57,3.57V85.68c0,1.97-1.6,3.57-3.57,3.57Z" style="fill:#f7f5ee;"/><path d="M35.7,146.36c-1.98,0-1.94-.46-10.71-9.23l-8.19,8.19c-1.39,1.39-3.65,1.39-5.05,0s-1.39-3.65,0-5.05l10.71-10.71c1.39-1.39,3.65-1.39,5.05,0l10.71,10.71c2.26,2.26,.62,6.09-2.52,6.09Z" style="fill:#c782e9;"/><path d="M24.99,164.21c-1.97,0-3.57-1.6-3.57-3.57v-24.99c0-1.97,1.6-3.57,3.57-3.57s3.57,1.6,3.57,3.57v24.99c0,1.97-1.6,3.57-3.57,3.57Z" style="fill:#c782e9;"/><path d="M49.98,78.54c-1.98,0-1.94-.46-10.71-9.23l-8.19,8.19c-1.39,1.39-3.65,1.39-5.05,0s-1.39-3.65,0-5.05l10.71-10.71c1.39-1.39,3.65-1.39,5.05,0l10.71,10.71c2.26,2.26,.62,6.09-2.52,6.09Z" style="fill:#c782e9;"/><path d="M39.27,96.39c-1.97,0-3.57-1.6-3.57-3.57v-24.99c0-1.97,1.6-3.57,3.57-3.57s3.57,1.6,3.57,3.57v24.99c0,1.97-1.6,3.57-3.57,3.57Z" style="fill:#c782e9;"/><path d="M203.48,92.82c-1.98,0-1.94-.46-10.71-9.23l-8.19,8.19c-1.39,1.39-3.65,1.39-5.05,0s-1.39-3.65,0-5.05l10.71-10.71c1.39-1.39,3.65-1.39,5.05,0l10.71,10.71c2.26,2.26,.62,6.09-2.52,6.09Z" style="fill:#c782e9;"/><path d="M192.77,110.66c-1.97,0-3.57-1.6-3.57-3.57v-24.99c0-1.97,1.6-3.57,3.57-3.57s3.57,1.6,3.57,3.57v24.99c0,1.97-1.6,3.57-3.57,3.57Z" style="fill:#c782e9;"/></g></g></g></svg>