<?xml version="1.0" encoding="UTF-8"?><svg xmlns="http://www.w3.org/2000/svg" viewBox="0 0 228.47 228.47"><g id="a"/><g id="b"><g id="c"><g><path d="M171.35,42.84V214.19c0,7.61-6.15,14.28-14.28,14.28H14.28c-7.89,0-14.28-6.39-14.28-14.28V14.28C0,6.39,6.39,0,14.28,0h114.23l42.84,42.84Z" style="fill:#f7f5ee;"/><path d="M146.36,99.96H24.99c-1.96,0-3.57,1.61-3.57,3.57v85.68c0,1.96,1.61,3.57,3.57,3.57h121.37c1.96,0,3.57-1.61,3.57-3.57V103.53c0-1.96-1.61-3.57-3.57-3.57Zm-89.25,7.14h85.68v14.28H57.12v-14.28Zm-7.14,78.54H28.56v-14.28h21.42v14.28Zm0-21.42H28.56v-14.28h21.42v14.28Zm0-21.42H28.56v-14.28h21.42v14.28Zm0-21.42H28.56v-14.28h21.42v14.28Zm92.82,64.26H57.12v-14.28h85.68v14.28Zm0-21.42H57.12v-14.28h85.68v14.28Zm0-21.42H57.12v-14.28h85.68v14.28Z" style="fill:#c782e9;"/><path d="M37.48,49.98h-3.57c-2.96,0-5.35-2.39-5.35-5.35s2.39-5.35,5.35-5.35h5.35c1.96,0,3.57,1.61,3.57,3.57s1.61,3.57,3.57,3.57c6.77,0,3.5-14.28-7.14-14.28v-3.57c0-1.97-1.6-3.57-3.57-3.57s-3.57,1.6-3.57,3.57v3.75c-6.04,.88-10.71,6.04-10.71,12.31,0,6.89,5.6,12.49,12.49,12.49h3.57c5.31,0,7.28,6.85,3.07,9.75-1.81,1.28-3.35,.96-8.42,.96-1.96,0-3.57-1.61-3.57-3.57s-1.61-3.57-3.57-3.57c-6.77,0-3.5,14.28,7.14,14.28v3.57c0,1.97,1.6,3.57,3.57,3.57s3.57-1.6,3.57-3.57v-3.71c6.71-1.13,10.71-6.57,10.71-12.36,0-6.73-5.46-12.49-12.49-12.49Z" style="fill:#c885e9;"/><path d="M171.35,42.84h-35.7c-3.94,0-7.14-3.2-7.14-7.14V0l42.84,42.84Z" style="fill:#e5e0c9;"/><rect x="64.26" y="57.12" width="64.26" height="7.14" style="fill:#e5e0c9;"/><rect x="64.26" y="74.97" width="49.98" height="7.14" style="fill:#e5e0c9;"/><path d="M171.35,128.51v85.68c0,2.61-.71,5.03-1.93,7.14h-15.92c0,2.61-.71,5.03-1.93,7.14h-35.41c-1.72-2.99-1.93-5.31-1.93-8.35-1.9-.9-1.22-.54-7.92-5-3.96-2.68-6.35-7.1-6.35-11.89v-10.46h46.41c1.96,0,3.57-1.61,3.57-3.57v-60.69h21.42Z" style="fill:#e5e0c9;"/><path d="M142.79,171.35v14.28h-42.84c0-5.82,3.53-10.82,8.53-13.07l.54-1.21h33.77Z" style="fill:#e5e0c9;"/><polygon points="142.79 149.93 142.79 164.21 112.06 164.21 118.2 149.93 142.79 149.93" style="fill:#e5e0c9;"/><path d="M142.79,128.51v14.28h-21.56l2.43-5.64c2.25-5.25,7.43-8.64,13.14-8.64h6Z" style="fill:#e5e0c9;"/><path d="M149.93,128.51v60.69c0,1.96-1.61,3.57-3.57,3.57-51.68,0-46.56,.13-46.41-.29v-6.85h42.84v-14.28h-33.77l3.03-7.14h30.74v-14.28h-24.6l3.03-7.14h21.56v-14.28h7.14Z" style="fill:#a93edd;"/><path d="M110.66,185.63l19.56-45.65c1.13-2.63,3.71-4.33,6.56-4.33h61.98c2.86,0,5.44,1.7,6.56,4.33l19.56,45.65H110.66Z" style="fill:#c782e9;"/><polygon points="121.49 178.49 136.79 142.79 198.77 142.79 214.07 178.49 121.49 178.49" style="fill:#dcb0f1;"/><path d="M46.41,214.19H24.99c-1.97,0-3.57-1.6-3.57-3.57s1.6-3.57,3.57-3.57h21.42c1.97,0,3.57,1.6,3.57,3.57s-1.6,3.57-3.57,3.57Z" style="fill:#dcb0f1;"/><path d="M228.47,185.63v17.6c0,2.39-1.19,4.62-3.18,5.94l-5.73,3.82c-1.17,.78-2.55,1.2-3.96,1.2H119.97c-1.41,0-2.79-.42-3.96-1.2l-5.73-3.82c-1.99-1.32-3.18-3.55-3.18-5.94v-17.6c0-3.94,3.2-7.14,7.14-7.14h107.1c3.94,0,7.14,3.2,7.14,7.14Z" style="fill:#a93edd;"/><path d="M121.37,214.19h24.99v12.28c0,1.1-.9,2-2,2h-20.99c-1.1,0-2-.9-2-2v-12.28h0Z" style="fill:#c885e9;"/><path d="M189.2,214.19h24.99v12.28c0,1.1-.9,2-2,2h-20.99c-1.1,0-2-.9-2-2v-12.28h0Z" style="fill:#c885e9;"/><path d="M186.18,207.05h-36.79c-1.75,0-3.23-1.26-3.52-2.98l-2.38-14.28c-.36-2.18,1.32-4.16,3.52-4.16h41.55c2.21,0,3.88,1.98,3.52,4.16l-2.38,14.28c-.29,1.72-1.78,2.98-3.52,2.98Z" style="fill:#f7f5ee;"/><rect x="139.22" y="192.77" width="57.12" height="7.14" style="fill:#a93edd;"/><rect x="199.91" y="189.2" width="17.85" height="14.28" rx="1" ry="1" style="fill:#f7f5ee;"/><rect x="117.8" y="189.2" width="17.85" height="14.28" rx="1" ry="1" style="fill:#f7f5ee;"/></g></g></g></svg>