<?xml version="1.0" encoding="UTF-8"?><svg xmlns="http://www.w3.org/2000/svg" viewBox="0 0 228.47 178.49"><g id="a"/><g id="b"><g id="c"><g><circle cx="114.23" cy="89.25" r="89.25" style="fill:#c782e9;"/><path d="M99.08,126.9l-11.65,26.21c-1.08,2.43-3.42,4.06-6.08,4.23l-23.06,1.44c-20.31-16.35-33.31-41.41-33.31-69.54,0-17.54,4.78-27.97,4.78-28.88,11.41-2.84,12.45-3.51,15.27-2.3l19.53,8.37c2.05,.88,3.57,2.67,4.11,4.83l5.33,21.32c.59,2.37,2.35,4.27,4.67,5.04l13.62,4.54c2.51,.84,4.35,2.99,4.78,5.6,2.68,16.09,3.15,16.53,1.99,19.14Z" style="fill:#a93edd;"/><path d="M187.59,140.04l-15.86-3.52c-2.45-.54-4.43-2.33-5.23-4.71l-1.28-3.83c-.64-1.93-2.09-3.5-3.96-4.3l-19.09-8.18c-1.87-.8-3.32-2.37-3.96-4.3l-12.44-37.32c-.53-1.6-.48-3.34,.14-4.91l4.2-10.5c1.17-2.92,.29-6.26-2.17-8.23l-11.03-8.83c-1.69-1.35-2.68-3.41-2.68-5.58V0c72.77,0,113.77,81.95,73.36,140.04Z" style="fill:#a93edd;"/><path d="M97.1,107.77l2.21,13.39c-23.1-.64-50.3-2.86-70.9-7.39-2.28-7.96-3.31-15.82-3.39-22.95,14.36,3.59,30.18,6.67,58.05,8.28l9.25,3.07c2.5,.82,4.36,3,4.78,5.6Z" style="fill:#9f28d9;"/><path d="M203.44,90.82c0,6.07-1,14.34-3.39,22.95-13.89,3.07-30.77,5.07-47.37,6.25l-10.5-4.53c-1.89-.79-3.32-2.36-3.96-4.28l-3.86-11.6c23.93-.86,46.04-3.03,69.08-8.78Z" style="fill:#9f28d9;"/><path d="M155.72,121.3c-7.35,28.82-41.03,41.23-65.26,24.99,9.36-21,9.65-20.67,9.14-23.45l-2.5-15.06c-.43-2.61-2.28-4.78-4.78-5.6l-13.64-4.53c-1.75-.61-3.14-1.78-4-3.39v-.04c8.41-20.18,30.73-30.71,51.12-24.77-.5,1.43-.54,3-.04,4.46l12.46,37.3c.64,1.93,2.07,3.5,3.96,4.28l13.53,5.82Z" style="fill:#a93edd;"/><path d="M99.6,122.84c.52,2.81,.27,2.34-9.14,23.45-17.26-11.58-23.59-33.56-15.78-52.05,.86,1.61,2.25,2.78,4,3.39l13.64,4.53c2.5,.82,4.36,3,4.78,5.6l2.5,15.06Z" style="fill:#9f28d9;"/><path d="M155.72,121.3l-13.53-5.82c-1.89-.79-3.32-2.36-3.96-4.28l-12.46-37.3c-.5-1.46-.46-3.03,.04-4.46,22.38,6.25,35.76,29.42,29.92,51.87Z" style="fill:#9f28d9;"/><circle cx="114.23" cy="110.66" r="35.7" style="fill:#c885e9;"/><path d="M201.87,72.43c.5,2.53,.89,5.14,1.14,7.75,12.07,3.18,18.31,6.6,18.31,9.07s-6.25,5.89-18.31,9.07c-44.64,11.75-133.01,11.73-177.56,0-12.07-3.18-18.31-6.6-18.31-9.07s6.25-5.89,18.31-9.07c.25-2.61,.64-5.21,1.14-7.75C10.89,76.25,0,81.68,0,89.25s10.89,12.99,26.6,16.81c58.88,14.33,201.87,10.05,201.87-16.81,0-7.57-10.89-12.99-26.6-16.81Z" style="fill:#c885e9;"/><path d="M116.02,132.08h-5.35c-10.64,0-13.92-14.28-7.14-14.28,1.97,0,3.57,1.6,3.57,3.57,0,.71,.63,3.57,3.57,3.57h5.35c2.95,0,5.35-2.4,5.35-5.35s-2.4-5.35-5.35-5.35h-3.57c-6.89,0-12.49-5.61-12.49-12.49s5.61-12.49,12.49-12.49h5.35c10.56,0,14.07,14.28,7.14,14.28-1.97,0-3.57-1.6-3.57-3.57,0-2.94-2.86-3.57-3.57-3.57h-5.35c-2.95,0-5.35,2.4-5.35,5.35s2.4,5.35,5.35,5.35h3.57c6.89,0,12.49,5.61,12.49,12.49s-5.61,12.49-12.49,12.49Z" style="fill:#f7f5ee;"/><path d="M114.23,96.39c-1.97,0-3.57-1.6-3.57-3.57v-7.14c0-1.97,1.6-3.57,3.57-3.57s3.57,1.6,3.57,3.57v7.14c0,1.97-1.6,3.57-3.57,3.57Z" style="fill:#f7f5ee;"/><path d="M114.23,139.22c-1.97,0-3.57-1.6-3.57-3.57v-7.14c0-1.97,1.6-3.57,3.57-3.57s3.57,1.6,3.57,3.57v7.14c0,1.97-1.6,3.57-3.57,3.57Z" style="fill:#f7f5ee;"/></g></g></g></svg>