<?xml version="1.0" encoding="UTF-8"?><svg xmlns="http://www.w3.org/2000/svg" viewBox="0 0 228.47 214.19"><g id="a"/><g id="b"><g id="c"><g><path d="M228.47,35.7v124.94c0,5.93-4.78,10.71-10.71,10.71H10.71c-5.93,0-10.71-4.78-10.71-10.71V35.7H228.47Z" style="fill:#a93edd;"/><rect width="228.47" height="135.65" rx="10.71" ry="10.71" style="fill:#c782e9;"/><g><path d="M0,14.28v3.57c0-1.26,.26-2.45,.65-3.57H0Z" style="fill:#9f28d9;"/><path d="M227.82,14.28c.4,1.12,.65,2.31,.65,3.57v-3.57h-.65Z" style="fill:#9f28d9;"/><path d="M217.76,142.79H10.71c-5.93,0-10.71-4.78-10.71-10.71v7.14c0,5.93,4.78,10.71,10.71,10.71H217.76c5.93,0,10.71-4.78,10.71-10.71v-7.14c0,5.93-4.78,10.71-10.71,10.71Z" style="fill:#9f28d9;"/></g><g><path d="M0,28.56v3.57c0-1.26,.26-2.45,.65-3.57H0Z" style="fill:#9f28d9;"/><path d="M227.82,28.56c.4,1.12,.65,2.31,.65,3.57v-3.57h-.65Z" style="fill:#9f28d9;"/><path d="M217.76,157.07H10.71c-5.93,0-10.71-4.78-10.71-10.71v7.14c0,5.93,4.78,10.71,10.71,10.71H217.76c5.93,0,10.71-4.78,10.71-10.71v-7.14c0,5.93-4.78,10.71-10.71,10.71Z" style="fill:#9f28d9;"/></g><path d="M214.19,35.7V99.96c-11.82,0-21.42,9.6-21.42,21.42H35.7c0-11.82-9.6-21.42-21.42-21.42V35.7c11.82,0,21.42-9.6,21.42-21.42H192.77c0,11.82,9.6,21.42,21.42,21.42Z" style="fill:#dcb0f1;"/><ellipse cx="114.23" cy="67.83" rx="35.7" ry="39.27" style="fill:#c782e9;"/><rect x="89.25" width="49.98" height="14.28" style="fill:#a93edd;"/><rect x="89.25" y="121.37" width="49.98" height="14.28" style="fill:#a93edd;"/><path d="M139.22,14.28v25.52c-13.84-15-36.14-15-49.98,0V14.28h49.98Z" style="fill:#c782e9;"/><path d="M139.22,95.85v25.52h-49.98v-25.52c13.84,15,36.14,15,49.98,0Z" style="fill:#c782e9;"/><path d="M139.22,39.8v56.05c-13.84,15-36.14,15-49.98,0V39.8c13.84-15,36.14-15,49.98,0Z" style="fill:#a93edd;"/><rect x="96.39" width="35.7" height="135.65" style="fill:#e5e0c9;"/><rect x="89.25" y="135.65" width="49.98" height="35.7" style="fill:#9f28d9;"/><rect x="96.39" y="135.65" width="35.7" height="35.7" style="fill:#e5e0c9;"/><path d="M60.69,71.4h-21.42c-1.97,0-3.57-1.6-3.57-3.57,0-1.02,.79-3.57,3.57-3.57h21.42c1.97,0,3.57,1.6,3.57,3.57,0,1.02-.79,3.57-3.57,3.57Z" style="fill:#c782e9;"/><path d="M189.2,71.4h-21.42c-1.97,0-3.57-1.6-3.57-3.57,0-1.02,.79-3.57,3.57-3.57h21.42c1.97,0,3.57,1.6,3.57,3.57,0,1.02-.79,3.57-3.57,3.57Z" style="fill:#c782e9;"/><path d="M88.75,171.35h-22.45c-2.61-10.72-2.03-17.13-2.03-35.7h36.59l-15.17,6.89c0,11.8-.66,18.88,3.07,28.81Z" style="fill:#9f28d9;"/><path d="M164.21,135.65c0,17.1,.59,24.92-2.03,35.7h-22.45c3.74-9.95,3.07-16.88,3.07-28.81l-15.17-6.89h36.59Z" style="fill:#9f28d9;"/><path d="M153.5,135.65v18.9c0,24.95-15.56,47.44-39.27,56.06-23.45-8.53-39.27-30.84-39.27-56.06v-18.9l39.27-17.85,39.27,17.85Z" style="fill:#c885e9;"/><path d="M113.01,213.97c-24.89-9.05-41.62-32.93-41.62-59.42v-18.9c0-1.4,.82-2.67,2.09-3.25l39.27-17.85c.94-.43,2.02-.43,2.95,0l39.27,17.85c1.28,.58,2.09,1.85,2.09,3.25v18.9c0,26.49-16.72,50.37-41.62,59.42-.79,.29-1.65,.29-2.44,0Zm-34.48-76.02v16.6c0,23.06,14.29,43.89,35.7,52.25,21.41-8.36,35.7-29.19,35.7-52.25v-16.6l-35.7-16.22-35.7,16.22Z" style="fill:#bc69e4;"/><path d="M106.36,177.45l-10.71-10.71c-1.39-1.39-1.39-3.65,0-5.05s3.65-1.39,5.05,0l8.19,8.19,18.9-18.9c1.39-1.39,3.65-1.39,5.05,0s1.39,3.65,0,5.05l-21.42,21.42c-1.39,1.39-3.65,1.39-5.05,0Z" style="fill:#f7f5ee;"/></g></g></g></svg>