<?xml version="1.0" encoding="UTF-8"?><svg xmlns="http://www.w3.org/2000/svg" viewBox="0 0 228.47 228.47"><g id="a"/><g id="b"><g id="c"><g><rect y="107.09" width="164.21" height="121.37" rx="14.28" ry="14.28" style="fill:#c782e9;"/><rect y="124.94" width="164.21" height="35.7" style="fill:#a93edd;"/><path d="M164.21,121.37v3.57H57.12v-17.85h92.82c7.89,0,14.28,6.39,14.28,14.28Z" style="fill:#a93edd;"/><path d="M164.21,124.94v35.7H78.54c-11.82,0-21.42-9.6-21.42-21.42v-14.28h107.1Z" style="fill:#9f28d9;"/><path d="M228.47,46.41v92.82c0,7.89-6.39,14.28-14.28,14.28H78.54c-7.89,0-14.28-6.39-14.28-14.28V46.41c0-8.13,6.67-14.28,14.28-14.28H214.19c7.89,0,14.28,6.39,14.28,14.28Z" style="fill:#dcb0f1;"/><rect x="171.35" y="46.41" width="42.84" height="28.56" rx="2" ry="2" style="fill:#c885e9;"/><path d="M117.8,49.98c0,1.96-1.61,3.57-3.57,3.57h-35.7c-1.96,0-3.57-1.61-3.57-3.57s1.61-3.57,3.57-3.57h35.7c1.96,0,3.57,1.61,3.57,3.57Z" style="fill:#c782e9;"/><path d="M78.54,46.41c-1.96,0-3.57,1.61-3.57,3.57s1.61,3.57,3.57,3.57h12.99c.46-2.32,.82-4.71,.96-7.14h-13.96Z" style="fill:#a93edd;"/><path d="M92.82,32.13c0,7.77,.09,10.43-.32,14.28h-13.96c-1.96,0-3.57,1.61-3.57,3.57s1.61,3.57,3.57,3.57h12.99c-3.36,17.39-13.17,32.91-27.27,43.34v-31.27c7.44-12.26,7.14-22.11,7.14-31.56,4.43-2.55,6.95-1.93,21.42-1.93Z" style="fill:#c782e9;"/><path d="M99.96,67.83h14.28c1.97,0,3.57-1.6,3.57-3.57,0-1.02-.79-3.57-3.57-3.57h-14.28c-1.97,0-3.57,1.6-3.57,3.57,0,1.02,.79,3.57,3.57,3.57Z" style="fill:#c782e9;"/><path d="M82.11,21.42v18.9c0,24.95-15.56,47.44-39.27,56.06C19.39,87.86,3.57,65.54,3.57,40.32V21.42L42.84,3.57l39.27,17.85Z" style="fill:#c885e9;"/><path d="M41.62,99.74C16.72,90.69,0,66.81,0,40.32V21.42c0-1.4,.82-2.67,2.09-3.25L41.36,.32c.94-.43,2.02-.43,2.95,0l39.27,17.85c1.28,.58,2.09,1.85,2.09,3.25v18.9c0,26.49-16.72,50.37-41.62,59.42-.79,.29-1.65,.29-2.44,0ZM7.14,23.71v16.6c0,23.06,14.29,43.89,35.7,52.25,21.41-8.36,35.7-29.19,35.7-52.25V23.71L42.84,7.49,7.14,23.71Z" style="fill:#bc69e4;"/><circle cx="96.39" cy="121.37" r="17.85" style="fill:#c782e9;"/><circle cx="117.8" cy="121.37" r="17.85" style="fill:#c885e9;"/><path d="M146.36,96.38h-7.14c-1.97,0-3.57-1.6-3.57-3.57,0-1.02,.79-3.57,3.57-3.57h7.14c1.97,0,3.57,1.6,3.57,3.57,0,1.02-.79,3.57-3.57,3.57Z" style="fill:#c782e9;"/><path d="M167.78,96.38h-7.14c-1.97,0-3.57-1.6-3.57-3.57,0-1.02,.79-3.57,3.57-3.57h7.14c1.97,0,3.57,1.6,3.57,3.57,0,1.02-.79,3.57-3.57,3.57Z" style="fill:#c782e9;"/><path d="M189.2,96.38h-7.14c-1.97,0-3.57-1.6-3.57-3.57,0-1.02,.79-3.57,3.57-3.57h7.14c1.97,0,3.57,1.6,3.57,3.57,0,1.02-.79,3.57-3.57,3.57Z" style="fill:#c782e9;"/><path d="M210.62,96.38h-7.14c-1.97,0-3.57-1.6-3.57-3.57,0-1.02,.79-3.57,3.57-3.57h7.14c1.97,0,3.57,1.6,3.57,3.57,0,1.02-.79,3.57-3.57,3.57Z" style="fill:#c782e9;"/><path d="M203.48,139.22c-6.81,0-3.48-14.28,7.14-14.28,1.97,0,3.57,1.6,3.57,3.57s-1.6,3.57-3.57,3.57-3.57,1.6-3.57,3.57-1.6,3.57-3.57,3.57Z" style="fill:#c782e9;"/><path d="M189.2,139.22c-1.97,0-3.57-1.6-3.57-3.57,0-13.78,11.21-24.99,24.99-24.99,1.97,0,3.57,1.6,3.57,3.57s-1.6,3.57-3.57,3.57c-9.84,0-17.85,8.01-17.85,17.85,0,1.97-1.6,3.57-3.57,3.57Z" style="fill:#c782e9;"/><path d="M40.31,63.21l-10.71-10.71c-1.39-1.39-1.39-3.65,0-5.05s3.65-1.39,5.05,0l8.19,8.19,18.9-18.9c1.39-1.39,3.65-1.39,5.05,0s1.39,3.65,0,5.05l-21.42,21.42c-1.39,1.39-3.65,1.39-5.05,0Z" style="fill:#f7f5ee;"/><rect x="10.71" y="171.35" width="92.82" height="21.42" rx="2" ry="2" style="fill:#f7f5ee;"/><path d="M28.56,185.63h-7.14c-1.97,0-3.57-1.6-3.57-3.57,0-1.02,.79-3.57,3.57-3.57h7.14c1.97,0,3.57,1.6,3.57,3.57,0,1.02-.79,3.57-3.57,3.57Z" style="fill:#e5e0c9;"/><path d="M49.98,185.63h-7.14c-1.97,0-3.57-1.6-3.57-3.57,0-1.02,.79-3.57,3.57-3.57h7.14c1.97,0,3.57,1.6,3.57,3.57,0,1.02-.79,3.57-3.57,3.57Z" style="fill:#e5e0c9;"/><path d="M71.4,185.63h-7.14c-1.97,0-3.57-1.6-3.57-3.57,0-1.02,.79-3.57,3.57-3.57h7.14c1.97,0,3.57,1.6,3.57,3.57,0,1.02-.79,3.57-3.57,3.57Z" style="fill:#e5e0c9;"/><path d="M92.82,185.63h-7.14c-1.97,0-3.57-1.6-3.57-3.57,0-1.02,.79-3.57,3.57-3.57h7.14c1.97,0,3.57,1.6,3.57,3.57,0,1.02-.79,3.57-3.57,3.57Z" style="fill:#e5e0c9;"/></g></g></g></svg>