<?xml version="1.0" encoding="UTF-8"?><svg xmlns="http://www.w3.org/2000/svg" viewBox="0 0 185.63 228.53"><g id="a"/><g id="b"><g id="c"><g><path d="M164.21,28.56V199.91c0,12.99-8.67,23.95-20.53,27.42-5.44,1.61-1.4,1.14-93.71,1.14-15.78,0-28.56-12.78-28.56-28.56V28.56C21.42,12.78,34.2,0,49.98,0h85.68c15.78,0,28.56,12.78,28.56,28.56Z" style="fill:#c782e9;"/><path d="M153.5,32.13V192.77c0,11.82-9.6,21.42-21.42,21.42H53.55c-11.82,0-21.42-9.6-21.42-21.42V32.13c0-11.82,9.6-21.42,21.42-21.42h11.74c1.54,0,2.89,.96,3.36,2.43l1.11,3.39c1,2.93,3.71,4.89,6.78,4.89h32.56c3.07,0,5.78-1.96,6.78-4.89l1.11-3.36c.46-1.46,1.86-2.46,3.39-2.46h11.71c11.82,0,21.42,9.6,21.42,21.42Z" style="fill:#fff;"/><rect x="153.5" y="132.08" width="10.71" height="57.12" style="fill:#a93edd;"/><rect x="21.42" y="132.08" width="10.71" height="57.12" style="fill:#a93edd;"/><rect x="32.13" y="132.08" width="121.37" height="57.12" style="fill:#f7f5ee;"/><rect y="139.22" width="185.63" height="42.84" rx="2" ry="2" style="fill:#e5e0c9;"/><path d="M28.56,174.92c-1.97,0-3.57-1.6-3.57-3.57v-21.42c0-1.97,1.6-3.57,3.57-3.57s3.57,1.6,3.57,3.57v21.42c0,1.97-1.6,3.57-3.57,3.57Z" style="fill:#f7f5ee;"/><path d="M37.83,169.57c-1.36,0-.35,.35-20.33-11.19-1.71-.99-2.29-3.17-1.31-4.88,.99-1.71,3.17-2.29,4.88-1.31l18.55,10.71c3.16,1.82,1.85,6.66-1.79,6.66Z" style="fill:#f7f5ee;"/><path d="M19.29,169.57c-3.64,0-4.94-4.84-1.79-6.66l18.55-10.71c1.7-.98,3.89-.4,4.88,1.31,.99,1.71,.4,3.89-1.31,4.88-20.01,11.55-18.98,11.19-20.33,11.19Z" style="fill:#f7f5ee;"/><path d="M71.4,174.92c-1.97,0-3.57-1.6-3.57-3.57v-21.42c0-1.97,1.6-3.57,3.57-3.57s3.57,1.6,3.57,3.57v21.42c0,1.97-1.6,3.57-3.57,3.57Z" style="fill:#f7f5ee;"/><path d="M80.67,169.57c-1.36,0-.35,.35-20.33-11.19-1.71-.99-2.29-3.17-1.31-4.88,.99-1.71,3.17-2.29,4.88-1.31l18.55,10.71c3.16,1.82,1.85,6.66-1.79,6.66Z" style="fill:#f7f5ee;"/><path d="M62.13,169.57c-3.64,0-4.94-4.84-1.79-6.66l18.55-10.71c1.7-.98,3.89-.4,4.88,1.31,.99,1.71,.4,3.89-1.31,4.88-20.01,11.55-18.98,11.19-20.33,11.19Z" style="fill:#f7f5ee;"/><path d="M114.23,174.92c-1.97,0-3.57-1.6-3.57-3.57v-21.42c0-1.97,1.6-3.57,3.57-3.57s3.57,1.6,3.57,3.57v21.42c0,1.97-1.6,3.57-3.57,3.57Z" style="fill:#f7f5ee;"/><path d="M123.5,169.57c-1.36,0-.35,.35-20.33-11.19-1.71-.99-2.29-3.17-1.31-4.88,.99-1.71,3.17-2.29,4.88-1.31l18.55,10.71c3.16,1.82,1.85,6.66-1.79,6.66Z" style="fill:#f7f5ee;"/><path d="M104.97,169.57c-3.64,0-4.94-4.84-1.79-6.66l18.55-10.71c1.7-.98,3.89-.4,4.88,1.31,.99,1.71,.4,3.89-1.31,4.88-20.01,11.55-18.98,11.19-20.33,11.19Z" style="fill:#f7f5ee;"/><path d="M157.07,174.92c-1.97,0-3.57-1.6-3.57-3.57v-21.42c0-1.97,1.6-3.57,3.57-3.57s3.57,1.6,3.57,3.57v21.42c0,1.97-1.6,3.57-3.57,3.57Z" style="fill:#f7f5ee;"/><path d="M166.34,169.57c-1.36,0-.35,.35-20.33-11.19-1.71-.99-2.29-3.17-1.31-4.88,.99-1.71,3.17-2.29,4.88-1.31l18.55,10.71c3.16,1.82,1.85,6.66-1.79,6.66Z" style="fill:#f7f5ee;"/><path d="M147.8,169.57c-3.64,0-4.94-4.84-1.79-6.66l18.55-10.71c1.7-.98,3.89-.4,4.88,1.31,.99,1.71,.4,3.89-1.31,4.88-20.01,11.55-18.98,11.19-20.33,11.19Z" style="fill:#f7f5ee;"/><path d="M128.51,207.05H57.12c-1.97,0-3.57-1.6-3.57-3.57,0-1.02,.79-3.57,3.57-3.57h71.4c1.97,0,3.57,1.6,3.57,3.57,0,1.02-.79,3.57-3.57,3.57Z" style="fill:#e5e0c9;"/><circle cx="92.82" cy="78.54" r="42.84" style="fill:#bc69e4;"/><circle cx="92.82" cy="78.54" r="35.7" style="fill:#c885e9;"/><path d="M94.6,99.96h-5.35c-10.63,0-13.93-14.28-7.14-14.28,1.97,0,3.57,1.6,3.57,3.57,0,.71,.63,3.57,3.57,3.57h5.35c2.95,0,5.35-2.4,5.35-5.35s-2.4-5.35-5.35-5.35h-3.57c-6.89,0-12.49-5.61-12.49-12.49s5.61-12.49,12.49-12.49h5.35c10.56,0,14.07,14.28,7.14,14.28-1.97,0-3.57-1.6-3.57-3.57,0-2.94-2.86-3.57-3.57-3.57h-5.35c-2.95,0-5.35,2.4-5.35,5.35s2.4,5.35,5.35,5.35h3.57c6.89,0,12.49,5.61,12.49,12.49s-5.61,12.49-12.49,12.49Z" style="fill:#f7f5ee;"/><path d="M92.82,64.26c-1.97,0-3.57-1.6-3.57-3.57v-7.14c0-1.97,1.6-3.57,3.57-3.57s3.57,1.6,3.57,3.57v7.14c0,1.97-1.6,3.57-3.57,3.57Z" style="fill:#f7f5ee;"/><path d="M92.82,107.1c-1.97,0-3.57-1.6-3.57-3.57v-7.14c0-1.97,1.6-3.57,3.57-3.57s3.57,1.6,3.57,3.57v7.14c0,1.97-1.6,3.57-3.57,3.57Z" style="fill:#f7f5ee;"/><circle cx="139.22" cy="28.56" r="3.57" style="fill:#e5e0c9;"/><circle cx="124.94" cy="28.56" r="3.57" style="fill:#e5e0c9;"/></g></g></g></svg>