<?xml version="1.0" encoding="UTF-8"?><svg xmlns="http://www.w3.org/2000/svg" viewBox="0 0 228.47 228.47"><g id="a"/><g id="b"><g id="c"><g><rect x="42.84" width="142.79" height="228.47" rx="28.56" ry="28.56" style="fill:#a93edd;"/><path d="M174.92,32.13V192.77c0,11.82-9.6,21.42-21.42,21.42H74.97c-11.82,0-21.42-9.6-21.42-21.42V32.13c0-11.82,9.6-21.42,21.42-21.42h11.74c1.54,0,2.89,.96,3.36,2.43l1.11,3.39c1,2.93,3.71,4.89,6.78,4.89h32.56c3.07,0,5.78-1.96,6.78-4.89l1.11-3.36c.46-1.46,1.86-2.46,3.39-2.46h11.71c11.82,0,21.42,9.6,21.42,21.42Z" style="fill:#fff;"/><rect x="42.84" y="32.13" width="10.71" height="64.26" style="fill:#9f28d9;"/><path d="M107.1,46.41v35.7c0,7.89-6.39,14.28-14.28,14.28l-2.86,3.82c-5.73,7.61-17.11,7.62-22.85,0l-2.86-3.82h-10.71V32.13h39.27c7.89,0,14.28,6.39,14.28,14.28Z" style="fill:#f7f5ee;"/><path d="M0,46.41v35.7c0,3.94,3.2,7.14,7.14,7.14h57.12c2.25,0,4.36,1.06,5.71,2.86l2.86,3.81c2.86,3.81,8.57,3.81,11.42,0l2.86-3.81c1.35-1.8,3.46-2.86,5.71-2.86,2.88,0,7.14-2.25,7.14-7.14V46.41c0-3.94-3.2-7.14-7.14-7.14H7.14c-3.94,0-7.14,3.2-7.14,7.14Z" style="fill:#c782e9;"/><rect x="174.92" y="82.11" width="10.71" height="96.39" style="fill:#9f28d9;"/><path d="M174.92,82.11v96.39h-10.71l-2.86,3.82c-5.73,7.61-17.11,7.62-22.85,0l-2.86-3.82c-7.89,0-14.28-6.39-14.28-14.28V96.39c0-7.89,6.39-14.28,14.28-14.28h39.27Z" style="fill:#f7f5ee;"/><path d="M128.51,96.39v67.83c0,3.94,3.2,7.14,7.14,7.14,2.98,0,4.88,1.74,5.71,2.86l2.86,3.81c2.86,3.81,8.57,3.81,11.42,0l2.86-3.81c1.35-1.8,3.46-2.86,5.71-2.86h57.12c3.94,0,7.14-3.2,7.14-7.14V96.39c0-3.94-3.2-7.14-7.14-7.14h-85.68c-3.94,0-7.14,3.2-7.14,7.14Z" style="fill:#c885e9;"/><path d="M180.28,149.93h-5.35c-10.63,0-13.93-14.28-7.14-14.28,1.97,0,3.57,1.6,3.57,3.57,0,.71,.63,3.57,3.57,3.57h5.35c2.95,0,5.35-2.4,5.35-5.35s-2.4-5.35-5.35-5.35h-3.57c-6.89,0-12.49-5.61-12.49-12.49s5.61-12.49,12.49-12.49h5.35c10.56,0,14.07,14.28,7.14,14.28-1.97,0-3.57-1.6-3.57-3.57,0-2.94-2.86-3.57-3.57-3.57h-5.35c-2.95,0-5.35,2.4-5.35,5.35s2.4,5.35,5.35,5.35h3.57c6.89,0,12.49,5.61,12.49,12.49s-5.61,12.49-12.49,12.49Z" style="fill:#fff;"/><path d="M178.49,114.23c-1.97,0-3.57-1.6-3.57-3.57v-7.14c0-1.97,1.6-3.57,3.57-3.57s3.57,1.6,3.57,3.57v7.14c0,1.97-1.6,3.57-3.57,3.57Z" style="fill:#fff;"/><path d="M178.49,157.07c-1.97,0-3.57-1.6-3.57-3.57v-7.14c0-1.97,1.6-3.57,3.57-3.57s3.57,1.6,3.57,3.57v7.14c0,1.97-1.6,3.57-3.57,3.57Z" style="fill:#fff;"/><path d="M128.51,53.55c-9.84,0-17.85,7.98-17.85,17.85,0,1.02,.79,3.57,3.57,3.57h28.56c1.97,0,3.57-1.6,3.57-3.57,0-9.84-7.98-17.85-17.85-17.85Z" style="fill:#c782e9;"/><circle cx="128.51" cy="49.98" r="10.71" style="fill:#c782e9;"/><path d="M99.96,149.93c-9.84,0-17.85,7.98-17.85,17.85,0,1.02,.79,3.57,3.57,3.57h28.56c1.97,0,3.57-1.6,3.57-3.57,0-9.84-7.98-17.85-17.85-17.85Z" style="fill:#c885e9;"/><circle cx="99.96" cy="146.36" r="10.71" style="fill:#c885e9;"/><rect x="10.71" y="53.55" width="46.41" height="7.14" style="fill:#f7f5ee;"/><rect x="42.84" y="67.83" width="46.41" height="7.14" style="fill:#f7f5ee;"/><rect x="67.83" y="53.55" width="21.42" height="7.14" style="fill:#f7f5ee;"/><rect x="10.71" y="67.83" width="21.42" height="7.14" style="fill:#f7f5ee;"/><path d="M149.93,203.48H78.54c-1.97,0-3.57-1.6-3.57-3.57,0-1.02,.79-3.57,3.57-3.57h71.4c1.97,0,3.57,1.6,3.57,3.57,0,1.02-.79,3.57-3.57,3.57Z" style="fill:#e5e0c9;"/><circle cx="203.48" cy="160.64" r="3.57" style="fill:#fff;"/><circle cx="217.76" cy="160.64" r="3.57" style="fill:#fff;"/><circle cx="146.36" cy="28.56" r="3.57" style="fill:#e5e0c9;"/><circle cx="160.64" cy="28.56" r="3.57" style="fill:#e5e0c9;"/></g></g></g></svg>