<?xml version="1.0" encoding="UTF-8"?><svg xmlns="http://www.w3.org/2000/svg" viewBox="0 0 228.47 228.47"><g id="a"/><g id="b"><g id="c"><g><path d="M210.62,157.07c-1.5,0-2.89-.95-3.39-2.44l-21.6-64.81-21.6,64.81c-.62,1.87-2.63,2.89-4.51,2.26-1.87-.62-2.88-2.65-2.26-4.52l24.99-74.97c1.08-3.24,5.69-3.25,6.77,0l24.99,74.97c.77,2.31-.96,4.7-3.39,4.7Z" style="fill:#e5e0c9;"/><path d="M185.63,196.34c-17.75,0-32.13-14.39-32.13-32.13v-10.71c0-3.94,3.2-7.14,7.14-7.14h49.98c3.94,0,7.14,3.2,7.14,7.14v10.71c0,17.74-14.38,32.13-32.13,32.13Z" style="fill:#c885e9;"/><path d="M155.5,146.36h60.26c1.1,0,2,.9,2,2v12.28h-64.26v-12.28c0-1.1,.9-2,2-2Z" style="fill:#bc69e4;"/><path d="M67.83,157.07c-1.5,0-2.89-.95-3.39-2.44l-21.6-64.81-21.6,64.81c-.62,1.87-2.63,2.89-4.51,2.26-1.87-.62-2.88-2.65-2.26-4.52l24.99-74.97c1.08-3.24,5.69-3.25,6.77,0l24.99,74.97c.77,2.31-.96,4.7-3.39,4.7Z" style="fill:#e5e0c9;"/><rect x="107.1" y="14.28" width="14.28" height="189.2" style="fill:#a93edd;"/><rect x="107.1" y="-21.42" width="14.28" height="199.91" transform="translate(35.7 192.77) rotate(-90)" style="fill:#a93edd;"/><path d="M157.07,78.54c0,20.45-14.39,37.65-33.67,41.85-26.85,5.84-52.01-14.64-52.01-41.85,0-23.65,19.19-42.84,42.84-42.84s42.84,19.19,42.84,42.84Z" style="fill:#bc69e4;"/><path d="M149.93,78.54c0,17.04-11.99,31.37-28.06,34.88-22.37,4.86-43.34-12.2-43.34-34.88,0-19.71,15.99-35.7,35.7-35.7s35.7,15.99,35.7,35.7Z" style="fill:#c885e9;"/><path d="M116.02,74.97h-3.57c-2.96,0-5.35-2.39-5.35-5.35s2.39-5.35,5.35-5.35h5.35c1.96,0,3.57,1.61,3.57,3.57s1.61,3.57,3.57,3.57c6.77,0,3.5-14.28-7.14-14.28v-3.57c0-1.97-1.6-3.57-3.57-3.57s-3.57,1.6-3.57,3.57v3.75c-6.04,.88-10.71,6.04-10.71,12.31,0,6.89,5.6,12.49,12.49,12.49h3.57c5.31,0,7.28,6.85,3.07,9.75-1.81,1.28-3.35,.96-8.42,.96-1.96,0-3.57-1.61-3.57-3.57s-1.61-3.57-3.57-3.57c-6.77,0-3.5,14.28,7.14,14.28v3.57c0,1.97,1.6,3.57,3.57,3.57s3.57-1.6,3.57-3.57v-3.71c6.71-1.13,10.71-6.57,10.71-12.36,0-6.73-5.46-12.49-12.49-12.49Z" style="fill:#fff;"/><circle cx="114.23" cy="14.28" r="14.28" style="fill:#c885e9;"/><circle cx="14.28" cy="78.54" r="14.28" style="fill:#c885e9;"/><circle cx="214.19" cy="78.54" r="14.28" style="fill:#c885e9;"/><path d="M157.07,217.76H71.4l5.17-10.33c1.21-2.42,3.68-3.95,6.39-3.95h62.57c2.7,0,5.18,1.53,6.39,3.95l5.17,10.33Z" style="fill:#c782e9;"/><path d="M59.12,217.76h110.23c1.1,0,2,.9,2,2v8.71H57.12v-8.71c0-1.1,.9-2,2-2Z" style="fill:#a93edd;"/><path d="M42.84,196.34c-17.75,0-32.13-14.39-32.13-32.13v-10.71c0-3.94,3.2-7.14,7.14-7.14h49.98c3.94,0,7.14,3.2,7.14,7.14v10.71c0,17.74-14.38,32.13-32.13,32.13Z" style="fill:#c885e9;"/><path d="M12.71,146.36h60.26c1.1,0,2,.9,2,2v12.28H10.71v-12.28c0-1.1,.9-2,2-2Z" style="fill:#bc69e4;"/></g></g></g></svg>