<?xml version="1.0" encoding="UTF-8"?><svg xmlns="http://www.w3.org/2000/svg" viewBox="0 0 228.47 221.33"><g id="a"/><g id="b"><g id="c"><g><path d="M207.05,78.54v121.37c0,3.9-3.22,7.14-7.14,7.14H7.14c-3.93,0-7.14-3.25-7.14-7.14V78.54H207.05Z" style="fill:#c782e9;"/><path d="M207.05,78.54c-36.81,27.88-73.82,56.04-103.53,78.54C71.57,132.86,38.24,107.5,0,78.54,14.68,67.42,32.09,54.18,103.53,0c14.32,10.86,101.03,76.65,103.53,78.54Z" style="fill:#9f28d9;"/><path d="M192.77,53.55v35.81l-79.82,60.58h-18.85L14.28,89.35V53.55c0-5.91,4.79-10.71,10.71-10.71H182.06c5.91,0,10.71,4.79,10.71,10.71Z" style="fill:#bc69e4;"/><path d="M182.06,71.4v26.1l-55.01,41.73h-47.05L24.99,97.49v-26.1c9.85,0,17.85-8,17.85-17.85h121.37c0,9.85,8,17.85,17.85,17.85Z" style="fill:#c885e9;"/><path d="M204.59,205.27c-1.25,1.14-2.89,1.78-4.68,1.78H7.14c-1.78,0-3.43-.64-4.68-1.78l92.67-67.11c5-3.61,11.78-3.61,16.78,0,74.7,54.09,10.66,7.7,92.67,67.11Z" style="fill:#a93edd;"/><path d="M207.05,133.33v66.58c0,2.14-.96,4.07-2.46,5.35-53.09-38.46-38.67-28.02-64.72-46.87,11.6-26.23,42.31-36.95,67.18-25.06Z" style="fill:#a93edd;"/><path d="M204.59,205.27c-1.25,1.14-2.89,1.78-4.68,1.78h-55.26c-10.29-14.7-11.57-33.3-4.78-48.66,24.35,17.62,11.45,8.28,64.72,46.87Z" style="fill:#9f28d9;"/><circle cx="185.63" cy="178.49" r="42.84" style="fill:#c885e9;"/><circle cx="185.63" cy="178.49" r="32.13" style="fill:#bc69e4;"/><path d="M179.54,189.94l-10.71-10.71c-1.39-1.39-1.39-3.65,0-5.05s3.65-1.39,5.05,0l8.19,8.19,15.33-15.33c1.39-1.39,3.65-1.39,5.05,0s1.39,3.65,0,5.05l-17.85,17.85c-1.39,1.39-3.65,1.39-5.05,0Z" style="fill:#f7f5ee;"/><ellipse cx="103.53" cy="96.39" rx="24.99" ry="32.13" style="fill:#bc69e4;"/><path d="M60.69,99.96h-14.28c-1.97,0-3.57-1.6-3.57-3.57,0-1.02,.79-3.57,3.57-3.57h14.28c1.97,0,3.57,1.6,3.57,3.57,0,1.02-.79,3.57-3.57,3.57Z" style="fill:#bc69e4;"/><path d="M160.64,99.96h-14.28c-1.97,0-3.57-1.6-3.57-3.57,0-1.02,.79-3.57,3.57-3.57h14.28c1.97,0,3.57,1.6,3.57,3.57,0,1.02-.79,3.57-3.57,3.57Z" style="fill:#bc69e4;"/></g></g></g></svg>