<?xml version="1.0" encoding="UTF-8"?><svg xmlns="http://www.w3.org/2000/svg" viewBox="0 0 228.47 214.19"><g id="a"/><g id="b"><g id="c"><g><path d="M221.33,53.55V192.77H7.14V53.55c0-5.93,4.78-10.71,10.71-10.71H210.62c5.93,0,10.71,4.78,10.71,10.71Z" style="fill:#c782e9;"/><path d="M1,192.77H227.47c.55,0,1,.45,1,1v17.42c0,1.66-1.34,3-3,3H3c-1.66,0-3-1.34-3-3v-17.42c0-.55,.45-1,1-1Z" style="fill:#a93edd;"/><path d="M214.19,53.55v14.28H71.4c-16.23-20.29-13.09-16.36-14.28-17.85H210.62c1.96,0,3.57,1.61,3.57,3.57Z" style="fill:#dcb0f1;"/><path d="M214.19,67.83v117.8H14.28V53.55c0-1.96,1.61-3.57,3.57-3.57h50.26c4.32,0,8.42,1.96,11.14,5.35,5.54,6.93,5.86,7.36,6.25,7.75,2.68,3.03,6.57,4.75,10.6,4.75h118.09Z" style="fill:#fff;"/><path d="M187.42,139.22h-5.35c-10.63,0-13.93-14.28-7.14-14.28,1.97,0,3.57,1.6,3.57,3.57,0,.71,.63,3.57,3.57,3.57h5.35c2.95,0,5.35-2.4,5.35-5.35s-2.4-5.35-5.35-5.35h-3.57c-6.89,0-12.49-5.61-12.49-12.49s5.61-12.49,12.49-12.49h5.35c10.56,0,14.07,14.28,7.14,14.28-1.97,0-3.57-1.6-3.57-3.57,0-2.94-2.86-3.57-3.57-3.57h-5.35c-2.95,0-5.35,2.4-5.35,5.35s2.4,5.35,5.35,5.35h3.57c6.89,0,12.49,5.61,12.49,12.49s-5.61,12.49-12.49,12.49Z" style="fill:#c885e9;"/><path d="M185.63,103.53c-1.97,0-3.57-1.6-3.57-3.57v-7.14c0-1.97,1.6-3.57,3.57-3.57s3.57,1.6,3.57,3.57v7.14c0,1.97-1.6,3.57-3.57,3.57Z" style="fill:#c885e9;"/><path d="M185.63,146.36c-1.97,0-3.57-1.6-3.57-3.57v-7.14c0-1.97,1.6-3.57,3.57-3.57s3.57,1.6,3.57,3.57v7.14c0,1.97-1.6,3.57-3.57,3.57Z" style="fill:#c885e9;"/><path d="M139.22,199.91h-49.98c-2.88,0-7.14-2.25-7.14-7.14h64.26c0,2.88-2.25,7.14-7.14,7.14Z" style="fill:#f7f5ee;"/><rect x="139.22" y="146.36" width="21.42" height="28.56" rx="1" ry="1" transform="translate(299.87 321.29) rotate(-180)" style="fill:#dcb0f1;"/><rect x="103.53" y="132.08" width="21.42" height="42.84" rx="1" ry="1" transform="translate(228.47 307.01) rotate(-180)" style="fill:#c782e9;"/><rect x="67.83" y="117.8" width="21.42" height="57.12" rx="1" ry="1" transform="translate(157.07 292.73) rotate(-180)" style="fill:#a93edd;"/><rect x="32.13" y="103.53" width="21.42" height="71.4" rx="1" ry="1" transform="translate(85.68 278.45) rotate(-180)" style="fill:#9f28d9;"/><path d="M149.93,132.08c-1.48,0,1.63,1.69-40.3-24.99-29.68,0-28.32,.29-29.66-.71l-28.56-21.42c-1.58-1.18-1.9-3.42-.71-5,1.19-1.57,3.42-1.9,5-.71l27.61,20.7c29.62,0,28.04-.23,29.29,.56l39.27,24.99c3,1.91,1.65,6.58-1.92,6.58Z" style="fill:#c885e9;"/><path d="M221.33,53.55v14.1c-2.18,1.96-4.57,3.71-7.14,5.18v-19.28c0-1.96-1.61-3.57-3.57-3.57h-58.22c-.86-2.28-1.46-4.68-1.86-7.14h60.08c5.93,0,10.71,4.78,10.71,10.71Z" style="fill:#a93edd;"/><path d="M214.19,67.83v5c-15.41,8.93-35.67,7.49-49.76-5h49.76Z" style="fill:#f7f5ee;"/><path d="M214.19,53.55v14.28h-49.76c-5.43-4.78-9.6-10.89-12.03-17.85h58.22c1.96,0,3.57,1.61,3.57,3.57Z" style="fill:#c782e9;"/><circle cx="192.77" cy="35.7" r="35.7" style="fill:#c885e9;"/><path d="M182.06,32.13c-1.97,0-3.57-1.6-3.57-3.57v-7.14c0-1.97,1.6-3.57,3.57-3.57s3.57,1.6,3.57,3.57v7.14c0,1.97-1.6,3.57-3.57,3.57Z" style="fill:#f7f5ee;"/><path d="M203.48,32.13c-1.97,0-3.57-1.6-3.57-3.57v-7.14c0-1.97,1.6-3.57,3.57-3.57s3.57,1.6,3.57,3.57v7.14c0,1.97-1.6,3.57-3.57,3.57Z" style="fill:#f7f5ee;"/><circle cx="71.4" cy="60.69" r="3.57" style="fill:#e5e0c9;"/><path d="M207.05,49.98c-.54,0-1.08-.12-1.59-.38-7.94-3.97-17.42-3.97-25.37,0-1.76,.88-3.91,.17-4.79-1.6-.88-1.76-.17-3.91,1.6-4.79,9.94-4.97,21.81-4.97,31.75,0,3.35,1.68,2.16,6.76-1.6,6.76Z" style="fill:#f7f5ee;"/></g></g></g></svg>