<?xml version="1.0" encoding="UTF-8"?><svg xmlns="http://www.w3.org/2000/svg" viewBox="0 0 228.47 178.49"><g id="a"/><g id="b"><g id="c"><g><rect width="107.1" height="178.49" rx="21.42" ry="21.42" style="fill:#c782e9;"/><path d="M99.96,21.42V153.5c0,7.89-6.39,14.28-14.28,14.28H21.42c-7.89,0-14.28-6.39-14.28-14.28V21.42c0-7.89,6.39-14.28,14.28-14.28h4.57c1.54,0,2.89,1,3.39,2.43l1.11,3.39c1,2.93,3.71,4.89,6.78,4.89h32.56c3.07,0,5.78-1.96,6.78-4.89l1.11-3.39c.5-1.43,1.86-2.43,3.39-2.43h4.57c7.89,0,14.28,6.39,14.28,14.28Z" style="fill:#fff;"/><rect x="121.37" width="107.1" height="178.49" rx="21.42" ry="21.42" style="fill:#a93edd;"/><path d="M221.33,21.42V153.5c0,7.89-6.39,14.28-14.28,14.28h-64.26c-7.89,0-14.28-6.39-14.28-14.28V21.42c0-7.89,6.39-14.28,14.28-14.28h4.57c1.54,0,2.89,1,3.39,2.43l1.11,3.39c1,2.93,3.71,4.89,6.78,4.89h32.56c3.07,0,5.78-1.96,6.78-4.89l1.11-3.39c.5-1.43,1.86-2.43,3.39-2.43h4.57c7.89,0,14.28,6.39,14.28,14.28Z" style="fill:#fff;"/><path d="M82.11,78.54v21.42h-24.99v3.57c0,2.93-3.36,4.61-5.71,2.86l-19.03-14.28c-1.93-1.43-1.93-4.28,0-5.71l19.03-14.28c2.36-1.75,5.71-.07,5.71,2.86v3.57h24.99Z" style="fill:#c782e9;"/><path d="M196.09,92.1l-19.03,14.28c-2.36,1.75-5.71,.07-5.71-2.86v-3.57h-24.99v-21.42h24.99v-3.57c0-2.93,3.36-4.61,5.71-2.86l19.03,14.28c1.93,1.43,1.93,4.28,0,5.71Z" style="fill:#a93edd;"/><path d="M107.1,36.2v106.1c-2.43-.32-4.82-.82-7.14-1.46V37.66c2.32-.64,4.71-1.14,7.14-1.46Z" style="fill:#a93edd;"/><path d="M99.96,37.66v103.17c-19.24-5.32-34.16-21.17-38.2-40.87h20.35v-21.42h-20.35c4.03-19.71,18.96-35.56,38.2-40.87Z" style="fill:#f7f5ee;"/><path d="M82.11,78.54v21.42h-20.35c-1.43-6.93-1.43-14.48,0-21.42h20.35Z" style="fill:#a93edd;"/><path d="M128.51,37.66v103.17c-2.32,.64-4.71,1.14-7.14,1.46V36.2c2.43,.32,4.82,.82,7.14,1.46Z" style="fill:#9f28d9;"/><path d="M146.36,99.96h20.35c-4.03,19.71-18.96,35.56-38.2,40.87V37.66c19.24,5.32,34.16,21.17,38.2,40.87h-20.35v21.42Z" style="fill:#f7f5ee;"/><path d="M166.71,99.96h-20.35v-21.42h20.35c1.43,6.93,1.43,14.48,0,21.42Z" style="fill:#9f28d9;"/><circle cx="114.23" cy="89.25" r="46.41" style="fill:#bc69e4;"/><circle cx="114.23" cy="89.25" r="35.7" style="fill:#c885e9;"/><path d="M116.02,110.66h-5.35c-10.64,0-13.92-14.28-7.14-14.28,1.97,0,3.57,1.6,3.57,3.57,0,.71,.63,3.57,3.57,3.57h5.35c2.95,0,5.35-2.4,5.35-5.35s-2.4-5.35-5.35-5.35h-3.57c-6.89,0-12.49-5.61-12.49-12.49s5.61-12.49,12.49-12.49h5.35c10.56,0,14.07,14.28,7.14,14.28-1.97,0-3.57-1.6-3.57-3.57,0-2.94-2.86-3.57-3.57-3.57h-5.35c-2.95,0-5.35,2.4-5.35,5.35s2.4,5.35,5.35,5.35h3.57c6.89,0,12.49,5.61,12.49,12.49s-5.61,12.49-12.49,12.49Z" style="fill:#f7f5ee;"/><path d="M114.23,74.97c-1.97,0-3.57-1.6-3.57-3.57v-7.14c0-1.97,1.6-3.57,3.57-3.57s3.57,1.6,3.57,3.57v7.14c0,1.97-1.6,3.57-3.57,3.57Z" style="fill:#f7f5ee;"/><path d="M114.23,117.8c-1.97,0-3.57-1.6-3.57-3.57v-7.14c0-1.97,1.6-3.57,3.57-3.57s3.57,1.6,3.57,3.57v7.14c0,1.97-1.6,3.57-3.57,3.57Z" style="fill:#f7f5ee;"/><path d="M78.54,160.64H28.56c-1.97,0-3.57-1.6-3.57-3.57,0-1.02,.79-3.57,3.57-3.57h49.98c1.97,0,3.57,1.6,3.57,3.57,0,1.02-.79,3.57-3.57,3.57Z" style="fill:#e5e0c9;"/><path d="M199.91,160.64h-49.98c-1.97,0-3.57-1.6-3.57-3.57,0-1.02,.79-3.57,3.57-3.57h49.98c1.97,0,3.57,1.6,3.57,3.57,0,1.02-.79,3.57-3.57,3.57Z" style="fill:#e5e0c9;"/></g></g></g></svg>