<?xml version="1.0" encoding="UTF-8"?><svg xmlns="http://www.w3.org/2000/svg" viewBox="0 0 228.47 228.47"><g id="a"/><g id="b"><g id="c"><g><path d="M171.35,42.84V214.19c0,7.89-6.39,14.28-14.28,14.28H14.28c-7.89,0-14.28-6.39-14.28-14.28V14.28C0,6.39,6.39,0,14.28,0h114.23l42.84,42.84Z" style="fill:#f7f5ee;"/><path d="M146.36,99.96H24.99c-1.96,0-3.57,1.61-3.57,3.57v85.68c0,1.96,1.61,3.57,3.57,3.57h121.37c1.96,0,3.57-1.61,3.57-3.57V103.53c0-1.96-1.61-3.57-3.57-3.57ZM49.98,185.63H28.56v-14.28h21.42v14.28Zm0-21.42H28.56v-14.28h21.42v14.28Zm0-21.42H28.56v-14.28h21.42v14.28Zm0-21.42H28.56v-14.28h21.42v14.28Zm92.82,64.26H57.12v-14.28h85.68v14.28Zm0-21.42H57.12v-14.28h85.68v14.28Zm0-21.42H57.12v-14.28h85.68v14.28Zm0-21.42H57.12v-14.28h85.68v14.28Z" style="fill:#c782e9;"/><path d="M171.35,95.85v118.34c0,7.89-6.39,14.28-14.28,14.28H91.17c-1.21-2.11-1.93-4.53-1.93-7.14v-28.56h57.12c1.96,0,3.57-1.61,3.57-3.57V103.53c0-1.96-1.61-3.57-3.57-3.57h-15.92l14.21-11.21c5.19-4.07,12.48-4.1,17.71,0l9,7.1Z" style="fill:#e5e0c9;"/><polygon points="142.79 107.1 142.79 121.37 103.31 121.37 121.41 107.1 142.79 107.1" style="fill:#e5e0c9;"/><path d="M142.79,128.51v14.28H76.25c.37-.36,4.94-3.95,18.03-14.28h48.51Z" style="fill:#e5e0c9;"/><path d="M142.79,149.93v14.28H76.25c-3.78-3.15-5.83-8.73-4.36-14.28h70.9Z" style="fill:#e5e0c9;"/><rect x="89.25" y="171.35" width="53.55" height="14.28" style="fill:#e5e0c9;"/><path d="M149.93,103.53v85.68c0,1.96-1.61,3.57-3.57,3.57h-57.12v-7.14h53.55v-14.28h-53.55v-4.07c-5.13,1.24-9.7-.09-12.99-3.07h66.54v-14.28H71.9c.64-2.71,2.14-5.21,4.36-7.14h66.54v-14.28h-48.51l9.03-7.14h39.48v-14.28h-21.38l9.03-7.14h15.92c1.96,0,3.57,1.61,3.57,3.57Z" style="fill:#a93edd;"/><path d="M37.48,49.98h-3.57c-2.96,0-5.35-2.39-5.35-5.35s2.39-5.35,5.35-5.35h5.35c1.96,0,3.57,1.61,3.57,3.57s1.61,3.57,3.57,3.57c6.77,0,3.5-14.28-7.14-14.28v-3.57c0-1.97-1.6-3.57-3.57-3.57s-3.57,1.6-3.57,3.57v3.75c-6.04,.88-10.71,6.04-10.71,12.31,0,6.89,5.6,12.49,12.49,12.49h3.57c5.31,0,7.28,6.85,3.07,9.75-1.81,1.28-3.35,.96-8.42,.96-1.96,0-3.57-1.61-3.57-3.57s-1.61-3.57-3.57-3.57c-6.77,0-3.5,14.28,7.14,14.28v3.57c0,1.97,1.6,3.57,3.57,3.57s3.57-1.6,3.57-3.57v-3.71c6.71-1.13,10.71-6.57,10.71-12.36,0-6.73-5.46-12.49-12.49-12.49Z" style="fill:#c885e9;"/><path d="M210.62,145.04v76.29c0,3.94-3.2,7.14-7.14,7.14H103.53c-3.94,0-7.14-3.2-7.14-7.14v-76.29l57.12-45.09,57.12,45.09Z" style="fill:#c782e9;"/><path d="M171.35,42.84h-35.7c-3.94,0-7.14-3.2-7.14-7.14V0l42.84,42.84Z" style="fill:#e5e0c9;"/><path d="M225.76,147.9l-22.27-17.59v-26.79c0-3.94-3.2-7.14-7.14-7.14s-7.14,3.2-7.14,7.14v15.52l-31.27-24.69c-2.59-2.05-6.25-2.05-8.85,0l-67.83,53.55c-3.09,2.44-3.62,6.93-1.18,10.03,2.44,3.09,6.93,3.62,10.03,1.18l63.4-50.05,63.4,50.05c3.08,2.43,7.57,1.93,10.03-1.18,2.44-3.09,1.92-7.58-1.18-10.03Z" style="fill:#c885e9;"/><path d="M112.66,171.35h31.7c1.1,0,2,.9,2,2v55.12h-35.7v-55.12c0-1.1,.9-2,2-2Z" style="fill:#a93edd;"/><rect x="160.64" y="171.35" width="35.7" height="35.7" rx="2" ry="2" style="fill:#a93edd;"/><rect x="167.78" y="178.49" width="21.42" height="21.42" style="fill:#dcb0f1;"/><circle cx="135.65" cy="203.48" r="3.57" style="fill:#9f28d9;"/><rect x="64.26" y="57.12" width="64.26" height="7.14" style="fill:#e5e0c9;"/><rect x="64.26" y="74.97" width="49.98" height="7.14" style="fill:#e5e0c9;"/><path d="M46.41,214.19H24.99c-1.97,0-3.57-1.6-3.57-3.57s1.6-3.57,3.57-3.57h21.42c1.97,0,3.57,1.6,3.57,3.57s-1.6,3.57-3.57,3.57Z" style="fill:#dcb0f1;"/></g></g></g></svg>