<?xml version="1.0" encoding="UTF-8"?><svg xmlns="http://www.w3.org/2000/svg" viewBox="0 0 228.47 228.47"><g id="a"/><g id="b"><g id="c"><g><path d="M171.35,42.84V214.19c0,7.89-6.39,14.28-14.28,14.28H14.28c-7.89,0-14.28-6.39-14.28-14.28V14.28C0,6.39,6.39,0,14.28,0h114.23l42.84,42.84Z" style="fill:#f7f5ee;"/><path d="M146.36,99.96H24.99c-1.96,0-3.57,1.61-3.57,3.57v85.68c0,1.96,1.61,3.57,3.57,3.57h121.37c1.96,0,3.57-1.61,3.57-3.57V103.53c0-1.96-1.61-3.57-3.57-3.57Zm-89.25,7.14h85.68v14.28H57.12v-14.28Zm-7.14,78.54H28.56v-14.28h21.42v14.28Zm0-21.42H28.56v-14.28h21.42v14.28Zm0-21.42H28.56v-14.28h21.42v14.28Zm0-21.42H28.56v-14.28h21.42v14.28Zm92.82,64.26H57.12v-14.28h85.68v14.28Zm0-21.42H57.12v-14.28h85.68v14.28Zm0-21.42H57.12v-14.28h85.68v14.28Z" style="fill:#c782e9;"/><path d="M157.07,182.85v19.85c2.18,1.96,3.57,4.78,3.57,7.93h10.71v3.57c0,7.89-6.39,14.28-14.28,14.28h-46.41v-3.57c0-5.25,2.89-9.82,7.14-12.28v-2c0-3.14,1.39-5.96,3.57-7.93v-9.92h24.99c1.96,0,3.57-1.61,3.57-3.57V121.62c15.97-17.2,14.22-15.37,14.89-15.89,1.86-1.43,4.18-2.21,6.53-2.21v71.4h-10.71c0,3.14-1.39,5.96-3.57,7.92Z" style="fill:#e5e0c9;"/><path d="M37.48,49.98h-3.57c-2.96,0-5.35-2.39-5.35-5.35s2.39-5.35,5.35-5.35h5.35c1.96,0,3.57,1.61,3.57,3.57s1.61,3.57,3.57,3.57c6.77,0,3.5-14.28-7.14-14.28v-3.57c0-1.97-1.6-3.57-3.57-3.57s-3.57,1.6-3.57,3.57v3.75c-6.04,.88-10.71,6.04-10.71,12.31,0,6.89,5.6,12.49,12.49,12.49h3.57c5.31,0,7.28,6.85,3.07,9.75-1.81,1.28-3.35,.96-8.42,.96-1.96,0-3.57-1.61-3.57-3.57s-1.61-3.57-3.57-3.57c-6.77,0-3.5,14.28,7.14,14.28v3.57c0,1.97,1.6,3.57,3.57,3.57s3.57-1.6,3.57-3.57v-3.71c6.71-1.13,10.71-6.57,10.71-12.36,0-6.73-5.46-12.49-12.49-12.49Z" style="fill:#c885e9;"/><path d="M171.35,42.84h-35.7c-3.94,0-7.14-3.2-7.14-7.14V0l42.84,42.84Z" style="fill:#e5e0c9;"/><rect x="64.26" y="57.12" width="64.26" height="7.14" style="fill:#e5e0c9;"/><path d="M149.93,121.62v67.58c0,1.96-1.61,3.57-3.57,3.57h-24.99v-7.14h21.42v-14.28h-28.27c-1.96-1.82-3.32-4.32-3.71-7.14h31.99v-14.28h-19.13l6.64-7.14h12.49v-13.46l7.14-7.71Z" style="fill:#a93edd;"/><rect x="64.26" y="74.97" width="49.98" height="7.14" style="fill:#e5e0c9;"/><path d="M142.79,149.93v14.28h-31.99c-1.29-6.88,4.39-14.28,12.35-14.28h19.63Z" style="fill:#e5e0c9;"/><path d="M46.41,214.19H24.99c-1.97,0-3.57-1.6-3.57-3.57s1.6-3.57,3.57-3.57h21.42c1.97,0,3.57,1.6,3.57,3.57s-1.6,3.57-3.57,3.57Z" style="fill:#dcb0f1;"/><path d="M219.94,161.39l-46.41-49.98c-1.29-1-3.07-1-4.36,0-6.49,6.96,2.5-2.71-46.41,49.98-2.66,2.04-1.27,6.39,2.18,6.39h92.82c3.44,0,4.84-4.35,2.18-6.39Z" style="fill:#c782e9;"/><path d="M142.79,171.35v14.28h-21.42v-2.78c-2.18-1.96-3.57-4.78-3.57-7.92v-1.25c-1.21-.57-2.32-1.36-3.28-2.32h28.27Z" style="fill:#e5e0c9;"/><rect x="117.8" y="157.07" width="107.1" height="10.71" rx="1.5" ry="1.5" style="fill:#a93edd;"/><path d="M119.8,217.76h103.1c1.1,0,2,.9,2,2v8.71H117.8v-8.71c0-1.1,.9-2,2-2Z" style="fill:#a93edd;"/><path d="M124.94,167.78h28.56v9.71c0,.55-.45,1-1,1h-26.56c-.55,0-1-.45-1-1v-9.71h0Z" style="fill:#c782e9;"/><path d="M125.94,207.05h26.56c.55,0,1,.45,1,1v9.71h-28.56v-9.71c0-.55,.45-1,1-1Z" style="fill:#c782e9;"/><polygon points="142.79 129.34 142.79 142.79 130.3 142.79 142.79 129.34" style="fill:#e5e0c9;"/><rect x="128.51" y="178.49" width="21.42" height="28.56" style="fill:#a93edd;"/><path d="M189.2,167.78h28.56v9.71c0,.55-.45,1-1,1h-26.56c-.55,0-1-.45-1-1v-9.71h0Z" style="fill:#c782e9;"/><path d="M190.2,207.05h26.56c.55,0,1,.45,1,1v9.71h-28.56v-9.71c0-.55,.45-1,1-1Z" style="fill:#c782e9;"/><path d="M208.34,148.9c-10.33,2.58-21.69,.34-30.52-6.68,2.24-4.85-1.37-10.14-6.46-10.14-1.51,0-1.78,.32-2.14,.32-2.78-4.64-4.53-10-4.93-15.74l4.89-5.25c1.29-1,3.07-1,4.36,0l34.81,37.48Z" style="fill:#a93edd;"/><circle cx="171.35" cy="139.22" r="7.14" style="fill:#fff;"/><rect x="192.77" y="178.49" width="21.42" height="28.56" style="fill:#a93edd;"/><path d="M171.35,92.85v17.81c-.79,0-1.54,.25-2.18,.75l-4.89,5.25c-.41-9.08,1.9-16.96,7.07-23.81Z" style="fill:#e5e0c9;"/><path d="M177.81,142.22c-3.75-2.92-6.9-6.77-8.57-9.82,5.57-1.86,11.25,4,8.57,9.82Z" style="fill:#f7f5ee;"/><circle cx="199.91" cy="114.23" r="28.56" style="fill:#bc69e4;"/><circle cx="199.91" cy="114.23" r="21.42" style="fill:#c885e9;"/><path d="M199.91,124.94c-1.94,0-2.02-.54-9.66-8.19-1.39-1.39-1.39-3.65,0-5.05s3.65-1.39,5.05,0l4.62,4.62,8.19-8.19c1.39-1.39,3.65-1.39,5.05,0s1.39,3.65,0,5.05l-10.71,10.71c-.7,.7-1.61,1.05-2.52,1.05Z" style="fill:#f7f5ee;"/></g></g></g></svg>