<?xml version="1.0" encoding="UTF-8"?><svg xmlns="http://www.w3.org/2000/svg" viewBox="0 0 228.48 228.47"><g id="a"/><g id="b"><g id="c"><g><path d="M171.35,42.84V214.19c0,7.89-6.39,14.28-14.28,14.28H14.28c-7.89,0-14.28-6.39-14.28-14.28V14.28C0,6.39,6.39,0,14.28,0h114.23l42.84,42.84Z" style="fill:#f7f5ee;"/><path d="M146.36,99.96H24.99c-1.96,0-3.57,1.61-3.57,3.57v85.68c0,1.96,1.61,3.57,3.57,3.57h121.37c1.96,0,3.57-1.61,3.57-3.57V103.53c0-1.96-1.61-3.57-3.57-3.57ZM49.98,185.63H28.56v-14.28h21.42v14.28Zm0-21.42H28.56v-14.28h21.42v14.28Zm0-21.42H28.56v-14.28h21.42v14.28Zm0-21.42H28.56v-14.28h21.42v14.28Zm92.82,64.26H57.12v-14.28h85.68v14.28Zm0-21.42H57.12v-14.28h85.68v14.28Zm0-21.42H57.12v-14.28h85.68v14.28Zm0-21.42H57.12v-14.28h85.68v14.28Z" style="fill:#c782e9;"/><path d="M37.48,49.98h-3.57c-2.96,0-5.35-2.39-5.35-5.35s2.39-5.35,5.35-5.35h5.35c1.96,0,3.57,1.61,3.57,3.57s1.61,3.57,3.57,3.57c6.77,0,3.5-14.28-7.14-14.28v-3.57c0-1.97-1.6-3.57-3.57-3.57s-3.57,1.6-3.57,3.57v3.75c-6.04,.88-10.71,6.04-10.71,12.31,0,6.89,5.6,12.49,12.49,12.49h3.57c5.31,0,7.28,6.85,3.07,9.75-1.81,1.28-3.35,.96-8.42,.96-1.96,0-3.57-1.61-3.57-3.57s-1.61-3.57-3.57-3.57c-6.77,0-3.5,14.28,7.14,14.28v3.57c0,1.97,1.6,3.57,3.57,3.57s3.57-1.6,3.57-3.57v-3.71c6.71-1.13,10.71-6.57,10.71-12.36,0-6.73-5.46-12.49-12.49-12.49Z" style="fill:#c885e9;"/><path d="M171.35,42.84h-35.7c-3.94,0-7.14-3.2-7.14-7.14V0l42.84,42.84Z" style="fill:#e5e0c9;"/><rect x="64.26" y="57.12" width="64.26" height="7.14" style="fill:#e5e0c9;"/><path d="M171.35,93.42v120.77c0,7.89-6.39,14.28-14.28,14.28h-31.02c-11.42-7.6-18.96-20.63-18.96-35.38,0-.46-4.35-.32,39.27-.32,1.96,0,3.57-1.61,3.57-3.57V103.53c0-1.96-1.61-3.57-3.57-3.57h-11.1c0-7.89,6.36-14.28,14.28-14.28,12.86,0,13.15-.91,21.81,7.75Z" style="fill:#e5e0c9;"/><path d="M142.79,107.1v14.28h-8.75c1.43-2.46,3.57-4.43,6.14-5.68l-3.21-8.6h5.82Z" style="fill:#e5e0c9;"/><path d="M142.79,128.51v14.28h-10.03l3.18-4.61c-2.39-2.53-3.86-5.93-3.86-9.67h10.71Z" style="fill:#e5e0c9;"/><polygon points="142.79 149.93 142.79 164.21 117.91 164.21 127.8 149.93 142.79 149.93" style="fill:#e5e0c9;"/><path d="M142.79,171.35v14.28h-35.02c.86-5.03,2.68-9.85,5.35-14.28h29.67Z" style="fill:#e5e0c9;"/><path d="M149.93,103.53v85.68c0,1.96-1.61,3.57-3.57,3.57h-39.27c.04-2.43,.25-4.82,.68-7.14h35.02v-14.28h-29.67c.89-1.58,2.01-3.12,4.78-7.14h24.88v-14.28h-14.99l4.96-7.14h10.03v-14.28h-10.71c0-2.61,.71-5.03,1.96-7.14h8.75v-14.28h-5.82c-.87-2.27-1.71-4.07-1.71-7.14h11.1c1.96,0,3.57,1.61,3.57,3.57Z" style="fill:#a93edd;"/><rect x="64.26" y="74.97" width="49.98" height="7.14" style="fill:#e5e0c9;"/><path d="M46.41,214.19H24.99c-1.97,0-3.57-1.6-3.57-3.57s1.6-3.57,3.57-3.57h21.42c1.97,0,3.57,1.6,3.57,3.57s-1.6,3.57-3.57,3.57Z" style="fill:#dcb0f1;"/><path d="M193.11,228.47h-43.51c-28.75,0-45.1-32.35-29.07-55.49l25.84-37.33h49.98l25.84,37.33c16.04,23.17-.36,55.49-29.07,55.49Z" style="fill:#c885e9;"/><path d="M173.14,210.62h-5.35c-13.61,0-18.22-17.85-10.71-17.85,1.97,0,3.57,1.6,3.57,3.57,0,3.94,3.2,7.14,7.14,7.14h5.35c4.92,0,8.92-4,8.92-8.92s-4-8.92-8.92-8.92h-3.57c-8.86,0-16.06-7.21-16.06-16.06s7.21-16.06,16.06-16.06h5.35c13.61,0,18.22,17.85,10.71,17.85-1.97,0-3.57-1.6-3.57-3.57,0-3.94-3.2-7.14-7.14-7.14h-5.35c-4.92,0-8.92,4-8.92,8.92s4,8.92,8.92,8.92h3.57c8.86,0,16.06,7.21,16.06,16.06s-7.21,16.06-16.06,16.06Z" style="fill:#f7f5ee;"/><path d="M171.35,217.76c-1.97,0-3.57-1.6-3.57-3.57v-64.26c0-1.97,1.6-3.57,3.57-3.57s3.57,1.6,3.57,3.57v64.26c0,1.97-1.6,3.57-3.57,3.57Z" style="fill:#f7f5ee;"/><path d="M196.34,135.65h-49.98c-3.94,0-7.14-3.2-7.14-7.14,0-2.88,2.25-7.14,7.14-7.14h49.98c3.94,0,7.14,3.2,7.14,7.14,0,2.88-2.25,7.14-7.14,7.14Z" style="fill:#bc69e4;"/><path d="M199.86,102.46l-7.09,18.91h-42.84l-7.09-18.91c-1.75-4.67,1.7-9.65,6.69-9.65h8.16c1.89,0,3.71,.75,5.05,2.09l8.62,8.62,8.62-8.62c1.34-1.34,3.15-2.09,5.05-2.09h8.16c4.98,0,8.44,4.98,6.69,9.65Z" style="fill:#c885e9;"/></g></g></g></svg>