<?xml version="1.0" encoding="UTF-8"?><svg xmlns="http://www.w3.org/2000/svg" viewBox="0 0 228.47 228.47"><g id="a"/><g id="b"><g id="c"><g><path d="M199.91,24.99V228.47H74.97c-13.87,0-24.99-11.26-24.99-24.99V71.4H24.99V0H174.92c13.82,0,24.99,11.17,24.99,24.99Z" style="fill:#f7f5ee;"/><path d="M182.06,89.25H67.83c-1.96,0-3.57,1.61-3.57,3.57v64.26c0,1.96,1.61,3.57,3.57,3.57h114.23c1.96,0,3.57-1.61,3.57-3.57V92.82c0-1.96-1.61-3.57-3.57-3.57Zm-89.25,64.26h-21.42v-14.28h21.42v14.28Zm0-21.42h-21.42v-14.28h21.42v14.28Zm0-21.42h-21.42v-14.28h21.42v14.28Zm85.68,42.84H99.96v-14.28h78.54v14.28Zm0-21.42H99.96v-14.28h78.54v14.28Zm0-21.42H99.96v-14.28h78.54v14.28Z" style="fill:#c782e9;"/><path d="M77.75,132.08h-6.35v-5.28c2.28,1.57,4.39,3.36,6.35,5.28Z" style="fill:#e5e0c9;"/><path d="M90.71,153.5h-19.31v-14.28h12.42c3.03,4.32,5.39,9.1,6.89,14.28Z" style="fill:#e5e0c9;"/><path d="M53.69,216.58c-2.36-3.82-3.71-8.28-3.71-13.1V118.3c5.03,.71,9.85,2.21,14.28,4.32v34.45c0,1.96,1.61,3.57,3.57,3.57h24.49c3.67,26.92-14,50.43-38.63,55.94Z" style="fill:#e5e0c9;"/><path d="M92.32,160.64h-24.49c-1.96,0-3.57-1.61-3.57-3.57v-34.45c2.5,1.21,4.89,2.61,7.14,4.18v5.28h6.35c2.25,2.18,4.28,4.57,6.07,7.14h-12.42v14.28h19.31c.71,2.32,1.25,4.71,1.61,7.14Z" style="fill:#a93edd;"/><circle cx="42.84" cy="167.78" r="42.84" style="fill:#bc69e4;"/><circle cx="42.84" cy="167.78" r="35.7" style="fill:#c885e9;"/><path d="M44.62,189.2h-5.35c-10.64,0-13.92-14.28-7.14-14.28,1.97,0,3.57,1.6,3.57,3.57,0,.71,.63,3.57,3.57,3.57h5.35c2.95,0,5.35-2.4,5.35-5.35s-2.4-5.35-5.35-5.35h-3.57c-6.89,0-12.49-5.61-12.49-12.49s5.61-12.49,12.49-12.49h5.35c10.56,0,14.08,14.28,7.14,14.28-1.97,0-3.57-1.6-3.57-3.57,0-2.94-2.86-3.57-3.57-3.57h-5.35c-2.95,0-5.35,2.4-5.35,5.35s2.4,5.35,5.35,5.35h3.57c6.89,0,12.49,5.61,12.49,12.49s-5.61,12.49-12.49,12.49Z" style="fill:#f7f5ee;"/><path d="M42.84,153.5c-1.97,0-3.57-1.6-3.57-3.57v-7.14c0-1.97,1.6-3.57,3.57-3.57s3.57,1.6,3.57,3.57v7.14c0,1.97-1.6,3.57-3.57,3.57Z" style="fill:#f7f5ee;"/><path d="M42.84,196.34c-1.97,0-3.57-1.6-3.57-3.57v-7.14c0-1.97,1.6-3.57,3.57-3.57s3.57,1.6,3.57,3.57v7.14c0,1.97-1.6,3.57-3.57,3.57Z" style="fill:#f7f5ee;"/><path d="M49.98,71.4H7.14C3.2,71.4,0,68.2,0,64.26V24.99C0,11.19,11.19,0,24.99,0s24.99,11.19,24.99,24.99v46.41Z" style="fill:#e5e0c9;"/><path d="M228.47,185.63v17.85c0,13.8-11.19,24.99-24.99,24.99H74.97c13.82,0,24.99-11.17,24.99-24.99v-17.85c0-3.94,3.2-7.14,7.14-7.14h114.23c3.94,0,7.14,3.2,7.14,7.14Z" style="fill:#e5e0c9;"/><rect x="64.26" y="17.85" width="121.37" height="35.7" rx="2" ry="2" style="fill:#c782e9;"/><rect x="64.26" y="60.69" width="60.69" height="7.14" style="fill:#e5e0c9;"/><rect x="64.26" y="74.97" width="39.27" height="7.14" style="fill:#e5e0c9;"/></g></g></g></svg>