<?xml version="1.0" encoding="UTF-8"?><svg xmlns="http://www.w3.org/2000/svg" viewBox="0 0 228.46 228.47"><g id="a"/><g id="b"><g id="c"><g><circle cx="114.23" cy="92.81" r="85.68" style="fill:#bc69e4;"/><circle cx="114.23" cy="92.81" r="67.83" style="fill:#c885e9;"/><path d="M33.05,29.55c-5.61,3.05-9.65,8.54-11.06,15l-.52,2.38c-.86,3.96-6.37,4.15-7.27,0l-.52-2.38c-1.4-6.47-5.45-11.95-11.06-15-3.56-1.94-3.48-7.23,0-9.12,5.61-3.05,9.65-8.54,11.06-15l.52-2.38c.86-3.96,6.37-4.15,7.27,0l.52,2.38c1.4,6.47,5.45,11.95,11.06,15,3.56,1.94,3.48,7.23,0,9.12Z" style="fill:#c885e9;"/><path d="M225.83,40.26c-5.61,3.05-9.65,8.54-11.06,15l-.52,2.38c-.86,3.96-6.37,4.15-7.27,0l-.52-2.38c-1.4-6.47-5.45-11.95-11.06-15-3.56-1.94-3.48-7.23,0-9.12,5.61-3.05,9.65-8.54,11.06-15l.52-2.38c.86-3.96,6.37-4.15,7.27,0l.52,2.38c1.4,6.47,5.45,11.95,11.06,15,3.56,1.94,3.48,7.23,0,9.12Z" style="fill:#c885e9;"/><path d="M107.09,170.99c0,9.49,.52,17.52-3.39,26.67-1.78,4.25-2.96,10.78-3.43,16.53H35.59c-.64-9.46-4.07-22.24-7.78-30.06-4.21-9-6.39-18.81-6.39-28.74V86.17c0-2.39,2.28-4.07,4.61-3.46,6.25,1.68,11.21,6.75,12.6,13.35,11.21,53.11,9.04,42.82,11.35,53.87l6.43-6.43c6.18-6.18,16.3-7.27,23.92-1.18l21.53,17.6c3.32,2.71,5.25,6.78,5.25,11.07Z" style="fill:#e5e0c9;"/><path d="M65.29,165.25c2.24,2.24,.65,6.1-2.5,6.1-.93,0-1.86-.36-2.53-1.04l-17.85-17.85c-1.38-1.38-1.38-3.69,0-5.07l5.82-5.82,1.75,8.35,15.31,15.31Z" style="fill:#d9d2b1;"/><path d="M207.05,86.17v69.22c0,9.92-2.18,19.74-6.39,28.74-3.71,7.82-7.14,20.6-7.78,30.06h-64.69c-1.48-18.29-6.82-18.34-6.82-34.59v-8.6c0-4.28,1.93-8.35,5.25-11.07,22.88-18.71,22.03-18.08,23.2-18.81,6.96-4.5,16.24-3.61,22.24,2.39l6.43,6.43c2.45-11.68,.13-.66,11.35-53.87,1.39-6.6,6.35-11.67,12.6-13.35,2.32-.61,4.61,1.07,4.61,3.46Z" style="fill:#e5e0c9;"/><path d="M163.17,165.25c-2.24,2.24-.65,6.1,2.5,6.1,.93,0,1.86-.36,2.53-1.04l17.85-17.85c1.38-1.38,1.38-3.69,0-5.07l-5.82-5.82-1.75,8.35-15.31,15.31Z" style="fill:#d9d2b1;"/><path d="M117.8,132.08h-7.14c-11.81,0-21.42-9.61-21.42-21.42,0-1.97,1.6-3.57,3.57-3.57s3.57,1.6,3.57,3.57c0,7.87,6.41,14.28,14.28,14.28h7.14c7.87,0,14.28-6.41,14.28-14.28s-6.41-14.28-14.28-14.28h-7.14c-11.81,0-21.42-9.61-21.42-21.42s9.61-21.42,21.42-21.42h7.14c11.81,0,21.42,9.61,21.42,21.42,0,1.97-1.6,3.57-3.57,3.57s-3.57-1.6-3.57-3.57c0-7.87-6.41-14.28-14.28-14.28h-7.14c-7.87,0-14.28,6.41-14.28,14.28s6.41,14.28,14.28,14.28h7.14c11.81,0,21.42,9.61,21.42,21.42s-9.61,21.42-21.42,21.42Z" style="fill:#f7f5ee;"/><path d="M114.23,139.22c-1.97,0-3.57-1.6-3.57-3.57V49.98c0-1.97,1.6-3.57,3.57-3.57s3.57,1.6,3.57,3.57v85.68c0,1.97-1.6,3.57-3.57,3.57Z" style="fill:#f7f5ee;"/><rect x="32.13" y="214.19" width="71.4" height="14.28" rx="1" ry="1" style="fill:#a93edd;"/><rect x="124.94" y="214.19" width="71.4" height="14.28" rx="1" ry="1" style="fill:#a93edd;"/></g></g></g></svg>