<?xml version="1.0" encoding="UTF-8"?><svg xmlns="http://www.w3.org/2000/svg" viewBox="0 0 228.47 228.47"><g id="a"/><g id="b"><g id="c"><g><path d="M171.35,42.84V214.19c0,7.89-6.39,14.28-14.28,14.28H14.28c-7.89,0-14.28-6.39-14.28-14.28V14.28C0,6.39,6.39,0,14.28,0h114.23l42.84,42.84Z" style="fill:#f7f5ee;"/><circle cx="92.82" cy="182.06" r="46.41" style="fill:#bc69e4;"/><circle cx="92.82" cy="182.06" r="35.7" style="fill:#c885e9;"/><path d="M94.6,203.48h-5.35c-10.64,0-13.92-14.28-7.14-14.28,1.97,0,3.57,1.6,3.57,3.57,0,.71,.63,3.57,3.57,3.57h5.35c2.95,0,5.35-2.4,5.35-5.35s-2.4-5.35-5.35-5.35h-3.57c-6.89,0-12.49-5.61-12.49-12.49s5.61-12.49,12.49-12.49h5.35c10.56,0,14.08,14.28,7.14,14.28-1.97,0-3.57-1.6-3.57-3.57,0-2.94-2.86-3.57-3.57-3.57h-5.35c-2.95,0-5.35,2.4-5.35,5.35s2.4,5.35,5.35,5.35h3.57c6.89,0,12.49,5.61,12.49,12.49s-5.61,12.49-12.49,12.49Z" style="fill:#f7f5ee;"/><path d="M92.82,167.78c-1.97,0-3.57-1.6-3.57-3.57v-7.14c0-1.97,1.6-3.57,3.57-3.57s3.57,1.6,3.57,3.57v7.14c0,1.97-1.6,3.57-3.57,3.57Z" style="fill:#f7f5ee;"/><rect x="14.28" y="85.68" width="121.37" height="7.14" style="fill:#e5e0c9;"/><rect x="14.28" y="103.53" width="121.37" height="7.14" style="fill:#e5e0c9;"/><rect x="14.28" y="121.37" width="121.37" height="7.14" style="fill:#e5e0c9;"/><path d="M92.82,210.62c-1.97,0-3.57-1.6-3.57-3.57v-7.14c0-1.97,1.6-3.57,3.57-3.57s3.57,1.6,3.57,3.57v7.14c0,1.97-1.6,3.57-3.57,3.57Z" style="fill:#f7f5ee;"/><path d="M171.35,85.68V214.19c0,7.89-6.39,14.28-14.28,14.28h-36.84c-1.68-1.86-3.03-4-4.03-6.35,31.59-18.33,30.39-64.41-1.96-81.21v-12.39h21.42v-7.14h-21.42v-10.71h21.42v-7.14h-20.85c.86-4.11,2.78-7.78,5.43-10.71h15.42v-7.14h35.7Z" style="fill:#e5e0c9;"/><path d="M116.2,222.12c-1.29-2.93-1.96-6.18-1.96-9.6v-71.61c32.41,16.83,33.49,62.92,1.96,81.21Z" style="fill:#bc69e4;"/><path d="M135.65,92.82h-15.42c3.86-4.43,9.35-7.14,15.42-7.14v7.14Z" style="fill:#d9d2b1;"/><path d="M135.65,110.66h-21.42c0-2.5-.06-4.45,.57-7.14h20.85v7.14Z" style="fill:#d9d2b1;"/><rect x="114.23" y="121.37" width="21.42" height="7.14" style="fill:#d9d2b1;"/><path d="M228.47,108.74v103.78c0,8.82-6.39,15.96-14.28,15.96h-78.54c-7.89,0-14.28-7.14-14.28-15.96V108.77c0-8.82,6.39-15.96,14.28-15.96h78.54c7.89,0,14.24,7.1,14.28,15.92Z" style="fill:#c782e9;"/><path d="M214.19,111.02v31.41c0,2.18-1.61,3.93-3.57,3.93h-71.4c-1.96,0-3.57-1.75-3.57-3.93v-31.41c0-2.18,1.61-3.93,3.57-3.93h71.4c1.96,0,3.57,1.75,3.57,3.93Z" style="fill:#fff;"/><rect x="135.65" y="157.07" width="14.28" height="14.28" rx="1" ry="1" style="fill:#a93edd;"/><rect x="157.07" y="157.07" width="14.28" height="14.28" rx="1" ry="1" style="fill:#a93edd;"/><rect x="178.49" y="157.07" width="14.28" height="14.28" rx="1" ry="1" style="fill:#a93edd;"/><rect x="199.91" y="157.07" width="14.28" height="14.28" rx="1" ry="1" style="fill:#a93edd;"/><rect x="135.65" y="178.49" width="14.28" height="14.28" rx="1" ry="1" style="fill:#a93edd;"/><rect x="157.07" y="178.49" width="14.28" height="14.28" rx="1" ry="1" style="fill:#a93edd;"/><rect x="178.49" y="178.49" width="14.28" height="14.28" rx="1" ry="1" style="fill:#a93edd;"/><rect x="135.65" y="199.91" width="14.28" height="14.28" rx="1" ry="1" style="fill:#a93edd;"/><rect x="157.07" y="199.91" width="14.28" height="14.28" rx="1" ry="1" style="fill:#a93edd;"/><rect x="178.49" y="199.91" width="14.28" height="14.28" rx="1" ry="1" style="fill:#a93edd;"/><rect x="199.91" y="178.49" width="14.28" height="35.7" rx="1" ry="1" style="fill:#a93edd;"/><path d="M171.35,67.86v42.77c-9.53-12.63-9.53-30.14,0-42.77Z" style="fill:#e5e0c9;"/><path d="M171.35,42.84h-35.7c-3.94,0-7.14-3.2-7.14-7.14V0l42.84,42.84Z" style="fill:#e5e0c9;"/><path d="M228.47,108.74v1.89c-3.68,4.89-8.57,8.82-14.28,11.32v-10.92c0-2.18-1.61-3.93-3.57-3.93h-41.59c-2.5-4.28-4.14-9.1-4.64-14.28h49.8c7.89,0,14.24,7.1,14.28,15.92Z" style="fill:#a93edd;"/><path d="M214.19,111.02v10.92c-16.25,7.19-35.89,1.17-45.16-14.85h41.59c1.96,0,3.57,1.75,3.57,3.93Z" style="fill:#f7f5ee;"/><circle cx="199.91" cy="89.25" r="28.56" style="fill:#bc69e4;"/><circle cx="199.91" cy="89.25" r="21.42" style="fill:#c885e9;"/><path d="M198.13,98.17c-1.94,0-2.02-.54-9.66-8.19-1.39-1.39-1.39-3.65,0-5.05s3.65-1.39,5.05,0l4.62,4.62,8.19-8.19c1.39-1.39,3.65-1.39,5.05,0s1.39,3.65,0,5.05l-10.71,10.71c-.7,.7-1.61,1.05-2.52,1.05Z" style="fill:#f7f5ee;"/><rect x="14.28" y="46.41" width="71.4" height="7.14" style="fill:#e5e0c9;"/><rect x="14.28" y="67.83" width="121.37" height="7.14" style="fill:#e5e0c9;"/></g></g></g></svg>