<?xml version="1.0" encoding="UTF-8"?><svg xmlns="http://www.w3.org/2000/svg" viewBox="0 0 178.49 228.49"><g id="a"/><g id="b"><g id="c"><g><path d="M124.94,60.69h15.85c1.1,0,2,.9,2,2V215.76c0,1.1-.9,2-2,2h-15.85V60.69h0Z" style="fill:#9f28d9;"/><rect y="42.84" width="128.51" height="185.63" rx="5" ry="5" style="fill:#c782e9;"/><path d="M128.51,60.69V210.62c0,8.64-6.14,15.85-14.28,17.49-2.37,.52,4.57,.36-96.39,.36-9.89,0-17.85-8.01-17.85-17.85V60.69c0-9.85,8-17.85,17.85-17.85H110.66c9.85,0,17.85,8,17.85,17.85Z" style="fill:#c782e9;"/><path d="M21.42,0H85.68c5.91,0,10.71,4.79,10.71,10.71v53.55H32.13v-28.56" style="fill:#f7f5ee;"/><path d="M17.85,35.7h14.28V10.71c0-5.91-4.79-10.71-10.71-10.71S10.71,4.79,10.71,10.71V28.56c0,3.94,3.2,7.14,7.14,7.14Z" style="fill:#e5e0c9;"/><path d="M99.96,64.26H28.56c-1.97,0-3.57-1.6-3.57-3.57,0-1.02,.79-3.57,3.57-3.57H99.96c1.97,0,3.57,1.6,3.57,3.57,0,1.02-.79,3.57-3.57,3.57Z" style="fill:#a93edd;"/><rect x="14.28" y="71.4" width="99.96" height="57.12" rx="2" ry="2" style="fill:#a93edd;"/><rect x="21.42" y="78.54" width="85.68" height="42.84" style="fill:#f7f5ee;"/><rect x="21.42" y="139.22" width="17.85" height="17.85" rx="1" ry="1" style="fill:#a93edd;"/><rect x="53.55" y="139.22" width="17.85" height="17.85" rx="1" ry="1" style="fill:#a93edd;"/><rect x="85.68" y="139.22" width="17.85" height="17.85" rx="1" ry="1" style="fill:#a93edd;"/><rect x="21.42" y="167.78" width="17.85" height="17.85" rx="1" ry="1" style="fill:#a93edd;"/><rect x="53.55" y="167.78" width="17.85" height="17.85" rx="1" ry="1" style="fill:#a93edd;"/><rect x="21.42" y="196.34" width="17.85" height="17.85" rx="1" ry="1" style="fill:#a93edd;"/><rect x="53.55" y="196.34" width="17.85" height="17.85" rx="1" ry="1" style="fill:#a93edd;"/><rect x="85.68" y="167.78" width="17.85" height="46.41" rx="1" ry="1" style="fill:#a93edd;"/><path d="M14.28,165.33v62.78c-8.14-1.64-14.28-8.85-14.28-17.49v-71.4l5.91,5.91c5.36,5.36,8.36,12.62,8.36,20.19Z" style="fill:#a93edd;"/><path d="M128.51,139.22v71.4c0,8.64-6.14,15.85-14.28,17.49v-62.78c0-7.57,3.01-14.84,8.36-20.19l5.91-5.91Z" style="fill:#a93edd;"/><path d="M53.55,114.23h-7.14c-1.97,0-3.57-1.6-3.57-3.57,0-1.02,.79-3.57,3.57-3.57h7.14c1.97,0,3.57,1.6,3.57,3.57,0,1.02-.79,3.57-3.57,3.57Z" style="fill:#dcb0f1;"/><path d="M74.97,114.23h-7.14c-1.97,0-3.57-1.6-3.57-3.57,0-1.02,.79-3.57,3.57-3.57h7.14c1.97,0,3.57,1.6,3.57,3.57,0,1.02-.79,3.57-3.57,3.57Z" style="fill:#dcb0f1;"/><path d="M96.39,114.23h-7.14c-1.97,0-3.57-1.6-3.57-3.57,0-1.02,.79-3.57,3.57-3.57h7.14c1.97,0,3.57,1.6,3.57,3.57,0,1.02-.79,3.57-3.57,3.57Z" style="fill:#dcb0f1;"/><path d="M128.51,71.4h46.98c1.66,0,3,1.34,3,3V204.05c0,1.66-1.34,3-3,3h-46.98V71.4h0Z" style="fill:#c885e9;"/><path d="M177.45,47.45c-1.39-1.39-3.65-1.39-5.05,0l-1.05,1.05v-12.8c0-1.97-1.6-3.57-3.57-3.57s-3.57,1.6-3.57,3.57v12.8l-1.05-1.05c-1.39-1.39-3.65-1.39-5.05,0s-1.39,3.65,0,5.05l7.14,7.14c1.39,1.39,3.65,1.39,5.05,0l7.14-7.14c1.39-1.39,1.39-3.65,0-5.05Z" style="fill:#dcb0f1;"/><rect x="142.79" y="71.4" width="21.42" height="135.65" style="fill:#bc69e4;"/></g></g></g></svg>