<?xml version="1.0" encoding="UTF-8"?><svg xmlns="http://www.w3.org/2000/svg" viewBox="0 0 164.21 228.47"><g id="a"/><g id="b"><g id="c"><g><path d="M65.35,228.47h-16.46c-3.49,0-6.47-2.52-7.04-5.97l-6.15-36.87h42.84l-6.15,36.87c-.57,3.44-3.55,5.97-7.04,5.97Z" style="fill:#a93edd;"/><path d="M118.9,228.47h-16.46c-3.49,0-6.47-2.52-7.04-5.97l-6.15-36.87h42.84l-6.15,36.87c-.57,3.44-3.55,5.97-7.04,5.97Z" style="fill:#a93edd;"/><circle cx="82.11" cy="46.41" r="46.41" style="fill:#bc69e4;"/><circle cx="82.11" cy="46.41" r="35.7" style="fill:#c885e9;"/><path d="M83.89,67.83h-5.35c-10.64,0-13.92-14.28-7.14-14.28,1.97,0,3.57,1.6,3.57,3.57,0,.71,.63,3.57,3.57,3.57h5.35c2.95,0,5.35-2.4,5.35-5.35s-2.4-5.35-5.35-5.35h-3.57c-6.89,0-12.49-5.61-12.49-12.49s5.61-12.49,12.49-12.49h5.35c10.56,0,14.07,14.28,7.14,14.28-1.97,0-3.57-1.6-3.57-3.57,0-2.94-2.86-3.57-3.57-3.57h-5.35c-2.95,0-5.35,2.4-5.35,5.35s2.4,5.35,5.35,5.35h3.57c6.89,0,12.49,5.61,12.49,12.49s-5.61,12.49-12.49,12.49Z" style="fill:#fff;"/><ellipse cx="39.27" cy="92.82" rx="21.42" ry="39.27" style="fill:#a93edd;"/><ellipse cx="124.94" cy="92.82" rx="21.42" ry="39.27" style="fill:#a93edd;"/><path d="M82.11,32.13c-1.97,0-3.57-1.6-3.57-3.57v-7.14c0-1.97,1.6-3.57,3.57-3.57s3.57,1.6,3.57,3.57v7.14c0,1.97-1.6,3.57-3.57,3.57Z" style="fill:#fff;"/><path d="M82.11,74.97c-1.97,0-3.57-1.6-3.57-3.57v-7.14c0-1.97,1.6-3.57,3.57-3.57s3.57,1.6,3.57,3.57v7.14c0,1.97-1.6,3.57-3.57,3.57Z" style="fill:#fff;"/><circle cx="82.11" cy="146.36" r="71.4" style="fill:#c782e9;"/><ellipse cx="82.11" cy="171.35" rx="35.7" ry="21.42" style="fill:#a93edd;"/><circle cx="67.83" cy="171.35" r="7.14" style="fill:#9f28d9;"/><circle cx="96.39" cy="171.35" r="7.14" style="fill:#9f28d9;"/><path d="M46.41,128.51c-3.52,0-4.91-4.58-1.98-6.54,7.71-5.14,17.68-5.14,25.38,0,1.64,1.09,2.08,3.31,.99,4.95-1.09,1.64-3.32,2.08-4.95,.99-5.3-3.53-12.15-3.54-17.46,0-.61,.4-1.3,.6-1.98,.6Z" style="fill:#a93edd;"/><path d="M92.82,128.51c-3.52,0-4.91-4.58-1.98-6.54,7.71-5.14,17.68-5.14,25.38,0,1.64,1.09,2.08,3.31,.99,4.95s-3.32,2.08-4.95,.99c-5.3-3.53-12.15-3.54-17.46,0-.61,.4-1.3,.6-1.98,.6Z" style="fill:#a93edd;"/><g><path d="M15.33,36.74l-1.05,1.05v-12.8c0-1.97-1.6-3.57-3.57-3.57s-3.57,1.6-3.57,3.57v12.8l-1.05-1.05c-1.39-1.39-3.65-1.39-5.05,0s-1.39,3.65,0,5.05c7.78,7.78,7.74,8.19,9.66,8.19s2.02-.54,9.66-8.19c1.39-1.39,1.39-3.65,0-5.05s-3.65-1.39-5.05,0Z" style="fill:#dcb0f1;"/><path d="M163.17,15.33c-1.39-1.39-3.65-1.39-5.05,0l-1.05,1.05V3.57c0-1.97-1.6-3.57-3.57-3.57s-3.57,1.6-3.57,3.57v12.8l-1.05-1.05c-1.39-1.39-3.65-1.39-5.05,0s-1.39,3.65,0,5.05l7.14,7.14c1.39,1.39,3.65,1.39,5.05,0l7.14-7.14c1.39-1.39,1.39-3.65,0-5.05Z" style="fill:#dcb0f1;"/></g></g></g></g></svg>