<?xml version="1.0" encoding="UTF-8"?><svg xmlns="http://www.w3.org/2000/svg" viewBox="0 0 222.46 228.54"><g id="a"/><g id="b"><g id="c"><g><path d="M111.8,57.12c-1.97,0-3.57-1.6-3.57-3.57,0-24.69,22.08-43.54,46.44-39.68l25.51,4.03c1.95,.31,3.28,2.14,2.97,4.08-.31,1.95-2.15,3.28-4.08,2.97l-25.51-4.03c-20.05-3.16-38.19,12.34-38.19,32.63,0,1.97-1.6,3.57-3.57,3.57Z" style="fill:#e5e0c9;"/><path d="M194.83,25.33c-5.45,2.54-9.61,7.17-11.06,12.86l-.52,2.04c-.87,3.42-6.37,3.54-7.27,0l-.52-2.04c-1.4-5.54-5.45-10.25-11.06-12.86-3.56-1.66-3.48-6.2,0-7.82,5.45-2.54,9.61-7.17,11.06-12.86l.52-2.04c.87-3.42,6.37-3.54,7.27,0l.52,2.04c1.4,5.54,5.45,10.25,11.06,12.86,3.56,1.66,3.48,6.2,0,7.82Z" style="fill:#c885e9;"/><path d="M197.48,142.79c0,33.7-19.61,63.43-48.84,77.36-52.81,25.25-114.8-9.28-121.84-66.47-5.23-42.23,20.47-80.09,58.72-92.46,2.89-.96,4.85-3.61,4.85-6.75v-.93c0-3.93,3.21-7.14,7.14-7.14h28.56c3.93,0,7.14,3.21,7.14,7.14v.93c0,3.07,1.96,5.82,4.89,6.75,34.45,11.1,59.37,43.41,59.37,81.57Z" style="fill:#c782e9;"/><path d="M176.06,142.79c0,25.98-15.43,48.37-37.66,58.47-42.1,19.29-90.85-11.51-90.85-58.47,0-35.48,28.77-64.26,64.26-64.26s64.26,28.77,64.26,64.26Z" style="fill:#bc69e4;"/><circle cx="111.8" cy="142.79" r="49.98" style="fill:#c885e9;"/><path d="M115.37,174.92h-7.14c-9.84,0-17.85-8.01-17.85-17.85,0-1.97,1.6-3.57,3.57-3.57s3.57,1.6,3.57,3.57c0,5.91,4.8,10.71,10.71,10.71h7.14c5.91,0,10.71-4.8,10.71-10.71s-4.8-10.71-10.71-10.71h-7.14c-9.84,0-17.85-8.01-17.85-17.85s8.01-17.85,17.85-17.85h7.14c9.84,0,17.85,8.01,17.85,17.85,0,1.97-1.6,3.57-3.57,3.57s-3.57-1.6-3.57-3.57c0-5.91-4.8-10.71-10.71-10.71h-7.14c-5.91,0-10.71,4.8-10.71,10.71s4.8,10.71,10.71,10.71h7.14c9.84,0,17.85,8.01,17.85,17.85s-8.01,17.85-17.85,17.85Z" style="fill:#f7f5ee;"/><path d="M111.8,182.06c-1.97,0-3.57-1.6-3.57-3.57V107.09c0-1.97,1.6-3.57,3.57-3.57s3.57,1.6,3.57,3.57v71.4c0,1.97-1.6,3.57-3.57,3.57Z" style="fill:#f7f5ee;"/><path d="M197.4,145.04c-.82,33.16-20.53,61.65-48.76,75.11-4.78-5.32-8.35-11.78-10.25-18.88,22.06-10.03,37.45-32.16,37.66-57.94,7.09-1.07,14.44-.55,21.35,1.71Z" style="fill:#a93edd;"/><path d="M176.06,143.33c-.21,25.77-15.6,47.91-37.66,57.94-7.21-26.85,10.61-53.72,37.66-57.94Z" style="fill:#bc69e4;"/><circle cx="183.2" cy="189.2" r="39.27" style="fill:#dcb0f1;"/><circle cx="183.2" cy="189.2" r="28.56" style="fill:#c782e9;"/><path d="M172.49,203.48c-3.15,0-4.78-3.83-2.52-6.09l9.66-9.66v-16.37c0-1.97,1.6-3.57,3.57-3.57s3.57,1.6,3.57,3.57v17.85c0,.95-.38,1.85-1.05,2.52l-10.71,10.71c-.7,.7-1.61,1.05-2.52,1.05Z" style="fill:#f7f5ee;"/><path d="M73.64,82.11h-22.31c16.89-16.83,33.37-20.19,34.84-21.17,5.2,9.52-1.63,21.17-12.53,21.17Z" style="fill:#a93edd;"/><path d="M34.42,12.78L1.17,63.94c-3.09,4.75,.32,11.03,5.99,11.03H73.65c5.66,0,9.07-6.28,5.99-11.03L46.39,12.78c-2.82-4.33-9.16-4.33-11.97,0Z" style="fill:#c885e9;"/><path d="M40.4,49.98c-1.02,0-3.57-.79-3.57-3.57v-14.28c0-1.97,1.6-3.57,3.57-3.57,1.02,0,3.57,.79,3.57,3.57v14.28c0,1.97-1.6,3.57-3.57,3.57Z" style="fill:#f7f5ee;"/><circle cx="40.4" cy="60.69" r="3.57" style="fill:#f7f5ee;"/></g></g></g></svg>