<?xml version="1.0" encoding="UTF-8"?><svg xmlns="http://www.w3.org/2000/svg" viewBox="0 0 228.47 228.47"><g id="a"/><g id="b"><g id="c"><g><path d="M207.05,85.68H21.42c-3.31,0-4.84-4.15-2.31-6.29L111.93,.84c1.33-1.13,3.28-1.13,4.61,0l92.82,78.54c2.53,2.14,1.01,6.29-2.31,6.29Z" style="fill:#a93edd;"/><rect x="7.14" y="78.54" width="214.19" height="21.42" rx="2" ry="2" style="fill:#c782e9;"/><rect x="10.71" y="214.19" width="207.05" height="14.28" style="fill:#c782e9;"/><path d="M21.42,99.95h42.84v12.28c0,1.1-.9,2-2,2H23.42c-1.1,0-2-.9-2-2v-12.28h0Z" style="fill:#a93edd;"/><path d="M23.42,199.91H62.26c1.1,0,2,.9,2,2v12.28H21.42v-12.28c0-1.1,.9-2,2-2Z" style="fill:#a93edd;"/><rect x="28.56" y="114.23" width="28.56" height="85.68" style="fill:#c782e9;"/><path d="M164.21,99.95h42.84v12.28c0,1.1-.9,2-2,2h-38.84c-1.1,0-2-.9-2-2v-12.28h0Z" style="fill:#a93edd;"/><path d="M166.21,199.91h38.84c1.1,0,2,.9,2,2v12.28h-42.84v-12.28c0-1.1,.9-2,2-2Z" style="fill:#a93edd;"/><path d="M92.82,99.95h42.84v12.28c0,1.1-.9,2-2,2h-38.84c-1.1,0-2-.9-2-2v-12.28h0Z" style="fill:#a93edd;"/><path d="M94.82,199.91h38.84c1.1,0,2,.9,2,2v12.28h-42.84v-12.28c0-1.1,.9-2,2-2Z" style="fill:#a93edd;"/><rect x="171.35" y="114.23" width="28.56" height="85.68" style="fill:#c782e9;"/><circle cx="114.23" cy="157.07" r="46.41" style="fill:#bc69e4;"/><circle cx="114.23" cy="157.07" r="35.7" style="fill:#c885e9;"/><path d="M116.02,178.49h-5.35c-10.64,0-13.92-14.28-7.14-14.28,1.97,0,3.57,1.6,3.57,3.57,0,.71,.63,3.57,3.57,3.57h5.35c2.95,0,5.35-2.4,5.35-5.35s-2.4-5.35-5.35-5.35h-3.57c-6.89,0-12.49-5.61-12.49-12.49s5.61-12.49,12.49-12.49h5.35c10.56,0,14.08,14.28,7.14,14.28-1.97,0-3.57-1.6-3.57-3.57,0-2.94-2.86-3.57-3.57-3.57h-5.35c-2.95,0-5.35,2.4-5.35,5.35s2.4,5.35,5.35,5.35h3.57c6.89,0,12.49,5.61,12.49,12.49s-5.61,12.49-12.49,12.49Z" style="fill:#f7f5ee;"/><path d="M114.23,142.79c-1.97,0-3.57-1.6-3.57-3.57v-7.14c0-1.97,1.6-3.57,3.57-3.57s3.57,1.6,3.57,3.57v7.14c0,1.97-1.6,3.57-3.57,3.57Z" style="fill:#f7f5ee;"/><path d="M114.23,185.63c-1.97,0-3.57-1.6-3.57-3.57v-7.14c0-1.97,1.6-3.57,3.57-3.57s3.57,1.6,3.57,3.57v7.14c0,1.97-1.6,3.57-3.57,3.57Z" style="fill:#f7f5ee;"/><rect y="221.33" width="228.47" height="7.14" style="fill:#a93edd;"/><circle cx="114.23" cy="49.98" r="17.85" style="fill:#c782e9;"/></g></g></g></svg>