<?xml version="1.0" encoding="UTF-8"?><svg xmlns="http://www.w3.org/2000/svg" viewBox="0 0 228.47 228.47"><g id="a"/><g id="b"><g id="c"><g><path d="M227.43,154.54c-9.71-9.67-23.99-13.57-37.27-10.1-44.02,11.48-33.71,8.78-46.48,12.14v-.04c2.76-4.83,1.46-6.63,1.46-7.25-.43-1.61-1.39-3.07-2.82-4.11l-27.31-19.88c-6.75-4.89-14.74-7.5-23.1-7.5h-20.99c-7.39,0-14.56,2.07-20.81,5.96l-19.88,12.42c-1.04,.64-1.68,1.82-1.68,3.03v71.4c0,1.96,1.61,3.57,3.57,3.57,26.62,0,32.98-.55,44.12,2.03,33.24,7.67,35.6,8.67,43.59,8.67,11.1,0,21.74-3.43,30.74-9.92l76.39-55.01c1.73-1.23,2.07-3.74,.46-5.43Z" style="fill:#e5e0c9;"/><rect y="121.37" width="35.7" height="107.1" rx="3" ry="3" style="fill:#a93edd;"/><circle cx="21.42" cy="214.19" r="7.14" style="fill:#f7f5ee;"/><path d="M153.47,154c-1.91,5.74-7.74,12.02-15.28,14.53-7.07,2.32-14.39,1.4-20.35-2l-4.14-2.36c-1.71-1-2.32-3.18-1.32-4.89,.96-1.68,3.14-2.28,4.85-1.32l4.14,2.36c7.45,4.26,16.72,2.61,22.31-3.75l9.78-2.57Z" style="fill:#d9d2b1;"/><circle cx="164.21" cy="67.83" r="60.69" style="fill:#bc69e4;"/><circle cx="164.21" cy="67.83" r="46.41" style="fill:#c885e9;"/><path d="M93.74,29.55c-5.61,3.05-9.65,8.54-11.06,15l-.52,2.38c-.86,3.96-6.37,4.15-7.27,0l-.52-2.38c-1.4-6.47-5.45-11.95-11.06-15-3.56-1.94-3.48-7.23,0-9.12,5.61-3.05,9.65-8.54,11.06-15l.52-2.38c.86-3.96,6.37-4.15,7.27,0l.52,2.38c1.4,6.47,5.45,11.95,11.06,15,3.56,1.94,3.48,7.23,0,9.12Z" style="fill:#c885e9;"/><path d="M167.78,99.95h-7.14c-9.84,0-17.85-8.01-17.85-17.85,0-1.97,1.6-3.57,3.57-3.57s3.57,1.6,3.57,3.57c0,5.91,4.8,10.71,10.71,10.71h7.14c5.91,0,10.71-4.8,10.71-10.71s-4.8-10.71-10.71-10.71h-7.14c-9.84,0-17.85-8.01-17.85-17.85s8.01-17.85,17.85-17.85h7.14c9.84,0,17.85,8.01,17.85,17.85,0,1.97-1.6,3.57-3.57,3.57s-3.57-1.6-3.57-3.57c0-5.91-4.8-10.71-10.71-10.71h-7.14c-5.91,0-10.71,4.8-10.71,10.71s4.8,10.71,10.71,10.71h7.14c9.84,0,17.85,8.01,17.85,17.85s-8.01,17.85-17.85,17.85Z" style="fill:#f7f5ee;"/><path d="M164.21,107.09c-1.97,0-3.57-1.6-3.57-3.57V32.13c0-1.97,1.6-3.57,3.57-3.57s3.57,1.6,3.57,3.57V103.52c0,1.97-1.6,3.57-3.57,3.57Z" style="fill:#f7f5ee;"/></g></g></g></svg>