<?xml version="1.0" encoding="UTF-8"?><svg xmlns="http://www.w3.org/2000/svg" viewBox="0 0 228.47 228.47"><g id="a"/><g id="b"><g id="c"><g><path d="M174.92,182.06h-10.71l10.71,7.14h3.57l7.14,3.57v24.99c0,5.93-4.78,10.71-10.71,10.71H64.61l-7.5-7.14v-7.14l-7.14,3.57-3.57,7.14-3.61,3.57H10.71c-5.93,0-10.71-4.78-10.71-10.71V124.94c0-5.93,4.78-10.71,10.71-10.71H174.92c5.93,0,10.71,4.78,10.71,10.71v49.98l-10.71,7.14Z" style="fill:#a93edd;"/><path d="M174.92,182.06h-10.71l10.71,7.14v10.71c-9.85,0-17.85,8-17.85,17.85H57.12v-3.57l-7.14,3.57H28.56c0-9.85-8-17.85-17.85-17.85v-57.12c9.85,0,17.85-8,17.85-17.85H174.92v57.12Z" style="fill:#c782e9;"/><ellipse cx="92.82" cy="174.92" rx="24.99" ry="32.13" style="fill:#a93edd;"/><path d="M185.63,124.94v35.7h-10.71v-35.7H57.12v-10.71h117.8c5.93,0,10.71,4.78,10.71,10.71Z" style="fill:#9f28d9;"/><path d="M174.92,124.94v35.7h-59.72c-8.86-23.02-34.31-24.05-44.19-1.39-8.1-3.03-13.89-10.85-13.89-20.03v-14.28h117.8Z" style="fill:#a93edd;"/><path d="M115.2,160.64c-39.35,0-39.48,.47-44.19-1.39,9.9-22.69,35.34-21.6,44.19,1.39Z" style="fill:#9f28d9;"/><path d="M228.47,46.41v92.82c0,7.89-6.39,14.28-14.28,14.28H78.54c-7.89,0-14.28-6.39-14.28-14.28v-42.84h14.28l7.14-7.14h-10.71l-10.71-7.14V46.41c0-8.02,6.53-14.14,13.89-14.24,.36-.09-1.58-.04,57.51-.04l7.14,7.14v7.14l10.71,3.57-3.57-7.14,3.57-10.71h60.69c7.89,0,14.28,6.39,14.28,14.28Z" style="fill:#dcb0f1;"/><rect x="171.35" y="46.41" width="42.84" height="28.56" rx="2" ry="2" style="fill:#c885e9;"/><path d="M117.8,49.98c0,1.96-1.61,3.57-3.57,3.57h-35.7c-1.96,0-3.57-1.61-3.57-3.57s1.61-3.57,3.57-3.57h35.7c1.96,0,3.57,1.61,3.57,3.57Z" style="fill:#c782e9;"/><path d="M99.96,67.83h14.28c1.97,0,3.57-1.6,3.57-3.57,0-1.02-.79-3.57-3.57-3.57h-14.28c-1.97,0-3.57,1.6-3.57,3.57,0,1.02,.79,3.57,3.57,3.57Z" style="fill:#c782e9;"/><circle cx="96.39" cy="121.37" r="17.85" style="fill:#c782e9;"/><circle cx="117.8" cy="121.37" r="17.85" style="fill:#c885e9;"/><path d="M146.36,96.39h-7.14c-1.97,0-3.57-1.6-3.57-3.57,0-1.02,.79-3.57,3.57-3.57h7.14c1.97,0,3.57,1.6,3.57,3.57,0,1.02-.79,3.57-3.57,3.57Z" style="fill:#c782e9;"/><path d="M167.78,96.39h-7.14c-1.97,0-3.57-1.6-3.57-3.57,0-1.02,.79-3.57,3.57-3.57h7.14c1.97,0,3.57,1.6,3.57,3.57,0,1.02-.79,3.57-3.57,3.57Z" style="fill:#c782e9;"/><path d="M189.2,96.39h-7.14c-1.97,0-3.57-1.6-3.57-3.57,0-1.02,.79-3.57,3.57-3.57h7.14c1.97,0,3.57,1.6,3.57,3.57,0,1.02-.79,3.57-3.57,3.57Z" style="fill:#c782e9;"/><path d="M210.62,96.39h-7.14c-1.97,0-3.57-1.6-3.57-3.57,0-1.02,.79-3.57,3.57-3.57h7.14c1.97,0,3.57,1.6,3.57,3.57,0,1.02-.79,3.57-3.57,3.57Z" style="fill:#c782e9;"/><path d="M203.48,139.22c-6.81,0-3.48-14.28,7.14-14.28,1.97,0,3.57,1.6,3.57,3.57s-1.6,3.57-3.57,3.57-3.57,1.6-3.57,3.57-1.6,3.57-3.57,3.57Z" style="fill:#c782e9;"/><path d="M189.2,139.22c-1.97,0-3.57-1.6-3.57-3.57,0-13.78,11.21-24.99,24.99-24.99,1.97,0,3.57,1.6,3.57,3.57s-1.6,3.57-3.57,3.57c-9.84,0-17.85,8.01-17.85,17.85,0,1.97-1.6,3.57-3.57,3.57Z" style="fill:#c782e9;"/><path d="M28.56,178.49h21.42c1.97,0,3.57-1.6,3.57-3.57,0-1.02-.79-3.57-3.57-3.57H28.56c-1.97,0-3.57,1.6-3.57,3.57,0,1.02,.79,3.57,3.57,3.57Z" style="fill:#a93edd;"/><path d="M135.65,178.49h21.42c1.97,0,3.57-1.6,3.57-3.57,0-1.02-.79-3.57-3.57-3.57h-21.42c-1.97,0-3.57,1.6-3.57,3.57,0,1.02,.79,3.57,3.57,3.57Z" style="fill:#a93edd;"/><path d="M79.64,74.97h-15.39v-28.56c0-8.02,6.53-14.14,13.89-14.24l9.28,14.24h-8.89c-1.96,0-3.57,1.61-3.57,3.57s1.61,3.57,3.57,3.57h13.49c5.48,9.54-1.39,21.42-12.39,21.42Z" style="fill:#c782e9;"/><path d="M92.03,53.55h-13.49c-1.96,0-3.57-1.61-3.57-3.57s1.61-3.57,3.57-3.57h8.89c4.86,7.5,4.47,6.86,4.61,7.14Z" style="fill:#a93edd;"/><g><path d="M40.42,3.25L7.17,54.41c-3.09,4.75,.32,11.03,5.99,11.03H79.66c5.66,0,9.07-6.28,5.99-11.03L52.39,3.25c-2.82-4.33-9.16-4.33-11.97,0Z" style="fill:#c885e9;"/><path d="M46.41,40.45c-1.02,0-3.57-.79-3.57-3.57v-14.28c0-1.97,1.6-3.57,3.57-3.57,1.02,0,3.57,.79,3.57,3.57v14.28c0,1.97-1.6,3.57-3.57,3.57Z" style="fill:#f7f5ee;"/><circle cx="46.41" cy="51.16" r="3.57" style="fill:#f7f5ee;"/></g></g></g></g></svg>