<?xml version="1.0" encoding="UTF-8"?><svg xmlns="http://www.w3.org/2000/svg" viewBox="0 0 228.47 228.47"><g id="a"/><g id="b"><g id="c"><g><path d="M207.05,85.68H21.42c-3.31,0-4.84-4.15-2.31-6.29L111.93,.84c1.33-1.13,3.28-1.13,4.61,0l92.82,78.54c2.53,2.14,1.01,6.29-2.31,6.29Z" style="fill:#a93edd;"/><path d="M179.65,5.64l-33.25,51.16c-3.09,4.75,.32,11.03,5.99,11.03h66.5c5.66,0,9.07-6.28,5.99-11.03L191.62,5.64c-2.82-4.33-9.16-4.33-11.97,0Z" style="fill:#c885e9;"/><path d="M185.63,42.84c-1.02,0-3.57-.79-3.57-3.57v-14.28c0-1.97,1.6-3.57,3.57-3.57,1.02,0,3.57,.79,3.57,3.57v14.28c0,1.97-1.6,3.57-3.57,3.57Z" style="fill:#f7f5ee;"/><circle cx="185.63" cy="53.55" r="3.57" style="fill:#f7f5ee;"/><rect x="7.14" y="78.54" width="214.19" height="21.42" rx="2" ry="2" style="fill:#c782e9;"/><rect x="10.71" y="214.19" width="207.05" height="14.28" style="fill:#c782e9;"/><path d="M21.42,99.95h42.84v12.28c0,1.1-.9,2-2,2H23.42c-1.1,0-2-.9-2-2v-12.28h0Z" style="fill:#a93edd;"/><path d="M23.42,199.91H62.26c1.1,0,2,.9,2,2v12.28H21.42v-12.28c0-1.1,.9-2,2-2Z" style="fill:#a93edd;"/><path d="M57.12,114.23v85.68H28.56v-57.12l7.14-3.57h3.57l7.14,3.57-3.57-7.14-14.28-7.14v-14.28h28.56Z" style="fill:#c782e9;"/><path d="M164.21,99.95h42.84v12.28c0,1.1-.9,2-2,2h-38.84c-1.1,0-2-.9-2-2v-12.28h0Z" style="fill:#a93edd;"/><path d="M166.21,199.91h38.84c1.1,0,2,.9,2,2v12.28h-42.84v-12.28c0-1.1,.9-2,2-2Z" style="fill:#a93edd;"/><path d="M92.82,99.95h42.84v12.28c0,1.1-.9,2-2,2h-38.84c-1.1,0-2-.9-2-2v-12.28h0Z" style="fill:#a93edd;"/><path d="M94.82,199.91h38.84c1.1,0,2,.9,2,2v12.28h-42.84v-12.28c0-1.1,.9-2,2-2Z" style="fill:#a93edd;"/><polygon points="185.63 160.64 178.49 171.35 189.2 167.78 196.34 171.35 199.91 171.35 199.91 199.91 171.35 199.91 171.35 114.23 199.91 114.23 199.91 153.5 192.77 160.64 185.63 160.64" style="fill:#c782e9;"/><path d="M160.64,157.07c0,40.31-48.24,61.44-77.93,34.06,8.01-10.01,5.8-7.24,10.1-12.64h-10.71l-3.57-3.57-6.25,2.07c-14.46-30.54,7.65-66.33,41.95-66.33,15.31,0,28.88,7.43,37.3,18.85l-5.18,2.57c-2.36,7.11-1.55,4.69-3.57,10.71,4.03-2.01,2.5-1.25,7.14-3.57l8.17,2.71c1.64,4.75,2.53,9.85,2.53,15.14Z" style="fill:#bc69e4;"/><path d="M149.93,157.07c0,31.6-38.06,47.37-60.51,25.67l3.39-4.25h-7.1c-17.53-23.23-1.05-57.12,28.52-57.12,12.71,0,23.85,6.64,30.17,16.64l-1.61,4.78,3.36-1.68c2.43,4.78,3.78,10.21,3.78,15.96Z" style="fill:#c885e9;"/><path d="M116.02,178.49h-5.35c-10.63,0-13.93-14.28-7.14-14.28,1.97,0,3.57,1.6,3.57,3.57,0,.71,.63,3.57,3.57,3.57h5.35c2.95,0,5.35-2.4,5.35-5.35s-2.4-5.35-5.35-5.35h-3.57c-6.89,0-12.49-5.61-12.49-12.49s5.61-12.49,12.49-12.49h5.35c10.56,0,14.07,14.28,7.14,14.28-1.97,0-3.57-1.6-3.57-3.57,0-2.94-2.86-3.57-3.57-3.57h-5.35c-2.95,0-5.35,2.4-5.35,5.35s2.4,5.35,5.35,5.35h3.57c6.89,0,12.49,5.61,12.49,12.49s-5.61,12.49-12.49,12.49Z" style="fill:#f7f5ee;"/><path d="M114.23,142.79c-1.97,0-3.57-1.6-3.57-3.57v-7.14c0-1.97,1.6-3.57,3.57-3.57s3.57,1.6,3.57,3.57v7.14c0,1.97-1.6,3.57-3.57,3.57Z" style="fill:#f7f5ee;"/><path d="M114.23,185.63c-1.97,0-3.57-1.6-3.57-3.57v-7.14c0-1.97,1.6-3.57,3.57-3.57s3.57,1.6,3.57,3.57v7.14c0,1.97-1.6,3.57-3.57,3.57Z" style="fill:#f7f5ee;"/><rect y="221.33" width="228.47" height="7.14" style="fill:#a93edd;"/><circle cx="114.23" cy="49.98" r="17.85" style="fill:#c782e9;"/><path d="M10.71,149.93c-1.94,0-2.02-.54-9.66-8.19-1.39-1.39-1.39-3.65,0-5.05s3.65-1.39,5.05,0l4.62,4.62,4.62-4.62c1.39-1.39,3.65-1.39,5.05,0s1.39,3.65,0,5.05c-7.78,7.78-7.74,8.19-9.66,8.19Z" style="fill:#c885e9;"/><path d="M10.71,146.36c-1.97,0-3.57-1.6-3.57-3.57v-17.85c0-1.97,1.6-3.57,3.57-3.57s3.57,1.6,3.57,3.57v17.85c0,1.97-1.6,3.57-3.57,3.57Z" style="fill:#c885e9;"/><path d="M217.76,196.34c-1.94,0-2.02-.54-9.66-8.19-1.39-1.39-1.39-3.65,0-5.05s3.65-1.39,5.05,0l4.62,4.62,4.62-4.62c1.39-1.39,3.65-1.39,5.05,0s1.39,3.65,0,5.05c-7.78,7.78-7.74,8.19-9.66,8.19Z" style="fill:#c885e9;"/><path d="M217.76,192.77c-1.97,0-3.57-1.6-3.57-3.57v-17.85c0-1.97,1.6-3.57,3.57-3.57s3.57,1.6,3.57,3.57v17.85c0,1.97-1.6,3.57-3.57,3.57Z" style="fill:#c885e9;"/></g></g></g></svg>