<?xml version="1.0" encoding="UTF-8"?><svg xmlns="http://www.w3.org/2000/svg" viewBox="0 0 228.47 228.47"><g id="a"/><g id="b"><g id="c"><g><path d="M2,42.84H28.56V228.47H2c-1.1,0-2-.9-2-2V44.84c0-1.1,.9-2,2-2Z" style="fill:#dcb0f1;"/><path d="M199.91,42.84V221.33c0,3.93-3.21,7.14-7.14,7.14h-21.42V42.84h28.56Z" style="fill:#dcb0f1;"/><rect x="28.56" y="42.84" width="142.79" height="57.12" style="fill:#f7f5ee;"/><path d="M67.6,55.86c-1.16-3.08-5.53-3.08-6.69,0l-10.71,28.56c-.69,1.85,.24,3.9,2.09,4.6,1.85,.69,3.9-.24,4.6-2.09l1.81-4.82h11.11l1.81,4.82c.69,1.83,2.73,2.78,4.6,2.09,1.85-.69,2.78-2.75,2.09-4.6l-10.71-28.56Zm-6.22,19.1l2.88-7.68,2.88,7.68h-5.76Z" style="fill:#c782e9;"/><path d="M107.1,53.55h-21.42c-1.97,0-3.57,1.6-3.57,3.57s1.6,3.57,3.57,3.57h7.14v24.99c0,1.97,1.6,3.57,3.57,3.57s3.57-1.6,3.57-3.57v-24.99h7.14c1.97,0,3.57-1.6,3.57-3.57s-1.6-3.57-3.57-3.57Z" style="fill:#c782e9;"/><path d="M149.93,57.12v28.56c0,1.96-1.61,3.57-3.57,3.57s-3.57-1.61-3.57-3.57v-19.96c-2.07,2.07-1.04,1.03-4.61,4.64-1.39,1.39-3.68,1.39-5.07,0l-4.61-4.64v19.96c0,1.96-1.61,3.57-3.57,3.57s-3.57-1.61-3.57-3.57v-28.56c0-3.13,3.79-4.77,6.1-2.53l8.17,8.21c3.6-3.6,1.78-1.77,8.17-8.21,2.31-2.23,6.1-.59,6.1,2.53Z" style="fill:#c782e9;"/><rect x="28.56" y="99.95" width="142.79" height="128.51" style="fill:#c782e9;"/><path d="M171.35,42.84v57.12h-2.61c-7.32-4.57-13.67-10.42-18.81-17.24v-25.6c0-3.13-3.79-4.77-6.1-2.53l-5.32,5.35c-1.64-5.5-2.57-11.24-2.78-17.1h35.63Z" style="fill:#e5e0c9;"/><path d="M199.91,42.84v58.69c-3.36,1.93-6.89,3.57-10.6,4.93-2.52,.89-5.04,.83-7.32,0-3.71-1.36-7.28-3-10.64-4.93V42.84h28.56Z" style="fill:#c782e9;"/><path d="M142.79,65.72v5.28c-.61-1.18-1.18-2.39-1.64-3.64l1.64-1.64Z" style="fill:#e5e0c9;"/><path d="M224.9,21.42v18.9c0,24.95-15.56,47.44-39.27,56.06-23.45-8.53-39.27-30.84-39.27-56.06V21.42L185.63,3.57l39.27,17.85Z" style="fill:#c885e9;"/><path d="M171.35,99.95v1.57c-.89-.5-1.75-1-2.61-1.57h2.61Z" style="fill:#a93edd;"/><path d="M149.93,57.12v25.6c-2.78-3.64-5.18-7.57-7.14-11.71v-5.28l-1.64,1.64c-1.04-2.43-1.93-4.89-2.64-7.43l5.32-5.35c2.31-2.23,6.1-.59,6.1,2.53Z" style="fill:#a93edd;"/><path d="M184.41,99.74c-24.89-9.05-41.62-32.93-41.62-59.42V21.42c0-1.4,.82-2.67,2.09-3.25L184.16,.32c.94-.43,2.02-.43,2.95,0l39.27,17.85c1.28,.58,2.09,1.85,2.09,3.25v18.9c0,26.49-16.72,50.37-41.62,59.42-.79,.29-1.65,.29-2.44,0ZM149.93,23.71v16.6c0,23.06,14.29,43.89,35.7,52.25,21.41-8.36,35.7-29.19,35.7-52.25V23.71L185.63,7.49l-35.7,16.22Z" style="fill:#bc69e4;"/><path d="M177.75,63.21l-10.71-10.71c-1.39-1.39-1.39-3.65,0-5.05s3.65-1.39,5.05,0l8.19,8.19,18.9-18.9c1.39-1.39,3.65-1.39,5.05,0s1.39,3.65,0,5.05l-21.42,21.42c-1.39,1.39-3.65,1.39-5.05,0Z" style="fill:#f7f5ee;"/><rect x="35.7" y="107.09" width="107.1" height="64.26" rx="2" ry="2" style="fill:#a93edd;"/><rect x="149.93" y="135.65" width="14.28" height="14.28" rx="1" ry="1" style="fill:#f7f5ee;"/><rect x="149.93" y="157.07" width="14.28" height="14.28" rx="1" ry="1" style="fill:#f7f5ee;"/><rect x="42.84" y="182.06" width="14.28" height="14.28" rx="1" ry="1" style="fill:#dcb0f1;"/><rect x="64.26" y="182.06" width="14.28" height="14.28" rx="1" ry="1" style="fill:#dcb0f1;"/><rect x="85.68" y="182.06" width="14.28" height="14.28" rx="1" ry="1" style="fill:#dcb0f1;"/><rect x="42.84" y="203.48" width="14.28" height="14.28" rx="1" ry="1" style="fill:#dcb0f1;"/><rect x="64.26" y="203.48" width="14.28" height="14.28" rx="1" ry="1" style="fill:#dcb0f1;"/><rect x="85.68" y="203.48" width="14.28" height="14.28" rx="1" ry="1" style="fill:#dcb0f1;"/><rect x="114.23" y="182.06" width="49.98" height="7.14" style="fill:#a93edd;"/><rect x="42.84" y="114.23" width="92.82" height="49.98" style="fill:#fff;"/><path d="M121.37,189.2h35.7v27.56c0,.55-.45,1-1,1h-33.7c-.55,0-1-.45-1-1v-27.56h0Z" style="fill:#f7f5ee;"/><rect x="139.22" y="189.2" width="10.71" height="28.56" style="fill:#e5e0c9;"/><path d="M60.69,157.07h-7.14c-1.97,0-3.57-1.6-3.57-3.57,0-1.02,.79-3.57,3.57-3.57h7.14c1.97,0,3.57,1.6,3.57,3.57,0,1.02-.79,3.57-3.57,3.57Z" style="fill:#e5e0c9;"/><path d="M82.11,157.07h-7.14c-1.97,0-3.57-1.6-3.57-3.57,0-1.02,.79-3.57,3.57-3.57h7.14c1.97,0,3.57,1.6,3.57,3.57,0,1.02-.79,3.57-3.57,3.57Z" style="fill:#e5e0c9;"/><path d="M103.53,157.07h-7.14c-1.97,0-3.57-1.6-3.57-3.57,0-1.02,.79-3.57,3.57-3.57h7.14c1.97,0,3.57,1.6,3.57,3.57,0,1.02-.79,3.57-3.57,3.57Z" style="fill:#e5e0c9;"/></g></g></g></svg>