<?xml version="1.0" encoding="UTF-8"?><svg xmlns="http://www.w3.org/2000/svg" viewBox="0 0 228.47 228.47"><g id="a"/><g id="b"><g id="c"><g><circle cx="164.21" cy="164.21" r="64.26" style="fill:#bc69e4;"/><circle cx="164.21" cy="164.21" r="49.98" style="fill:#c885e9;"/><circle cx="64.26" cy="64.26" r="64.26" style="fill:#bc69e4;"/><circle cx="64.26" cy="64.26" r="49.98" style="fill:#c885e9;"/><path d="M67.83,96.39h-7.14c-9.84,0-17.85-8.01-17.85-17.85,0-1.97,1.6-3.57,3.57-3.57s3.57,1.6,3.57,3.57c0,5.91,4.8,10.71,10.71,10.71h7.14c5.91,0,10.71-4.8,10.71-10.71s-4.8-10.71-10.71-10.71h-7.14c-9.84,0-17.85-8.01-17.85-17.85s8.01-17.85,17.85-17.85h7.14c9.84,0,17.85,8.01,17.85,17.85,0,1.97-1.6,3.57-3.57,3.57s-3.57-1.6-3.57-3.57c0-5.91-4.8-10.71-10.71-10.71h-7.14c-5.91,0-10.71,4.8-10.71,10.71s4.8,10.71,10.71,10.71h7.14c9.84,0,17.85,8.01,17.85,17.85s-8.01,17.85-17.85,17.85Z" style="fill:#f7f5ee;"/><path d="M64.26,103.53c-1.97,0-3.57-1.6-3.57-3.57V28.56c0-1.97,1.6-3.57,3.57-3.57s3.57,1.6,3.57,3.57V99.96c0,1.97-1.6,3.57-3.57,3.57Z" style="fill:#f7f5ee;"/><g><path d="M177.45,76.01c-1.39-1.39-3.65-1.39-5.05,0l-1.05,1.05v-9.23c0-9.84-8.01-17.85-17.85-17.85h-10.71c-1.97,0-3.57,1.6-3.57,3.57s1.6,3.57,3.57,3.57h10.71c5.91,0,10.71,4.8,10.71,10.71v9.23l-1.05-1.05c-1.39-1.39-3.65-1.39-5.05,0s-1.39,3.65,0,5.05l7.14,7.14c1.39,1.39,3.65,1.39,5.05,0l7.14-7.14c1.39-1.39,1.39-3.65,0-5.05Z" style="fill:#dcb0f1;"/><path d="M85.67,171.35h-10.71c-5.91,0-10.71-4.8-10.71-10.71v-9.23l1.05,1.05c1.39,1.39,3.65,1.39,5.05,0s1.39-3.65,0-5.05l-7.14-7.14c-1.39-1.39-3.65-1.39-5.05,0l-7.14,7.14c-1.39,1.39-1.39,3.65,0,5.05s3.65,1.39,5.05,0l1.05-1.05v9.23c0,9.84,8.01,17.85,17.85,17.85h10.71c1.97,0,3.57-1.6,3.57-3.57s-1.6-3.57-3.57-3.57Z" style="fill:#dcb0f1;"/></g><path d="M161.24,169.76l-21.42-32.13c-1.09-1.64-.65-3.86,.99-4.95,1.64-1.1,3.86-.65,4.95,.99l18.45,27.67,18.45-27.67c1.09-1.64,3.31-2.09,4.95-.99,1.64,1.09,2.08,3.31,.99,4.95l-21.42,32.13c-1.41,2.12-4.53,2.12-5.94,0Z" style="fill:#f7f5ee;"/><path d="M164.21,196.34c-1.97,0-3.57-1.6-3.57-3.57v-24.99c0-1.97,1.6-3.57,3.57-3.57s3.57,1.6,3.57,3.57v24.99c0,1.97-1.6,3.57-3.57,3.57Z" style="fill:#f7f5ee;"/><path d="M182.06,171.35h-35.7c-1.97,0-3.57-1.6-3.57-3.57s1.6-3.57,3.57-3.57h35.7c1.97,0,3.57,1.6,3.57,3.57s-1.6,3.57-3.57,3.57Z" style="fill:#f7f5ee;"/><path d="M182.06,185.63h-35.7c-1.97,0-3.57-1.6-3.57-3.57s1.6-3.57,3.57-3.57h35.7c1.97,0,3.57,1.6,3.57,3.57s-1.6,3.57-3.57,3.57Z" style="fill:#f7f5ee;"/></g></g></g></svg>