<?xml version="1.0" encoding="UTF-8"?><svg xmlns="http://www.w3.org/2000/svg" viewBox="0 0 228.47 228.47"><g id="a"/><g id="b"><g id="c"><g><rect y="99.96" width="185.63" height="128.51" rx="14.28" ry="14.28" style="fill:#c782e9;"/><rect y="121.37" width="185.63" height="35.7" style="fill:#a93edd;"/><path d="M185.63,114.23v7.14H35.7v-21.42H171.35c7.89,0,14.28,6.39,14.28,14.28Z" style="fill:#a93edd;"/><path d="M185.63,121.37v35.7H64.26c-15.74,0-28.56-12.82-28.56-28.56v-7.14H185.63Z" style="fill:#9f28d9;"/><path d="M228.47,28.56V121.37H42.84V28.56c0-3.93,3.21-7.14,7.14-7.14H221.33c3.93,0,7.14,3.21,7.14,7.14Z" style="fill:#f7f5ee;"/><path d="M42.84,69.9V28.56c0-3.93,3.21-7.14,7.14-7.14h19.92c5.99,20.32-5.97,42.53-27.06,48.48Z" style="fill:#e5e0c9;"/><circle cx="32.13" cy="32.13" r="32.13" style="fill:#bc69e4;"/><circle cx="32.13" cy="32.13" r="24.99" style="fill:#c885e9;"/><path d="M28.56,42.84c-1.94,0-2.02-.54-9.66-8.19-1.39-1.39-1.39-3.65,0-5.05s3.65-1.39,5.05,0l4.62,4.62,11.76-11.76c1.39-1.39,3.65-1.39,5.05,0s1.39,3.65,0,5.05l-14.28,14.28c-.7,.7-1.61,1.05-2.52,1.05Z" style="fill:#f7f5ee;"/><path d="M42.84,121.37H228.47v22.56c0,3.31-2.69,6-6,6H48.84c-3.31,0-6-2.69-6-6v-22.56h0Z" style="fill:#e5e0c9;"/><circle cx="32.13" cy="196.34" r="17.85" style="fill:#a93edd;"/><circle cx="53.55" cy="196.34" r="17.85" style="fill:#c885e9;"/><path d="M110.66,214.19h-14.28c-1.97,0-3.57-1.6-3.57-3.57,0-1.02,.79-3.57,3.57-3.57h14.28c1.97,0,3.57,1.6,3.57,3.57,0,1.02-.79,3.57-3.57,3.57Z" style="fill:#a93edd;"/><path d="M139.22,214.19h-14.28c-1.97,0-3.57-1.6-3.57-3.57,0-1.02,.79-3.57,3.57-3.57h14.28c1.97,0,3.57,1.6,3.57,3.57,0,1.02-.79,3.57-3.57,3.57Z" style="fill:#a93edd;"/><path d="M167.78,214.19h-14.28c-1.97,0-3.57-1.6-3.57-3.57,0-1.02,.79-3.57,3.57-3.57h14.28c1.97,0,3.57,1.6,3.57,3.57,0,1.02-.79,3.57-3.57,3.57Z" style="fill:#a93edd;"/><path d="M110.66,185.63h57.12c1.97,0,3.57-1.6,3.57-3.57,0-1.02-.79-3.57-3.57-3.57h-57.12c-1.97,0-3.57,1.6-3.57,3.57,0,1.02,.79,3.57,3.57,3.57Z" style="fill:#a93edd;"/><circle cx="182.06" cy="71.4" r="28.56" style="fill:#c885e9;"/><path d="M189.8,76.23c11.96-7.75,6.4-26.25-7.74-26.25s-19.71,18.5-7.74,26.25c-6.47,2.11-11.79,6.76-14.71,12.8,11.44,14.57,33.48,14.56,44.91,0-2.93-6.04-8.25-10.69-14.71-12.8Z" style="fill:#bc69e4;"/><rect x="85.68" y="49.98" width="57.12" height="7.14" style="fill:#e5e0c9;"/><rect x="107.1" y="64.26" width="35.7" height="7.14" style="fill:#e5e0c9;"/></g></g></g></svg>