<?xml version="1.0" encoding="UTF-8"?><svg xmlns="http://www.w3.org/2000/svg" viewBox="0 0 228.47 228.47"><g id="a"/><g id="b"><g id="c"><g><path d="M185.63,17.85V199.91H42.84c-3.94,0-7.14-3.2-7.14-7.14V92.82L14.28,0H167.78c9.86,0,17.85,7.99,17.85,17.85Z" style="fill:#f7f5ee;"/><path d="M35.7,92.82H7.14C3.2,92.82,0,89.62,0,85.68V17.85C0,7.99,7.99,0,17.85,0s17.85,7.98,17.85,17.85V92.82Z" style="fill:#e5e0c9;"/><path d="M92.82,21.42h-28.56c-1.97,0-3.57-1.6-3.57-3.57s1.6-3.57,3.57-3.57h28.56c1.97,0,3.57,1.6,3.57,3.57s-1.6,3.57-3.57,3.57Z" style="fill:#c885e9;"/><path d="M78.54,49.98c-1.97,0-3.57-1.6-3.57-3.57V17.85c0-1.97,1.6-3.57,3.57-3.57s3.57,1.6,3.57,3.57v28.56c0,1.97-1.6,3.57-3.57,3.57Z" style="fill:#c885e9;"/><path d="M121.37,49.98c-1.45,0-2.8-.89-3.34-2.32l-7.37-19.64-7.37,19.64c-.69,1.85-2.75,2.78-4.6,2.09-1.85-.69-2.78-2.75-2.09-4.6l10.71-28.56c1.16-3.08,5.53-3.08,6.69,0l10.71,28.56c.88,2.34-.87,4.82-3.34,4.82Z" style="fill:#c885e9;"/><path d="M117.8,42.84h-14.28c-1.97,0-3.57-1.6-3.57-3.57s1.6-3.57,3.57-3.57h14.28c1.97,0,3.57,1.6,3.57,3.57s-1.6,3.57-3.57,3.57Z" style="fill:#c885e9;"/><path d="M157.08,49.98c-1.09,0-2.16-.49-2.86-1.43l-21.42-28.56c-1.18-1.58-.86-3.82,.71-5,1.58-1.19,3.82-.86,5,.71l21.42,28.56c1.78,2.37,.04,5.71-2.85,5.71Z" style="fill:#c885e9;"/><path d="M135.65,49.98c-2.9,0-4.63-3.34-2.85-5.71l21.42-28.56c1.18-1.57,3.42-1.9,5-.71,1.58,1.18,1.9,3.42,.71,5l-21.42,28.56c-.7,.93-1.77,1.43-2.86,1.43Z" style="fill:#c885e9;"/><rect x="49.98" y="67.83" width="28.56" height="7.14" style="fill:#e5e0c9;"/><rect x="92.82" y="67.83" width="78.54" height="7.14" style="fill:#e5e0c9;"/><rect x="49.98" y="89.25" width="28.56" height="7.14" style="fill:#e5e0c9;"/><rect x="92.82" y="89.25" width="57.12" height="7.14" style="fill:#e5e0c9;"/><rect x="49.98" y="110.66" width="28.56" height="7.14" style="fill:#e5e0c9;"/><rect x="92.82" y="110.66" width="78.54" height="7.14" style="fill:#e5e0c9;"/><rect x="49.98" y="132.08" width="28.56" height="7.14" style="fill:#e5e0c9;"/><rect x="92.82" y="132.08" width="78.54" height="7.14" style="fill:#e5e0c9;"/><rect x="49.98" y="153.5" width="28.56" height="7.14" style="fill:#e5e0c9;"/><rect x="92.82" y="153.5" width="78.54" height="7.14" style="fill:#e5e0c9;"/><rect x="49.98" y="174.92" width="35.7" height="7.14" style="fill:#e5e0c9;"/><path d="M185.63,99.96v99.96H114.23v-39.27h57.12v-7.14h-57.12v-14.28h57.12v-7.14h-57.12c0-9.48-.14-11.8,.32-14.28h56.8v-7.14h-54.23c3.68-6.39,10.6-10.71,18.53-10.71h49.98Z" style="fill:#e5e0c9;"/><path d="M171.35,110.66v7.14h-56.8c.39-2.57,1.29-5,2.57-7.14h54.23Z" style="fill:#d9d2b1;"/><rect x="114.23" y="132.08" width="57.12" height="7.14" style="fill:#d9d2b1;"/><rect x="114.23" y="153.5" width="57.12" height="7.14" style="fill:#d9d2b1;"/><path d="M228.47,121.34v92.85c0,7.89-6.39,14.28-14.28,14.28h-78.54c-7.89,0-14.28-6.39-14.28-14.28V121.37c0-7.89,6.39-14.28,14.28-14.28h78.54c7.89,0,14.24,6.35,14.28,14.24Z" style="fill:#c782e9;"/><rect x="135.65" y="121.37" width="78.54" height="28.56" style="fill:#fff;"/><rect x="135.65" y="157.07" width="14.28" height="14.28" rx="1" ry="1" style="fill:#a93edd;"/><rect x="157.07" y="157.07" width="14.28" height="14.28" rx="1" ry="1" style="fill:#a93edd;"/><rect x="178.49" y="157.07" width="14.28" height="14.28" rx="1" ry="1" style="fill:#a93edd;"/><rect x="199.91" y="157.07" width="14.28" height="14.28" rx="1" ry="1" style="fill:#a93edd;"/><rect x="135.65" y="178.49" width="14.28" height="14.28" rx="1" ry="1" style="fill:#a93edd;"/><rect x="157.07" y="178.49" width="14.28" height="14.28" rx="1" ry="1" style="fill:#a93edd;"/><rect x="178.49" y="178.49" width="14.28" height="14.28" rx="1" ry="1" style="fill:#a93edd;"/><rect x="135.65" y="199.91" width="14.28" height="14.28" rx="1" ry="1" style="fill:#a93edd;"/><rect x="157.07" y="199.91" width="14.28" height="14.28" rx="1" ry="1" style="fill:#a93edd;"/><rect x="178.49" y="199.91" width="14.28" height="14.28" rx="1" ry="1" style="fill:#a93edd;"/><rect x="199.91" y="178.49" width="14.28" height="35.7" rx="1" ry="1" style="fill:#a93edd;"/><path d="M185.63,67.26v39.84h-20.71c-3.43-16.87,5.61-33.26,20.71-39.84Z" style="fill:#e5e0c9;"/><path d="M228.47,121.37c-3.68,4.89-8.6,8.82-14.28,11.32v-11.32h-42.84c-3.11-4.14-5.35-9-6.43-14.28h49.26c7.99,0,14.28,6.48,14.28,14.28Z" style="fill:#a93edd;"/><path d="M214.19,121.37v11.32c-15.5,6.68-33.05,1.7-42.84-11.32h42.84Z" style="fill:#f7f5ee;"/><circle cx="199.91" cy="99.96" r="28.56" style="fill:#c885e9;"/><path d="M189.2,96.39c-3.94,0-7.14-3.2-7.14-7.14s3.2-7.14,7.14-7.14,7.14,3.2,7.14,7.14-3.2,7.14-7.14,7.14Zm0-7.14h0Z" style="fill:#fff;"/><path d="M210.62,117.8c-3.94,0-7.14-3.2-7.14-7.14s3.2-7.14,7.14-7.14,7.14,3.2,7.14,7.14-3.2,7.14-7.14,7.14Zm0-7.14h0Z" style="fill:#fff;"/><path d="M189.2,114.23c-3.15,0-4.78-3.83-2.52-6.09l21.42-21.42c1.39-1.39,3.65-1.39,5.05,0s1.39,3.65,0,5.05l-21.42,21.42c-.7,.7-1.61,1.05-2.52,1.05Z" style="fill:#fff;"/></g></g></g></svg>