<?xml version="1.0" encoding="UTF-8"?><svg xmlns="http://www.w3.org/2000/svg" viewBox="0 0 228.47 199.96"><g id="a"/><g id="b"><g id="c"><g><path d="M228.47,35.7v96.39c-8.93,0-16.79-.82-25.67,6.25-3.65,2.93-1.4,1.13-10.03,8.03H53.55V60.69c8.3-20.76,7.27-18.24,7.64-18.92,4.57-10.17,14.74-16.78,25.99-16.78h91.32c21.8,0,28.16,10.71,49.98,10.71Z" style="fill:#f7f5ee;"/><path d="M125.48,35.73c2.16,.35,3.33,2.42,3,4.07l-3.21,20.88h-7.25l3.39-21.95c.32-1.96,2.14-3.28,4.07-3Z" style="fill:#e5e0c9;"/><rect x="0" y="178.49" width="185.63" height="21.42" rx="2" ry="2" style="fill:#c782e9;"/><path d="M174.71,146.36H53.55V60.69c8.59-21.47,7.42-18.52,7.64-18.92,65.73-26.39,134.75,35.53,113.52,104.6Z" style="fill:#e5e0c9;"/><path d="M171.36,121.37c0,31.82-18.89,59.15-46.02,71.47-51.46,23.51-111.06-13.98-111.06-71.47,0-54.41,54.19-92.57,105.77-73.72,30.38,11.27,51.3,40.44,51.3,73.72Z" style="fill:#bc69e4;"/><path d="M153.51,121.37c0,24.25-14.34,45.58-35.56,55.23-39.91,18.19-85.82-10.9-85.82-55.23s45.83-73.13,85.18-55.51c21.28,9.34,36.2,30.64,36.2,55.51Z" style="fill:#c885e9;"/><path d="M151.47,105.67c-6,7.57-15.21,12.14-25.17,12.14-8.39,0-14.89-7.11-14.42-15.17,2.27,2.02,5.93,.4,5.93-2.68,0-4.21-1.46-8.1-3.93-11.17l3.43-22.92c16.67,7.32,29.38,21.95,34.16,39.8Z" style="fill:#bc69e4;"/><path d="M128.52,39.27h57.12v1.83c0,20.22-12.94,38.18-32.13,44.58l-4.22,9.84c-3.94,9.19-12.97,15.15-22.97,15.15h0c-4.48,0-7.91-3.99-7.25-8.42l9.45-62.98Z" style="fill:#f7f5ee;"/><path d="M27.52,58.16c-1.39-1.39-3.65-1.39-5.05,0l-4.62,4.62v-19.94c0-1.97-1.6-3.57-3.57-3.57s-3.57,1.6-3.57,3.57v19.94l-4.62-4.62c-.7-.7-1.61-1.05-2.52-1.05-3.15,0-4.78,3.83-2.52,6.09l10.71,10.71c1.39,1.39,3.65,1.39,5.05,0l10.71-10.71c1.39-1.39,1.39-3.65,0-5.05Z" style="fill:#c782e9;"/><path d="M173.88,18.9c-1.39-1.39-3.65-1.39-5.05,0l-4.62,4.62V3.57c0-1.97-1.6-3.57-3.57-3.57s-3.57,1.6-3.57,3.57V23.51l-4.62-4.62c-.7-.7-1.61-1.05-2.52-1.05-3.15,0-4.78,3.83-2.52,6.09l10.71,10.71c1.39,1.39,3.65,1.39,5.05,0l10.71-10.71c1.39-1.39,1.39-3.65,0-5.05Z" style="fill:#c782e9;"/><path d="M96.39,117.8v-28.56h3.57c5.89,0,10.71,4.82,10.71,10.71,0,1.07,.46,2.03,1.21,2.68,2.27,2.02,5.93,.4,5.93-2.68,0-9.84-7.97-17.85-17.85-17.85h-3.57v-3.57c0-1.96-1.61-3.57-3.57-3.57s-3.57,1.61-3.57,3.57v3.57c-11.82,0-21.42,9.6-21.42,21.42s9.6,21.42,21.42,21.42v28.56h-3.57c-5.89,0-10.71-4.82-10.71-10.71,0-1.96-1.61-3.57-3.57-3.57s-3.57,1.61-3.57,3.57c0,9.85,8,17.85,17.85,17.85h3.57v3.57c0,1.96,1.61,3.57,3.57,3.57s3.57-1.61,3.57-3.57v-3.57c11.82,0,21.42-9.6,21.42-21.42s-9.6-21.42-21.42-21.42Zm-7.14,0c-7.89,0-14.28-6.39-14.28-14.28s6.39-14.28,14.28-14.28v28.56Zm7.14,35.7v-28.56c7.89,0,14.28,6.39,14.28,14.28s-6.39,14.28-14.28,14.28Z" style="fill:#fff;"/><path d="M117.81,99.96c0,3.08-3.66,4.69-5.93,2.68,.09-1.33-.1,.2,2-13.85,2.46,3.07,3.93,6.96,3.93,11.17Z" style="fill:#f7f5ee;"/></g></g></g></svg>