<?xml version="1.0" encoding="UTF-8"?><svg xmlns="http://www.w3.org/2000/svg" viewBox="0 0 228.47 228.47"><g id="a"/><g id="b"><g id="c"><g><rect x="7.14" y="35.7" width="149.93" height="185.63" rx="2" ry="2" style="fill:#fff;"/><path d="M132.08,124.94H32.13c-1.96,0-3.57,1.61-3.57,3.57v42.84c0,1.97,1.6,3.57,3.57,3.57h99.96c1.97,0,3.57-1.6,3.57-3.57v-42.84c0-1.96-1.61-3.57-3.57-3.57Zm-74.97,42.84h-21.42v-14.28h21.42v14.28Zm0-21.42h-21.42v-14.28h21.42v14.28Zm71.4,21.42H64.26v-14.28h64.26v14.28Zm0-21.42H64.26v-14.28h64.26v14.28Z" style="fill:#c782e9;"/><path d="M44.62,85.68h-3.57c-2.96,0-5.35-2.39-5.35-5.35s2.39-5.35,5.35-5.35h5.35c1.96,0,3.57,1.61,3.57,3.57s1.61,3.57,3.57,3.57c6.77,0,3.5-14.28-7.14-14.28v-3.57c0-1.97-1.6-3.57-3.57-3.57s-3.57,1.6-3.57,3.57v3.75c-6.04,.88-10.71,6.04-10.71,12.31,0,6.89,5.6,12.49,12.49,12.49h3.57c5.31,0,7.28,6.85,3.07,9.75-1.81,1.28-3.35,.96-8.42,.96-1.96,0-3.57-1.61-3.57-3.57s-1.61-3.57-3.57-3.57c-6.77,0-3.5,14.28,7.14,14.28v3.57c0,1.97,1.6,3.57,3.57,3.57s3.57-1.6,3.57-3.57v-3.71c6.71-1.13,10.71-6.57,10.71-12.36,0-6.73-5.46-12.49-12.49-12.49Z" style="fill:#c782e9;"/><path d="M149.93,110.95v63.72c-18.75-16.68-19.33-46.36,0-63.72Z" style="fill:#f7f5ee;"/><path d="M149.93,28.56H14.28c-7.89,0-14.28,6.39-14.28,14.28V214.19c0,7.89,6.39,14.28,14.28,14.28H149.93c7.89,0,14.28-6.39,14.28-14.28V42.84c0-7.89-6.39-14.28-14.28-14.28Zm0,185.63H14.28V42.84H149.93V214.19Z" style="fill:#c885e9;"/><path d="M164.21,102.45v111.74c0,7.89-6.39,14.28-14.28,14.28h-17.92c-.27-.48-.69-1.14-1.5-3.57h-9.14v-10.71h28.56v-17.85h1.57c1.04-4.22,1.5-7.34,5.32-10.71-.57-3.75-2.5-7.25-5.64-9.85-.43-.36-.86-.71-1.25-1.11v-63.72c4.14-3.71,8.96-6.64,14.28-8.5Z" style="fill:#bc69e4;"/><path d="M149.93,196.34v17.85h-28.56v-3.57c0-7.89,6.39-14.28,14.28-14.28h14.28Z" style="fill:#f7f5ee;"/><rect x="39.27" y="17.85" width="85.68" height="35.7" rx="2" ry="2" style="fill:#c782e9;"/><path d="M96.39,14.28v3.57h-7.14v-3.57c0-3.94-3.2-7.14-7.14-7.14-2.88,0-7.14,2.25-7.14,7.14v3.57h-7.14v-3.57c0-7.89,6.39-14.28,14.28-14.28s14.28,6.39,14.28,14.28Z" style="fill:#c782e9;"/><path d="M130.51,203.48h95.96c1.1,0,2,.9,2,2v12.28h-99.96v-12.28c0-1.1,.9-2,2-2Z" style="fill:#a93edd;"/><path d="M212.61,228.47h-68.24c-3.07,0-5.8-1.97-6.77-4.88l-1.94-5.83h85.68l-1.94,5.83c-.97,2.92-3.7,4.88-6.77,4.88Z" style="fill:#c782e9;"/><path d="M214.19,142.79c0-21.06-18.23-37.86-39.77-35.47-15.96,1.77-29.09,14.5-31.28,30.41-1.8,13.09,3.5,25.03,12.6,32.56,5.27,4.36,8.47,10.73,8.47,17.58v4.91h28.56v-4.89c0-6.94,3.35-13.29,8.66-17.75,7.8-6.54,12.76-16.35,12.76-27.33Z" style="fill:#a93edd;"/><path d="M190.77,189.2h-24.55c-3.28,0-6.13,2.23-6.93,5.41l-2.22,8.87h42.84l-2.22-8.87c-.79-3.18-3.65-5.41-6.93-5.41Z" style="fill:#c782e9;"/><circle cx="99.96" cy="174.92" r="28.56" style="fill:#c885e9;"/><path d="M89.25,189.2c-3.15,0-4.78-3.83-2.52-6.09l21.42-21.42c1.39-1.39,3.65-1.39,5.05,0s1.39,3.65,0,5.05l-21.42,21.42c-.7,.7-1.61,1.05-2.52,1.05Z" style="fill:#f7f5ee;"/><path d="M110.66,189.2c-.91,0-1.83-.35-2.52-1.05l-21.42-21.42c-1.39-1.39-1.39-3.65,0-5.05s3.65-1.39,5.05,0l21.42,21.42c2.26,2.26,.62,6.09-2.52,6.09Z" style="fill:#f7f5ee;"/><rect x="71.4" y="107.1" width="42.84" height="7.14" style="fill:#e5e0c9;"/><rect x="71.4" y="92.82" width="64.26" height="7.14" style="fill:#e5e0c9;"/><rect x="71.4" y="78.54" width="64.26" height="7.14" style="fill:#e5e0c9;"/><circle cx="178.49" cy="142.79" r="17.85" style="fill:#c782e9;"/></g></g></g></svg>