<?xml version="1.0" encoding="UTF-8"?><svg xmlns="http://www.w3.org/2000/svg" viewBox="0 0 157.07 228.47"><g id="a"/><g id="b"><g id="c"><g><path d="M157.07,87.18v91.32c0,21.84-10.71,28.12-10.71,49.98H49.98c0-8.93,.82-16.79-6.25-25.67-2.93-3.65-1.13-1.4-8.03-10.03V53.55H121.37c8.96,3.58,5.02,2,17.74,7.1,10.85,4.32,17.96,14.85,17.96,26.52Z" style="fill:#c885e9;"/><path d="M128.51,56.4v107.81c0,19.55-15.9,35.7-35.7,35.7H41.41l-5.71-7.14V53.55H121.37l7.14,2.86Z" style="fill:#bc69e4;"/><path d="M121.37,28.56V164.21c0,15.87-12.91,28.56-28.56,28.56H28.56c-15.78,0-28.56-12.78-28.56-28.56V28.56C0,12.78,12.78,0,28.56,0H92.82c15.78,0,28.56,12.78,28.56,28.56Z" style="fill:#c782e9;"/><path d="M110.66,24.99V164.21c0,5.6-3.21,10.46-7.92,12.78-4.27,2.13-.9,1.5-77.75,1.5-7.89,0-14.28-6.39-14.28-14.28V24.99c0-7.89,6.39-14.28,14.28-14.28h5.57c3.07,0,5.78,1.96,6.78,4.89l.29,.93c1,2.93,3.71,4.89,6.78,4.89h32.56c3.07,0,5.78-1.96,6.78-4.89l.29-.93c1-2.93,3.71-4.89,6.78-4.89h5.57c7.89,0,14.28,6.39,14.28,14.28Z" style="fill:#fff;"/><path d="M53.55,92.82V57.12h-3.77c-2.9,0-4.59-3.28-2.9-5.64l10.91-15.28c1.42-1.99,4.39-1.99,5.81,0l10.91,15.28c1.69,2.36,0,5.64-2.9,5.64h-3.77v35.7h-14.28Z" style="fill:#c782e9;"/><path d="M96.39,107.1c0,17.04-11.99,31.37-28.06,34.88-22.37,4.86-43.34-12.2-43.34-34.88,0-19.71,15.99-35.7,35.7-35.7s35.7,15.99,35.7,35.7Z" style="fill:#c885e9;"/><path d="M62.47,103.53h-3.57c-2.96,0-5.35-2.39-5.35-5.35s2.39-5.35,5.35-5.35h5.35c1.96,0,3.57,1.61,3.57,3.57s1.61,3.57,3.57,3.57c6.77,0,3.5-14.28-7.14-14.28v-3.57c0-1.97-1.6-3.57-3.57-3.57s-3.57,1.6-3.57,3.57v3.75c-6.04,.88-10.71,6.04-10.71,12.31,0,6.89,5.6,12.49,12.49,12.49h3.57c5.31,0,7.28,6.85,3.07,9.75-1.81,1.28-3.35,.96-8.42,.96-1.96,0-3.57-1.61-3.57-3.57s-1.61-3.57-3.57-3.57c-6.77,0-3.5,14.28,7.14,14.28v3.57c0,1.97,1.6,3.57,3.57,3.57s3.57-1.6,3.57-3.57v-3.71c6.71-1.13,10.71-6.57,10.71-12.36,0-6.73-5.46-12.49-12.49-12.49Z" style="fill:#fff;"/><path d="M121.37,118.09v46.12c0,8.07-3.36,15.39-8.75,20.56-3.57-2.21-6.89-4.82-9.89-7.78,4.71-2.32,7.92-7.18,7.92-12.78v-47.73l10.71,1.61Z" style="fill:#a93edd;"/><path d="M110.66,116.48v47.73c0,5.6-3.21,10.46-7.92,12.78-5.11-5.07-9.21-11.21-11.99-18.13-8.52-3.63-16.47-6.23-22.42-16.89,13.74-3,24.52-13.92,27.34-27.74l14.99,2.25Z" style="fill:#f7f5ee;"/><path d="M95.67,114.23c-2.82,13.82-13.6,24.74-27.34,27.74-2.28-4.14-3.68-8.75-4-13.6,7.67-1.13,12.29-8.9,10.1-15.89,4.08-1.29,5.91-.54,21.24,1.75Z" style="fill:#bc69e4;"/><path d="M67.72,116.95c-.21,1.43-1.04,2.68-2.18,3.46,.54-1.25,1.29-2.43,2.18-3.46Z" style="fill:#bc69e4;"/><path d="M64.33,128.37c-.13-2.59-.18-4.93,1.21-7.96,1.14-.79,1.96-2.03,2.18-3.46,1.75-2.07,4.07-3.64,6.71-4.46,2.18,6.98-2.44,14.75-10.1,15.89Z" style="fill:#f7f5ee;"/><path d="M142.79,128.51v57.12h-1.83c-20.22,0-38.18-12.94-44.58-32.13l-9.84-4.22c-9.19-3.94-15.15-12.97-15.15-22.97h0c0-4.48,3.99-7.91,8.42-7.25l62.98,9.45Z" style="fill:#c885e9;"/><path d="M146.33,125.48c-.35,2.16-2.42,3.33-4.07,3l-20.88-3.21v-7.25l21.95,3.39c1.96,.32,3.28,2.14,3,4.07Z" style="fill:#bc69e4;"/><path d="M82.11,171.35H39.27c-1.97,0-3.57-1.6-3.57-3.57,0-1.02,.79-3.57,3.57-3.57h42.84c1.97,0,3.57,1.6,3.57,3.57,0,1.02-.79,3.57-3.57,3.57Z" style="fill:#e5e0c9;"/></g></g></g></svg>