<?xml version="1.0" encoding="UTF-8"?><svg xmlns="http://www.w3.org/2000/svg" viewBox="0 0 228.47 228.47"><g id="a"/><g id="b"><g id="c"><g><rect x="14.28" y="185.63" width="107.1" height="21.42" rx="2" ry="2" style="fill:#c885e9;"/><rect x="107.1" y="185.63" width="107.1" height="21.42" rx="2" ry="2" style="fill:#c885e9;"/><rect y="207.05" width="107.1" height="21.42" rx="2" ry="2" style="fill:#bc69e4;"/><rect x="121.37" y="207.05" width="107.1" height="21.42" rx="2" ry="2" style="fill:#bc69e4;"/><rect x="110.66" y="99.96" width="7.14" height="64.26" style="fill:#a93edd;"/><rect x="60.69" y="164.21" width="107.1" height="21.42" rx="2" ry="2" style="fill:#c885e9;"/><rect x="60.69" y="207.05" width="107.1" height="21.42" rx="2" ry="2" style="fill:#c885e9;"/><rect x="74.97" y="185.63" width="107.1" height="21.42" rx="2" ry="2" style="fill:#bc69e4;"/><circle cx="114.23" cy="57.12" r="57.12" style="fill:#bc69e4;"/><circle cx="114.23" cy="57.12" r="46.41" style="fill:#c885e9;"/><path d="M116.02,85.68h-5.35c-13.61,0-18.22-17.85-10.71-17.85,1.97,0,3.57,1.6,3.57,3.57,0,3.94,3.2,7.14,7.14,7.14h5.35c4.92,0,8.92-4,8.92-8.92s-4-8.92-8.92-8.92h-3.57c-8.86,0-16.06-7.21-16.06-16.06s7.21-16.06,16.06-16.06h5.35c13.61,0,18.22,17.85,10.71,17.85-1.97,0-3.57-1.6-3.57-3.57,0-3.94-3.2-7.14-7.14-7.14h-5.35c-4.92,0-8.92,4-8.92,8.92s4,8.92,8.92,8.92h3.57c8.86,0,16.06,7.21,16.06,16.06s-7.21,16.06-16.06,16.06Z" style="fill:#f7f5ee;"/><path d="M114.23,92.82c-1.97,0-3.57-1.6-3.57-3.57V24.99c0-1.97,1.6-3.57,3.57-3.57s3.57,1.6,3.57,3.57V89.25c0,1.97-1.6,3.57-3.57,3.57Z" style="fill:#f7f5ee;"/><path d="M125.8,114.23h39.98c1.1,0,2,.9,2,2v32.84c0,4.42-3.58,8-8,8h-41.98v-34.84c0-4.42,3.58-8,8-8Z" style="fill:#c782e9;"/><path d="M62.69,114.23h39.98c4.42,0,8,3.58,8,8v34.84h-41.98c-4.42,0-8-3.58-8-8v-32.84c0-1.1,.9-2,2-2Z" style="fill:#c782e9;"/><path d="M33.06,54.54c-5.61,3.05-9.65,8.54-11.06,15l-.52,2.38c-.86,3.96-6.37,4.15-7.27,0l-.52-2.38c-1.4-6.47-5.45-11.95-11.06-15-3.56-1.94-3.48-7.23,0-9.12,5.61-3.05,9.65-8.54,11.06-15l.52-2.38c.86-3.96,6.37-4.15,7.27,0l.52,2.38c1.4,6.47,5.45,11.95,11.06,15,3.56,1.94,3.48,7.23,0,9.12Z" style="fill:#c885e9;"/><path d="M225.83,125.94c-5.61,3.05-9.65,8.54-11.06,15l-.52,2.38c-.86,3.96-6.37,4.15-7.27,0l-.52-2.38c-1.4-6.47-5.45-11.95-11.06-15-3.56-1.94-3.48-7.23,0-9.12,5.61-3.05,9.65-8.54,11.06-15l.52-2.38c.86-3.96,6.37-4.15,7.27,0l.52,2.38c1.4,6.47,5.45,11.95,11.06,15,3.56,1.94,3.48,7.23,0,9.12Z" style="fill:#c885e9;"/></g></g></g></svg>