<?xml version="1.0" encoding="UTF-8"?><svg xmlns="http://www.w3.org/2000/svg" viewBox="0 0 199.91 228.48"><g id="a"/><g id="b"><g id="c"><g><path d="M142.79,28.57V199.92c0,15.78-12.78,28.56-28.56,28.56H28.56c-15.78,0-28.56-12.78-28.56-28.56V28.57C0,12.79,12.78,0,28.56,0,120.96,0,114.26-.03,116.13,.08c14.89,.96,26.67,13.35,26.67,28.49Z" style="fill:#a93edd;"/><path d="M132.08,32.13V192.78c0,11.82-9.6,21.42-21.42,21.42H32.13c-11.82,0-21.42-9.6-21.42-21.42V32.13c0-11.82,9.6-21.42,21.42-21.42h11.74c1.54,0,2.89,.96,3.36,2.43l1.11,3.39c1,2.93,3.71,4.89,6.78,4.89h32.56c3.07,0,5.78-1.96,6.78-4.89l1.11-3.36c.46-1.46,1.86-2.46,3.39-2.46,11.34,0,12.89-.13,15.28,.32,10.14,1.68,17.85,10.5,17.85,21.1Z" style="fill:#fff;"/><path d="M142.79,28.57V99.96h-10.71V32.13c0-10.6-7.71-19.42-17.85-21.1,0-4.25-.3-7.15,1.89-10.96,14.89,.96,26.67,13.35,26.67,28.49Z" style="fill:#9f28d9;"/><path d="M132.08,32.13V99.96h-3.57c-7.89,0-14.28-6.39-14.28-14.28v-7.14l-7.6-5.71c-5.68-4.21-5.75-12.88,0-17.14l7.6-5.71V11.04c10.14,1.68,17.85,10.5,17.85,21.1Z" style="fill:#f7f5ee;"/><path d="M121.37,7.15V51.77c0,1.12-.53,2.18-1.43,2.86l-9.04,6.78c-1.9,1.43-1.9,4.28,0,5.71l9.04,6.78c.9,.67,1.43,1.73,1.43,2.86v8.92c0,3.94,3.2,7.14,7.14,7.14h64.26c3.94,0,7.14-3.2,7.14-7.14V7.15C199.91,3.2,196.71,0,192.77,0h-64.26c-3.94,0-7.14,3.2-7.14,7.14Z" style="fill:#c885e9;"/><path d="M162.43,42.84h-3.57c-2.96,0-5.35-2.39-5.35-5.35s2.39-5.35,5.35-5.35h5.35c1.96,0,3.57,1.61,3.57,3.57s1.61,3.57,3.57,3.57c6.77,0,3.5-14.28-7.14-14.28v-3.57c0-1.97-1.6-3.57-3.57-3.57s-3.57,1.6-3.57,3.57v3.75c-6.04,.88-10.71,6.04-10.71,12.31,0,6.89,5.6,12.49,12.49,12.49h3.57c5.31,0,7.28,6.85,3.07,9.75-1.81,1.28-3.35,.96-8.42,.96-1.96,0-3.57-1.61-3.57-3.57s-1.61-3.57-3.57-3.57c-6.77,0-3.5,14.28,7.14,14.28v3.57c0,1.97,1.6,3.57,3.57,3.57s3.57-1.6,3.57-3.57v-3.71c6.71-1.13,10.71-6.57,10.71-12.36,0-6.73-5.46-12.49-12.49-12.49Z" style="fill:#fff;"/><path d="M124.94,174.22v34.48c-3.78,3.43-8.78,5.5-14.28,5.5H32.13c-5.5,0-10.5-2.07-14.28-5.5v-34.48c0-6,3.76-11.37,9.4-13.42l29.87-10.86h28.56l29.87,10.86c5.64,2.05,9.4,7.42,9.4,13.42Z" style="fill:#c782e9;"/><path d="M71.4,164.22c-7.89,0-14.28-6.39-14.28-14.28v-7.14h28.56v7.14c0,7.89-6.39,14.28-14.28,14.28Z" style="fill:#bd6be5;"/><path d="M71.4,153.51c-15.76,0-28.56-12.78-28.56-28.56v-24.99h57.12v24.99c0,15.77-12.79,28.56-28.56,28.56Z" style="fill:#c885e9;"/><rect x="35.7" y="96.39" width="7.14" height="14.28" style="fill:#9f28d9;"/><path d="M92.82,99.96H42.84c-5.91,0-10.71-4.79-10.71-10.71v-21.42h53.55c5.91,0,10.71,4.79,10.71,10.71,5.91,0,10.71,4.79,10.71,10.71v21.42h-7.14v-3.57c0-3.94-3.2-7.14-7.14-7.14Z" style="fill:#a93edd;"/><path d="M42.84,107.1v17.85h-1.78c-5.99,0-10.18-5.74-8.6-11.25,1-3.78,4.46-6.6,8.6-6.6h1.78Z" style="fill:#c885e9;"/><path d="M101.74,124.95h-1.78v-17.85h1.78c4.93,0,8.92,4,8.92,8.92s-3.99,8.92-8.92,8.92Z" style="fill:#c885e9;"/><path d="M62.66,142.42c-1.76-.88-2.48-3.03-1.6-4.79,.89-1.76,3.03-2.47,4.79-1.6,3.47,1.74,7.61,1.74,11.09,0,1.76-.88,3.91-.17,4.79,1.6s.17,3.91-1.6,4.79c-5.47,2.74-12,2.74-17.47,0Z" style="fill:#bd6be5;"/><polygon points="74.97 178.5 85.68 196.35 78.54 214.2 64.26 214.2 57.12 196.35 67.83 178.5 60.69 167.79 71.4 164.22 82.11 167.79 74.97 178.5" style="fill:#9f28d9;"/><path d="M107.1,203.49H35.7c-1.97,0-3.57-1.6-3.57-3.57,0-1.02,.79-3.57,3.57-3.57H107.1c1.97,0,3.57,1.6,3.57,3.57,0,1.02-.79,3.57-3.57,3.57Z" style="fill:#fff;"/><polygon points="71.4 164.22 53.55 174.93 50.33 152.4 57.12 149.94 71.4 164.22" style="fill:#a93edd;"/><polygon points="92.46 152.4 89.25 174.93 71.4 164.22 85.68 149.94 92.46 152.4" style="fill:#a93edd;"/></g></g></g></svg>