<?xml version="1.0" encoding="UTF-8"?><svg xmlns="http://www.w3.org/2000/svg" viewBox="0 0 157.07 228.47"><g id="a"/><g id="b"><g id="c"><g><path d="M157.07,87.18v91.32c0,21.84-10.71,28.12-10.71,49.98H49.98c0-8.93,.82-16.79-6.25-25.67-2.93-3.65-1.13-1.4-8.03-10.03V53.55H121.37c8.96,3.58,5.02,2,17.74,7.1,10.85,4.32,17.96,14.85,17.96,26.52Z" style="fill:#c885e9;"/><path d="M128.51,56.4v107.81c0,19.55-15.9,35.7-35.7,35.7H41.41l-5.71-7.14V53.55H121.37l7.14,2.86Z" style="fill:#bc69e4;"/><path d="M121.37,28.56V164.21c0,15.87-12.91,28.56-28.56,28.56H28.56c-15.78,0-28.56-12.78-28.56-28.56V28.56C0,12.78,12.78,0,28.56,0H92.82c15.78,0,28.56,12.78,28.56,28.56Z" style="fill:#c782e9;"/><path d="M110.66,24.99V164.21c0,5.6-3.21,10.42-7.89,12.74,0,2.34-18.87,1.54-77.79,1.54-7.89,0-14.28-6.39-14.28-14.28V24.99c0-7.89,6.39-14.28,14.28-14.28h5.57c3.07,0,5.78,1.96,6.78,4.89l.29,.93c1,2.93,3.71,4.89,6.78,4.89h32.56c3.07,0,5.78-1.96,6.78-4.89l.29-.93c1-2.93,3.71-4.89,6.78-4.89h5.57c7.89,0,14.28,6.39,14.28,14.28Z" style="fill:#fff;"/><path d="M82.11,171.35H39.27c-1.97,0-3.57-1.6-3.57-3.57,0-1.02,.79-3.57,3.57-3.57h42.84c1.97,0,3.57,1.6,3.57,3.57,0,1.02-.79,3.57-3.57,3.57Z" style="fill:#e5e0c9;"/><path d="M74.5,127.01c-9.6,13.43-7.19,10.06-10.92,15.28-1.43,2-4.36,2-5.78,0l-10.92-15.28c-1.68-2.36,0-5.64,2.89-5.64h3.78v-35.7h14.28v35.7h3.78c2.89,0,4.57,3.28,2.89,5.64Z" style="fill:#c782e9;"/><path d="M96.39,71.4c0,17.04-11.99,31.37-28.06,34.88-22.37,4.86-43.34-12.2-43.34-34.88,0-19.71,15.99-35.7,35.7-35.7s35.7,15.99,35.7,35.7Z" style="fill:#c885e9;"/><path d="M62.47,67.83h-3.57c-2.96,0-5.35-2.39-5.35-5.35s2.39-5.35,5.35-5.35h5.35c1.96,0,3.57,1.61,3.57,3.57s1.61,3.57,3.57,3.57c6.77,0,3.5-14.28-7.14-14.28v-3.57c0-1.97-1.6-3.57-3.57-3.57s-3.57,1.6-3.57,3.57v3.75c-6.04,.88-10.71,6.04-10.71,12.31,0,6.89,5.6,12.49,12.49,12.49h3.57c5.31,0,7.28,6.85,3.07,9.75-1.81,1.28-3.35,.96-8.42,.96-1.96,0-3.57-1.61-3.57-3.57s-1.61-3.57-3.57-3.57c-6.77,0-3.5,14.28,7.14,14.28v3.57c0,1.97,1.6,3.57,3.57,3.57s3.57-1.6,3.57-3.57v-3.71c6.71-1.13,10.71-6.57,10.71-12.36,0-6.73-5.46-12.49-12.49-12.49Z" style="fill:#fff;"/><path d="M121.37,118.09v46.12c0,8.07-3.36,15.39-8.75,20.56-3.57-2.21-6.89-4.82-9.89-7.78,4.71-2.32,7.92-7.18,7.92-12.78v-47.73l10.71,1.61Z" style="fill:#a93edd;"/><path d="M110.66,116.48v47.73c0,5.6-3.21,10.42-7.89,12.74-5.11-5-9.25-11.14-12.03-18.1l-7-3c-8.03-3.43-14.14-9.89-17.21-17.71l7.96-11.14c1.68-2.36,0-5.64-2.89-5.64h-3.78v-4.53c2.64-3.07,6.53-5,10.89-5,1.36,0-.42-.2,31.95,4.64Z" style="fill:#f7f5ee;"/><path d="M74.5,127.01l-7.96,11.14c-1.5-3.71-2.28-7.71-2.28-11.85,0-3.64,1.36-6.93,3.57-9.46v4.53h3.78c2.89,0,4.57,3.28,2.89,5.64Z" style="fill:#a93edd;"/><path d="M142.79,128.51v57.12h-1.83c-20.22,0-38.18-12.94-44.58-32.13l-9.84-4.22c-9.19-3.94-15.15-12.97-15.15-22.97h0c0-4.48,3.99-7.91,8.42-7.25l62.98,9.45Z" style="fill:#c885e9;"/><path d="M146.33,125.48c-.35,2.16-2.42,3.33-4.07,3l-20.88-3.21v-7.25l21.95,3.39c1.96,.32,3.28,2.14,3,4.07Z" style="fill:#bc69e4;"/></g></g></g></svg>