<?xml version="1.0" encoding="UTF-8"?><svg xmlns="http://www.w3.org/2000/svg" viewBox="0 0 217.19 228.47"><g id="a"/><g id="b"><g id="c"><g><rect x="37.2" width="142.79" height="228.47" rx="28.56" ry="28.56" style="fill:#dcb0f1;"/><path d="M169.28,32.13V192.77c0,11.82-9.6,21.42-21.42,21.42H69.33c-11.82,0-21.42-9.6-21.42-21.42V32.13c0-11.82,9.6-21.42,21.42-21.42h11.74c1.54,0,2.89,.96,3.36,2.43l1.11,3.39c1,2.93,3.71,4.89,6.78,4.89h32.56c3.07,0,5.78-1.96,6.78-4.89l1.11-3.36c.46-1.46,1.86-2.46,3.39-2.46h11.71c11.82,0,21.42,9.6,21.42,21.42Z" style="fill:#fff;"/><path d="M108.6,67.83v28.56H37.2v10.32c0,3.01-3.5,4.67-5.83,2.76L1.31,84.87c-1.75-1.43-1.75-4.1,0-5.53l30.06-24.6c2.33-1.91,5.83-.25,5.83,2.76v10.32H108.6Z" style="fill:#a93edd;"/><path d="M108.6,132.08v28.56h71.4v10.32c0,3.01,3.5,4.67,5.83,2.76l30.06-24.6c1.75-1.43,1.75-4.1,0-5.53l-30.06-24.6c-2.33-1.91-5.83-.25-5.83,2.76v10.32H108.6Z" style="fill:#a93edd;"/><circle cx="108.6" cy="114.23" r="46.41" style="fill:#bc69e4;"/><circle cx="108.6" cy="114.23" r="35.7" style="fill:#c885e9;"/><path d="M144.3,203.48H72.9c-1.97,0-3.57-1.6-3.57-3.57,0-1.02,.79-3.57,3.57-3.57h71.4c1.97,0,3.57,1.6,3.57,3.57,0,1.02-.79,3.57-3.57,3.57Z" style="fill:#e5e0c9;"/><circle cx="155.01" cy="28.56" r="3.57" style="fill:#e5e0c9;"/><circle cx="140.73" cy="28.56" r="3.57" style="fill:#e5e0c9;"/><path d="M110.38,135.65h-5.35c-10.64,0-13.92-14.28-7.14-14.28,1.97,0,3.57,1.6,3.57,3.57,0,.71,.63,3.57,3.57,3.57h5.35c2.95,0,5.35-2.4,5.35-5.35s-2.4-5.35-5.35-5.35h-3.57c-6.89,0-12.49-5.61-12.49-12.49s5.61-12.49,12.49-12.49h5.35c10.56,0,14.07,14.28,7.14,14.28-1.97,0-3.57-1.6-3.57-3.57,0-2.94-2.86-3.57-3.57-3.57h-5.35c-2.95,0-5.35,2.4-5.35,5.35s2.4,5.35,5.35,5.35h3.57c6.89,0,12.49,5.61,12.49,12.49s-5.61,12.49-12.49,12.49Z" style="fill:#f7f5ee;"/><path d="M108.6,99.96c-1.97,0-3.57-1.6-3.57-3.57v-7.14c0-1.97,1.6-3.57,3.57-3.57s3.57,1.6,3.57,3.57v7.14c0,1.97-1.6,3.57-3.57,3.57Z" style="fill:#f7f5ee;"/><path d="M108.6,142.79c-1.97,0-3.57-1.6-3.57-3.57v-7.14c0-1.97,1.6-3.57,3.57-3.57s3.57,1.6,3.57,3.57v7.14c0,1.97-1.6,3.57-3.57,3.57Z" style="fill:#f7f5ee;"/></g></g></g></svg>