<?xml version="1.0" encoding="UTF-8"?><svg xmlns="http://www.w3.org/2000/svg" viewBox="0 0 228.47 228.47"><g id="a"/><g id="b"><g id="c"><g><path d="M92.82,124.87h-21.42c-1.97,0-3.57-1.6-3.57-3.57V39.19h-10.71c-2.95,0-4.65-3.41-2.82-5.76L79.29,1.3c1.35-1.74,4.28-1.74,5.63,0l24.99,32.13c1.83,2.36,.13,5.76-2.82,5.76h-10.71V121.3c0,1.97-1.6,3.57-3.57,3.57Z" style="fill:#c782e9;"/><path d="M46.41,196.34H24.99c-1.97,0-3.57-1.6-3.57-3.57v-35.7H10.71c-2.95,0-4.65-3.41-2.82-5.76l24.99-32.13c1.35-1.74,4.28-1.74,5.63,0l24.99,32.13c1.83,2.36,.13,5.76-2.82,5.76h-10.71v35.7c0,1.97-1.6,3.57-3.57,3.57Z" style="fill:#c782e9;"/><path d="M203.48,192.77h-21.42c-1.97,0-3.57-1.6-3.57-3.57V53.55h-10.71c-2.95,0-4.65-3.41-2.82-5.76l24.99-32.13c1.35-1.74,4.28-1.74,5.63,0l24.99,32.13c1.83,2.36,.13,5.76-2.82,5.76h-10.71V189.2c0,1.97-1.6,3.57-3.57,3.57Z" style="fill:#c782e9;"/><rect x="14.28" y="185.63" width="107.1" height="21.42" rx="2" ry="2" style="fill:#c885e9;"/><rect x="107.1" y="185.63" width="107.1" height="21.42" rx="2" ry="2" style="fill:#c885e9;"/><rect y="207.05" width="107.1" height="21.42" rx="2" ry="2" style="fill:#bc69e4;"/><rect x="121.37" y="207.05" width="107.1" height="21.42" rx="2" ry="2" style="fill:#bc69e4;"/><rect x="60.69" y="164.21" width="107.1" height="21.42" rx="2" ry="2" style="fill:#c885e9;"/><circle cx="114.23" cy="107.1" r="57.12" style="fill:#bc69e4;"/><circle cx="114.23" cy="107.1" r="46.41" style="fill:#c885e9;"/><path d="M116.02,135.65h-5.35c-13.61,0-18.22-17.85-10.71-17.85,1.97,0,3.57,1.6,3.57,3.57,0,3.94,3.2,7.14,7.14,7.14h5.35c4.92,0,8.92-4,8.92-8.92s-4-8.92-8.92-8.92h-3.57c-8.86,0-16.06-7.21-16.06-16.06s7.21-16.06,16.06-16.06h5.35c13.61,0,18.22,17.85,10.71,17.85-1.97,0-3.57-1.6-3.57-3.57,0-3.94-3.2-7.14-7.14-7.14h-5.35c-4.92,0-8.92,4-8.92,8.92s4,8.92,8.92,8.92h3.57c8.86,0,16.06,7.21,16.06,16.06s-7.21,16.06-16.06,16.06Z" style="fill:#f7f5ee;"/><path d="M114.23,142.79c-1.97,0-3.57-1.6-3.57-3.57V74.97c0-1.97,1.6-3.57,3.57-3.57s3.57,1.6,3.57,3.57v64.26c0,1.97-1.6,3.57-3.57,3.57Z" style="fill:#f7f5ee;"/><rect x="60.69" y="207.05" width="107.1" height="21.42" rx="2" ry="2" style="fill:#c885e9;"/><rect x="74.97" y="185.63" width="107.1" height="21.42" rx="2" ry="2" style="fill:#bc69e4;"/><path d="M217.76,157.07c-1.02,0-3.57-.79-3.57-3.57v-28.56c0-1.97,1.6-3.57,3.57-3.57,1.02,0,3.57,.79,3.57,3.57v28.56c0,1.97-1.6,3.57-3.57,3.57Z" style="fill:#dcb0f1;"/><path d="M46.41,110.66c-1.02,0-3.57-.79-3.57-3.57v-28.56c0-1.97,1.6-3.57,3.57-3.57,1.02,0,3.57,.79,3.57,3.57v28.56c0,1.97-1.6,3.57-3.57,3.57Z" style="fill:#dcb0f1;"/></g></g></g></svg>