<?xml version="1.0" encoding="UTF-8"?><svg xmlns="http://www.w3.org/2000/svg" viewBox="0 0 228.47 228.47"><g id="a"/><g id="b"><g id="c"><g><path d="M207.05,85.68v121.37c0,3.9-3.23,7.14-7.14,7.14H7.14c-3.93,0-7.14-3.25-7.14-7.14V85.68H207.05Z" style="fill:#c782e9;"/><polygon points="207.05 85.68 103.53 164.21 0 85.68 103.53 7.14 207.05 85.68" style="fill:#9f28d9;"/><path d="M178.49,7.14V107.35l-74.97,56.87L28.56,107.35V7.14c0-3.94,3.2-7.14,7.14-7.14H171.35c3.94,0,7.14,3.2,7.14,7.14Z" style="fill:#f7f5ee;"/><path d="M105.31,35.7h-3.57c-2.96,0-5.35-2.39-5.35-5.35s2.39-5.35,5.35-5.35h5.35c1.96,0,3.57,1.61,3.57,3.57s1.61,3.57,3.57,3.57c6.77,0,3.5-14.28-7.14-14.28v-3.57c0-1.97-1.6-3.57-3.57-3.57s-3.57,1.6-3.57,3.57v3.75c-6.04,.88-10.71,6.04-10.71,12.31,0,6.89,5.6,12.49,12.49,12.49h3.57c5.31,0,7.28,6.85,3.07,9.75-1.81,1.28-3.35,.96-8.42,.96-1.96,0-3.57-1.61-3.57-3.57s-1.61-3.57-3.57-3.57c-6.77,0-3.5,14.28,7.14,14.28v3.57c0,1.97,1.6,3.57,3.57,3.57s3.57-1.6,3.57-3.57v-3.71c6.71-1.13,10.71-6.57,10.71-12.36,0-6.73-5.46-12.49-12.49-12.49Z" style="fill:#c885e9;"/><path d="M204.59,212.41c-1.25,1.14-2.89,1.78-4.68,1.78H7.14c-1.78,0-3.43-.64-4.68-1.78l92.67-67.11c5-3.61,11.78-3.61,16.78,0,73.53,53.25,12.03,8.69,92.67,67.11Z" style="fill:#a93edd;"/><rect x="60.69" y="78.54" width="85.68" height="7.14" style="fill:#e5e0c9;"/><rect x="60.69" y="96.39" width="85.68" height="7.14" style="fill:#e5e0c9;"/><rect x="60.69" y="114.23" width="85.68" height="7.14" style="fill:#e5e0c9;"/><circle cx="185.63" cy="185.63" r="42.84" style="fill:#c885e9;"/><circle cx="185.63" cy="185.63" r="32.13" style="fill:#bc69e4;"/><path d="M179.54,197.08l-10.71-10.71c-1.39-1.39-1.39-3.65,0-5.05s3.65-1.39,5.05,0l8.19,8.19,15.33-15.33c1.39-1.39,3.65-1.39,5.05,0s1.39,3.65,0,5.05l-17.85,17.85c-1.39,1.39-3.65,1.39-5.05,0Z" style="fill:#f7f5ee;"/></g></g></g></svg>