<?xml version="1.0" encoding="UTF-8"?><svg xmlns="http://www.w3.org/2000/svg" viewBox="0 0 228.47 228.47"><g id="a"/><g id="b"><g id="c"><g><rect x="142.79" y="82.11" width="7.14" height="46.41" style="fill:#c782e9;"/><ellipse cx="146.36" cy="157.07" rx="57.12" ry="32.13" style="fill:#c885e9;"/><circle cx="146.36" cy="46.41" r="46.41" style="fill:#bc69e4;"/><circle cx="146.36" cy="46.41" r="35.7" style="fill:#c885e9;"/><path d="M220.28,83.15l-7.14-7.14c-1.39-1.39-3.65-1.39-5.05,0l-7.14,7.14c-1.39,1.39-1.39,3.65,0,5.05s3.65,1.39,5.05,0l1.05-1.05v12.8c0,1.97,1.6,3.57,3.57,3.57s3.57-1.6,3.57-3.57v-12.8c1.24,1.24,1.91,2.09,3.57,2.09,3.15,0,4.78-3.83,2.52-6.09Z" style="fill:#c885e9;"/><path d="M91.77,26.03l-7.14-7.14c-1.39-1.39-3.65-1.39-5.05,0l-7.14,7.14c-1.39,1.39-1.39,3.65,0,5.05s3.65,1.39,5.05,0l1.05-1.05v12.8c0,1.97,1.6,3.57,3.57,3.57s3.57-1.6,3.57-3.57v-12.8c1.24,1.24,1.91,2.09,3.57,2.09,3.15,0,4.78-3.83,2.52-6.09Z" style="fill:#c885e9;"/><path d="M148.15,67.83h-5.35c-10.64,0-13.92-14.28-7.14-14.28,1.97,0,3.57,1.6,3.57,3.57,0,.71,.63,3.57,3.57,3.57h5.35c2.95,0,5.35-2.4,5.35-5.35s-2.4-5.35-5.35-5.35h-3.57c-6.89,0-12.49-5.61-12.49-12.49s5.61-12.49,12.49-12.49h5.35c10.56,0,14.07,14.28,7.14,14.28-1.97,0-3.57-1.6-3.57-3.57,0-2.94-2.86-3.57-3.57-3.57h-5.35c-2.95,0-5.35,2.4-5.35,5.35s2.4,5.35,5.35,5.35h3.57c6.89,0,12.49,5.61,12.49,12.49s-5.61,12.49-12.49,12.49Z" style="fill:#f7f5ee;"/><path d="M146.36,32.13c-1.97,0-3.57-1.6-3.57-3.57v-7.14c0-1.97,1.6-3.57,3.57-3.57s3.57,1.6,3.57,3.57v7.14c0,1.97-1.6,3.57-3.57,3.57Z" style="fill:#f7f5ee;"/><path d="M146.36,74.97c-1.97,0-3.57-1.6-3.57-3.57v-7.14c0-1.97,1.6-3.57,3.57-3.57s3.57,1.6,3.57,3.57v7.14c0,1.97-1.6,3.57-3.57,3.57Z" style="fill:#f7f5ee;"/><path d="M227.43,154.54c-9.71-9.67-23.99-13.57-37.27-10.1-44.02,11.48-33.71,8.78-46.48,12.14v-.04c2.76-4.83,1.46-6.63,1.46-7.25-.43-1.61-1.39-3.07-2.82-4.11l-27.31-19.88c-6.75-4.89-14.74-7.5-23.1-7.5h-20.99c-7.39,0-14.56,2.07-20.81,5.96l-19.88,12.42c-1.04,.64-1.68,1.82-1.68,3.03v71.4c0,1.96,1.61,3.57,3.57,3.57,26.62,0,32.98-.55,44.12,2.03,33.24,7.67,35.6,8.67,43.59,8.67,11.1,0,21.74-3.43,30.74-9.92l76.39-55.01c1.73-1.23,2.07-3.74,.46-5.43Z" style="fill:#e5e0c9;"/><rect y="121.37" width="35.7" height="107.1" rx="3" ry="3" style="fill:#a93edd;"/><circle cx="21.42" cy="214.19" r="7.14" style="fill:#f7f5ee;"/><path d="M153.47,154c-1.91,5.74-7.74,12.02-15.28,14.53-7.07,2.32-14.39,1.4-20.35-2l-4.14-2.36c-1.71-1-2.32-3.18-1.32-4.89,.96-1.68,3.14-2.28,4.85-1.32l4.14,2.36c7.45,4.26,16.72,2.61,22.31-3.75l9.78-2.57Z" style="fill:#d9d2b1;"/><path d="M153.5,117.8h-7.14c0-11.83,9.59-21.42,21.42-21.42h7.14c0,11.83-9.59,21.42-21.42,21.42Z" style="fill:#c782e9;"/><path d="M146.36,121.37h-7.14c-11.83,0-21.42-9.59-21.42-21.42h7.14c11.83,0,21.42,9.59,21.42,21.42Z" style="fill:#c782e9;"/></g></g></g></svg>