<?xml version="1.0" encoding="UTF-8"?><svg xmlns="http://www.w3.org/2000/svg" viewBox="0 0 214.19 228.47"><g id="a"/><g id="b"><g id="c"><g><path d="M192.77,28.56V199.91c0,15.78-12.78,28.56-28.56,28.56H78.54c-15.78,0-28.56-12.78-28.56-28.56,0-186.9-.47-173.69,1.11-179.21C54.48,8.75,65.47,0,78.54,0h85.68C179.99,0,192.77,12.78,192.77,28.56Z" style="fill:#a93edd;"/><path d="M182.06,32.13V192.77c0,11.82-9.6,21.42-21.42,21.42H82.11c-11.82,0-21.42-9.6-21.42-21.42,0-175.91-.32-162.42,.75-166.25,2.46-9.1,10.78-15.81,20.67-15.81h11.74c1.54,0,2.89,.96,3.36,2.43l1.11,3.39c1,2.93,3.71,4.89,6.78,4.89h32.56c3.07,0,5.78-1.96,6.78-4.89l1.11-3.36c.46-1.46,1.86-2.46,3.39-2.46h11.71c11.82,0,21.42,9.6,21.42,21.42Z" style="fill:#fff;"/><path d="M192.77,28.56v28.09c-2.28,.64-4.04,.46-10.71,.46v-24.99c0-11.82-9.6-21.42-21.42-21.42h-11.71c-1.54,0-2.93,1-3.39,2.46l-1.11,3.36c-1,2.93-3.71,4.89-6.78,4.89h-5.57V7.14c0-2.61,.71-5.03,1.93-7.14h30.2C179.99,0,192.77,12.78,192.77,28.56Z" style="fill:#9f28d9;"/><path d="M182.06,32.13v24.99h-35.7c-7.89,0-14.28-6.39-14.28-14.28V21.42h5.57c3.07,0,5.78-1.96,6.78-4.89l1.11-3.36c.46-1.46,1.86-2.46,3.39-2.46h11.71c11.82,0,21.42,9.6,21.42,21.42Z" style="fill:#f7f5ee;"/><path d="M205.64,1.97l-9.3,13.02V7.14C196.34,3.2,193.14,0,189.2,0h-42.84c-3.94,0-7.14,3.2-7.14,7.14V42.84c0,3.94,3.2,7.14,7.14,7.14h42.84c3.94,0,7.14-3.2,7.14-7.14v-7.85l9.3,13.02c2.67,3.74,8.55,1.82,8.55-2.74V4.71c0-4.56-5.89-6.47-8.55-2.74Z" style="fill:#c885e9;"/><path d="M160.64,32.6v-15.22c0-2.85,3.18-4.55,5.55-2.97l11.41,7.61c2.12,1.41,2.12,4.53,0,5.94l-11.41,7.61c-2.37,1.58-5.55-.12-5.55-2.97Z" style="fill:#f7f5ee;"/><path d="M174.92,174.21v34.48c-3.78,3.43-8.78,5.5-14.28,5.5H82.11c-5.5,0-10.5-2.07-14.28-5.5v-34.48c0-6,3.76-11.37,9.4-13.42l29.87-10.86h28.56l29.87,10.86c5.64,2.05,9.4,7.42,9.4,13.42Z" style="fill:#c782e9;"/><path d="M121.37,164.21c-7.89,0-14.28-6.39-14.28-14.28v-7.14h28.56v7.14c0,7.89-6.39,14.28-14.28,14.28Z" style="fill:#bd6be5;"/><path d="M121.37,153.5c-15.76,0-28.56-12.78-28.56-28.56v-24.99h57.12v24.99c0,15.77-12.79,28.56-28.56,28.56Z" style="fill:#c885e9;"/><rect x="85.68" y="96.39" width="7.14" height="14.28" style="fill:#9f28d9;"/><path d="M142.79,99.96h-49.98c-5.91,0-10.71-4.79-10.71-10.71v-21.42h53.55c5.91,0,10.71,4.79,10.71,10.71,5.91,0,10.71,4.79,10.71,10.71v21.42h-7.14v-3.57c0-3.94-3.2-7.14-7.14-7.14Z" style="fill:#a93edd;"/><path d="M92.82,107.1v17.85h-1.78c-5.99,0-10.18-5.74-8.6-11.25,1-3.78,4.46-6.6,8.6-6.6h1.78Z" style="fill:#c885e9;"/><path d="M151.72,124.94h-1.78v-17.85h1.78c4.93,0,8.92,4,8.92,8.92s-3.99,8.92-8.92,8.92Z" style="fill:#c885e9;"/><path d="M112.64,142.42c-1.76-.88-2.48-3.03-1.6-4.79,.89-1.76,3.03-2.47,4.79-1.6,3.47,1.74,7.61,1.74,11.09,0,1.76-.88,3.91-.17,4.79,1.6s.17,3.91-1.6,4.79c-5.47,2.74-12,2.74-17.47,0Z" style="fill:#bd6be5;"/><polygon points="124.94 178.49 135.65 196.34 128.51 214.19 114.23 214.19 107.1 196.34 117.8 178.49 110.66 167.78 121.37 164.21 132.08 167.78 124.94 178.49" style="fill:#9f28d9;"/><path d="M157.07,203.48H85.68c-1.97,0-3.57-1.6-3.57-3.57,0-1.02,.79-3.57,3.57-3.57h71.4c1.97,0,3.57,1.6,3.57,3.57,0,1.02-.79,3.57-3.57,3.57Z" style="fill:#fff;"/><polygon points="121.37 164.21 103.53 174.92 100.31 152.4 107.1 149.93 121.37 164.21" style="fill:#a93edd;"/><polygon points="142.44 152.4 139.22 174.92 121.37 164.21 135.65 149.93 142.44 152.4" style="fill:#a93edd;"/><path d="M61.44,26.52c-1.04,3.71-.75,.15-.75,68.9-3.25,2.36-6.85,4.28-10.71,5.64,0-77.73-.46-74.87,1.11-80.36,3.75,1.43,7.21,3.39,10.35,5.82Z" style="fill:#9f28d9;"/><path d="M60.69,95.42c0-68.53-.29-65.17,.75-68.9,23.1,17.31,22.73,52.08-.75,68.9Z" style="fill:#f7f5ee;"/><circle cx="35.7" cy="60.69" r="35.7" style="fill:#c885e9;"/><path d="M37.48,82.11h-5.35c-10.64,0-13.92-14.28-7.14-14.28,1.97,0,3.57,1.6,3.57,3.57,0,.71,.63,3.57,3.57,3.57h5.35c2.95,0,5.35-2.4,5.35-5.35s-2.4-5.35-5.35-5.35h-3.57c-6.89,0-12.49-5.61-12.49-12.49s5.61-12.49,12.49-12.49h5.35c10.56,0,14.07,14.28,7.14,14.28-1.97,0-3.57-1.6-3.57-3.57,0-2.94-2.86-3.57-3.57-3.57h-5.35c-2.95,0-5.35,2.4-5.35,5.35s2.4,5.35,5.35,5.35h3.57c6.89,0,12.49,5.61,12.49,12.49s-5.61,12.49-12.49,12.49Z" style="fill:#f7f5ee;"/><path d="M35.7,46.41c-1.97,0-3.57-1.6-3.57-3.57v-7.14c0-1.97,1.6-3.57,3.57-3.57s3.57,1.6,3.57,3.57v7.14c0,1.97-1.6,3.57-3.57,3.57Z" style="fill:#f7f5ee;"/><path d="M35.7,89.25c-1.97,0-3.57-1.6-3.57-3.57v-7.14c0-1.97,1.6-3.57,3.57-3.57s3.57,1.6,3.57,3.57v7.14c0,1.97-1.6,3.57-3.57,3.57Z" style="fill:#f7f5ee;"/><circle cx="35.7" cy="110.67" r="7.14" style="fill:#f7f5ee;"/></g></g></g></svg>