<?xml version="1.0" standalone="no"?>
<!DOCTYPE svg PUBLIC "-//W3C//DTD SVG 20010904//EN"
 "http://www.w3.org/TR/2001/REC-SVG-20010904/DTD/svg10.dtd">
<svg version="1.0" xmlns="http://www.w3.org/2000/svg"
 width="2787.000000pt" height="2787.000000pt" viewBox="0 0 2787.000000 2787.000000"
 preserveAspectRatio="xMidYMid meet">
<metadata>
Created by potrace 1.14, written by Peter Selinger 2001-2017
</metadata>
<g transform="translate(0.000000,2787.000000) scale(0.100000,-0.100000)"
fill="#000000" stroke="none">
<path d="M13587 25203 c-3 -5 -8 -28 -13 -53 -4 -25 -8 -47 -9 -50 -2 -5 -15
-69 -22 -105 -2 -11 -6 -36 -9 -55 -3 -19 -7 -42 -9 -50 -10 -32 -34 -181 -71
-435 -31 -216 -49 -354 -69 -545 -3 -30 -8 -68 -10 -85 -5 -41 -14 -129 -20
-195 -10 -122 -16 -187 -20 -220 -2 -19 -7 -75 -10 -125 -4 -49 -9 -108 -11
-130 -8 -89 -27 -437 -39 -705 -22 -498 -22 -1396 0 -1940 5 -116 17 -384 20
-425 1 -22 6 -94 9 -160 4 -66 9 -147 11 -180 12 -145 15 -174 20 -250 3 -44
7 -100 10 -125 2 -25 7 -76 10 -115 3 -38 8 -86 10 -105 2 -19 6 -72 10 -117
3 -46 8 -91 9 -100 2 -10 7 -54 10 -98 4 -44 9 -87 11 -95 2 -8 6 -46 10 -85
3 -38 8 -81 10 -95 2 -14 7 -52 10 -85 6 -58 9 -83 20 -162 3 -21 8 -58 11
-83 2 -25 6 -56 8 -70 2 -14 7 -52 11 -85 4 -33 9 -68 11 -79 2 -10 6 -44 9
-75 4 -31 8 -63 10 -71 2 -8 7 -35 10 -60 14 -103 41 -279 50 -330 2 -14 7
-43 10 -65 3 -23 8 -52 10 -65 3 -14 8 -43 10 -65 3 -22 10 -65 15 -95 6 -30
13 -68 15 -85 3 -16 10 -52 15 -80 5 -27 11 -63 14 -80 5 -34 40 -226 61 -330
8 -38 16 -81 18 -95 3 -14 17 -83 31 -155 14 -71 28 -139 30 -150 9 -42 97
-443 111 -500 8 -33 33 -136 55 -230 23 -93 44 -180 46 -193 4 -21 111 -433
134 -517 5 -16 18 -66 30 -110 85 -327 268 -920 430 -1400 67 -198 193 -551
210 -590 5 -11 20 -51 34 -90 38 -108 240 -623 270 -690 8 -16 39 -91 70 -165
30 -74 91 -215 135 -313 l80 -178 -122 -132 c-67 -73 -133 -144 -147 -158
-280 -295 -381 -398 -571 -588 -294 -294 -485 -478 -755 -727 -182 -169 -475
-431 -521 -467 -14 -11 -35 -30 -47 -41 -12 -12 -51 -46 -86 -76 -35 -30 -82
-71 -104 -91 -202 -178 -961 -789 -988 -797 -10 -2 -18 -9 -18 -14 0 -5 -5 -6
-12 -2 -6 4 -8 3 -5 -3 9 -14 -343 -280 -898 -681 -334 -241 -882 -610 -1310
-882 -55 -35 -122 -78 -150 -95 -74 -48 -576 -355 -580 -355 -2 0 -50 -27
-107 -61 -91 -54 -160 -94 -290 -168 -21 -11 -55 -31 -75 -42 -109 -62 -195
-110 -253 -141 -36 -20 -85 -47 -110 -60 -205 -113 -317 -171 -680 -355 -184
-93 -382 -191 -440 -218 -58 -27 -159 -74 -225 -105 -66 -32 -142 -67 -170
-80 -27 -12 -81 -37 -120 -55 -38 -18 -86 -40 -105 -48 -19 -8 -66 -30 -105
-47 -38 -18 -124 -54 -190 -82 -66 -27 -140 -59 -165 -70 -25 -11 -79 -34
-120 -50 -41 -17 -99 -41 -128 -54 -130 -59 -39 -10 309 164 206 104 390 198
409 209 19 11 112 62 205 113 332 182 920 540 1180 719 299 205 530 371 745
534 134 102 378 294 390 307 3 3 59 50 125 105 117 97 354 302 386 334 9 9 61
56 115 105 124 112 663 652 764 765 41 46 82 91 91 100 18 19 228 258 255 291
26 32 92 110 118 140 11 14 46 56 76 95 70 89 70 90 122 155 236 297 660 912
781 1133 10 17 26 46 37 62 11 17 29 48 41 70 12 22 24 42 28 45 3 3 13 19 21
35 8 17 24 46 36 65 95 156 391 740 460 906 9 21 26 62 39 89 98 218 268 663
360 945 48 149 176 591 190 655 2 11 22 97 44 190 48 206 124 598 136 710 2
17 4 30 5 30 2 0 6 27 14 105 4 35 9 67 11 70 1 3 6 37 9 75 4 39 9 77 11 85
2 8 6 47 10 85 3 39 8 93 10 120 10 108 15 164 20 270 4 61 8 139 11 175 5 81
5 685 0 760 -2 30 -7 110 -11 177 -3 67 -7 130 -9 140 -2 10 -7 63 -10 118 -4
55 -9 107 -11 115 -2 8 -7 44 -10 80 -3 36 -8 72 -10 80 -2 8 -6 42 -10 75 -3
33 -8 67 -10 75 -2 8 -6 37 -10 65 -9 69 -59 340 -85 455 -46 208 -152 592
-180 655 -5 11 -20 52 -34 90 -13 39 -33 90 -44 115 l-21 45 -2 -40 c-1 -22
-3 -51 -4 -65 -1 -14 -6 -68 -10 -120 -4 -52 -8 -97 -10 -100 -2 -3 -6 -50
-10 -105 -3 -54 -8 -102 -10 -105 -1 -3 -6 -37 -9 -76 -4 -39 -8 -81 -11 -92
-2 -11 -6 -47 -10 -79 -3 -33 -7 -70 -9 -84 -6 -33 -17 -118 -22 -154 -4 -33
-17 -127 -19 -135 -1 -3 -5 -30 -9 -60 -4 -30 -18 -118 -31 -195 -13 -77 -26
-156 -29 -175 -3 -19 -8 -46 -11 -60 -3 -14 -9 -50 -15 -80 -5 -30 -12 -71
-16 -90 -3 -19 -7 -44 -9 -55 -7 -50 -92 -453 -142 -670 -30 -132 -56 -247
-58 -255 -1 -8 -11 -44 -20 -80 -17 -65 -22 -86 -31 -127 -2 -12 -9 -35 -15
-50 -6 -16 -10 -30 -10 -33 0 -9 -10 -54 -19 -80 -5 -14 -29 -101 -55 -195
-87 -318 -267 -884 -369 -1160 -92 -247 -138 -371 -146 -390 -5 -11 -43 -105
-86 -210 -42 -104 -84 -208 -94 -230 -10 -22 -41 -92 -68 -155 -461 -1073
-1101 -2166 -1850 -3165 -150 -199 -194 -258 -202 -265 -3 -3 -59 -72 -125
-155 -65 -82 -122 -152 -125 -155 -3 -3 -39 -45 -80 -95 -98 -119 -312 -367
-371 -430 -26 -27 -57 -61 -69 -75 -12 -14 -56 -63 -98 -109 -291 -318 -821
-848 -1136 -1136 -54 -49 -115 -106 -136 -125 -21 -19 -63 -57 -95 -85 -32
-27 -63 -54 -69 -60 -50 -45 -195 -173 -256 -224 -41 -35 -101 -87 -134 -115
-32 -28 -151 -126 -265 -219 -113 -93 -215 -176 -226 -185 -129 -107 -458
-360 -740 -571 -126 -94 -234 -175 -240 -179 -79 -63 -781 -556 -1065 -748
-208 -140 -216 -144 -510 -229 -82 -24 -24 -15 103 15 69 17 129 30 134 30 4
0 -10 -12 -32 -26 -22 -15 -44 -31 -50 -36 -8 -7 307 99 465 157 25 9 135 41
245 71 110 30 254 71 320 90 66 19 127 37 135 39 8 2 98 29 200 60 102 31 190
58 195 59 16 3 327 104 485 157 255 85 675 235 880 314 172 66 654 256 685
270 17 7 136 58 265 113 224 95 514 223 665 292 201 93 251 117 380 178 255
122 975 486 1070 542 17 9 75 41 130 70 55 29 134 72 175 95 41 24 100 56 130
72 108 59 550 313 630 362 45 28 83 51 85 51 5 0 458 277 580 355 50 31 116
73 149 93 85 54 721 476 861 573 612 421 1447 1049 1930 1450 384 320 834 704
935 799 9 8 50 44 90 80 40 36 101 90 134 121 34 31 72 66 85 76 l24 20 45
-86 c121 -236 322 -603 462 -846 332 -577 763 -1240 1114 -1715 133 -181 290
-389 315 -420 11 -14 57 -72 102 -130 76 -97 275 -341 325 -400 12 -14 54 -63
94 -110 139 -163 174 -203 250 -285 30 -33 91 -100 135 -149 248 -277 703
-731 1049 -1047 331 -302 828 -711 1166 -959 41 -30 80 -58 85 -62 49 -37 111
-81 165 -118 36 -25 67 -48 68 -52 2 -5 10 -8 17 -8 7 0 15 -4 17 -8 4 -10
277 -192 493 -329 167 -106 563 -343 572 -343 3 0 17 -8 31 -19 15 -10 90 -51
167 -92 77 -40 167 -88 200 -105 111 -60 367 -183 625 -301 143 -66 149 -74
-214 270 -290 274 -859 849 -1136 1147 -19 21 -64 68 -99 106 -137 146 -237
256 -362 398 -19 21 -39 44 -45 50 -5 6 -83 97 -172 201 -90 105 -173 201
-186 215 -12 14 -69 84 -127 155 -57 72 -106 132 -109 135 -12 11 -179 219
-245 305 -39 50 -75 96 -82 103 -6 7 -112 146 -235 310 -242 321 -483 656
-649 902 -57 85 -106 157 -109 160 -6 6 -167 249 -244 370 -186 289 -472 751
-566 915 -10 17 -41 71 -70 120 -29 50 -62 106 -72 125 -11 19 -46 80 -78 135
-61 106 -94 166 -143 255 -17 30 -49 89 -72 130 -23 41 -68 125 -100 185 -32
61 -70 133 -85 160 -90 164 -352 683 -512 1015 -153 316 -468 1007 -468 1025
0 3 24 30 53 60 28 29 59 62 68 73 10 11 24 24 32 28 8 5 26 28 41 52 14 23
32 42 39 42 12 0 92 107 93 125 0 6 4 20 8 33 7 22 9 22 20 6 12 -16 14 -15
20 11 7 26 70 95 88 95 4 0 1 11 -7 24 -15 23 -15 25 28 60 24 20 47 36 50 36
12 0 -1 -34 -18 -46 -26 -19 -30 -54 -7 -54 17 0 36 17 87 78 16 19 16 22 2
16 -14 -5 -13 3 7 52 22 53 46 82 46 54 0 -6 5 -8 10 -5 6 4 8 9 6 13 -2 4 2
15 9 25 16 23 27 9 28 -38 l1 -34 30 52 c27 45 35 52 61 51 45 -2 49 1 91 82
21 41 48 86 60 100 23 26 39 19 27 -11 -4 -13 -2 -16 8 -13 8 3 12 12 10 19
-14 50 -12 56 25 85 62 47 144 132 144 149 0 9 9 15 23 16 55 3 62 5 65 22 2
12 -3 17 -18 17 -36 0 -35 28 3 65 30 29 37 32 47 20 17 -20 30 -19 30 3 0 29
46 116 74 140 35 30 45 28 16 -3 l-24 -25 34 6 c19 4 31 3 28 -2 -23 -43 -38
-86 -33 -94 10 -17 25 -1 25 26 0 30 14 60 45 94 43 47 75 103 75 130 0 16 7
30 16 34 8 3 12 2 9 -4 -3 -6 -2 -10 2 -10 17 0 33 25 33 52 0 18 13 41 41 70
41 42 45 34 6 -9 l-20 -23 26 0 c15 0 27 3 27 8 0 4 16 25 35 47 19 22 37 48
40 57 3 9 14 20 24 23 11 3 34 21 52 40 19 19 39 35 44 35 6 0 23 12 39 26 21
20 30 24 36 14 6 -9 16 3 34 37 26 52 40 63 81 63 12 0 28 6 34 14 10 12 8 15
-8 18 -16 2 -11 11 32 48 29 24 74 71 101 104 28 33 52 54 54 48 4 -13 52 51
52 69 0 23 35 60 95 99 36 22 70 51 76 62 8 15 13 17 19 8 5 -8 24 11 59 61
64 92 89 119 110 119 10 0 12 3 4 8 -15 10 -6 52 19 82 18 23 19 24 15 4 -2
-12 -1 -28 4 -35 6 -10 9 -11 9 -1 0 6 7 12 15 12 8 0 15 6 15 14 0 9 7 13 20
11 11 -2 20 0 20 4 0 5 25 27 55 50 41 31 63 58 86 104 17 34 54 96 81 138 48
71 52 75 69 61 17 -15 17 -17 -14 -53 -68 -79 -77 -91 -71 -101 4 -5 24 15 46
46 22 31 44 56 50 56 18 0 54 35 51 50 -2 8 7 26 19 40 13 14 35 40 51 58 15
19 27 28 27 21 0 -7 -10 -24 -22 -37 -23 -25 -23 -25 -1 -13 12 6 27 27 33 47
12 35 108 139 119 129 9 -10 173 175 207 232 17 31 19 32 29 13 9 -17 15 -2
39 95 l28 114 28 -21 c35 -26 40 -36 29 -65 -7 -18 -14 -22 -36 -17 -27 5 -28
4 -29 -30 0 -38 11 -48 21 -18 3 9 23 31 44 47 22 17 47 43 56 58 16 27 16 28
-1 25 -37 -7 -20 18 29 43 37 19 51 32 50 45 -2 11 0 30 3 44 l6 25 18 -23 18
-22 15 42 c7 24 20 44 28 44 8 1 21 2 29 3 8 0 35 24 60 53 24 29 39 48 31 44
-10 -6 -9 -2 2 15 8 13 22 49 31 79 8 30 22 64 31 75 14 19 15 19 29 2 23 -29
56 -13 57 26 0 18 2 41 4 52 2 11 6 38 10 59 8 53 45 136 60 136 6 0 17 12 24
26 6 15 14 25 16 22 6 -6 -29 -149 -54 -221 -21 -59 -17 -63 27 -24 23 22 31
11 10 -13 -7 -8 13 9 44 39 31 30 55 58 52 62 -3 5 7 31 21 60 40 79 23 69
-28 -16 -50 -85 -68 -80 -32 9 24 59 69 126 86 126 5 0 9 -12 10 -27 0 -25 1
-26 12 -10 21 33 45 58 53 57 4 -1 22 22 39 51 20 35 49 65 84 89 52 35 52 35
24 41 -54 11 -112 57 -99 78 16 25 128 102 141 97 9 -3 15 -18 15 -36 0 -31
14 -38 40 -19 13 9 12 10 -2 5 -10 -3 -18 -2 -18 2 0 13 17 34 26 31 5 -1 14
7 19 17 6 11 14 26 20 34 5 8 10 21 11 27 1 7 15 26 30 43 22 22 28 38 26 63
-4 37 25 120 39 112 9 -6 31 17 139 145 39 47 81 91 93 98 18 11 22 23 22 70
0 45 8 71 36 127 19 39 45 74 56 79 26 12 69 82 83 137 13 46 47 106 75 129
15 13 19 12 31 -5 19 -26 19 -26 -21 -72 -19 -23 -35 -46 -35 -53 0 -6 -4 -9
-9 -5 -5 3 -13 0 -17 -6 -4 -8 -3 -9 4 -5 7 4 12 3 12 -3 0 -5 -4 -13 -10 -16
-5 -3 -10 -11 -10 -18 0 -22 257 334 266 368 8 33 -2 32 -21 -2 l-15 -28 6 40
c7 41 32 113 46 130 5 6 18 23 29 38 12 15 24 26 27 23 3 -3 -1 -14 -9 -24 -8
-10 3 0 23 23 35 38 54 75 39 75 -4 0 -13 -6 -20 -12 -23 -22 -6 23 57 156 3
5 -7 0 -21 -10 -14 -10 -24 -21 -22 -22 8 -9 -70 -135 -110 -178 -25 -26 -47
-56 -51 -66 -3 -10 -10 -18 -16 -18 -6 0 -8 -3 -5 -7 4 -4 -5 -20 -20 -37 -28
-31 -28 -31 7 2 20 17 39 32 44 32 4 0 -9 -31 -30 -69 -21 -39 -41 -68 -45
-66 -4 3 -9 -5 -13 -18 -3 -12 -17 -27 -32 -34 -23 -11 -25 -10 -20 5 5 13 2
12 -9 -3 -8 -11 -35 -45 -59 -75 -24 -30 -54 -75 -68 -100 -58 -104 -72 -126
-92 -151 -11 -14 -37 -52 -56 -83 -19 -32 -61 -83 -92 -113 -32 -31 -58 -61
-58 -66 0 -5 17 8 38 30 20 22 30 30 22 19 -29 -39 -51 -61 -63 -61 -6 0 -14
-9 -17 -20 -10 -37 -67 -115 -85 -115 -5 -1 -30 -26 -55 -57 -25 -31 -70 -81
-100 -112 -60 -61 -177 -219 -172 -233 1 -5 -22 -43 -51 -86 -29 -42 -52 -84
-50 -92 4 -16 -78 -105 -154 -167 -23 -19 -70 -76 -104 -126 -61 -89 -188
-229 -212 -233 -7 -1 -25 -9 -41 -18 -26 -13 -27 -16 -12 -22 14 -5 15 -9 4
-15 -11 -8 -11 -10 0 -18 10 -6 -1 -23 -45 -67 -61 -62 -143 -170 -143 -189 0
-14 -72 -85 -86 -85 -6 0 -18 -18 -27 -40 -12 -31 -22 -42 -44 -46 -23 -4 -39
-21 -69 -69 -21 -34 -42 -61 -46 -59 -4 3 -19 -14 -34 -36 -15 -23 -39 -47
-53 -55 -14 -7 -98 -84 -186 -170 -88 -87 -174 -169 -192 -182 -18 -14 -33
-31 -33 -39 0 -7 -10 -19 -22 -25 -13 -7 -31 -22 -41 -33 -10 -11 -24 -21 -30
-21 -7 0 -30 -16 -51 -35 -58 -52 -66 -61 -83 -87 -11 -17 -19 -21 -28 -13
-25 20 -76 -68 -61 -105 4 -10 -7 -27 -29 -46 -19 -17 -35 -37 -35 -45 0 -8
-7 -14 -16 -14 -14 0 -15 2 -3 18 20 24 -68 -53 -113 -100 -21 -22 -38 -45
-38 -51 0 -8 -3 -8 -11 0 -7 7 -9 22 -4 40 5 15 9 32 9 37 1 5 26 23 56 39 31
17 68 46 83 65 15 20 27 30 27 24 0 -7 4 -12 9 -12 10 0 67 117 77 157 4 13
19 31 35 40 16 10 29 21 29 26 0 4 -5 5 -12 1 -18 -11 -3 69 21 116 23 45 21
50 -9 20 -45 -45 -42 -4 4 55 15 20 15 20 16 -5 1 -22 2 -23 11 -7 6 9 14 15
20 12 16 -11 10 -44 -11 -55 -24 -13 -28 -71 -5 -90 13 -11 14 -10 9 4 -4 11
-1 16 10 16 9 0 16 7 16 15 0 8 6 12 14 9 7 -3 26 8 42 23 16 16 41 38 56 49
19 15 34 46 57 122 25 80 78 202 95 220 2 1 15 -7 28 -19 l25 -22 -22 -21
c-24 -23 -93 -142 -76 -131 6 3 11 0 11 -7 1 -7 17 17 36 55 19 37 39 67 45
67 6 0 21 8 34 19 17 13 21 21 13 29 -11 11 17 67 61 122 25 31 29 6 5 -28 -9
-13 -14 -25 -11 -28 9 -9 37 46 42 82 3 27 18 49 56 87 28 29 48 45 44 37 -4
-8 7 1 24 20 42 47 157 219 166 249 l7 24 14 -24 c12 -22 13 -22 15 -4 1 26 5
56 14 135 4 36 8 71 8 78 0 15 2 15 36 -3 31 -16 41 -33 41 -72 0 -24 2 -23
34 18 l34 44 -30 8 c-26 7 -31 27 -7 27 17 0 101 64 90 68 -15 5 -14 62 0 62
7 0 17 -8 24 -17 10 -14 14 -9 24 34 11 44 15 49 35 46 18 -4 31 6 61 48 22
28 40 59 40 68 4 42 29 139 42 165 14 28 16 29 29 12 8 -11 19 -16 32 -12 16
6 20 19 25 104 7 109 23 166 60 205 22 25 45 37 33 19 -2 -4 -7 -27 -11 -52
-4 -25 -8 -47 -10 -50 -2 -3 -6 -24 -9 -46 -4 -23 -11 -56 -16 -74 -5 -19 -8
-35 -6 -37 2 -2 18 11 36 29 l32 33 -16 -32 c-9 -18 -15 -33 -13 -33 9 0 92
126 93 140 0 8 8 32 17 54 34 78 16 68 -25 -14 -27 -55 -44 -78 -46 -67 -8 42
70 220 88 200 4 -4 10 -17 12 -28 4 -18 6 -17 16 6 6 15 20 33 31 41 10 7 30
38 44 68 22 51 80 120 99 120 4 0 8 7 8 15 0 8 -6 12 -14 9 -19 -7 -73 21 -85
45 -8 14 -4 24 19 46 29 28 30 28 45 9 12 -16 14 -17 15 -2 0 9 -6 19 -12 21
-9 4 -1 17 22 38 l35 33 3 -29 c5 -39 18 -53 35 -36 10 11 10 13 0 7 -21 -11
-15 12 6 26 15 11 47 68 48 88 1 3 11 22 23 43 12 21 24 55 25 77 4 49 26 110
40 110 5 0 48 58 94 128 47 70 95 137 108 150 22 22 32 49 14 38 -32 -20 44
186 88 238 36 42 47 64 71 138 12 35 36 85 53 112 25 40 32 45 37 30 6 -17
-29 -91 -63 -132 -6 -8 -13 -24 -14 -35 -3 -22 -3 -22 10 -2 15 22 51 85 104
185 20 36 49 89 65 117 16 29 26 58 22 64 -4 7 -3 9 3 6 6 -4 13 2 16 14 5 17
3 18 -9 8 -14 -11 -1 29 41 134 5 11 14 16 23 12 11 -4 12 -2 4 8 -7 8 -7 18
-2 27 6 8 10 11 10 5 1 -5 8 3 16 18 8 15 19 25 24 22 5 -3 12 0 16 6 4 7 3 9
-3 6 -7 -4 -11 8 -11 31 -1 28 5 41 20 51 18 11 20 11 15 -4 -4 -10 -3 -14 4
-10 5 4 7 15 4 25 -3 11 -1 29 5 41 7 12 8 19 2 15 -6 -3 -12 0 -15 6 -2 7
-10 0 -17 -17 -35 -82 -42 -95 -49 -95 -5 0 -12 -7 -15 -16 -3 -8 -2 -12 4 -9
6 3 7 -1 4 -9 -3 -9 -11 -13 -18 -9 -6 3 -8 3 -4 -2 4 -4 -1 -22 -11 -39 -37
-61 -71 -129 -66 -134 3 -3 5 1 5 8 0 7 3 11 6 7 7 -7 -46 -127 -56 -127 -5 0
-6 10 -3 23 4 21 3 21 -11 -3 -18 -29 -20 -44 -6 -35 6 3 10 2 10 -3 0 -13
-39 -59 -40 -47 0 16 -94 -137 -125 -205 -36 -79 -167 -308 -185 -325 -11 -10
-20 -26 -20 -35 0 -9 -7 -25 -16 -36 -8 -10 -12 -13 -8 -5 4 9 3 12 -3 8 -6
-4 -27 -39 -46 -79 -20 -40 -51 -89 -69 -109 -18 -20 -49 -60 -68 -88 -19 -29
-47 -64 -61 -79 -37 -38 -169 -243 -169 -262 0 -9 -20 -47 -45 -85 -25 -39
-45 -80 -45 -92 0 -20 -49 -94 -89 -134 -76 -78 -123 -138 -163 -211 -44 -80
-77 -124 -138 -186 -14 -15 -25 -29 -25 -32 -1 -14 -27 -50 -37 -50 -7 0 -6 5
2 15 18 22 8 27 -19 9 -17 -13 -20 -19 -10 -30 6 -8 8 -14 4 -14 -4 0 -2 -6 5
-14 9 -12 7 -18 -10 -33 -12 -10 -30 -33 -41 -50 -12 -18 -26 -33 -32 -34 -11
0 -88 -144 -87 -162 0 -4 -11 -19 -25 -33 -14 -14 -25 -29 -25 -35 0 -5 -11
-14 -24 -19 -16 -6 -26 -19 -30 -44 -8 -44 -56 -77 -56 -39 0 9 -19 -22 -43
-70 -24 -48 -46 -84 -50 -81 -3 4 -16 -14 -29 -40 -12 -25 -27 -46 -34 -46
-14 0 -94 -83 -189 -195 -38 -44 -101 -113 -142 -152 -40 -40 -69 -73 -62 -73
6 0 -9 -19 -33 -43 -23 -24 -47 -40 -51 -37 -5 4 -29 -13 -53 -39 -42 -43 -44
-44 -30 -14 16 31 73 83 93 83 5 0 18 9 28 20 18 20 17 20 -9 20 -15 0 -40 7
-56 15 -32 17 -72 63 -65 76 13 20 147 100 160 95 9 -3 15 -19 15 -41 0 -28 4
-35 19 -35 11 0 23 4 26 10 3 6 -1 7 -9 4 -9 -3 -16 -2 -16 2 0 15 14 29 29
29 8 0 25 20 39 44 13 24 18 40 10 36 -7 -4 5 11 27 34 31 32 39 48 37 70 -5
48 16 111 41 120 12 5 71 59 130 120 60 61 122 118 138 126 16 9 29 20 29 26
0 6 -4 8 -9 4 -16 -9 -18 28 -3 79 25 88 83 183 104 170 18 -11 58 57 99 165
17 46 66 101 90 101 10 0 23 -8 28 -19 8 -15 2 -28 -34 -70 -24 -28 -46 -50
-49 -49 -2 2 -8 -1 -13 -6 -5 -5 -3 -6 5 -2 17 10 15 -5 -4 -32 -8 -12 -13
-22 -10 -22 3 0 51 55 107 123 56 67 119 141 140 164 38 41 65 91 55 101 -3 3
-15 -6 -26 -19 l-21 -24 6 23 c4 13 8 34 9 45 4 36 79 151 101 156 18 3 17 1
-5 -19 l-25 -22 32 22 c37 24 73 67 73 87 0 11 -5 10 -25 -3 l-25 -16 22 53
c12 30 32 69 45 88 12 19 20 37 17 40 -10 10 -47 -40 -104 -138 -8 -14 -18
-27 -21 -29 -13 -6 -99 -92 -99 -99 0 -3 -8 -15 -17 -26 -17 -19 -17 -20 5
-15 12 4 22 4 22 2 0 -2 -12 -25 -27 -51 -15 -26 -32 -58 -39 -71 -8 -16 -13
-19 -17 -10 -3 8 -9 3 -15 -13 -6 -15 -19 -30 -29 -34 -28 -12 -64 -14 -57 -4
3 5 10 6 16 3 7 -5 9 -2 6 7 -3 8 1 24 9 34 11 16 15 17 22 6 7 -11 11 -9 21
8 9 18 9 26 -2 39 -15 18 -16 20 -5 72 4 19 9 45 11 57 3 13 1 25 -3 27 -4 3
-20 -35 -35 -85 -15 -49 -31 -89 -36 -89 -21 0 -25 102 -7 177 8 32 36 83 46
83 5 0 21 -19 35 -42 23 -39 25 -40 26 -18 0 14 10 41 21 60 19 33 20 34 16 7
-8 -54 20 -8 32 52 12 63 40 100 91 121 35 15 48 40 19 40 -48 0 -189 92 -189
123 0 12 75 76 124 106 23 14 28 14 41 1 8 -8 20 -33 28 -54 17 -49 36 -58 33
-16 -2 25 1 29 15 25 19 -6 39 21 32 43 -3 7 2 24 11 37 15 23 15 24 -1 18
-19 -7 -14 2 25 54 24 32 24 34 8 68 -24 49 -19 147 7 151 11 1 20 4 21 6 2 2
43 63 91 136 49 74 99 139 112 145 13 5 23 17 23 24 0 8 -4 12 -9 9 -5 -3 -14
7 -20 23 -36 84 5 303 52 285 21 -8 45 70 49 163 4 70 8 87 32 117 33 44 55
45 84 7 l21 -29 -25 -39 c-14 -21 -38 -51 -53 -68 -21 -24 -22 -26 -3 -10 l23
19 -7 -29 c-3 -17 -11 -34 -15 -40 -5 -5 -9 -13 -9 -18 0 -21 41 46 110 178
40 77 82 153 93 169 23 32 39 104 26 112 -5 3 -13 -6 -19 -20 -13 -35 -28 -33
-24 4 2 16 0 31 -5 34 -7 5 -4 35 7 89 16 75 37 117 58 117 15 0 15 -3 0 -26
-10 -14 -15 -31 -12 -37 3 -8 5 -8 5 2 1 7 17 31 36 52 20 23 35 50 35 64 0
30 -7 31 -33 8 -19 -18 -20 -17 -13 48 3 36 12 86 20 112 8 26 13 47 11 47
-13 0 -50 -49 -47 -63 2 -9 -6 -37 -17 -60 -12 -24 -21 -49 -21 -56 0 -7 -22
-39 -50 -71 -27 -31 -47 -60 -44 -63 3 -3 -2 -17 -11 -30 -17 -26 -7 -32 23
-14 17 11 16 -21 -5 -101 -20 -79 -21 -81 -33 -62 -10 16 -10 18 -14 -34 -1
-18 -51 -44 -62 -33 -3 3 6 23 21 45 18 27 25 47 20 61 -13 43 -51 7 -46 -44
3 -37 -13 -72 -58 -129 -20 -24 -44 -80 -67 -155 -21 -64 -45 -127 -54 -141
-9 -14 -31 -64 -50 -112 -18 -48 -36 -85 -40 -83 -4 3 -20 -12 -36 -32 -27
-35 -19 -37 20 -4 12 10 8 -2 -11 -30 -17 -25 -39 -52 -49 -60 -16 -13 -16
-12 0 19 9 17 12 32 7 32 -12 0 -33 -54 -37 -94 -2 -38 -48 -116 -67 -116 -14
0 -97 -123 -97 -145 0 -8 -4 -15 -9 -15 -39 0 -198 -279 -178 -312 6 -9 1 -31
-17 -66 -36 -71 -50 -60 -43 33 7 94 -12 131 -26 50 -2 -11 -10 -56 -17 -99
-13 -79 -13 -79 -31 -57 -40 50 -51 163 -23 244 10 29 22 47 32 47 15 0 72
-56 72 -72 0 -19 16 -6 17 15 3 39 25 107 35 107 6 0 8 -9 5 -20 -7 -28 10
-35 18 -9 4 12 9 43 10 69 3 56 13 90 26 90 5 0 20 -7 33 -16 16 -10 26 -12
31 -5 3 6 -6 16 -20 21 -31 12 -26 23 27 56 45 29 43 37 -10 41 -70 5 -252 93
-252 121 0 11 66 73 123 116 58 43 73 39 118 -35 17 -27 37 -49 45 -49 16 0
18 9 4 30 -11 18 6 41 25 34 17 -7 36 28 25 46 -5 8 -3 25 6 43 15 27 15 28
-5 17 -28 -14 -26 -6 8 44 37 54 40 66 17 93 -11 12 -25 39 -32 60 -15 41 -19
124 -6 122 24 -4 43 3 49 19 4 9 39 72 80 138 40 67 73 126 73 132 0 16 61 64
75 58 8 -3 10 4 7 21 -3 15 -7 20 -12 13 -9 -14 -48 32 -55 64 -18 79 -21 108
-17 161 5 79 25 128 50 121 33 -11 46 36 47 174 0 113 2 128 22 156 13 17 32
34 43 37 22 6 89 -40 90 -61 0 -18 -30 -74 -49 -92 -9 -8 -25 -28 -34 -45
l-18 -30 27 30 27 30 -7 -45 c-4 -24 -12 -51 -19 -60 -10 -13 -10 -13 3 -3 8
6 23 26 32 45 29 57 98 207 98 212 0 11 54 123 77 159 17 26 23 50 21 74 -4
46 -24 54 -33 14 -9 -43 -24 -39 -31 9 -4 22 -10 40 -15 40 -12 0 -4 121 11
167 16 48 28 63 51 63 19 0 19 -1 2 -27 -27 -42 4 -17 38 29 27 38 40 98 21
98 -5 0 -17 -9 -27 -20 -10 -11 -22 -20 -27 -20 -13 0 -9 153 6 203 8 26 12
47 10 47 -2 0 -16 -12 -31 -27 -19 -19 -28 -38 -27 -58 0 -16 -6 -43 -14 -60
-8 -16 -16 -42 -17 -57 -1 -16 -9 -36 -18 -46 -73 -79 -97 -110 -85 -114 10
-4 10 -8 -1 -21 -7 -9 -10 -24 -7 -33 5 -13 9 -14 21 -4 27 22 39 -14 25 -76
-5 -22 -12 -55 -15 -74 -8 -43 -11 -46 -30 -30 -13 11 -15 8 -10 -22 5 -31 3
-35 -30 -51 -36 -17 -61 -15 -50 4 4 5 2 9 -3 9 -6 0 -15 -13 -20 -30 -6 -16
-20 -39 -31 -51 -28 -31 -57 -96 -66 -149 -13 -77 -43 -188 -59 -212 -8 -13
-24 -59 -36 -103 -39 -144 -71 -217 -116 -265 -13 -14 -32 -54 -43 -90 -24
-77 -47 -114 -67 -106 -9 3 -18 -3 -23 -17 -5 -12 -25 -49 -45 -81 -20 -33
-36 -68 -36 -78 0 -10 -4 -18 -10 -18 -14 0 -58 -47 -74 -79 -8 -15 -33 -77
-56 -136 -22 -60 -45 -114 -51 -121 -8 -9 -5 -15 10 -23 17 -10 19 -15 9 -44
-6 -17 -14 -36 -18 -42 -8 -11 -40 -134 -40 -153 0 -7 7 -12 15 -12 35 0 8
-62 -78 -179 -26 -35 -47 -60 -47 -56 0 12 -49 -46 -65 -77 -8 -14 -28 -79
-45 -143 -21 -82 -38 -129 -60 -158 -16 -22 -30 -45 -30 -51 0 -5 -11 -21 -24
-35 -12 -15 -29 -47 -36 -73 -11 -43 -15 -47 -36 -42 -14 4 -25 2 -25 -5 -5
-30 -3 -36 9 -37 6 -1 17 -2 22 -3 19 -2 11 -49 -10 -56 -12 -4 -24 -22 -31
-45 -7 -22 -22 -43 -35 -51 -15 -7 -24 -21 -24 -35 0 -13 -5 -35 -11 -51 -6
-15 -12 -56 -13 -90 -2 -34 -10 -72 -17 -85 -8 -13 -20 -36 -27 -52 -10 -23
-17 -27 -38 -23 -24 4 -25 3 -19 -42 4 -25 9 -53 11 -61 2 -10 -8 -20 -28 -29
-27 -12 -32 -12 -43 2 -16 22 -24 21 -23 0 1 -18 -4 -45 -16 -93 -6 -22 -13
-67 -15 -94 -1 -4 -7 -6 -15 -3 -11 4 -17 -6 -22 -36 -4 -23 -7 -45 -6 -49 1
-3 -19 -23 -43 -43 -49 -40 -77 -79 -190 -270 -82 -139 -180 -275 -199 -275
-6 0 -2 -8 9 -16 20 -15 19 -16 -17 -46 -21 -16 -38 -38 -38 -48 0 -10 -7 -21
-16 -24 -22 -9 -24 -8 -24 11 0 15 -2 14 -15 -3 -17 -23 -19 -12 -4 40 17 61
19 76 8 76 -5 0 -9 -5 -9 -11 0 -27 -53 -158 -63 -152 -16 10 1 122 29 182 24
53 26 55 40 37 8 -11 14 -23 14 -28 0 -4 5 -8 10 -8 6 0 10 6 10 13 0 15 29
77 35 77 3 0 2 -8 -1 -17 -3 -10 1 -7 10 7 8 14 18 42 21 64 5 28 22 54 61 94
30 31 54 58 54 59 0 2 -11 1 -24 -3 -53 -13 -159 44 -135 73 6 7 16 10 21 6 6
-3 9 0 6 8 -5 14 82 109 100 109 6 0 16 -16 22 -35 6 -19 18 -35 26 -35 11 0
13 6 9 21 -5 15 -2 22 14 26 12 3 21 8 22 12 2 15 7 40 14 61 5 16 4 20 -5 15
-7 -4 4 16 24 46 23 34 32 55 25 60 -13 7 -19 75 -11 115 3 15 12 29 21 31 9
2 53 66 98 142 46 75 94 148 108 161 21 20 23 25 9 34 -18 14 -23 58 -12 106
4 19 11 51 14 70 8 46 31 90 48 90 14 0 38 51 51 108 7 35 45 101 58 102 13 0
7 -30 -10 -57 -13 -19 -14 -25 -4 -19 11 7 13 4 8 -14 -11 -41 10 -8 84 135
40 77 86 165 102 196 16 31 27 65 25 75 -3 16 -7 14 -21 -11 l-16 -30 -1 55
c0 36 6 64 17 79 9 14 11 21 4 17 -9 -6 -10 -3 -3 10 5 11 17 36 26 57 8 20
20 37 26 37 7 0 7 -7 -1 -22 l-11 -23 20 21 c22 24 52 77 52 95 0 7 -8 6 -24
-4 l-24 -16 15 57 c8 31 17 65 18 74 2 9 9 26 15 37 17 32 -4 25 -31 -10 -21
-28 -27 -30 -67 -24 -89 13 -232 77 -232 104 0 5 38 48 84 96 97 100 101 100
162 15 22 -31 40 -47 49 -43 11 4 12 10 5 23 -17 31 -12 52 9 45 25 -8 41 20
31 54 -4 14 -4 35 1 46 13 34 10 39 -12 20 -20 -19 -20 -19 -11 5 6 14 22 45
36 70 28 49 33 71 14 68 -6 -2 -22 15 -34 37 -36 63 -49 170 -20 166 22 -3 29
3 42 37 9 20 34 78 56 127 23 50 51 117 64 149 25 61 53 96 78 96 9 0 12 7 9
21 -4 13 -8 17 -13 9 -11 -17 -46 31 -66 92 -17 53 -23 177 -11 240 6 27 13
37 30 40 32 4 46 57 41 153 -9 149 -9 162 9 201 10 22 27 46 39 53 17 10 25 9
54 -11 19 -13 34 -31 34 -40 0 -9 -18 -51 -40 -93 -38 -73 -57 -122 -23 -60
21 38 29 14 14 -42 -9 -34 -9 -36 4 -19 15 20 32 68 85 246 18 58 45 142 62
187 29 82 34 143 11 150 -6 3 -13 -8 -15 -23 -4 -39 -28 -44 -28 -6 0 17 -5
32 -11 34 -11 4 -14 119 -4 167 11 56 27 89 45 94 17 4 18 2 9 -15 -6 -11 -8
-22 -6 -25 9 -8 57 102 57 130 0 34 -9 34 -37 0 l-22 -28 -2 40 c-3 72 2 149
11 184 5 19 8 36 6 38 -8 8 -54 -65 -46 -73 4 -5 0 -42 -11 -83 -10 -40 -16
-77 -14 -81 3 -5 -8 -29 -25 -53 -16 -25 -30 -48 -30 -51 0 -4 -8 -18 -17 -33
-9 -14 -18 -46 -20 -70 -2 -43 -1 -45 16 -29 10 9 20 16 23 16 6 0 1 -99 -6
-135 -3 -11 -5 -35 -5 -54 -1 -29 -3 -32 -16 -21 -13 11 -15 7 -15 -23 0 -28
-7 -41 -32 -61 -30 -23 -34 -24 -39 -8 -6 15 -8 15 -14 -3 -4 -11 -23 -53 -42
-93 -31 -67 -47 -124 -58 -209 -2 -18 -7 -48 -10 -65 -3 -18 -7 -46 -9 -61 -3
-16 -10 -34 -15 -41 -6 -7 -22 -69 -36 -137 -29 -144 -57 -228 -94 -284 -15
-22 -35 -74 -45 -115 -20 -83 -39 -120 -61 -120 -8 0 -15 -4 -15 -9 0 -5 -9
-11 -20 -14 -11 -3 -20 -13 -20 -22 0 -9 4 -14 9 -11 5 4 7 -3 4 -15 -4 -14
-8 -17 -13 -9 -5 8 -19 -5 -41 -36 -33 -49 -33 -49 -6 -31 15 9 27 14 27 10
-1 -25 -29 -84 -48 -100 -11 -10 -33 -41 -47 -70 -30 -62 -88 -233 -81 -240 3
-3 -2 -19 -11 -36 -15 -30 -15 -32 5 -45 18 -12 19 -18 11 -40 -6 -15 -21 -71
-34 -124 -22 -94 -22 -98 -4 -103 34 -11 20 -57 -54 -183 -27 -45 -53 -82 -57
-82 -4 0 -6 -10 -4 -22 2 -13 -1 -9 -7 9 -10 28 -8 39 15 86 14 30 26 61 26
68 0 39 -46 49 -112 25 -21 -8 -38 -10 -38 -6 0 5 14 39 31 77 30 68 25 68
-29 -1 -24 -31 -29 -75 -10 -94 7 -7 11 -29 10 -50 -2 -31 0 -35 11 -21 51 65
63 79 70 79 24 0 -20 -103 -50 -114 -12 -5 -14 -9 -6 -14 20 -13 18 -149 -4
-262 -24 -118 -35 -151 -63 -187 -10 -13 -21 -36 -25 -51 -3 -16 -17 -40 -30
-55 -14 -14 -24 -30 -23 -34 1 -4 -2 -27 -6 -50 -6 -35 -12 -42 -34 -45 -21
-2 -28 -10 -35 -41 -10 -41 -30 -45 -35 -6 -10 84 -9 110 5 165 17 71 46 124
68 124 11 0 10 -7 -6 -35 -34 -57 -14 -40 30 26 24 36 41 73 41 90 0 36 -6 36
-37 2 l-24 -28 5 63 c3 34 13 75 22 90 15 25 15 26 -1 7 -16 -19 -16 -19 -9
10 4 16 13 36 21 43 7 7 14 16 14 20 2 9 8 56 12 102 2 19 16 60 30 90 31 64
33 76 11 88 -15 9 -16 19 -13 134 0 10 8 22 17 27 18 9 30 36 98 211 39 102
54 128 47 83 -3 -24 -2 -22 10 8 8 20 23 50 35 66 22 31 19 51 -5 32 -23 -20
-15 13 11 46 22 28 23 31 7 54 -31 49 -3 326 37 361 30 25 47 107 56 256 4 66
27 146 52 179 11 15 18 17 32 9 25 -16 26 -40 3 -97 -11 -29 -22 -59 -23 -67
-2 -8 -7 -18 -13 -22 -6 -5 -5 -8 2 -8 7 0 10 -7 6 -16 -5 -13 -7 -13 -14 -2
-6 9 -9 9 -9 1 0 -6 4 -14 10 -18 5 -3 7 -12 3 -20 -3 -8 -3 -15 0 -15 3 0 26
66 52 148 26 81 67 209 91 285 43 136 53 187 35 187 -5 0 -12 -15 -16 -32 l-8
-33 -7 45 c-8 43 -7 59 5 148 8 58 34 140 47 148 8 5 9 2 5 -10 -4 -10 -3 -15
3 -11 11 7 52 136 45 143 -2 3 -13 -6 -24 -19 l-19 -24 3 50 c7 90 16 152 25
184 6 21 5 29 -1 25 -15 -9 -30 -53 -35 -103 -2 -24 -7 -48 -10 -52 -7 -11
-14 -46 -19 -87 -2 -18 -8 -39 -13 -45 -5 -7 -17 -34 -27 -62 -10 -27 -25 -60
-32 -72 -8 -12 -12 -27 -8 -33 3 -5 0 -24 -9 -40 -10 -21 -11 -32 -4 -36 6 -4
8 -3 5 2 -3 6 2 15 12 21 17 11 18 8 14 -25 -2 -20 -11 -69 -19 -109 -8 -40
-14 -76 -14 -80 0 -4 -5 -1 -10 7 -7 11 -10 4 -10 -28 0 -27 -5 -45 -14 -48
-8 -3 -17 -15 -21 -27 -7 -20 -7 -21 -12 -3 -8 31 -94 -206 -109 -300 -6 -41
-27 -125 -93 -369 -22 -82 -40 -145 -41 -140 -1 10 -31 -45 -43 -81 -6 -14 -2
-13 13 6 17 21 16 14 -7 -42 -28 -68 -45 -86 -24 -26 6 18 7 28 2 23 -13 -15
-32 -79 -36 -125 -6 -62 -46 -180 -61 -180 -8 0 -14 -7 -14 -15 0 -8 -4 -23
-9 -33 -17 -31 -71 -170 -71 -182 0 -7 -10 -26 -22 -43 -28 -39 -157 -414
-147 -424 5 -5 -10 -64 -32 -133 -31 -95 -38 -129 -30 -142 12 -20 11 -24 -60
-174 -26 -55 -58 -117 -72 -137 -28 -41 -67 -139 -92 -232 -19 -70 -59 -175
-86 -225 -10 -19 -25 -51 -34 -71 -8 -19 -40 -66 -70 -104 -56 -70 -67 -92
-40 -81 13 4 14 2 5 -14 -9 -16 -8 -20 5 -20 19 0 20 -34 0 -54 -8 -8 -24 -36
-36 -63 -11 -26 -26 -55 -33 -63 -16 -18 -72 -180 -80 -230 -7 -45 -71 -166
-93 -174 -9 -4 -13 -9 -10 -13 4 -3 -13 -27 -37 -54 -30 -33 -61 -88 -101
-181 -32 -73 -62 -138 -67 -145 -6 -7 -3 -15 8 -21 15 -9 16 -13 4 -41 -7 -17
-26 -48 -42 -69 -29 -36 -76 -113 -133 -217 -39 -70 -98 -177 -110 -197 -5 -9
-24 -41 -41 -70 -17 -29 -56 -90 -87 -135 -30 -46 -50 -83 -45 -83 11 0 -14
-42 -44 -75 -10 -11 -21 -30 -24 -42 -6 -21 -10 -24 -30 -23 -7 1 -116 -167
-137 -212 -9 -20 -17 -42 -18 -50 0 -7 -4 -4 -9 7 -7 18 -8 17 -16 -10 l-8
-30 -9 35 c-19 78 -8 110 27 75 15 -15 16 -14 18 17 0 18 2 38 3 43 2 6 3 17
4 26 1 10 14 19 34 23 27 6 37 16 66 75 18 37 35 83 37 102 2 19 6 60 8 92 5
56 25 137 33 137 3 0 11 -7 19 -15 20 -20 26 -19 52 5 18 17 20 25 11 47 -14
37 -18 206 -7 257 5 22 16 48 23 57 8 8 22 33 30 55 14 37 15 30 10 -121 -2
-88 -7 -171 -9 -184 l-5 -24 24 23 c14 13 27 31 31 42 3 10 10 18 15 18 6 0 6
-7 -1 -19 -16 -30 -12 -38 6 -12 32 45 73 129 72 147 0 11 2 33 6 49 23 98 12
99 -20 2 -20 -59 -39 -105 -43 -103 -23 14 2 163 39 237 18 33 24 38 36 29 8
-7 14 -19 14 -26 0 -8 5 -14 10 -14 6 0 10 8 10 18 0 9 9 35 20 57 13 27 18
32 15 15 -8 -42 25 38 41 99 14 51 47 104 93 145 29 27 26 37 -9 29 -40 -8
-118 15 -131 38 -8 16 1 33 49 97 33 42 67 83 75 91 17 13 23 6 41 -51 7 -23
30 -23 47 0 13 15 12 16 -3 3 -16 -12 -18 -11 -18 13 0 16 6 26 14 26 19 0 27
13 32 57 3 20 10 44 17 52 10 12 9 13 -2 7 -16 -10 -15 -9 22 63 22 41 26 56
16 61 -25 16 -12 170 14 170 8 0 52 81 100 180 47 99 95 188 106 199 19 19 19
22 4 52 -18 36 -13 138 11 226 16 59 23 73 47 90 9 7 20 27 24 45 4 18 9 40
12 48 2 8 6 42 9 75 8 86 31 160 59 192 24 27 25 28 40 9 21 -28 20 -36 -25
-123 -22 -43 -32 -69 -24 -58 16 20 16 20 10 -2 -15 -57 -15 -65 0 -33 9 19
21 45 25 58 5 12 13 32 19 45 11 24 100 260 131 345 14 37 17 58 10 70 -9 14
-11 12 -17 -15 -12 -58 -21 -35 -19 45 2 84 28 188 52 212 14 13 15 13 8 -5
-17 -48 -14 -47 13 5 34 63 49 120 33 120 -6 0 -11 -4 -11 -8 0 -5 -7 -17 -15
-28 -9 -12 -13 -13 -11 -4 3 8 7 47 10 86 3 40 10 84 16 98 17 45 11 53 -12
16 -12 -19 -21 -40 -20 -47 2 -7 -5 -41 -14 -75 -9 -35 -17 -67 -18 -73 -4
-18 -40 -89 -59 -118 -10 -15 -20 -38 -22 -50 -2 -12 -7 -33 -11 -47 -7 -25
-7 -25 14 -6 21 18 21 18 17 -5 -20 -106 -39 -178 -46 -173 -8 4 -13 -23 -11
-47 1 -3 -13 -19 -30 -35 -25 -23 -30 -25 -24 -9 4 12 4 16 -2 10 -18 -22 -86
-180 -103 -243 -51 -191 -137 -442 -159 -467 -10 -11 -25 -36 -35 -55 l-17
-35 26 30 c25 29 25 28 -5 -35 -34 -71 -46 -89 -34 -50 16 52 16 54 -5 18 -11
-21 -21 -50 -21 -65 -2 -37 -51 -163 -64 -163 -10 0 -95 -168 -95 -189 0 -6
-9 -20 -20 -31 -19 -19 -80 -129 -80 -144 0 -3 -8 -25 -19 -49 -49 -109 -73
-176 -67 -186 4 -5 -10 -50 -29 -98 -20 -48 -37 -109 -39 -134 -1 -30 -14 -67
-38 -110 -19 -35 -44 -79 -54 -98 -11 -18 -29 -44 -41 -56 -29 -31 -59 -91
-100 -204 -29 -81 -65 -153 -149 -301 -7 -14 -20 -42 -28 -62 -8 -21 -20 -38
-26 -38 -7 0 -3 14 9 36 l21 36 -27 -21 c-34 -28 -42 -15 -39 59 3 59 10 80
29 81 7 0 48 73 92 162 44 89 92 174 107 190 28 27 28 27 8 47 -11 11 -21 30
-21 43 -5 77 -5 106 3 147 5 25 10 56 13 68 5 28 24 54 35 47 19 -12 53 124
47 184 -2 26 2 64 9 86 7 22 11 28 9 13 -3 -16 -1 -28 5 -28 5 0 10 9 10 19 0
11 3 27 7 37 5 12 3 15 -6 9 -10 -6 -11 -3 -2 14 18 34 46 43 64 23 21 -23 9
-69 -34 -145 -21 -37 -23 -45 -8 -27 l22 25 -7 -35 c-6 -32 -5 -33 6 -10 22
47 37 85 81 205 25 66 56 146 71 178 24 55 28 88 13 103 -3 3 -9 -5 -13 -20
-20 -81 -43 52 -24 146 14 74 29 108 47 108 11 0 10 -5 -3 -25 -9 -14 -15 -28
-12 -30 9 -9 68 118 68 144 l-1 26 -18 -22 c-11 -13 -21 -23 -23 -23 -11 0 -6
63 6 83 8 12 17 33 20 47 3 14 -3 7 -13 -15 l-19 -40 5 40 c2 22 9 53 14 69 5
16 7 31 5 33 -8 9 -38 -52 -41 -85 -2 -20 -11 -56 -19 -80 -9 -24 -15 -46 -14
-50 2 -8 -36 -83 -61 -121 -8 -14 -16 -43 -17 -65 -2 -23 0 -35 3 -28 2 6 11
12 19 12 7 0 12 -6 10 -12 -2 -7 -10 -48 -17 -91 -9 -58 -15 -77 -25 -73 -10
4 -14 -4 -14 -27 -1 -23 -8 -37 -26 -50 -14 -11 -28 -16 -32 -13 -15 15 -100
-192 -107 -264 -1 -8 -6 -26 -11 -40 -4 -14 -8 -27 -9 -30 -10 -48 -20 -78
-30 -95 -11 -16 -32 -78 -40 -115 -16 -77 -80 -230 -115 -275 -4 -5 -13 -28
-20 -50 -20 -62 -53 -128 -72 -145 -17 -15 -88 -150 -88 -168 0 -6 -16 -29
-35 -52 -36 -43 -50 -70 -117 -234 -24 -59 -37 -101 -31 -103 7 -3 -7 -48 -32
-111 -30 -74 -40 -111 -33 -119 5 -7 7 -20 4 -31 -8 -23 -108 -179 -137 -212
-30 -35 -62 -87 -83 -140 -32 -78 -34 -84 -56 -135 -11 -27 -33 -68 -47 -90
-14 -22 -38 -58 -53 -80 -14 -22 -34 -59 -45 -82 -10 -24 -24 -43 -30 -43 -7
0 -18 -6 -24 -14 -10 -11 -9 -16 5 -24 17 -9 12 -52 -6 -52 -5 0 -19 -18 -30
-40 -11 -22 -29 -46 -40 -52 -11 -7 -20 -17 -20 -23 0 -6 -13 -42 -30 -80 -16
-39 -30 -79 -30 -90 0 -11 -13 -39 -30 -63 -16 -24 -30 -48 -32 -53 -2 -6 -12
-11 -22 -13 -11 -1 -21 -11 -22 -22 -9 -64 -17 -85 -37 -99 -28 -20 -37 -19
-38 3 0 12 -3 10 -10 -8 -10 -23 -13 -19 -45 60 -19 47 -84 216 -144 375 -96
254 -136 364 -270 740 -119 334 -289 846 -443 1335 -99 313 -273 888 -291 960
-2 8 -25 87 -51 175 -42 144 -70 244 -80 285 -2 8 -18 65 -34 125 -17 61 -45
160 -61 220 -17 61 -35 126 -40 145 -33 114 -242 927 -275 1070 -2 8 -15 61
-30 118 -31 128 -84 346 -124 512 -52 219 -179 776 -197 870 -3 13 -14 60 -24
105 -10 44 -42 188 -70 320 -63 293 -53 246 -85 400 -14 72 -42 204 -61 294
-19 90 -37 178 -40 195 -3 17 -12 65 -21 106 -8 41 -17 85 -19 98 -9 51 -13
69 -23 112 -5 25 -13 61 -16 80 -3 19 -21 114 -40 210 -41 202 -42 206 -49
251 -3 19 -8 45 -11 59 -3 14 -9 50 -15 80 -6 30 -12 66 -15 80 -3 14 -25 135
-50 270 -24 135 -47 259 -50 275 -3 17 -12 68 -20 115 -9 47 -20 108 -25 135
-13 68 -19 104 -26 145 -2 19 -7 46 -10 60 -2 14 -7 39 -9 55 -3 17 -8 41 -10
55 -12 60 -17 87 -31 175 -1 11 -7 45 -13 75 -6 30 -13 69 -15 85 -3 17 -12
73 -21 125 -9 52 -18 106 -20 120 -9 57 -16 98 -26 155 -6 33 -12 71 -14 85
-3 14 -7 36 -9 50 -3 14 -8 43 -11 65 -3 22 -12 81 -21 130 -22 128 -23 136
-29 180 -3 22 -8 51 -10 65 -3 14 -8 42 -11 64 -3 21 -7 48 -10 59 -2 12 -6
39 -9 62 -3 22 -10 65 -15 95 -5 30 -12 71 -15 90 -3 19 -7 46 -10 60 -12 67
-17 107 -18 128 -1 23 -3 27 -10 15z m9154 -6247 c-14 -36 -22 -33 -9 5 6 16
12 28 14 26 3 -2 0 -16 -5 -31z m-2244 -967 c-12 -34 -18 -43 -57 -89 -16 -18
-20 -20 -16 -7 3 10 6 27 6 38 0 17 68 104 76 96 2 -2 -2 -19 -9 -38z m-101
-175 c-3 -8 -1 -24 5 -35 8 -16 6 -33 -7 -72 -23 -66 -28 -72 -47 -53 -16 16
-32 22 -24 9 3 -5 2 -26 -2 -48 -5 -29 -11 -39 -23 -37 -10 1 -22 -12 -33 -34
-15 -32 -19 -35 -27 -19 -13 21 -5 170 10 208 16 37 33 34 76 -13 20 -22 37
-40 38 -40 2 0 4 15 4 33 2 37 22 117 30 117 4 0 3 -7 0 -16z m-293 -194 c22
-63 42 -133 52 -175 16 -72 16 -87 -1 -139 -10 -31 -21 -56 -24 -56 -12 0 -97
192 -109 246 -11 46 -15 90 -12 122 0 6 7 12 15 12 18 0 26 22 26 73 1 41 1
41 14 17 8 -14 25 -59 39 -100z m-379 84 c11 -28 6 -61 -15 -108 -11 -26 -19
-52 -17 -58 2 -5 -11 -26 -29 -45 -30 -34 -34 -35 -62 -24 -16 7 -32 19 -35
26 -4 12 45 99 107 192 24 36 42 42 51 17z m1092 -46 c10 -35 18 -65 19 -68 1
-3 7 -25 14 -50 13 -44 17 -60 26 -110 18 -99 26 -134 29 -137 2 -3 20 12 40
31 19 20 38 36 42 36 4 0 4 -16 1 -35 -3 -19 -4 -35 -2 -35 2 0 20 29 40 65
38 67 51 83 35 41 -5 -15 -5 -27 3 -35 22 -22 -22 -89 -124 -191 -58 -57 -86
-103 -109 -175 -19 -59 -55 -127 -79 -149 -12 -11 -21 -25 -21 -32 0 -7 -13
-23 -28 -36 -15 -12 -28 -25 -29 -28 -1 -3 -4 -17 -8 -32 -4 -15 -13 -29 -21
-32 -15 -6 -31 13 -18 23 5 3 15 14 23 24 13 17 13 17 -12 6 -15 -7 -29 -10
-32 -8 -2 3 -8 31 -13 62 -9 56 -8 57 12 51 58 -19 69 -13 108 55 40 70 46 90
24 72 -11 -10 -13 -4 -9 32 3 25 -2 73 -11 110 -15 59 -15 115 0 139 4 5 16 0
28 -11 32 -30 78 -42 100 -26 16 12 14 19 -22 91 -48 96 -81 194 -86 254 -4
53 1 70 20 70 14 0 23 25 27 68 2 38 14 24 33 -40z m-519 -225 c-3 -3 -11 -2
-17 2 -8 5 -7 11 2 22 12 15 13 14 16 -1 2 -10 1 -20 -1 -23z m-277 -212 c0
-5 16 -16 35 -25 19 -9 35 -19 35 -22 0 -3 -14 -41 -32 -86 l-32 -81 -17 49
c-18 50 -24 129 -13 158 7 17 24 22 24 7z m-264 -107 c-3 -8 -10 -14 -16 -14
-14 0 -12 57 3 63 13 4 22 -26 13 -49z m-246 -66 c-28 -23 -34 -19 -20 17 9
23 13 25 26 14 14 -12 14 -15 -6 -31z m204 5 c-4 -16 -15 -37 -26 -48 -18 -18
-17 -15 3 28 26 54 32 59 23 20z m1241 -58 c4 -27 8 -108 10 -180 2 -82 7
-131 14 -133 6 -2 21 8 34 22 26 28 42 25 26 -6 -5 -10 -7 -24 -3 -31 4 -6 4
-9 0 -5 -9 7 -45 -32 -94 -101 -18 -24 -32 -40 -32 -35 0 6 5 15 12 22 19 19
-4 14 -31 -7 -19 -14 -25 -29 -25 -60 -1 -33 -10 -52 -46 -99 -25 -31 -61 -80
-80 -109 -19 -28 -37 -51 -40 -50 -9 2 -50 -28 -50 -36 0 -4 6 -5 13 -1 25 15
-25 -41 -58 -66 -15 -11 -13 -7 5 15 14 17 30 33 35 37 7 5 6 8 0 8 -6 0 -16
-5 -23 -12 -8 -8 -14 -5 -22 16 -12 33 -13 66 -2 66 5 0 17 -9 27 -20 25 -28
35 -16 35 42 0 39 3 48 13 40 37 -29 53 -24 90 33 38 56 44 71 27 60 -11 -7
-14 8 -3 19 13 12 16 45 13 127 -2 34 3 66 12 84 l15 29 12 -23 c15 -27 50
-42 72 -30 15 8 15 14 -2 76 -24 85 -24 93 1 93 23 0 38 43 21 63 -8 10 -6 19
5 35 14 20 14 22 0 22 -9 0 -16 -4 -16 -10 0 -5 -10 -14 -21 -21 -13 -7 -19
-7 -15 -1 3 6 2 13 -3 16 -6 4 -6 18 -1 36 5 17 6 30 2 30 -4 1 3 9 16 20 12
10 27 33 33 50 6 17 13 30 14 28 2 -2 6 -25 10 -53z m-1599 -109 c-23 -49 -35
-84 -42 -119 -7 -46 -26 -61 -20 -17 3 19 8 57 11 85 3 27 12 57 20 65 8 8 20
38 27 65 l13 50 3 -49 c2 -28 -3 -61 -12 -80z m288 12 c-7 -29 -14 -76 -14
-104 0 -34 -9 -71 -26 -108 -14 -31 -23 -59 -20 -64 3 -5 -9 -6 -25 -4 l-30 4
6 -58 c4 -33 9 -62 11 -65 2 -3 -12 -15 -31 -25 -34 -18 -35 -18 -49 1 -15 19
-15 19 -17 -12 -1 -18 -2 -36 -4 -40 -4 -17 -17 -83 -17 -90 -1 -5 -9 -14 -19
-21 -29 -20 -51 -82 -45 -122 4 -28 1 -40 -14 -53 -19 -16 -21 -15 -35 7 -9
13 -20 37 -24 53 -14 49 1 215 21 241 7 8 7 12 -2 12 -9 0 -8 6 3 23 8 12 20
21 27 19 20 -4 38 24 51 81 8 32 18 53 24 50 6 -4 5 -1 -1 6 -12 13 -7 58 8
67 6 4 8 -6 4 -27 l-7 -34 15 30 c54 109 72 156 71 189 -2 42 1 43 38 11 24
-22 26 -27 15 -52 -7 -15 -26 -46 -43 -68 -18 -22 -37 -51 -44 -65 -11 -22
-10 -22 14 5 l26 30 -6 -30 c-4 -16 -13 -43 -21 -59 -21 -44 -17 -45 11 -3 23
33 91 177 138 290 23 53 28 46 11 -15z m-172 -68 c-17 -62 -33 -67 -34 -10 -1
23 6 39 22 52 12 10 23 18 25 18 2 0 -4 -27 -13 -60z m413 -59 c3 -5 1 -12 -5
-16 -5 -3 -10 1 -10 9 0 18 6 21 15 7z m670 -22 c21 -12 34 -27 31 -34 -3 -8
2 -16 9 -19 8 -3 12 -12 9 -20 -3 -8 3 -19 14 -25 23 -12 19 -51 -4 -51 -8 0
-20 -16 -29 -36 -8 -20 -23 -38 -32 -40 -18 -5 -44 -65 -66 -154 -7 -25 -22
-59 -34 -77 -13 -17 -23 -36 -23 -42 0 -6 -11 -11 -25 -11 -21 0 -25 -5 -26
-32 -1 -18 -1 -40 0 -49 1 -8 -9 -21 -23 -27 -19 -9 -27 -8 -37 4 -10 13 -17
0 -42 -76 -17 -51 -33 -86 -37 -80 -5 7 -15 -7 -25 -35 -10 -26 -30 -54 -44
-63 -30 -19 -51 -40 -103 -102 l-38 -45 0 47 c0 45 13 71 23 46 3 -8 6 -6 6 5
2 29 44 86 73 96 22 8 39 33 87 133 59 122 74 167 80 233 1 17 6 15 33 -15 17
-19 29 -28 26 -20 -3 8 -17 62 -33 120 -15 58 -30 112 -33 120 -3 8 -6 20 -7
25 -2 6 -6 22 -10 37 l-7 27 80 -40 c82 -40 118 -81 104 -118 -14 -37 31 15
49 57 25 57 25 57 -16 58 -19 0 -41 7 -50 14 -14 11 -11 15 23 30 45 20 130
80 114 80 -19 0 -62 54 -62 77 0 28 0 28 45 2z m-742 -84 c-7 -21 -13 -19 -13
6 0 11 4 18 10 14 5 -3 7 -12 3 -20z m-720 -200 c-15 -45 -41 -66 -27 -22 7
22 33 67 40 67 1 0 -4 -20 -13 -45z m565 -41 c6 -4 -50 -124 -57 -124 -3 0
-15 38 -26 83 l-20 83 50 -20 c28 -11 52 -21 53 -22z m783 -358 c11 -11 19
-16 19 -12 0 5 9 -3 21 -18 34 -43 17 -62 -49 -56 -20 1 -22 -1 -13 -18 8 -15
6 -23 -9 -37 -19 -18 -20 -17 -19 6 1 13 -2 61 -5 107 l-7 82 22 -17 c12 -10
30 -27 40 -37z m128 24 c-11 -30 -23 -35 -53 -24 -34 13 -6 40 56 53 4 0 2
-12 -3 -29z m661 -125 c-7 -9 -15 -13 -18 -10 -3 2 1 11 8 20 7 9 15 13 18 10
3 -2 -1 -11 -8 -20z m-1813 -367 l-4 -152 34 39 c33 38 34 38 22 10 -6 -17
-15 -48 -19 -70 -7 -35 -9 -37 -15 -17 -4 12 -12 22 -17 22 -5 0 -7 -4 -4 -9
3 -4 -1 -17 -9 -27 -14 -18 -14 -18 -15 6 0 20 -2 22 -10 10 -9 -13 -10 -13
-11 0 0 8 -3 26 -7 40 -3 14 -6 69 -6 123 -1 82 2 101 16 111 10 7 22 25 27
39 6 15 13 27 16 27 3 0 4 -68 2 -152z m594 110 c-7 -13 -23 -36 -37 -53 l-24
-30 27 62 c18 40 31 59 37 53 6 -6 5 -18 -3 -32z m-948 -35 c-15 -27 -28 -50
-30 -52 -2 -2 -3 17 -3 43 0 36 3 47 13 43 8 -3 20 -1 28 4 8 5 15 9 16 9 1 0
-10 -21 -24 -47z m797 -118 c11 -3 20 -10 20 -14 0 -5 -24 -31 -54 -59 -42
-40 -50 -52 -37 -57 14 -6 14 -8 -3 -20 -21 -16 -37 -11 -31 8 2 7 6 28 8 47
5 37 26 120 34 133 3 5 13 0 24 -11 10 -11 27 -23 39 -27z m-516 -183 c18 4
21 0 20 -26 -2 -36 17 -77 47 -105 20 -18 20 -19 1 -32 -26 -19 -42 -52 -42
-87 0 -17 -6 -32 -15 -35 -18 -7 -29 9 -21 30 12 32 -23 -8 -68 -76 -41 -63
-62 -107 -58 -123 3 -11 -38 -88 -67 -128 -27 -36 -61 -85 -74 -107 -5 -9 -3
-11 6 -7 9 3 17 -3 20 -17 5 -18 -8 -37 -69 -99 -42 -42 -83 -91 -92 -109 -8
-18 -30 -45 -48 -59 l-33 -26 25 -23 c14 -13 24 -29 22 -35 -3 -7 -27 -27 -54
-45 -53 -36 -114 -92 -114 -105 0 -4 8 -8 17 -8 27 0 11 -8 -31 -14 -21 -4
-43 -9 -49 -13 -6 -4 -8 0 -4 10 3 10 3 17 -2 17 -13 0 -42 -36 -34 -43 3 -4
-1 -7 -10 -7 -12 0 -17 8 -16 28 1 28 16 85 18 67 1 -5 11 6 22 25 12 19 36
49 53 65 37 35 139 210 158 273 12 38 28 57 28 32 0 -5 4 -10 8 -10 5 0 8 53
7 118 l-1 118 40 -19 c49 -23 58 -35 53 -65 -3 -17 -1 -20 9 -11 10 8 14 3 20
-25 8 -44 19 -54 22 -19 1 15 9 34 17 43 21 24 19 27 -16 22 l-31 -5 21 42 22
42 -25 -7 c-32 -8 -43 12 -14 27 13 6 37 25 55 42 28 26 30 32 19 51 -11 18
-13 29 -7 51 0 3 12 -2 26 -11 25 -16 25 -16 25 12 0 51 11 76 30 71 24 -6 31
0 68 61 34 56 38 67 21 56 -8 -4 -7 0 1 15 6 12 13 52 16 89 2 37 9 79 15 94
10 25 13 26 27 12 8 -9 25 -14 36 -12z m-223 -42 c16 0 9 -27 -11 -45 -11 -10
-20 -24 -20 -32 0 -8 -11 -25 -24 -38 -13 -13 -32 -46 -42 -74 -10 -28 -21
-51 -26 -51 -4 0 -5 6 -3 13 2 6 6 28 9 47 9 58 16 94 23 115 4 11 8 25 9 32
1 6 7 28 14 48 l12 36 25 -26 c14 -14 30 -25 34 -25z m746 -92 c-39 -34 -45
-23 -16 33 l21 43 14 -25 c12 -22 10 -26 -19 -51z m-1118 -27 c-10 -22 -20
-49 -22 -60 -4 -26 -17 -40 -17 -18 0 10 -4 17 -10 17 -5 0 -9 -5 -7 -11 4
-19 -20 -21 -27 -2 -5 13 7 30 46 65 29 26 54 47 55 48 0 0 -7 -18 -18 -39z
m722 -59 c0 -11 3 -12 6 -4 10 26 19 10 17 -30 -1 -23 3 -55 8 -71 9 -24 7
-32 -10 -49 l-20 -20 4 52 c3 39 1 51 -8 47 -7 -2 -23 -7 -35 -11 l-22 -7 20
60 c19 57 38 72 40 33z m581 -14 c-4 -28 -6 -30 -12 -13 -4 11 -3 26 2 33 15
17 15 16 10 -20z m-72 -28 c0 -17 -8 -40 -18 -51 -11 -10 -25 -32 -33 -47 -8
-15 -24 -42 -36 -61 l-23 -34 0 37 c0 41 34 117 70 159 30 35 40 34 40 -3z
m-145 0 c-3 -5 -8 -28 -11 -50 -4 -35 -34 -163 -50 -213 -5 -17 -3 -17 18 -6
12 6 27 18 31 25 4 8 12 14 17 14 6 0 -11 -30 -36 -67 -24 -38 -50 -77 -57
-87 -7 -11 -32 -41 -57 -66 -56 -58 -79 -86 -62 -76 24 14 12 -24 -14 -47 -15
-12 -32 -28 -40 -34 -7 -7 -17 -13 -22 -13 -5 0 -29 -22 -54 -48 -25 -26 -56
-55 -69 -64 -20 -13 -22 -17 -10 -32 20 -24 9 -39 -56 -74 -62 -32 -119 -83
-78 -68 16 6 17 5 8 -5 -7 -7 -35 -15 -63 -19 -34 -4 -47 -3 -40 4 17 17 11
26 -15 26 -28 0 -32 12 -10 30 12 10 15 10 15 -4 0 -27 15 -18 18 11 3 36 10
40 21 12 5 -15 5 -29 -2 -37 -5 -7 -7 -15 -5 -18 6 -5 78 75 78 86 0 4 -9 6
-20 6 -37 -2 -22 18 40 50 34 17 56 34 49 36 -12 4 -16 54 -5 65 3 3 14 -2 25
-11 18 -17 19 -16 33 25 13 38 18 43 45 43 24 1 41 12 75 51 23 27 37 46 30
41 -7 -4 -4 7 7 25 11 19 23 53 27 78 4 25 16 60 27 78 19 33 20 33 34 13 16
-22 48 -27 59 -8 4 7 7 35 6 62 -1 38 5 60 23 86 13 19 26 55 30 79 8 46 40
111 57 111 5 0 6 -4 3 -10z m132 -149 c-14 -14 -31 -39 -37 -55 -8 -22 -14
-26 -22 -18 -9 9 -7 16 5 30 9 10 17 26 17 35 0 9 8 32 17 52 l17 36 14 -27
c13 -24 12 -28 -11 -53z m-407 -3 c0 6 7 9 15 6 26 -10 17 -49 -16 -73 -18
-13 -29 -19 -25 -12 4 7 0 11 -11 11 -15 0 -16 2 -3 10 13 8 13 10 -2 10 -17
0 -17 2 -1 36 16 32 18 34 30 18 7 -10 13 -13 13 -6z m-690 -51 c0 -2 -10 -12
-22 -23 l-23 -19 19 23 c18 21 26 27 26 19z m-57 -152 c-3 -9 -8 -14 -10 -11
-3 3 -2 9 2 15 9 16 15 13 8 -4z m-27 -68 c-7 -20 -15 -35 -18 -31 -3 3 -14
-15 -23 -40 -22 -58 -45 -80 -45 -43 0 16 11 37 28 52 15 14 20 23 10 20 -14
-6 -15 -2 -6 35 10 37 13 41 34 36 15 -4 24 -2 24 5 0 7 2 10 5 8 2 -3 -2 -22
-9 -42z m-347 -40 c11 -51 10 -57 -14 -103 -31 -60 -62 -101 -69 -93 -6 5 -11
103 -8 147 1 12 7 22 13 22 5 0 7 -6 3 -12 -4 -7 2 -5 14 5 11 11 24 36 27 58
9 50 19 43 34 -24z m-533 -12 c-1 -8 -9 -22 -18 -32 -8 -10 -23 -31 -31 -48
-9 -16 -16 -26 -17 -22 0 4 7 22 17 40 15 30 15 31 0 18 -23 -18 -21 -5 4 35
19 32 49 38 45 9z m2018 -127 c-6 -10 -4 -10 8 0 18 14 31 2 23 -20 -4 -11
-75 -41 -82 -34 -3 3 48 66 53 66 3 0 2 -6 -2 -12z m-2161 -53 c18 -37 18 -39
-5 -111 l-23 -74 -45 6 c-52 8 -99 29 -107 49 -3 9 19 43 53 82 93 108 98 109
127 48z m1857 -189 c0 -3 -4 -8 -10 -11 -5 -3 -10 -1 -10 4 0 6 5 11 10 11 6
0 10 -2 10 -4z m-1166 -73 c-9 -15 -21 -32 -26 -38 -5 -5 -19 -23 -32 -39
l-24 -29 7 33 c4 23 16 39 35 49 16 9 28 20 26 25 -1 8 18 25 29 26 2 0 -5
-12 -15 -27z m688 -15 c-7 -7 -12 -8 -12 -2 0 14 12 26 19 19 2 -3 -1 -11 -7
-17z m-1317 -62 c-19 -44 -26 -104 -14 -111 13 -9 11 -42 -3 -48 -11 -4 -33
-42 -68 -116 -3 -8 -12 -17 -19 -19 -10 -3 -10 0 -2 17 22 39 3 21 -30 -30
-18 -28 -37 -56 -43 -63 -15 -16 -33 -47 -82 -141 -22 -44 -71 -122 -107 -174
-37 -51 -64 -97 -61 -102 8 -13 -20 -59 -70 -114 -45 -49 -46 -49 -42 -20 2
17 5 37 5 46 1 9 12 29 26 45 14 16 25 33 25 37 0 15 41 67 49 63 18 -11 200
340 201 389 1 18 2 17 15 -5 8 -14 15 -20 15 -15 6 47 8 83 10 168 2 107 3
108 65 83 26 -11 35 -21 35 -38 0 -34 -13 -48 -44 -50 -36 -3 -39 -13 -22 -67
l13 -45 6 32 c4 18 25 60 48 93 43 63 82 144 58 122 -13 -13 -49 -18 -49 -7 0
5 90 101 97 103 1 1 -4 -14 -12 -33z m762 -11 c-4 -8 -11 -15 -17 -15 -7 0 -7
6 0 21 13 23 26 19 17 -6z m-61 -111 c-4 -14 -9 -24 -12 -21 -3 2 -2 17 2 31
3 15 9 25 11 22 3 -3 2 -17 -1 -32z m-1000 -95 c-13 -33 -27 -64 -32 -67 -6
-4 -18 -25 -27 -47 l-17 -40 5 40 c10 79 16 95 35 95 22 0 31 24 26 68 -3 27
-1 30 14 22 17 -9 16 -13 -4 -71z m354 27 c0 -31 -28 -56 -41 -35 -7 11 -9 10
-10 -6 -4 -59 8 -105 27 -105 11 0 8 -7 -10 -24 -15 -13 -26 -27 -26 -33 0 -5
-9 -9 -20 -10 -25 -2 -25 0 0 79 11 34 20 65 20 67 0 3 -11 -6 -25 -19 -28
-27 -29 -29 8 52 18 39 37 58 37 36 0 -8 5 -6 11 5 14 24 29 21 29 -7z m-501
-140 c2 -120 1 -127 -24 -171 -15 -25 -31 -43 -35 -40 -19 12 -30 186 -15 235
4 14 16 31 26 38 10 7 21 29 25 48 11 61 20 20 23 -110z m1005 75 c-9 -29 -18
-50 -21 -47 -3 2 3 28 12 56 22 67 29 60 9 -9z m-233 -302 c-21 -18 -22 -29
-5 -86 4 -14 2 -23 -4 -23 -6 0 -18 -3 -28 -7 -14 -5 -16 -2 -10 20 20 86 21
80 -3 67 l-22 -11 22 43 c12 24 24 37 26 31 3 -9 9 -8 21 4 16 15 17 15 21 -2
2 -11 -6 -27 -18 -36z m-91 -9 c0 -11 -7 -20 -15 -20 -13 0 -13 3 -3 20 7 11
14 20 15 20 2 0 3 -9 3 -20z m-806 -100 c-9 -14 -25 -37 -35 -51 l-20 -24 6
40 c3 22 10 53 16 68 11 26 13 27 30 11 17 -15 17 -19 3 -44z m656 -84 c0 -15
-18 -31 -26 -23 -7 7 7 37 17 37 5 0 9 -6 9 -14z m-75 -114 c-5 -14 -7 -14
-15 -2 -5 9 -4 20 3 28 14 17 22 0 12 -26z m-25 1 c0 -5 -5 -15 -10 -23 -8
-12 -10 -11 -10 8 0 12 5 22 10 22 6 0 10 -3 10 -7z m-538 -72 c2 -17 0 -29
-5 -28 -4 1 -23 -24 -40 -55 -18 -31 -36 -60 -41 -65 -16 -15 6 41 34 88 15
25 31 55 34 67 10 29 13 28 18 -7z m504 -6 c-3 -8 -1 -15 4 -15 19 0 9 -16
-51 -80 -33 -36 -71 -82 -85 -102 -13 -21 -26 -38 -29 -38 -8 0 54 97 70 110
9 7 24 33 35 58 19 43 47 82 58 82 2 0 2 -7 -2 -15z m-654 -175 c19 0 20 -1 4
-22 -8 -13 -31 -55 -51 -94 -19 -38 -46 -80 -59 -93 l-25 -23 14 43 c36 116
85 223 92 202 3 -7 14 -13 25 -13z m18 -64 c0 -8 -11 -28 -25 -43 l-25 -28 12
30 c20 49 38 69 38 41z m393 -116 c-9 -16 -23 -30 -30 -30 -6 0 -24 -11 -39
-25 -15 -14 -31 -25 -36 -25 -12 0 50 79 63 81 5 1 13 2 19 3 5 0 15 7 22 14
20 20 20 14 1 -18z m-724 -6 c2 -2 -2 -17 -9 -34 -9 -23 -15 -28 -21 -18 -7
10 -9 9 -9 -4 0 -9 -4 -19 -9 -22 -6 -4 -8 74 -2 92 1 4 44 -8 50 -14z m592
-97 c-10 -9 -11 -8 -5 6 3 10 9 15 12 12 3 -3 0 -11 -7 -18z"/>
<path d="M19644 17591 c9 -10 14 -25 10 -35 -9 -22 3 -20 16 3 7 15 6 23 -6
35 -22 23 -41 20 -20 -3z"/>
<path d="M19356 16405 c-4 -11 -12 -31 -17 -44 -6 -15 -6 -28 0 -34 14 -14 33
28 29 66 -3 27 -5 29 -12 12z"/>
<path d="M19351 16164 c0 -11 3 -14 6 -6 3 7 2 16 -1 19 -3 4 -6 -2 -5 -13z"/>
<path d="M19684 14726 c-11 -5 -28 -22 -37 -38 -15 -26 -15 -29 -1 -35 17 -6
46 26 39 44 -2 7 3 17 13 22 23 13 12 19 -14 7z"/>
<path d="M19547 14933 c-4 -3 -7 -15 -7 -26 0 -25 13 -14 15 13 2 22 1 23 -8
13z"/>
<path d="M21180 23786 c0 -8 4 -17 9 -20 10 -7 23 19 14 28 -11 11 -23 6 -23
-8z"/>
<path d="M21077 23030 c-3 -8 -13 -68 -22 -133 -9 -64 -20 -131 -25 -147 -10
-37 -3 -40 10 -4 10 26 15 50 25 124 9 71 17 104 26 116 6 7 6 21 0 35 -7 18
-10 20 -14 9z"/>
<path d="M23084 22993 c2 -10 10 -19 19 -21 20 -4 22 9 5 26 -17 17 -27 15
-24 -5z"/>
<path d="M21056 22734 c-4 -20 -5 -38 -2 -41 2 -3 8 11 12 31 3 21 4 39 1 42
-2 3 -8 -11 -11 -32z"/>
<path d="M20898 22505 c-3 -14 -2 -27 1 -30 4 -2 8 10 9 26 3 36 -4 38 -10 4z"/>
<path d="M23029 22482 c5 -34 6 -35 9 -8 2 16 0 32 -5 37 -5 5 -7 -7 -4 -29z"/>
<path d="M20918 22460 c-16 -39 -29 -92 -24 -97 3 -4 6 1 6 10 0 9 7 20 16 25
11 6 14 19 12 43 -3 21 -6 28 -10 19z"/>
<path d="M22956 22359 c-3 -8 -12 -52 -21 -99 -9 -47 -25 -104 -35 -128 -19
-42 -19 -42 1 -31 24 12 34 36 48 115 6 33 20 70 30 84 18 25 18 26 0 49 -14
17 -20 19 -23 10z"/>
<path d="M20841 22304 c-16 -49 -11 -81 8 -46 7 13 11 37 9 55 l-3 32 -14 -41z"/>
<path d="M20871 22280 c-1 -14 -4 -36 -6 -50 l-6 -25 11 25 c6 13 9 36 7 50
l-4 25 -2 -25z"/>
<path d="M22948 22089 c-10 -24 -13 -39 -6 -37 19 7 36 42 29 60 -4 13 -10 7
-23 -23z"/>
<path d="M22673 21950 c-1 -17 1 -30 6 -30 4 0 8 6 8 13 0 6 2 18 4 26 2 7 0
15 -6 17 -5 2 -11 -10 -12 -26z"/>
<path d="M20830 21930 c0 -35 12 -45 27 -21 9 14 7 21 -8 34 -18 16 -19 15
-19 -13z"/>
<path d="M20763 21883 c-15 -30 -14 -33 8 -24 10 4 13 13 10 28 -6 22 -6 22
-18 -4z"/>
<path d="M22695 21880 c-17 -32 -12 -57 6 -30 7 13 10 13 18 1 10 -16 18 -4
17 28 -1 36 -23 36 -41 1z"/>
<path d="M20866 21868 c-12 -43 -42 -117 -55 -138 -14 -23 -13 -23 17 4 18 17
32 40 32 52 0 29 10 55 20 49 4 -2 5 7 2 20 -5 27 -11 32 -16 13z"/>
<path d="M20772 21830 c0 -14 2 -19 5 -12 2 6 2 18 0 25 -3 6 -5 1 -5 -13z"/>
<path d="M23090 21835 c0 -8 5 -15 10 -15 6 0 10 7 10 15 0 8 -4 15 -10 15 -5
0 -10 -7 -10 -15z"/>
<path d="M22594 21809 c-23 -26 -26 -49 -8 -56 20 -7 37 10 40 41 3 34 -9 40
-32 15z"/>
<path d="M20773 21738 c-1 -36 0 -39 7 -18 11 33 12 60 2 60 -4 0 -9 -19 -9
-42z"/>
<path d="M22651 21765 c-1 -11 -4 -31 -6 -45 -3 -14 -2 -18 1 -10 4 8 12 18
17 22 7 4 7 14 0 30 -11 21 -12 21 -12 3z"/>
<path d="M22703 21685 c0 -27 2 -38 4 -22 2 15 2 37 0 50 -2 12 -4 0 -4 -28z"/>
<path d="M20761 21674 c0 -11 3 -14 6 -6 3 7 2 16 -1 19 -3 4 -6 -2 -5 -13z"/>
<path d="M20716 21638 c-20 -28 -21 -44 -2 -29 13 11 29 51 21 51 -2 0 -11
-10 -19 -22z"/>
<path d="M22616 21465 c9 -38 19 -49 38 -42 18 7 22 37 4 37 -6 0 -20 8 -30
17 -19 17 -19 16 -12 -12z"/>
<path d="M22487 21450 l-27 -30 25 6 c23 6 25 4 26 -32 1 -38 1 -39 11 -11 5
15 7 35 2 45 -4 9 -6 25 -5 35 3 23 1 22 -32 -13z"/>
<path d="M20670 21416 c0 -31 6 -34 13 -6 3 11 1 23 -4 26 -5 3 -9 -6 -9 -20z"/>
<path d="M23002 21400 c0 -14 2 -19 5 -12 2 6 2 18 0 25 -3 6 -5 1 -5 -13z"/>
<path d="M20730 21400 c0 -5 -1 -13 -2 -17 -10 -45 -14 -83 -7 -83 9 0 15 22
23 78 2 17 0 32 -5 32 -5 0 -9 -4 -9 -10z"/>
<path d="M22675 21360 c-9 -17 -35 -44 -58 -61 l-42 -31 36 6 c55 8 69 16 69
40 0 11 4 28 10 36 8 12 10 12 16 -3 3 -9 10 -17 14 -17 5 0 3 14 -3 30 -14
38 -22 38 -42 0z"/>
<path d="M20603 21355 c-7 -8 -15 -37 -17 -66 -5 -58 5 -55 23 10 7 23 15 49
18 57 7 18 -8 17 -24 -1z"/>
<path d="M20664 21332 c-4 -18 -10 -29 -15 -26 -5 3 -9 2 -10 -3 0 -4 -2 -28
-4 -53 -4 -41 -3 -39 20 29 14 41 23 77 20 79 -3 3 -8 -9 -11 -26z"/>
<path d="M22523 21311 l-2 -36 19 25 c24 31 24 36 2 42 -14 4 -17 -2 -19 -31z"/>
<path d="M22925 21224 c-9 -38 -24 -87 -32 -109 -8 -22 -18 -47 -21 -55 -4
-12 -1 -11 15 3 11 10 25 42 33 75 12 57 27 93 41 102 4 3 2 16 -5 29 -12 22
-14 20 -31 -45z"/>
<path d="M22517 21263 c-10 -9 -9 -23 1 -23 5 0 9 7 9 15 0 17 -1 18 -10 8z"/>
<path d="M22433 21247 c-13 -5 -23 -14 -23 -19 0 -5 10 -6 23 -2 27 8 30 10
26 22 -3 6 -13 5 -26 -1z"/>
<path d="M22347 21200 c3 -11 9 -22 13 -25 5 -3 6 4 3 15 -3 11 -9 22 -13 25
-5 3 -6 -4 -3 -15z"/>
<path d="M20581 21184 c0 -11 3 -14 6 -6 3 7 2 16 -1 19 -3 4 -6 -2 -5 -13z"/>
<path d="M20621 21184 c0 -11 3 -14 6 -6 3 7 2 16 -1 19 -3 4 -6 -2 -5 -13z"/>
<path d="M20583 21079 c-12 -27 -18 -47 -12 -44 11 7 11 1 0 -49 -7 -27 -6
-35 1 -28 6 6 11 31 12 55 1 36 4 43 14 34 7 -5 11 -16 8 -22 -2 -7 0 -18 5
-26 13 -22 30 2 33 47 3 49 -3 72 -15 53 -6 -10 -10 -8 -16 8 -7 18 -11 15
-30 -28z"/>
<path d="M19872 21078 c5 -15 28 -23 28 -10 0 5 -7 13 -16 16 -10 4 -14 1 -12
-6z"/>
<path d="M22378 21055 c2 -14 6 -25 7 -25 1 0 5 11 7 25 3 16 1 25 -7 25 -8 0
-10 -9 -7 -25z"/>
<path d="M22912 21046 c-17 -38 -15 -55 4 -28 8 12 14 30 12 39 -2 13 -6 10
-16 -11z"/>
<path d="M22253 21040 c-20 -8 -22 -16 -22 -59 1 -28 6 -48 10 -45 5 3 9 11 9
19 0 7 12 27 26 44 35 42 24 60 -23 41z"/>
<path d="M22481 20979 c-13 -59 -9 -69 15 -44 22 22 28 70 10 84 -12 10 -16 3
-25 -40z"/>
<path d="M22376 20994 c-6 -25 -11 -31 -27 -27 -10 3 -19 1 -20 -3 -2 -28 -8
-67 -14 -84 -12 -38 3 -20 40 46 20 37 34 74 32 83 -2 9 -6 3 -11 -15z"/>
<path d="M22711 20948 c0 -9 -4 -25 -7 -35 -5 -14 -4 -15 5 -7 7 7 11 22 8 35
-2 13 -5 16 -6 7z"/>
<path d="M20657 20913 c-4 -3 -7 -18 -7 -31 0 -31 13 -21 17 13 4 26 1 30 -10
18z"/>
<path d="M20527 20853 c-24 -56 -28 -97 -11 -125 4 -7 7 -29 6 -48 -3 -33 -1
-32 24 23 43 91 57 62 16 -33 -14 -34 -18 -162 -5 -183 8 -14 23 15 23 46 0
15 4 27 8 27 4 0 8 19 8 43 1 45 3 59 24 124 17 55 8 77 -28 68 -15 -3 -37
-16 -49 -27 -28 -26 -28 -21 -4 67 11 38 18 71 17 73 -2 1 -15 -24 -29 -55z"/>
<path d="M22235 20890 c3 -5 8 -10 11 -10 2 0 4 5 4 10 0 6 -5 10 -11 10 -5 0
-7 -4 -4 -10z"/>
<path d="M22722 20878 c-5 -7 -13 -24 -16 -38 -6 -19 -5 -22 3 -10 10 13 12
13 21 0 8 -12 10 -11 10 7 0 12 3 28 6 37 7 19 -9 21 -24 4z"/>
<path d="M22293 20833 c-4 -10 -23 -33 -42 -50 -20 -18 -32 -33 -27 -33 5 0
15 8 22 18 18 24 18 1 -1 -60 -8 -27 -12 -48 -10 -48 10 0 46 93 41 106 -3 8
-3 14 0 14 2 0 13 -20 24 -44 10 -24 24 -47 31 -51 20 -13 41 26 35 65 -3 19
-7 40 -8 47 -2 20 -18 4 -19 -20 0 -22 0 -22 -10 1 -5 14 -14 20 -20 16 -8 -5
-10 3 -7 25 5 34 1 40 -9 14z"/>
<path d="M22637 20802 c-27 -30 -20 -65 8 -44 10 7 21 62 12 62 -2 0 -11 -8
-20 -18z"/>
<path d="M22671 20763 c0 -12 -4 -30 -7 -40 -5 -17 -5 -17 6 0 6 10 9 28 7 40
-4 22 -4 22 -6 0z"/>
<path d="M20480 20712 c0 -18 4 -32 9 -32 4 0 7 12 5 26 -4 38 -14 42 -14 6z"/>
<path d="M22701 20674 c0 -11 3 -14 6 -6 3 7 2 16 -1 19 -3 4 -6 -2 -5 -13z"/>
<path d="M22193 20617 c-43 -33 -51 -58 -33 -102 l8 -20 7 20 c4 11 20 46 36
78 16 31 28 57 26 56 -1 0 -21 -15 -44 -32z"/>
<path d="M23378 20617 c-3 -19 -2 -25 4 -19 6 6 8 18 6 28 -3 14 -5 12 -10 -9z"/>
<path d="M22417 20593 c-4 -3 -7 -17 -7 -31 0 -21 2 -22 15 -12 8 7 15 21 15
31 0 19 -11 25 -23 12z"/>
<path d="M19902 20570 c0 -14 2 -19 5 -12 2 6 2 18 0 25 -3 6 -5 1 -5 -13z"/>
<path d="M20437 20540 c-3 -11 -1 -20 4 -20 5 0 9 9 9 20 0 11 -2 20 -4 20 -2
0 -6 -9 -9 -20z"/>
<path d="M22265 20524 c-6 -1 -27 -5 -48 -9 -31 -5 -37 -9 -32 -23 4 -9 8 -29
8 -44 0 -16 3 -28 7 -28 3 0 23 18 45 40 29 29 42 37 51 29 19 -15 1 -58 -39
-92 -18 -16 -27 -26 -21 -23 14 7 22 -12 30 -63 6 -39 29 -81 44 -81 6 0 10
19 10 42 0 33 3 39 12 30 7 -7 17 -12 22 -12 6 0 5 5 -2 12 -21 21 -14 82 13
122 30 44 30 48 5 71 -18 16 -83 35 -105 29z"/>
<path d="M22110 20517 c0 -3 7 -20 15 -38 l15 -34 -2 34 c-2 19 -9 36 -15 39
-7 2 -13 2 -13 -1z"/>
<path d="M22622 20489 c3 -35 22 -49 32 -24 3 9 -3 24 -15 36 l-20 20 3 -32z"/>
<path d="M22527 20484 c-11 -15 -14 -23 -6 -22 7 2 16 -10 19 -27 l6 -30 6 29
c3 15 3 39 -1 51 l-6 23 -18 -24z"/>
<path d="M20491 20454 c0 -11 3 -14 6 -6 3 7 2 16 -1 19 -3 4 -6 -2 -5 -13z"/>
<path d="M21670 20456 c0 -9 5 -16 10 -16 6 0 10 4 10 9 0 6 -4 13 -10 16 -5
3 -10 -1 -10 -9z"/>
<path d="M24140 20430 c0 -5 5 -10 10 -10 6 0 10 5 10 10 0 6 -4 10 -10 10 -5
0 -10 -4 -10 -10z"/>
<path d="M19873 20363 c-5 -106 -14 -207 -20 -217 -4 -8 -2 -8 5 -1 13 12 20
50 26 152 3 40 7 77 10 82 7 10 -3 41 -13 41 -3 0 -7 -26 -8 -57z"/>
<path d="M22650 20399 c-14 -25 -41 -53 -66 -68 -16 -9 -13 -10 15 -6 45 8 47
9 55 47 6 30 7 30 20 12 13 -17 14 -17 9 9 -6 32 -18 35 -33 6z"/>
<path d="M20452 20358 c-9 -45 -5 -70 8 -47 5 8 11 31 15 52 10 53 -12 48 -23
-5z"/>
<path d="M23301 20384 c0 -11 3 -14 6 -6 3 7 2 16 -1 19 -3 4 -6 -2 -5 -13z"/>
<path d="M22542 20363 c-1 -27 -1 -27 13 -9 18 24 19 36 2 36 -7 0 -14 -12
-15 -27z"/>
<path d="M22058 20353 c3 -19 7 -21 18 -12 19 16 18 26 -4 31 -15 4 -18 1 -14
-19z"/>
<path d="M23291 20344 c0 -11 3 -14 6 -6 3 7 2 16 -1 19 -3 4 -6 -2 -5 -13z"/>
<path d="M20503 20323 c-15 -5 -18 -43 -4 -43 5 0 11 11 13 25 3 14 5 25 4 24
0 0 -7 -3 -13 -6z"/>
<path d="M22531 20314 c0 -11 3 -14 6 -6 3 7 2 16 -1 19 -3 4 -6 -2 -5 -13z"/>
<path d="M22473 20313 c-17 -6 -16 -23 1 -23 8 0 16 7 20 15 6 15 1 17 -21 8z"/>
<path d="M23265 20281 c-8 -14 -15 -51 -9 -51 7 0 25 52 20 57 -2 2 -7 0 -11
-6z"/>
<path d="M22412 20260 c0 -14 2 -19 5 -12 2 6 2 18 0 25 -3 6 -5 1 -5 -13z"/>
<path d="M22170 20245 c0 -8 2 -15 4 -15 2 0 6 7 10 15 3 8 1 15 -4 15 -6 0
-10 -7 -10 -15z"/>
<path d="M20350 20219 c-6 -11 -10 -25 -8 -30 2 -5 8 4 15 21 13 34 9 40 -7 9z"/>
<path d="M20761 20224 c0 -11 3 -14 6 -6 3 7 2 16 -1 19 -3 4 -6 -2 -5 -13z"/>
<path d="M22120 20184 c-14 -36 -12 -64 4 -64 8 0 21 19 29 43 14 41 13 43 -5
44 -12 1 -22 -8 -28 -23z"/>
<path d="M19891 20180 c-1 -8 -4 -26 -7 -40 -5 -22 -4 -23 6 -7 6 10 9 28 7
40 -2 12 -5 15 -6 7z"/>
<path d="M22416 20145 c-3 -8 -1 -15 4 -15 6 0 10 7 10 15 0 8 -2 15 -4 15 -2
0 -6 -7 -10 -15z"/>
<path d="M22328 20133 c-12 -3 -18 -14 -19 -31 0 -15 -2 -40 -4 -57 -3 -30 -3
-30 12 5 8 19 22 43 31 53 18 20 7 36 -20 30z"/>
<path d="M21937 20092 c-7 -34 -6 -35 15 -7 14 19 15 24 4 28 -9 4 -16 -4 -19
-21z"/>
<path d="M22196 20111 c-2 -3 1 -14 8 -23 11 -15 13 -15 24 2 9 15 8 19 -9 23
-10 3 -21 2 -23 -2z"/>
<path d="M22407 20092 c-3 -17 -12 -31 -18 -30 -7 2 -18 -17 -25 -41 -16 -52
-13 -62 6 -23 8 15 23 39 33 55 10 15 17 37 15 50 -3 18 -5 16 -11 -11z"/>
<path d="M22479 20068 c-6 -24 -14 -47 -17 -52 -3 -5 5 -2 18 7 13 9 25 29 26
46 6 47 -14 46 -27 -1z"/>
<path d="M20671 19960 c-18 -63 -40 -131 -47 -150 -13 -32 -13 -34 2 -15 15
19 16 18 9 -15 -9 -42 -2 -38 13 8 6 19 7 30 2 27 -15 -9 -13 3 25 120 20 60
34 116 33 125 -2 8 -18 -37 -37 -100z"/>
<path d="M24006 20043 c-6 -14 -5 -15 5 -6 7 7 10 15 7 18 -3 3 -9 -2 -12 -12z"/>
<path d="M23190 20025 c0 -8 2 -15 4 -15 2 0 6 7 10 15 3 8 1 15 -4 15 -6 0
-10 -7 -10 -15z"/>
<path d="M22191 19987 c-13 -21 -12 -21 5 -5 10 10 16 20 13 22 -3 3 -11 -5
-18 -17z"/>
<path d="M20402 19973 c-11 -22 -24 -73 -18 -73 2 0 11 20 19 45 16 46 15 59
-1 28z"/>
<path d="M23176 19963 c-6 -14 -5 -15 5 -6 7 7 10 15 7 18 -3 3 -9 -2 -12 -12z"/>
<path d="M19752 19940 c0 -19 2 -27 5 -17 2 9 2 25 0 35 -3 9 -5 1 -5 -18z"/>
<path d="M21468 19862 c-15 -42 -34 -94 -42 -114 -9 -21 -14 -38 -12 -38 9 0
42 67 55 110 7 25 19 55 27 68 9 13 12 28 7 37 -6 10 -17 -8 -35 -63z"/>
<path d="M22304 19908 c-16 -18 -21 -26 -12 -19 16 12 16 10 8 -18 -4 -17 -11
-35 -15 -41 -3 -5 -2 -10 3 -10 5 0 16 17 25 38 12 30 15 33 16 14 1 -13 6
-32 12 -43 17 -33 40 -5 38 46 -2 37 -5 42 -25 39 -16 -1 -21 2 -17 12 8 22
-1 17 -33 -18z"/>
<path d="M23165 19930 c-4 -6 -10 -8 -14 -6 -4 3 -8 -1 -8 -9 0 -21 14 -18 27
5 11 20 6 29 -5 10z"/>
<path d="M23920 19883 c-13 -32 -34 -80 -47 -108 -21 -43 -21 -47 -4 -25 11
14 28 45 37 70 10 25 24 56 33 69 18 28 23 51 11 51 -4 0 -18 -26 -30 -57z"/>
<path d="M22103 19903 c-3 -10 -8 -22 -11 -27 -3 -5 0 -6 5 -3 11 7 25 47 17
47 -3 0 -7 -8 -11 -17z"/>
<path d="M19760 19869 c-6 -22 -9 -44 -6 -47 3 -3 6 3 6 14 0 16 2 17 11 4 9
-13 10 -13 6 0 -2 8 0 25 4 37 5 13 4 25 -1 28 -5 3 -14 -13 -20 -36z"/>
<path d="M20263 19885 c-3 -9 -3 -18 -1 -21 3 -3 8 4 11 16 6 23 -1 27 -10 5z"/>
<path d="M22070 19821 c-11 -23 -17 -41 -12 -41 12 0 48 68 40 76 -4 3 -16
-12 -28 -35z"/>
<path d="M23100 19820 c-6 -11 -8 -20 -6 -20 3 0 10 9 16 20 6 11 8 20 6 20
-3 0 -10 -9 -16 -20z"/>
<path d="M19706 19772 c-9 -18 -11 -34 -6 -42 12 -20 18 -11 24 33 5 44 1 46
-18 9z"/>
<path d="M20222 19738 l-1 -43 15 33 c8 18 12 37 9 43 -13 20 -21 7 -23 -33z"/>
<path d="M22238 19751 c-29 -29 -38 -83 -17 -97 7 -4 9 -21 6 -40 -3 -19 -4
-34 -3 -34 2 0 20 16 40 36 20 20 40 34 43 31 10 -10 -17 -70 -37 -84 -11 -8
-17 -19 -14 -25 4 -6 9 -32 11 -57 1 -25 5 -53 9 -61 4 -13 6 -13 14 0 6 8 10
25 10 37 0 14 5 21 13 18 8 -4 12 8 13 39 1 28 9 56 23 74 27 38 26 48 -4 68
-17 11 -40 15 -75 12 -27 -1 -50 -1 -50 2 0 3 13 29 29 58 33 58 29 65 -11 23z"/>
<path d="M23880 19741 c-12 -24 -13 -34 -1 -27 9 6 22 46 15 46 -2 0 -8 -9
-14 -19z"/>
<path d="M19736 19735 c-3 -8 -1 -15 4 -15 6 0 10 7 10 15 0 8 -2 15 -4 15 -2
0 -6 -7 -10 -15z"/>
<path d="M21442 19715 c-7 -15 -11 -30 -8 -32 7 -7 28 36 24 49 -2 6 -9 -2
-16 -17z"/>
<path d="M22394 19726 c-10 -27 2 -43 14 -19 8 14 9 24 2 28 -6 3 -13 -1 -16
-9z"/>
<path d="M19731 19694 c0 -11 3 -14 6 -6 3 7 2 16 -1 19 -3 4 -6 -2 -5 -13z"/>
<path d="M22181 19650 c0 -29 1 -32 10 -17 7 11 7 23 0 35 -9 14 -10 11 -10
-18z"/>
<path d="M23047 19655 c3 -8 9 -12 14 -9 12 7 11 11 -5 17 -10 4 -13 1 -9 -8z"/>
<path d="M19010 19624 c0 -8 5 -12 10 -9 6 3 10 10 10 16 0 5 -4 9 -10 9 -5 0
-10 -7 -10 -16z"/>
<path d="M22997 19604 c-10 -19 -13 -33 -7 -29 5 3 10 1 10 -4 0 -6 -5 -11
-12 -11 -6 0 -8 -3 -5 -7 4 -3 2 -12 -4 -20 -6 -7 -7 -13 -2 -13 15 0 43 68
37 87 -5 17 -5 17 9 0 14 -16 15 -16 21 -1 4 10 2 22 -4 28 -8 8 -9 5 -5 -9 6
-18 6 -19 -8 -3 -12 16 -15 14 -30 -18z"/>
<path d="M23721 19633 c-1 -6 -4 -20 -7 -30 -5 -17 -5 -17 6 0 6 10 9 23 6 30
-3 9 -5 9 -5 0z"/>
<path d="M21271 19593 c-1 -6 -4 -20 -7 -30 -5 -17 -5 -17 6 0 6 10 9 23 6 30
-3 9 -5 9 -5 0z"/>
<path d="M20473 19559 c3 -12 2 -32 -3 -45 -7 -18 -6 -24 4 -24 17 0 28 52 14
61 -6 4 -7 12 -4 18 4 6 2 11 -5 11 -7 0 -9 -8 -6 -21z"/>
<path d="M23706 19552 c-13 -25 -13 -29 0 -29 8 0 12 2 9 5 -2 2 2 11 10 19
17 17 20 33 5 33 -5 0 -16 -13 -24 -28z"/>
<path d="M21270 19524 c-6 -15 -13 -30 -15 -34 -2 -4 2 -7 10 -7 8 0 12 4 9 9
-3 4 -1 8 4 8 13 0 22 39 11 46 -5 3 -14 -7 -19 -22z"/>
<path d="M22120 19540 c0 -13 18 -22 24 -11 3 5 -1 11 -9 15 -8 3 -15 1 -15
-4z"/>
<path d="M23641 19497 c-7 -9 -11 -24 -9 -34 3 -16 5 -15 17 5 15 29 10 50 -8
29z"/>
<path d="M23663 19473 c-3 -10 -8 -21 -10 -25 -2 -5 0 -8 5 -8 5 0 12 11 14
25 6 29 0 33 -9 8z"/>
<path d="M22948 19448 c-24 -49 -28 -65 -13 -65 14 0 40 67 34 86 -2 6 -12 -3
-21 -21z"/>
<path d="M19717 19457 c-5 -16 3 -47 13 -47 16 0 20 32 6 46 -11 10 -15 11
-19 1z"/>
<path d="M21195 19447 c-20 -32 -11 -52 11 -23 13 18 14 18 14 2 0 -9 -5 -27
-11 -39 -10 -21 -10 -21 5 -3 17 21 19 40 7 71 -7 18 -9 18 -26 -8z"/>
<path d="M22195 19439 c-4 -6 -5 -12 -2 -15 2 -3 7 2 10 11 7 17 1 20 -8 4z"/>
<path d="M20393 19405 c-16 -33 -12 -59 6 -39 11 11 25 74 17 74 -4 0 -14 -16
-23 -35z"/>
<path d="M20815 19410 c-9 -17 -18 -61 -20 -98 -4 -55 -2 -62 6 -39 15 39 30
34 27 -9 -2 -20 2 -38 7 -40 11 -4 14 200 3 211 -4 4 -14 -7 -23 -25z"/>
<path d="M19652 19405 c-14 -31 -15 -38 -3 -30 5 3 12 -7 14 -22 2 -16 4 -4 4
25 0 28 -1 52 -2 52 -1 0 -7 -11 -13 -25z"/>
<path d="M23661 19394 c0 -11 3 -14 6 -6 3 7 2 16 -1 19 -3 4 -6 -2 -5 -13z"/>
<path d="M20413 19360 c-5 -22 -7 -37 -2 -35 9 6 23 64 17 70 -2 3 -9 -13 -15
-35z"/>
<path d="M21242 19380 c0 -14 2 -19 5 -12 2 6 2 18 0 25 -3 6 -5 1 -5 -13z"/>
<path d="M22150 19381 c-5 -11 -10 -30 -10 -42 0 -17 3 -19 14 -10 8 7 19 25
25 42 8 23 7 29 -4 29 -8 0 -19 -9 -25 -19z"/>
<path d="M19750 19361 c-7 -18 -24 -54 -37 -80 l-25 -46 31 29 c20 19 31 40
31 57 0 15 5 31 10 34 6 3 10 1 10 -6 0 -7 2 -10 5 -7 3 3 1 16 -4 29 -9 24
-9 24 -21 -10z"/>
<path d="M22580 19330 c0 -5 5 -10 10 -10 6 0 10 5 10 10 0 6 -4 10 -10 10 -5
0 -10 -4 -10 -10z"/>
<path d="M22926 19313 c-6 -14 -5 -15 5 -6 7 7 10 15 7 18 -3 3 -9 -2 -12 -12z"/>
<path d="M20432 19300 c0 -14 2 -19 5 -12 2 6 2 18 0 25 -3 6 -5 1 -5 -13z"/>
<path d="M22013 19305 c-9 -24 1 -27 15 -5 8 13 8 20 2 20 -6 0 -13 -7 -17
-15z"/>
<path d="M22190 19312 c0 -4 4 -13 9 -20 6 -10 10 -10 20 1 9 12 7 16 -9 20
-11 3 -20 2 -20 -1z"/>
<path d="M22857 19252 c-25 -50 -30 -69 -20 -69 8 0 12 6 8 16 -3 8 -3 12 1 8
4 -4 13 -2 21 5 9 7 8 0 -4 -20 -10 -17 -22 -28 -27 -25 -5 3 -6 1 -2 -5 3 -6
0 -30 -9 -54 -21 -60 -19 -81 3 -33 10 22 31 66 45 98 34 72 35 92 6 77 l-20
-11 21 40 c11 23 18 41 15 41 -2 0 -20 -31 -38 -68z"/>
<path d="M19664 19279 c-1 -32 -1 -32 11 -8 13 23 11 39 -3 39 -4 0 -8 -14 -8
-31z"/>
<path d="M23506 19223 c-11 -14 -13 -23 -6 -18 10 6 11 1 6 -21 -4 -19 -3 -24
2 -14 9 14 24 80 19 80 -1 0 -11 -12 -21 -27z"/>
<path d="M23570 19224 c0 -22 2 -24 14 -14 8 6 12 18 9 26 -9 23 -23 16 -23
-12z"/>
<path d="M20236 19221 c-15 -16 -15 -19 -1 -24 8 -4 15 -3 16 1 0 4 2 15 4 25
4 22 2 21 -19 -2z"/>
<path d="M19616 19188 c-16 -22 -15 -35 2 -24 9 5 24 46 17 46 -2 0 -11 -10
-19 -22z"/>
<path d="M22171 19187 c-13 -21 -12 -21 5 -5 10 10 16 20 13 22 -3 3 -11 -5
-18 -17z"/>
<path d="M21907 19193 c-18 -5 -18 -5 0 -19 25 -19 33 -17 33 6 0 20 -2 21
-33 13z"/>
<path d="M21154 19170 c0 -11 6 -20 11 -20 14 0 13 32 -1 37 -6 2 -11 -5 -10
-17z"/>
<path d="M21634 19182 c-21 -14 -51 -142 -33 -142 6 0 8 4 5 9 -7 10 18 33 27
25 3 -3 2 -16 -2 -28 -10 -26 -4 -46 14 -46 10 0 11 8 6 27 -4 15 -4 48 0 73
14 84 11 101 -17 82z"/>
<path d="M23548 19136 c-31 -36 -34 -43 -17 -39 12 3 29 19 38 34 10 16 20 27
23 24 2 -3 5 2 5 10 0 23 -9 18 -49 -29z"/>
<path d="M21082 19158 c-15 -15 -16 -32 -2 -23 7 4 8 -3 4 -22 -4 -15 -3 -25
1 -20 8 7 18 77 12 77 -2 0 -8 -5 -15 -12z"/>
<path d="M23495 19130 c-4 -12 -5 -24 -2 -27 3 -2 8 5 12 17 4 12 5 24 2 27
-3 2 -8 -5 -12 -17z"/>
<path d="M21160 19085 c-12 -19 -31 -42 -43 -50 -18 -13 -19 -15 -4 -15 21 0
57 35 57 56 0 9 6 14 13 11 8 -3 13 3 13 14 0 28 -12 23 -36 -16z"/>
<path d="M20340 19065 c0 -15 6 -25 14 -25 23 0 27 29 6 40 -17 9 -20 7 -20
-15z"/>
<path d="M21919 19073 c-13 -16 -12 -17 4 -4 9 7 17 15 17 17 0 8 -8 3 -21
-13z"/>
<path d="M22080 19063 c-23 -45 -23 -49 -1 -23 11 14 21 31 21 38 0 19 -5 15
-20 -15z"/>
<path d="M21080 19068 c0 -9 -3 -25 -6 -35 -5 -13 -1 -11 11 5 13 18 14 27 6
35 -8 8 -11 7 -11 -5z"/>
<path d="M23433 19068 c-4 -7 -8 -20 -10 -28 -1 -10 3 -9 13 4 14 19 18 36 10
36 -3 0 -8 -6 -13 -12z"/>
<path d="M18946 18955 c-3 -52 -11 -106 -16 -120 -5 -14 -6 -25 -1 -25 10 0
18 30 26 100 3 25 8 58 11 73 6 39 7 40 5 55 0 6 -5 12 -10 12 -4 0 -11 -43
-15 -95z"/>
<path d="M20263 19038 c-6 -7 -14 -20 -18 -28 -8 -13 -7 -13 10 0 17 14 18 13
11 -25 -4 -22 -5 -37 -2 -34 3 3 10 27 15 52 8 46 3 59 -16 35z"/>
<path d="M21702 18988 c-12 -48 -9 -57 13 -38 16 13 21 80 6 80 -5 0 -13 -19
-19 -42z"/>
<path d="M19573 18995 c0 -8 4 -15 9 -15 4 0 8 4 8 9 0 6 -4 12 -8 15 -5 3 -9
-1 -9 -9z"/>
<path d="M20185 18989 c-4 -6 -9 -32 -11 -57 -3 -33 -2 -42 5 -32 9 14 22 100
15 100 -2 0 -6 -5 -9 -11z"/>
<path d="M21016 18984 c-20 -19 -20 -21 -2 -21 8 0 17 9 19 19 6 22 3 23 -17
2z"/>
<path d="M19633 18977 c0 -7 -4 -32 -7 -57 -7 -40 -6 -43 6 -27 16 22 23 83
10 91 -5 3 -9 0 -9 -7z"/>
<path d="M20101 18958 c-17 -46 -21 -78 -11 -78 5 0 10 3 10 8 1 4 5 26 9 50
9 46 5 55 -8 20z"/>
<path d="M19505 18940 c-4 -6 -8 -36 -11 -68 l-4 -57 14 45 c8 25 17 55 21 68
7 22 -8 32 -20 12z"/>
<path d="M19571 18927 c0 -10 -8 -25 -16 -33 -8 -9 -15 -27 -15 -42 0 -15 -3
-38 -5 -52 -3 -14 6 7 20 45 13 39 23 77 21 85 -3 10 -4 9 -5 -3z"/>
<path d="M20262 18935 c3 -4 2 -20 -2 -36 -11 -37 -5 -37 14 0 14 26 14 30 -1
36 -10 3 -15 3 -11 0z"/>
<path d="M22492 18920 c0 -14 2 -19 5 -12 2 6 2 18 0 25 -3 6 -5 1 -5 -13z"/>
<path d="M23356 18925 c-9 -26 -7 -32 5 -12 6 10 9 21 6 23 -2 3 -7 -2 -11
-11z"/>
<path d="M23287 18895 c-16 -15 -32 -54 -25 -60 2 -2 14 12 27 31 25 37 24 55
-2 29z"/>
<path d="M23383 18864 c-20 -41 -21 -43 -3 -32 17 11 38 64 28 72 -1 2 -13
-16 -25 -40z"/>
<path d="M20117 18863 c-8 -16 -20 -55 -26 -88 -13 -69 -13 -77 0 -50 7 15 8
12 3 -12 -4 -22 -2 -33 6 -33 7 0 10 14 8 35 -1 22 3 39 11 44 7 5 11 13 7 19
-3 6 -2 32 4 58 13 56 7 67 -13 27z"/>
<path d="M23335 18871 c-3 -12 -11 -19 -16 -16 -5 4 -9 4 -9 2 0 -3 -7 -21
-15 -41 -8 -20 -14 -36 -12 -36 8 0 69 102 64 106 -3 3 -8 -4 -12 -15z"/>
<path d="M20245 18849 c-4 -6 -5 -12 -2 -15 2 -3 7 2 10 11 7 17 1 20 -8 4z"/>
<path d="M18961 18840 c-1 -8 -4 -26 -7 -40 -5 -22 -4 -23 6 -7 6 10 9 28 7
40 -2 12 -5 15 -6 7z"/>
<path d="M20191 18816 c-19 -20 -20 -24 -6 -30 9 -3 13 -2 10 4 -3 6 -2 10 3
10 5 0 12 9 15 20 7 25 5 25 -22 -4z"/>
<path d="M20950 18825 c0 -8 2 -15 4 -15 2 0 6 7 10 15 3 8 1 15 -4 15 -6 0
-10 -7 -10 -15z"/>
<path d="M20998 18769 c-17 -50 -17 -51 3 -33 10 9 17 19 14 22 -2 3 0 12 5
21 5 10 5 22 1 29 -4 7 -14 -8 -23 -39z"/>
<path d="M22406 18732 c-15 -48 -34 -97 -42 -109 -12 -19 -12 -22 0 -17 8 3
23 29 32 57 9 29 26 71 37 95 12 27 16 47 10 53 -5 5 -20 -24 -37 -79z"/>
<path d="M20882 18801 c-14 -8 -35 -81 -23 -81 9 1 52 90 43 90 -4 0 -13 -4
-20 -9z"/>
<path d="M20950 18792 c0 -6 -8 -18 -17 -28 -16 -15 -56 -104 -48 -104 7 0 75
133 70 138 -3 3 -5 0 -5 -6z"/>
<path d="M19510 18728 c-7 -18 -12 -36 -11 -40 0 -5 -3 -8 -8 -8 -5 0 -12 -7
-15 -16 -3 -8 -2 -12 4 -9 12 7 12 1 1 -47 -5 -21 -5 -36 -1 -33 4 3 11 25 14
50 7 44 23 71 23 37 0 -41 4 -53 14 -47 19 12 27 51 19 86 -4 19 -8 28 -9 21
-1 -7 -6 -10 -11 -7 -6 4 -8 15 -5 26 10 32 -2 21 -15 -13z"/>
<path d="M23248 18738 c-7 -13 -11 -26 -10 -30 1 -4 -6 -4 -14 -1 -12 4 -15 2
-12 -8 3 -8 -1 -27 -9 -44 -14 -30 -3 -20 24 22 11 17 11 16 8 -4 -8 -50 27
-32 40 20 6 21 4 27 -9 27 -14 0 -15 4 -6 20 6 11 8 20 6 20 -3 0 -11 -10 -18
-22z"/>
<path d="M22636 18703 c-6 -14 -5 -15 5 -6 7 7 10 15 7 18 -3 3 -9 -2 -12 -12z"/>
<path d="M18817 18638 c-4 -12 -2 -27 3 -34 6 -6 8 -24 6 -40 -2 -16 -1 -23 1
-16 3 7 9 10 14 7 5 -4 9 8 9 24 0 20 -5 30 -12 29 -9 -2 -12 7 -10 25 3 32
-3 36 -11 5z"/>
<path d="M20124 18625 c-3 -8 -4 -20 -2 -27 3 -7 7 -1 10 15 6 29 1 36 -8 12z"/>
<path d="M20848 18608 c-12 -18 -21 -41 -20 -51 2 -10 -2 -25 -9 -33 -6 -8
-10 -17 -7 -20 3 -2 15 15 26 38 19 40 21 41 22 16 0 -34 25 -38 34 -5 11 43
7 67 -11 60 -12 -5 -15 -2 -10 10 10 26 1 20 -25 -15z"/>
<path d="M22384 18598 c-14 -28 -15 -31 -2 -20 14 11 31 52 22 52 -2 0 -11
-15 -20 -32z"/>
<path d="M23151 18585 c-26 -27 -34 -45 -37 -81 -2 -25 -6 -49 -9 -55 -14 -21
8 -7 32 21 14 17 28 29 30 26 8 -7 -25 -63 -41 -69 -8 -3 -15 -14 -15 -24 1
-10 -2 -35 -6 -55 -9 -43 9 -54 19 -13 4 14 11 23 16 20 6 -3 10 4 10 17 0 20
14 48 51 99 7 9 9 24 5 34 -5 14 -14 16 -47 11 l-40 -6 35 55 c20 30 35 55 33
55 -1 0 -17 -16 -36 -35z"/>
<path d="M23246 18564 c-10 -25 1 -29 14 -5 6 12 7 21 1 21 -5 0 -12 -7 -15
-16z"/>
<path d="M20110 18554 c0 -9 -11 -27 -25 -40 -15 -14 -25 -34 -25 -52 0 -15
-3 -32 -7 -37 -5 -6 -5 -8 -1 -5 7 5 60 104 71 133 3 9 2 17 -3 17 -6 0 -10
-7 -10 -16z"/>
<path d="M19567 18536 c-5 -15 -6 -31 -3 -34 8 -8 18 25 14 45 -3 13 -6 10
-11 -11z"/>
<path d="M19442 18500 c-23 -40 -30 -104 -12 -115 6 -3 8 -21 5 -38 -6 -30 -5
-31 9 -12 9 11 16 25 16 30 0 6 9 21 20 35 l20 25 -5 -35 c-4 -19 -14 -48 -24
-65 -12 -19 -16 -37 -11 -50 4 -11 5 -24 3 -28 -8 -14 7 -78 18 -72 5 4 9 19
9 36 0 16 4 29 9 29 5 0 9 20 9 45 1 24 10 64 21 87 19 43 15 78 -10 78 -20 0
-79 -32 -79 -43 0 -6 -2 -8 -5 -5 -3 3 4 34 14 69 11 35 19 64 18 65 -1 2 -12
-15 -25 -36z"/>
<path d="M21898 18512 c-17 -7 -16 -8 2 -20 17 -11 20 -10 20 8 0 11 -1 20 -2
19 -2 0 -11 -4 -20 -7z"/>
<path d="M18772 18481 c-5 -15 -6 -34 -2 -42 6 -9 10 -5 15 17 4 16 8 35 11
42 8 26 -15 11 -24 -17z"/>
<path d="M22211 18481 c-6 -11 -7 -22 -2 -25 5 -3 11 4 14 16 8 30 1 35 -12 9z"/>
<path d="M23080 18480 c0 -11 2 -20 4 -20 2 0 6 9 9 20 3 11 1 20 -4 20 -5 0
-9 -9 -9 -20z"/>
<path d="M20777 18455 c-29 -36 -47 -95 -29 -95 6 0 8 -14 5 -32 l-4 -33 31
38 c18 21 34 36 36 34 8 -8 -17 -62 -33 -75 -13 -9 -16 -25 -14 -65 3 -62 16
-81 26 -38 4 17 11 31 16 31 6 0 9 6 7 13 -4 20 12 69 32 97 26 36 10 61 -36
58 -20 -1 -38 -6 -40 -10 -3 -4 -10 -8 -15 -8 -6 0 -3 12 5 28 23 41 47 92 44
92 -2 0 -15 -16 -31 -35z"/>
<path d="M18809 18468 c-5 -19 -8 -50 -4 -46 7 7 15 48 9 48 -2 0 -4 -1 -5 -2z"/>
<path d="M20897 18457 c-11 -29 -9 -43 4 -30 6 6 9 19 7 29 -3 18 -4 18 -11 1z"/>
<path d="M22210 18419 c-12 -16 -21 -32 -19 -34 8 -8 40 24 44 44 5 28 0 27
-25 -10z"/>
<path d="M18831 18384 c0 -11 3 -14 6 -6 3 7 2 16 -1 19 -3 4 -6 -2 -5 -13z"/>
<path d="M19396 18373 c9 -38 14 -42 14 -10 0 14 -5 29 -10 32 -7 4 -8 -3 -4
-22z"/>
<path d="M23016 18383 c-6 -14 -5 -15 5 -6 7 7 10 15 7 18 -3 3 -9 -2 -12 -12z"/>
<path d="M20019 18358 c-6 -13 -23 -35 -37 -50 -14 -16 -21 -28 -15 -28 6 0
13 7 17 15 3 8 11 15 18 15 9 0 10 -3 2 -8 -11 -7 -46 -113 -40 -120 2 -2 12
19 21 47 18 56 35 74 35 39 1 -70 41 -50 47 23 3 36 1 49 -5 40 -7 -9 -12 -10
-16 -2 -4 6 -12 9 -17 6 -5 -4 -5 4 1 19 12 32 5 34 -11 4z"/>
<path d="M21730 18344 c-11 -33 -8 -55 6 -41 10 10 22 77 14 77 -5 0 -14 -16
-20 -36z"/>
<path d="M22137 18362 c-19 -20 -23 -57 -6 -47 11 8 32 56 26 61 -2 2 -11 -4
-20 -14z"/>
<path d="M20717 18357 c-3 -8 -1 -20 4 -28 6 -10 9 -7 9 14 0 29 -5 35 -13 14z"/>
<path d="M21830 18298 c0 -48 8 -45 20 6 6 28 5 36 -6 36 -10 0 -14 -13 -14
-42z"/>
<path d="M22146 18304 c-9 -24 -2 -26 12 -4 7 11 8 20 3 20 -5 0 -12 -7 -15
-16z"/>
<path d="M21758 18268 c-20 -31 -41 -98 -34 -105 3 -4 6 -1 6 5 0 7 4 12 9 12
6 0 7 -16 4 -37 -4 -26 -3 -34 5 -29 7 4 12 19 12 34 0 15 7 52 15 82 18 66
17 60 6 60 -5 0 -15 -10 -23 -22z"/>
<path d="M22167 18261 c-4 -17 -3 -21 5 -13 5 5 8 16 6 23 -3 8 -7 3 -11 -10z"/>
<path d="M22991 18249 c-14 -39 -14 -42 -1 -34 6 3 17 19 25 36 13 25 13 29 1
29 -8 0 -19 -14 -25 -31z"/>
<path d="M20660 18234 c0 -8 5 -12 10 -9 6 4 8 11 5 16 -9 14 -15 11 -15 -7z"/>
<path d="M19350 18224 c0 -8 5 -12 10 -9 6 3 10 10 10 16 0 5 -4 9 -10 9 -5 0
-10 -7 -10 -16z"/>
<path d="M23020 18205 c-7 -9 -8 -15 -2 -15 5 0 12 7 16 15 3 8 4 15 2 15 -2
0 -9 -7 -16 -15z"/>
<path d="M18790 18184 c0 -16 5 -24 13 -22 18 7 20 35 2 41 -11 5 -15 0 -15
-19z"/>
<path d="M22400 18199 c0 -5 5 -7 10 -4 6 3 10 8 10 11 0 2 -4 4 -10 4 -5 0
-10 -5 -10 -11z"/>
<path d="M22886 18184 c-5 -14 -4 -15 9 -4 17 14 19 20 6 20 -5 0 -12 -7 -15
-16z"/>
<path d="M18722 18154 c-7 -14 -8 -23 -3 -19 5 3 12 -7 14 -22 2 -18 5 -10 6
20 0 26 -1 47 -2 47 -2 0 -9 -12 -15 -26z"/>
<path d="M18824 18131 c-4 -13 -18 -43 -30 -67 l-24 -44 25 16 c14 9 25 26 25
38 0 24 20 61 20 37 0 -8 2 -12 5 -9 3 3 1 16 -4 29 l-10 24 -7 -24z"/>
<path d="M20088 18144 c-5 -4 -8 -19 -8 -33 1 -23 2 -24 11 -8 11 19 9 53 -3
41z"/>
<path d="M20671 18112 c-16 -30 -22 -62 -12 -62 12 0 34 56 29 72 -3 8 -9 5
-17 -10z"/>
<path d="M22076 18096 c-8 -31 -1 -45 14 -30 7 7 7 20 2 34 l-9 24 -7 -28z"/>
<path d="M19363 18055 c-10 -44 -2 -62 12 -27 20 48 23 72 11 72 -7 0 -17 -20
-23 -45z"/>
<path d="M21996 18079 c-17 -17 -17 -19 -3 -19 14 0 15 -5 7 -26 -6 -16 -6
-23 0 -19 9 6 26 73 19 79 -2 2 -13 -5 -23 -15z"/>
<path d="M18747 18073 c-4 -3 -7 -16 -6 -27 0 -19 1 -19 10 3 10 24 8 36 -4
24z"/>
<path d="M20695 18051 c-6 -11 9 -23 19 -14 9 9 7 23 -3 23 -6 0 -12 -4 -16
-9z"/>
<path d="M22273 18033 c-7 -15 -11 -28 -9 -31 6 -6 28 38 24 48 -2 5 -9 -3
-15 -17z"/>
<path d="M22320 18035 c-6 -15 -8 -30 -6 -33 3 -3 10 8 16 23 6 15 8 30 6 33
-3 3 -10 -8 -16 -23z"/>
<path d="M19411 18031 c-8 -5 -10 -14 -6 -21 6 -9 10 -8 17 4 12 21 7 28 -11
17z"/>
<path d="M22057 17989 c-26 -27 -45 -49 -42 -49 20 0 63 33 68 51 3 11 10 18
16 14 7 -3 11 2 11 14 0 12 -1 21 -2 20 -2 0 -24 -22 -51 -50z"/>
<path d="M22875 17998 c-25 -40 -25 -41 -3 -18 21 22 43 60 34 60 -2 0 -16
-19 -31 -42z"/>
<path d="M20555 18019 c-4 -6 -5 -12 -2 -15 2 -3 7 2 10 11 7 17 1 20 -8 4z"/>
<path d="M21990 17981 c-6 -12 -7 -21 -1 -21 10 0 24 30 17 37 -2 3 -9 -5 -16
-16z"/>
<path d="M22262 17968 c-32 -51 -40 -81 -30 -103 8 -19 8 -19 4 2 -2 12 0 23
4 25 9 4 52 100 46 105 -2 2 -13 -11 -24 -29z"/>
<path d="M18690 17965 c-7 -9 -11 -18 -8 -20 3 -3 11 1 18 10 7 9 11 18 8 20
-3 3 -11 -1 -18 -10z"/>
<path d="M19258 17945 c-6 -30 -2 -32 12 -6 6 11 6 22 1 25 -5 3 -11 -5 -13
-19z"/>
<path d="M21910 17915 c-14 -16 -10 -18 14 -9 9 3 16 10 16 15 0 14 -16 11
-30 -6z"/>
<path d="M22706 17908 c-9 -37 -7 -43 9 -22 16 21 19 44 6 44 -5 0 -11 -10
-15 -22z"/>
<path d="M20606 17873 c-6 -14 -5 -15 5 -6 7 7 10 15 7 18 -3 3 -9 -2 -12 -12z"/>
<path d="M20577 17803 c-15 -32 -15 -35 -1 -18 24 30 36 55 26 55 -4 0 -16
-17 -25 -37z"/>
<path d="M18662 17800 c0 -14 2 -19 5 -12 2 6 2 18 0 25 -3 6 -5 1 -5 -13z"/>
<path d="M21843 17785 c-3 -9 -3 -18 -1 -21 3 -3 8 4 11 16 6 23 -1 27 -10 5z"/>
<path d="M18713 17740 c-8 -40 -8 -48 2 -40 14 12 25 79 14 85 -3 3 -11 -18
-16 -45z"/>
<path d="M18661 17751 c-1 -14 -7 -32 -15 -40 -7 -9 -16 -38 -19 -66 -5 -53
-1 -46 28 46 10 31 15 63 12 70 -3 8 -6 3 -6 -10z"/>
<path d="M21769 17763 c-16 -4 -45 -80 -35 -91 3 -3 6 0 6 7 0 7 12 28 26 47
28 37 29 43 3 37z"/>
<path d="M18595 17752 c-14 -10 -19 -72 -6 -72 6 0 11 9 11 19 0 11 5 23 10
26 12 7 14 35 3 35 -5 0 -13 -4 -18 -8z"/>
<path d="M19856 17745 c-9 -26 -7 -32 5 -12 6 10 9 21 6 23 -2 3 -7 -2 -11
-11z"/>
<path d="M19308 17730 c-3 -14 -9 -34 -12 -45 -4 -11 0 -7 9 8 9 16 15 36 13
45 -3 12 -6 10 -10 -8z"/>
<path d="M21810 17721 c-14 -14 -35 -46 -48 -71 -14 -28 -16 -36 -5 -21 10 14
33 43 51 64 17 21 32 43 32 48 0 12 -1 11 -30 -20z"/>
<path d="M21875 17714 c-18 -43 -18 -47 -5 -39 18 11 41 63 30 70 -5 3 -16
-11 -25 -31z"/>
<path d="M19810 17674 c-13 -33 -13 -64 0 -64 10 0 19 17 34 68 11 32 -22 29
-34 -4z"/>
<path d="M19166 17653 c-6 -14 -5 -15 5 -6 7 7 10 15 7 18 -3 3 -9 -2 -12 -12z"/>
<path d="M19864 17594 c3 -9 6 -18 6 -21 0 -3 7 0 15 7 21 18 19 30 -6 30 -15
0 -19 -4 -15 -16z"/>
<path d="M21708 17575 c-6 -13 -14 -22 -19 -20 -4 3 -11 0 -15 -6 -4 -8 -3 -9
4 -5 7 4 12 3 12 -3 0 -5 -4 -13 -10 -16 -5 -3 -10 -14 -10 -23 1 -12 6 -8 16
11 17 31 35 36 27 8 -8 -32 15 -33 32 -2 17 34 22 77 5 51 -9 -13 -10 -13 -11
0 -1 8 -1 18 0 23 3 18 -21 5 -31 -18z"/>
<path d="M18603 17561 c-7 -21 -8 -32 0 -40 6 -6 12 -21 14 -33 4 -27 9 -32
22 -23 12 7 15 86 4 84 -23 -4 -31 3 -26 21 8 30 -1 24 -14 -9z"/>
<path d="M19130 17539 c0 -24 4 -38 10 -34 6 3 10 22 10 41 0 19 -4 34 -10 34
-5 0 -10 -18 -10 -41z"/>
<path d="M22612 17531 c-11 -7 -11 -9 2 -14 10 -4 16 -1 16 8 0 17 -1 17 -18
6z"/>
<path d="M18576 17504 c-4 -9 -2 -13 5 -8 8 4 9 -7 5 -37 l-5 -44 13 45 c7 25
11 48 9 53 -7 12 -21 8 -27 -9z"/>
<path d="M19855 17489 c-4 -6 -5 -12 -2 -15 2 -3 7 2 10 11 7 17 1 20 -8 4z"/>
<path d="M21228 17434 c14 -27 39 -47 45 -37 2 4 -9 19 -26 32 -26 22 -28 22
-19 5z"/>
<path d="M21597 17424 c-21 -20 -27 -33 -26 -62 1 -20 -2 -46 -6 -57 -7 -15 1
-12 28 13 21 17 40 32 42 32 14 0 1 -25 -27 -53 -18 -18 -33 -39 -34 -47 0 -8
-5 -32 -9 -52 -5 -27 -4 -38 5 -38 6 0 14 9 17 20 3 11 12 20 21 20 8 0 13 3
9 6 -10 10 18 68 47 97 23 23 25 30 16 48 -10 17 -19 20 -55 17 -46 -3 -46 -3
-8 50 29 38 19 42 -20 6z"/>
<path d="M21730 17415 c-7 -9 -11 -18 -8 -20 3 -3 11 1 18 10 7 9 11 18 8 20
-3 3 -11 -1 -18 -10z"/>
<path d="M18677 17404 c-4 -4 -7 -17 -7 -28 1 -19 1 -20 11 -3 11 19 8 43 -4
31z"/>
<path d="M22447 17373 l-17 -38 20 24 c11 13 20 29 20 37 0 22 -5 17 -23 -23z"/>
<path d="M18551 17363 c-15 -24 -21 -44 -17 -62 3 -14 9 -44 13 -65 l8 -40 19
42 c11 24 24 46 29 49 15 9 -2 -70 -20 -89 -8 -9 -12 -21 -9 -27 4 -5 9 -29
12 -53 4 -24 8 -45 11 -48 7 -8 21 23 16 37 -3 7 2 16 11 19 11 4 13 11 6 23
-9 19 0 73 18 108 26 48 -9 71 -64 42 -47 -24 -47 -24 -34 1 6 11 9 20 6 20
-3 0 2 16 10 36 20 48 14 51 -15 7z"/>
<path d="M19771 17384 c0 -11 3 -14 6 -6 3 7 2 16 -1 19 -3 4 -6 -2 -5 -13z"/>
<path d="M22515 17361 c-8 -17 -12 -31 -7 -31 10 0 35 50 28 57 -2 3 -12 -9
-21 -26z"/>
<path d="M21542 17345 c0 -16 2 -22 5 -12 2 9 2 23 0 30 -3 6 -5 -1 -5 -18z"/>
<path d="M22431 17289 c-16 -29 -27 -59 -23 -67 4 -11 2 -13 -8 -7 -9 5 -11 4
-6 -3 10 -17 23 -15 29 6 3 9 17 41 31 70 32 67 15 68 -23 1z"/>
<path d="M19738 17296 c-25 -50 -22 -68 3 -27 11 18 19 40 17 49 -2 9 -10 0
-20 -22z"/>
<path d="M20382 17291 c-11 -7 -11 -9 1 -14 9 -3 18 1 21 9 6 16 -2 18 -22 5z"/>
<path d="M18510 17252 c0 -11 5 -24 10 -27 6 -4 9 2 7 14 -4 29 -17 39 -17 13z"/>
<path d="M21467 17253 c-4 -3 -7 -11 -7 -17 0 -6 5 -5 12 2 6 6 9 14 7 17 -3
3 -9 2 -12 -2z"/>
<path d="M20240 17114 c-13 -32 -13 -51 -1 -38 10 11 24 64 16 64 -3 0 -10
-12 -15 -26z"/>
<path d="M20320 17114 c-6 -14 -10 -33 -10 -42 1 -15 2 -15 10 -1 10 18 21 69
14 69 -2 0 -9 -12 -14 -26z"/>
<path d="M21446 17118 c-22 -31 -22 -55 0 -38 8 8 19 21 25 31 14 27 -7 33
-25 7z"/>
<path d="M18473 17115 c0 -8 4 -12 9 -9 4 3 8 9 8 15 0 5 -4 9 -8 9 -5 0 -9
-7 -9 -15z"/>
<path d="M19132 17077 c-9 -11 -10 -17 -2 -22 15 -9 23 -1 18 21 -3 15 -4 16
-16 1z"/>
<path d="M21316 17053 c-6 -14 -5 -15 5 -6 7 7 10 15 7 18 -3 3 -9 -2 -12 -12z"/>
<path d="M21470 17054 c0 -8 5 -12 10 -9 6 3 10 10 10 16 0 5 -4 9 -10 9 -5 0
-10 -7 -10 -16z"/>
<path d="M18531 17044 c0 -11 3 -14 6 -6 3 7 2 16 -1 19 -3 4 -6 -2 -5 -13z"/>
<path d="M20174 17029 c-16 -21 -44 -85 -44 -101 0 -10 3 -10 11 2 8 11 9 7 4
-17 -4 -18 -3 -33 2 -33 5 0 10 14 11 30 1 17 9 48 18 70 17 43 16 72 -2 49z"/>
<path d="M18504 16983 c-3 -16 -7 -34 -10 -40 -4 -14 12 -18 20 -5 3 5 8 23
11 40 7 39 -12 43 -21 5z"/>
<path d="M21419 16963 c-13 -16 -12 -17 4 -4 16 13 21 21 13 21 -2 0 -10 -8
-17 -17z"/>
<path d="M18540 16931 c0 -17 18 -21 24 -6 3 9 0 15 -9 15 -8 0 -15 -4 -15 -9z"/>
<path d="M21346 16903 c-6 -14 -5 -15 5 -6 7 7 10 15 7 18 -3 3 -9 -2 -12 -12z"/>
<path d="M18400 16880 c0 -5 5 -10 11 -10 5 0 7 5 4 10 -3 6 -8 10 -11 10 -2
0 -4 -4 -4 -10z"/>
<path d="M19070 16873 c-1 -5 -3 -26 -6 -48 -3 -26 -2 -35 4 -25 15 24 23 80
12 80 -6 0 -10 -3 -10 -7z"/>
<path d="M21312 16857 c-12 -13 -22 -27 -22 -33 0 -5 11 4 25 20 14 16 25 31
25 33 0 7 -8 2 -28 -20z"/>
<path d="M18986 16842 c-4 -15 -9 -36 -13 -47 -9 -33 13 -4 25 32 6 18 7 35 2
38 -4 3 -11 -7 -14 -23z"/>
<path d="M21161 16837 c-13 -21 -12 -21 5 -5 10 10 16 20 13 22 -3 3 -11 -5
-18 -17z"/>
<path d="M18997 16758 c-8 -18 -18 -43 -21 -55 -20 -75 -20 -70 -2 -48 17 20
17 19 10 -5 -4 -14 -9 -31 -11 -37 -3 -7 -1 -13 4 -13 4 0 18 43 29 95 21 97
18 120 -9 63z"/>
<path d="M18476 16725 c-9 -26 -7 -32 5 -12 6 10 9 21 6 23 -2 3 -7 -2 -11
-11z"/>
<path d="M18340 16625 c-7 -9 -11 -17 -9 -20 3 -2 10 5 17 15 14 24 10 26 -8
5z"/>
<path d="M21857 16589 c3 -10 9 -16 14 -13 13 8 11 21 -5 27 -10 4 -12 0 -9
-14z"/>
<path d="M18304 16510 c0 -16 3 -30 7 -30 11 0 21 38 14 50 -12 19 -21 10 -21
-20z"/>
<path d="M21336 16418 c3 -4 1 -8 -4 -8 -12 0 -37 -59 -28 -67 10 -10 28 12
41 50 9 27 9 34 -1 34 -7 0 -11 -4 -8 -9z"/>
<path d="M18291 16393 c-1 -6 -4 -20 -7 -30 -5 -17 -5 -17 6 0 6 10 9 23 6 30
-3 9 -5 9 -5 0z"/>
<path d="M21011 16391 c-10 -6 -10 -10 -1 -16 13 -8 24 -1 19 14 -3 6 -10 7
-18 2z"/>
<path d="M20826 16245 c-18 -27 -20 -35 -8 -35 4 0 15 14 24 30 20 36 7 40
-16 5z"/>
<path d="M20906 16221 c-19 -35 -20 -45 -5 -36 12 8 32 56 25 62 -2 3 -12 -9
-20 -26z"/>
<path d="M20817 16168 c-14 -18 -30 -44 -37 -58 -13 -24 -12 -24 5 -10 17 14
17 14 7 -7 -14 -26 -15 -33 -3 -33 5 0 12 12 16 27 3 15 14 38 24 52 42 60 30
86 -12 29z"/>
<path d="M21366 15874 c-26 -26 -37 -52 -26 -59 14 -9 40 13 40 34 0 9 5 22
12 29 8 8 9 12 1 12 -6 0 -19 -7 -27 -16z"/>
<path d="M20871 15863 c1 -10 4 -31 8 -48 l7 -30 8 25 c5 13 15 31 23 38 12
12 12 16 1 23 -23 15 -48 10 -47 -8z"/>
<path d="M18067 15775 c-23 -48 -21 -57 4 -18 11 18 19 38 17 44 -2 6 -11 -6
-21 -26z"/>
<path d="M18024 15684 c-8 -20 -13 -41 -11 -47 2 -6 10 10 19 36 18 56 13 62
-8 11z"/>
<path d="M18503 15683 c9 -9 20 -13 24 -9 4 4 1 11 -7 16 -25 16 -35 11 -17
-7z"/>
<path d="M20170 15472 c0 -5 7 -15 15 -22 8 -7 15 -8 15 -2 0 5 -7 15 -15 22
-8 7 -15 8 -15 2z"/>
<path d="M18158 15422 c-10 -16 -20 -48 -24 -72 l-7 -43 21 21 c12 12 24 33
27 47 3 14 7 36 10 50 7 33 -7 32 -27 -3z"/>
<path d="M18154 15313 c-6 -23 -6 -32 3 -35 3 -2 7 9 7 25 2 31 -4 36 -10 10z"/>
<path d="M17940 14905 c-7 -9 -8 -15 -2 -15 5 0 12 7 16 15 3 8 4 15 2 15 -2
0 -9 -7 -16 -15z"/>
<path d="M18135 14680 c-20 -23 -47 -91 -39 -99 13 -13 40 20 44 55 3 21 9 45
13 52 12 19 2 14 -18 -8z"/>
<path d="M17278 14021 c-33 -31 -35 -41 -9 -34 16 4 47 51 39 58 -2 1 -15 -9
-30 -24z"/>
<path d="M19090 13540 c0 -5 7 -7 15 -4 8 4 15 8 15 10 0 2 -7 4 -15 4 -8 0
-15 -4 -15 -10z"/>
<path d="M19020 13476 c-19 -7 -40 -11 -46 -9 -6 2 -17 -3 -24 -12 -7 -8 -9
-15 -5 -15 4 0 2 -7 -5 -15 -23 -27 8 -17 72 25 65 42 66 47 8 26z"/>
<path d="M18506 12905 c-10 -8 -24 -16 -30 -18 -8 -3 -8 -8 0 -17 9 -9 17 -4
33 19 25 35 24 37 -3 16z"/>
<path d="M17837 12220 c-23 -15 -25 -19 -13 -29 12 -10 18 -8 32 14 21 33 16
37 -19 15z"/>
<path d="M17410 11813 c1 -27 1 -27 15 -9 14 19 12 36 -6 36 -5 0 -9 -12 -9
-27z"/>
<path d="M9230 6270 c-8 -5 -10 -10 -5 -10 6 0 17 5 25 10 8 5 11 10 5 10 -5
0 -17 -5 -25 -10z"/>
<path d="M9146 6194 c-9 -24 -8 -26 14 -14 11 6 18 15 15 21 -9 14 -22 11 -29
-7z"/>
</g>
</svg>
