<svg xmlns="http://www.w3.org/2000/svg" viewBox="0 0 85.04 42.97"><g id="Capa_2" data-name="Capa 2"><g id="Capa_1-2" data-name="Capa 1"><path d="M10.26,38.44a.83.83,0,0,0-.32-.25,1,1,0,0,0-.41-.09.69.69,0,0,0-.25,0,.79.79,0,0,0-.23.09.69.69,0,0,0-.17.17.51.51,0,0,0-.06.25.45.45,0,0,0,.06.24A.56.56,0,0,0,9,39a1.34,1.34,0,0,0,.24.12l.31.1.4.14a1.55,1.55,0,0,1,.38.21,1,1,0,0,1,.28.33.94.94,0,0,1,.11.49,1.26,1.26,0,0,1-.12.57,1.07,1.07,0,0,1-.31.39,1.23,1.23,0,0,1-.47.24,1.69,1.69,0,0,1-.56.08,2.22,2.22,0,0,1-.76-.14,1.5,1.5,0,0,1-.61-.43l.51-.48a1,1,0,0,0,.39.33,1.12,1.12,0,0,0,.49.11.74.74,0,0,0,.25,0,.6.6,0,0,0,.23-.1.44.44,0,0,0,.17-.19.45.45,0,0,0,.07-.27.53.53,0,0,0-.07-.26.7.7,0,0,0-.2-.18,1.4,1.4,0,0,0-.3-.14l-.35-.11-.36-.14a1,1,0,0,1-.33-.21.94.94,0,0,1-.23-.32,1,1,0,0,1-.1-.47,1.09,1.09,0,0,1,.13-.53,1.17,1.17,0,0,1,.34-.36A1.36,1.36,0,0,1,9,37.57a1.88,1.88,0,0,1,.53-.07,2,2,0,0,1,.62.11,1.59,1.59,0,0,1,.55.32Z" style="fill:#1a643b"/><path d="M14.14,41.61h-.65v-.44h0a.81.81,0,0,1-.31.36.88.88,0,0,1-.53.16,1.08,1.08,0,0,1-.46-.09,1.1,1.1,0,0,1-.31-.25,1.06,1.06,0,0,1-.18-.35,1.84,1.84,0,0,1,0-.41v-1.7h.68V40.4a2.18,2.18,0,0,0,0,.25.63.63,0,0,0,.08.23.41.41,0,0,0,.15.17.42.42,0,0,0,.26.07.68.68,0,0,0,.29-.06.63.63,0,0,0,.19-.17,1,1,0,0,0,.12-.23.84.84,0,0,0,0-.27v-1.5h.68Z" style="fill:#1a643b"/><path d="M17.77,40.28v.09a.31.31,0,0,1,0,.1H15.7a.61.61,0,0,0,.08.26.51.51,0,0,0,.17.21.72.72,0,0,0,.24.14.69.69,0,0,0,.28.05A.91.91,0,0,0,16.9,41a.73.73,0,0,0,.29-.26l.45.36a1.33,1.33,0,0,1-1.16.55,1.76,1.76,0,0,1-.58-.1,1.42,1.42,0,0,1-.46-.28,1.21,1.21,0,0,1-.31-.45,1.55,1.55,0,0,1-.11-.59,1.64,1.64,0,0,1,.11-.6,1.31,1.31,0,0,1,.3-.46,1.44,1.44,0,0,1,.46-.29,1.48,1.48,0,0,1,.57-.11,1.5,1.5,0,0,1,.52.1,1.17,1.17,0,0,1,.42.27,1.6,1.6,0,0,1,.27.46,1.83,1.83,0,0,1,.1.64m-.68-.3a.69.69,0,0,0,0-.25.53.53,0,0,0-.11-.21.56.56,0,0,0-.2-.14.65.65,0,0,0-.29-.06.74.74,0,0,0-.52.19.65.65,0,0,0-.23.47Z" style="fill:#1a643b"/><path d="M18.65,38.89h.65v.44h0a.81.81,0,0,1,.31-.36,1,1,0,0,1,.53-.16,1.08,1.08,0,0,1,.46.1.92.92,0,0,1,.31.24,1.16,1.16,0,0,1,.18.35,1.92,1.92,0,0,1,0,.41v1.7h-.68V40.1a2.18,2.18,0,0,0,0-.25.63.63,0,0,0-.08-.23.5.5,0,0,0-.15-.17.45.45,0,0,0-.27-.07.64.64,0,0,0-.28.06.63.63,0,0,0-.19.17.9.9,0,0,0-.12.24.78.78,0,0,0,0,.26v1.5h-.68Zm.21-.49a2.13,2.13,0,0,1,.07-.27A.61.61,0,0,1,19,37.9a.6.6,0,0,1,.19-.16.53.53,0,0,1,.26-.06l.23,0,.22.08a1.28,1.28,0,0,0,.21.07.34.34,0,0,0,.16,0,.24.24,0,0,0,.17-.07.56.56,0,0,0,.09-.17h.37a1.1,1.1,0,0,1-.06.26.71.71,0,0,1-.12.23.55.55,0,0,1-.18.16.47.47,0,0,1-.27.07,1,1,0,0,1-.24,0l-.22-.07a1,1,0,0,0-.2-.08l-.16,0a.21.21,0,0,0-.17.08.39.39,0,0,0-.09.17Z" style="fill:#1a643b"/><path d="M23.86,41.26h0a.81.81,0,0,1-.33.3,1.07,1.07,0,0,1-.51.12,1.48,1.48,0,0,1-.35,0,1,1,0,0,1-.32-.14.69.69,0,0,1-.25-.26.72.72,0,0,1-.1-.4.69.69,0,0,1,.17-.48,1.11,1.11,0,0,1,.44-.28,2.86,2.86,0,0,1,.61-.13c.22,0,.43,0,.65,0v-.07a.42.42,0,0,0-.19-.37.78.78,0,0,0-.44-.12,1,1,0,0,0-.41.09,1.12,1.12,0,0,0-.33.22l-.35-.42a1.55,1.55,0,0,1,.54-.32,1.83,1.83,0,0,1,.61-.11,1.5,1.5,0,0,1,.6.11.92.92,0,0,1,.37.26,1,1,0,0,1,.19.37,1.92,1.92,0,0,1,0,.41v1.65h-.63Zm0-.89h-.5a1.28,1.28,0,0,0-.34.07.66.66,0,0,0-.25.13.3.3,0,0,0-.1.24.25.25,0,0,0,0,.16.29.29,0,0,0,.11.11l.15,0a.52.52,0,0,0,.17,0,.67.67,0,0,0,.53-.19.69.69,0,0,0,.19-.5Z" style="fill:#1a643b"/><path d="M27,39.62a.87.87,0,0,0-.25-.21.7.7,0,0,0-.35-.09.73.73,0,0,0-.3.07.24.24,0,0,0-.13.23.22.22,0,0,0,.15.22,2.53,2.53,0,0,0,.43.13l.31.09a1.32,1.32,0,0,1,.29.15.78.78,0,0,1,.2.24.58.58,0,0,1,.08.33.87.87,0,0,1-.09.42.76.76,0,0,1-.25.28.85.85,0,0,1-.36.16,2,2,0,0,1-.43,0,1.67,1.67,0,0,1-.62-.12,1.32,1.32,0,0,1-.49-.33l.44-.42a1.05,1.05,0,0,0,.3.25.87.87,0,0,0,.4.09.39.39,0,0,0,.15,0l.14,0a.29.29,0,0,0,.14-.25.25.25,0,0,0-.15-.24,2.62,2.62,0,0,0-.47-.15l-.3-.09a.77.77,0,0,1-.25-.14.55.55,0,0,1-.18-.22.61.61,0,0,1-.07-.32.75.75,0,0,1,.34-.66,1.19,1.19,0,0,1,.34-.16,1.75,1.75,0,0,1,.4,0,1.6,1.6,0,0,1,.57.11.91.91,0,0,1,.45.31Z" style="fill:#1a643b"/><path d="M28.12,41.21a.46.46,0,0,1,.13-.31.46.46,0,0,1,.64,0,.39.39,0,0,1,.14.3.46.46,0,0,1-.46.44.51.51,0,0,1-.17,0,.42.42,0,0,1-.14-.09.36.36,0,0,1-.1-.14.33.33,0,0,1,0-.17" style="fill:#1a643b"/><path d="M31.45,37.6h1.42a3.47,3.47,0,0,1,.78.1,2,2,0,0,1,.72.34,1.74,1.74,0,0,1,.51.62,2.06,2.06,0,0,1,.2,1,1.93,1.93,0,0,1-.2.9,1.83,1.83,0,0,1-.51.62,1.88,1.88,0,0,1-.72.36,2.64,2.64,0,0,1-.78.12H31.45ZM32.75,41a2.68,2.68,0,0,0,.56-.07,1.5,1.5,0,0,0,.5-.22,1.06,1.06,0,0,0,.36-.42,1.36,1.36,0,0,0,.15-.67,1.49,1.49,0,0,0-.15-.71,1.06,1.06,0,0,0-.36-.42,1.48,1.48,0,0,0-.5-.21,2.67,2.67,0,0,0-.56-.06h-.59V41Z" style="fill:#1a643b"/><path d="M38.55,40.28v.19H36.48a.79.79,0,0,0,.08.26.51.51,0,0,0,.17.21.77.77,0,0,0,.25.14.66.66,0,0,0,.28.05.94.94,0,0,0,.43-.09.89.89,0,0,0,.29-.26l.45.36a1.36,1.36,0,0,1-1.17.55,1.81,1.81,0,0,1-.58-.1,1.42,1.42,0,0,1-.46-.28,1.19,1.19,0,0,1-.3-.45,1.38,1.38,0,0,1-.12-.59,1.46,1.46,0,0,1,.12-.6,1.31,1.31,0,0,1,.3-.46,1.51,1.51,0,0,1,.45-.29,1.56,1.56,0,0,1,.57-.11,1.46,1.46,0,0,1,.52.1,1.17,1.17,0,0,1,.42.27,1.42,1.42,0,0,1,.28.46,2.11,2.11,0,0,1,.09.64m-.67-.3a1,1,0,0,0,0-.25.72.72,0,0,0-.12-.21.48.48,0,0,0-.2-.14.64.64,0,0,0-.28-.06.73.73,0,0,0-.52.19.7.7,0,0,0-.24.47Z" style="fill:#1a643b"/><path d="M41.29,39.65a.52.52,0,0,0-.24-.19.72.72,0,0,0-.32-.08.73.73,0,0,0-.33.08.63.63,0,0,0-.23.2.82.82,0,0,0-.14.28,1.1,1.1,0,0,0,0,.31,1.17,1.17,0,0,0,0,.32,1.08,1.08,0,0,0,.15.28.68.68,0,0,0,.24.2.7.7,0,0,0,.33.07.87.87,0,0,0,.32-.06.61.61,0,0,0,.26-.18l.42.43a1.19,1.19,0,0,1-.43.28,1.67,1.67,0,0,1-1.14,0,1.31,1.31,0,0,1-.47-.28,1.4,1.4,0,0,1-.32-.46,1.66,1.66,0,0,1,0-1.19,1.52,1.52,0,0,1,.32-.46,1.27,1.27,0,0,1,.46-.28,1.47,1.47,0,0,1,1.14,0,1,1,0,0,1,.45.31Z" style="fill:#1a643b"/><path d="M42.34,38a.38.38,0,0,1,.12-.28.39.39,0,0,1,.31-.13.43.43,0,0,1,.31.12.36.36,0,0,1,.13.29.35.35,0,0,1-.13.29.43.43,0,0,1-.31.12.41.41,0,0,1-.31-.12.4.4,0,0,1-.12-.29m.09.92h.68v2.72h-.68Z" style="fill:#1a643b"/><path d="M46.93,41.61h-.65V41.2h0a.9.9,0,0,1-.39.36,1.13,1.13,0,0,1-.54.13,1.25,1.25,0,0,1-.56-.12,1.18,1.18,0,0,1-.42-.31,1.6,1.6,0,0,1-.27-.46,1.69,1.69,0,0,1-.09-.56,1.47,1.47,0,0,1,.1-.56,1.2,1.2,0,0,1,.27-.45,1.25,1.25,0,0,1,.42-.3,1.18,1.18,0,0,1,.53-.12,1.09,1.09,0,0,1,.33,0,.88.88,0,0,1,.26.1.94.94,0,0,1,.19.14.83.83,0,0,1,.13.14h0V37.33h.68Zm-2.24-1.37a1.19,1.19,0,0,0,.05.32.92.92,0,0,0,.14.28.82.82,0,0,0,.25.2.63.63,0,0,0,.34.08.74.74,0,0,0,.34-.07,1.22,1.22,0,0,0,.25-.2,1,1,0,0,0,.16-.29,1.06,1.06,0,0,0,.05-.31,1.25,1.25,0,0,0-.05-.32,1,1,0,0,0-.16-.28,1,1,0,0,0-.25-.2.63.63,0,0,0-.34-.08.74.74,0,0,0-.34.07.85.85,0,0,0-.25.21.82.82,0,0,0-.14.28,1.06,1.06,0,0,0-.05.31" style="fill:#1a643b"/><path d="M50.57,40.28v.09a.31.31,0,0,1,0,.1H48.5a.61.61,0,0,0,.08.26.51.51,0,0,0,.17.21.72.72,0,0,0,.24.14.69.69,0,0,0,.28.05A.91.91,0,0,0,49.7,41a.73.73,0,0,0,.29-.26l.46.36a1.36,1.36,0,0,1-1.17.55,1.81,1.81,0,0,1-.58-.1,1.42,1.42,0,0,1-.46-.28,1.21,1.21,0,0,1-.31-.45,1.55,1.55,0,0,1-.11-.59,1.64,1.64,0,0,1,.11-.6,1.31,1.31,0,0,1,.3-.46,1.44,1.44,0,0,1,.46-.29,1.48,1.48,0,0,1,.57-.11,1.46,1.46,0,0,1,.52.1,1.17,1.17,0,0,1,.42.27,1.4,1.4,0,0,1,.27.46,1.83,1.83,0,0,1,.1.64m-.68-.3a.69.69,0,0,0,0-.25.53.53,0,0,0-.11-.21.48.48,0,0,0-.2-.14.65.65,0,0,0-.29-.06.76.76,0,0,0-.52.19.65.65,0,0,0-.23.47Z" style="fill:#1a643b"/><path d="M52.94,39.62a.75.75,0,0,0-.25-.21.67.67,0,0,0-.34-.09.73.73,0,0,0-.3.07.24.24,0,0,0-.14.23.22.22,0,0,0,.15.22,2.7,2.7,0,0,0,.44.13l.31.09a1.51,1.51,0,0,1,.28.15,1,1,0,0,1,.21.24.67.67,0,0,1,.08.33.87.87,0,0,1-.1.42.68.68,0,0,1-.25.28.85.85,0,0,1-.36.16,2,2,0,0,1-.42,0,1.63,1.63,0,0,1-.62-.12,1.37,1.37,0,0,1-.5-.33l.45-.42a.89.89,0,0,0,.29.25.9.9,0,0,0,.4.09.39.39,0,0,0,.15,0l.14,0a.27.27,0,0,0,.11-.1.33.33,0,0,0,0-.15.25.25,0,0,0-.16-.24,2.47,2.47,0,0,0-.46-.15,1.49,1.49,0,0,1-.3-.09.82.82,0,0,1-.26-.14.79.79,0,0,1-.18-.22.72.72,0,0,1-.07-.32.71.71,0,0,1,.1-.39.78.78,0,0,1,.24-.27,1.25,1.25,0,0,1,.35-.16,1.57,1.57,0,0,1,1,.06.93.93,0,0,1,.44.31Z" style="fill:#1a643b"/><path d="M54.07,41.21a.42.42,0,0,1,.13-.31.42.42,0,0,1,.32-.13.45.45,0,0,1,.32.13.38.38,0,0,1,.13.3.4.4,0,0,1-.13.31.44.44,0,0,1-.32.13.47.47,0,0,1-.17,0,.38.38,0,0,1-.15-.09.5.5,0,0,1-.1-.14.47.47,0,0,1,0-.17" style="fill:#1a643b"/><polygon points="57.39 37.6 58.1 37.6 58.1 40.97 59.81 40.97 59.81 41.61 57.39 41.61 57.39 37.6" style="fill:#1a643b"/><path d="M60.21,40.24a1.39,1.39,0,0,1,.44-1,1.27,1.27,0,0,1,.46-.28,1.66,1.66,0,0,1,.58-.11,1.58,1.58,0,0,1,.58.11,1.31,1.31,0,0,1,.47.28,1.39,1.39,0,0,1,.31.45,1.41,1.41,0,0,1,.12.59,1.45,1.45,0,0,1-.12.59,1.21,1.21,0,0,1-.31.45,1.35,1.35,0,0,1-.47.3,1.58,1.58,0,0,1-.58.11,1.66,1.66,0,0,1-.58-.11,1.31,1.31,0,0,1-.46-.3,1.23,1.23,0,0,1-.32-.45,1.45,1.45,0,0,1-.12-.59m.7,0a1.17,1.17,0,0,0,0,.32.94.94,0,0,0,.15.28.72.72,0,0,0,.59.28A.65.65,0,0,0,62,41a.82.82,0,0,0,.25-.2.92.92,0,0,0,.14-.28,1.19,1.19,0,0,0,0-.32,1.06,1.06,0,0,0,0-.31.82.82,0,0,0-.14-.28.85.85,0,0,0-.25-.21.75.75,0,0,0-.35-.07.78.78,0,0,0-.35.07.7.7,0,0,0-.24.21.84.84,0,0,0-.15.28,1.06,1.06,0,0,0,0,.31" style="fill:#1a643b"/><path d="M66.81,38.89v2.47a2.31,2.31,0,0,1-.09.67,1.23,1.23,0,0,1-.76.82,1.76,1.76,0,0,1-.68.12l-.35,0a2.37,2.37,0,0,1-.36-.09,1.43,1.43,0,0,1-.34-.14,1.53,1.53,0,0,1-.3-.19l.39-.53a1.44,1.44,0,0,0,.45.29,1.27,1.27,0,0,0,.5.1,1.16,1.16,0,0,0,.41-.07.79.79,0,0,0,.27-.2.71.71,0,0,0,.14-.29,1.53,1.53,0,0,0,0-.38v-.2h0a1,1,0,0,1-.37.31,1.27,1.27,0,0,1-.52.1,1.42,1.42,0,0,1-.55-.11,1.33,1.33,0,0,1-.42-.3,1.24,1.24,0,0,1-.27-.46,1.4,1.4,0,0,1-.1-.54,1.42,1.42,0,0,1,.1-.55,1.38,1.38,0,0,1,.26-.46,1.31,1.31,0,0,1,1.51-.3.89.89,0,0,1,.4.37h0v-.41Zm-1.45.48a.72.72,0,0,0-.33.07.69.69,0,0,0-.24.18.72.72,0,0,0-.15.27,1,1,0,0,0-.06.34.91.91,0,0,0,.06.32.72.72,0,0,0,.15.27A.91.91,0,0,0,65,41a.81.81,0,0,0,.66,0,.83.83,0,0,0,.26-.19.85.85,0,0,0,.16-.28.87.87,0,0,0,.06-.32.88.88,0,0,0-.06-.33.85.85,0,0,0-.16-.28.72.72,0,0,0-.25-.18.74.74,0,0,0-.34-.07" style="fill:#1a643b"/><path d="M67.85,38.89h.65v.46h0a1.12,1.12,0,0,1,.32-.39.78.78,0,0,1,.48-.15h.16v.62l-.11,0h-.1a.68.68,0,0,0-.37.08.62.62,0,0,0-.22.2.8.8,0,0,0-.11.25.81.81,0,0,0,0,.19v1.46h-.68Z" style="fill:#1a643b"/><path d="M71.75,41.26h0a.72.72,0,0,1-.32.3,1.14,1.14,0,0,1-.52.12,1.4,1.4,0,0,1-.34,0,1,1,0,0,1-.33-.14.78.78,0,0,1-.25-.26.82.82,0,0,1-.1-.4.69.69,0,0,1,.17-.48,1.15,1.15,0,0,1,.45-.28,2.65,2.65,0,0,1,.6-.13l.65,0v-.07a.41.41,0,0,0-.18-.37.81.81,0,0,0-.44-.12,1,1,0,0,0-.42.09,1,1,0,0,0-.32.22L70,39.24a1.51,1.51,0,0,1,.53-.32,1.87,1.87,0,0,1,.61-.11,1.5,1.5,0,0,1,.6.11.85.85,0,0,1,.37.26,1,1,0,0,1,.19.37,1.44,1.44,0,0,1,0,.41v1.65h-.63Zm0-.89h-.5a1.14,1.14,0,0,0-.33.07.71.71,0,0,0-.26.13.33.33,0,0,0-.1.24.34.34,0,0,0,0,.16.38.38,0,0,0,.11.11l.16,0a.47.47,0,0,0,.17,0,.69.69,0,0,0,.53-.19.68.68,0,0,0,.18-.5Z" style="fill:#1a643b"/><path d="M74.89,39.62a.75.75,0,0,0-.25-.21.67.67,0,0,0-.34-.09.73.73,0,0,0-.3.07.24.24,0,0,0-.14.23.22.22,0,0,0,.15.22,2.7,2.7,0,0,0,.44.13l.31.09a1.25,1.25,0,0,1,.28.15,1,1,0,0,1,.21.24.67.67,0,0,1,.08.33.87.87,0,0,1-.1.42.68.68,0,0,1-.25.28.85.85,0,0,1-.36.16,2,2,0,0,1-.43,0,1.62,1.62,0,0,1-.61-.12,1.37,1.37,0,0,1-.5-.33l.45-.42a.89.89,0,0,0,.29.25.9.9,0,0,0,.4.09.39.39,0,0,0,.15,0l.14,0a.27.27,0,0,0,.11-.1.24.24,0,0,0,0-.15.25.25,0,0,0-.16-.24,2.47,2.47,0,0,0-.46-.15,1.49,1.49,0,0,1-.3-.09.82.82,0,0,1-.26-.14A.79.79,0,0,1,73.3,40a.72.72,0,0,1-.07-.32.71.71,0,0,1,.1-.39.78.78,0,0,1,.24-.27,1.25,1.25,0,0,1,.35-.16,1.57,1.57,0,0,1,1,.06.93.93,0,0,1,.44.31Z" style="fill:#1a643b"/><path d="M76,41.21a.42.42,0,0,1,.13-.31.42.42,0,0,1,.32-.13.44.44,0,0,1,.32.13.38.38,0,0,1,.13.3.4.4,0,0,1-.13.31.44.44,0,0,1-.32.13.47.47,0,0,1-.17,0,.38.38,0,0,1-.15-.09.5.5,0,0,1-.1-.14.47.47,0,0,1,0-.17" style="fill:#1a643b"/><path d="M42.52,7.47a6.07,6.07,0,1,0,6.07,6.07,6.07,6.07,0,0,0-6.07-6.07" style="fill:#b82423"/><path d="M45.68,1.33l-.41-.12A44.94,44.94,0,0,1,50.39,0a47.73,47.73,0,0,0-7,.44l-.82.14L41.69.44a47.5,47.5,0,0,0-7-.44,44.94,44.94,0,0,1,5.12,1.21l-.41.12C30.29,4.17,23.46,10.38,24,15.47c.41,4.23,4.71,6.37,11.74,5.64-3.91-.71-5.51-2.68-5.8-5.67-.44-4.59,4.75-10,12.13-13.12l.5-.19.5.19c7.38,3.12,12.57,8.53,12.13,13.12-.29,3-1.89,5-5.8,5.67,7,.73,11.34-1.41,11.74-5.64.49-5.09-6.34-11.3-15.41-14.14" style="fill:#1a643b"/><path d="M6.14,28.71v0a2.41,2.41,0,0,0,2.39-2.31c0-1.73-1.63-2.09-2.57-2.09h-4L0,33.4l4.16,0c2.09,0,3.75-.94,3.75-2.88a1.8,1.8,0,0,0-1.77-1.76m-2.72,3H2.77l.44-2.14H3.8c1.1,0,1.68.12,1.68.92s-.83,1.22-2.06,1.22m1.06-3.79H3.57L4,26h.63c.91,0,1.51.12,1.51.85s-.6,1-1.62,1" style="fill:#6d6e76"/><path d="M12.71,26.43a7.2,7.2,0,0,0-2.49.4L10,28.54A4.26,4.26,0,0,1,12.19,28c.77,0,1.26.4,1.26.88a.83.83,0,0,1,0,.27c-.33,0-.8-.06-1.27-.06-2.07,0-3.75.82-3.75,2.49,0,1.32.81,2,2.28,2A2.57,2.57,0,0,0,13,32.44v0l0,0-.11,1H14.8c.27-2,.87-3.58.87-4.65,0-1.67-1.34-2.32-3-2.32M11.42,32a.75.75,0,0,1-.8-.68c0-.6.83-1,2-1a3.66,3.66,0,0,1,.63,0A1.77,1.77,0,0,1,11.42,32" style="fill:#6d6e76"/><path d="M21.94,26.43a3.23,3.23,0,0,0-2.63,1.27h0l.18-1.11H17.29c-.07.61-.17,1.19-.29,1.78l-1.06,5h2.35L19,30.26c.17-1,.76-1.87,1.75-1.87a.78.78,0,0,1,.92.79,6,6,0,0,1-.16,1l-.65,3.19h2.43l.62-3.18a6,6,0,0,0,.19-1.43,2.11,2.11,0,0,0-2.12-2.36" style="fill:#6d6e76"/><path d="M29.17,28.16a3.64,3.64,0,0,1,1.51.36l.51-1.63a6.18,6.18,0,0,0-2.14-.45,4.08,4.08,0,0,0-4.39,4,3,3,0,0,0,3.21,3.11,6.16,6.16,0,0,0,2-.27l.34-1.76a3.61,3.61,0,0,1-1.51.3,1.49,1.49,0,0,1-1.62-1.48,2,2,0,0,1,2.08-2.19" style="fill:#6d6e76"/><path d="M35.25,26.43c-2.66,0-4.39,1.62-4.39,4,0,1.71,1,3.11,3.55,3.11s4.39-1.25,4.39-4.08c0-1.71-1.23-3.05-3.55-3.05m-.67,5.48c-.8,0-1.29-.6-1.29-1.52,0-1.08.71-2.31,1.85-2.31.91,0,1.23.67,1.23,1.37,0,1.54-.7,2.46-1.79,2.46" style="fill:#6d6e76"/><path d="M46.41,24.28,41,33.4h2.64l1.08-1.95h3.55l.24,1.95H51l-1.49-9.12Zm-.74,5.45,1.93-3.57h0L48,29.73Z" style="fill:#6d6e76"/><polygon points="52.32 28.32 55.23 28.32 51.52 31.62 51.18 33.4 57.1 33.4 57.46 31.67 54.35 31.67 58.08 28.37 58.45 26.59 52.67 26.59 52.32 28.32" style="fill:#6d6e76"/><path d="M62.09,28.24h1.72l.28-1.65H62.47l.47-2.13-2.48.67-.33,1.46H58.79l-.29,1.65h1.25l-.4,1.91a6.14,6.14,0,0,0-.21,1.39,1.91,1.91,0,0,0,2.16,2,10.69,10.69,0,0,0,1.46-.13L63,31.87a2.38,2.38,0,0,1-.76.2.72.72,0,0,1-.77-.76,6,6,0,0,1,.2-1.18Z" style="fill:#6d6e76"/><path d="M67.94,26.44a3.91,3.91,0,0,0-4.08,4c0,1.71,1.23,3.11,3.5,3.11a8.69,8.69,0,0,0,2.38-.38l.3-1.66a5.4,5.4,0,0,1-2.13.47c-1.44,0-1.8-.58-1.83-1.31H70.9a7.54,7.54,0,0,0,.17-1.28c0-2.06-1.35-3-3.13-3m-1.72,2.91A1.74,1.74,0,0,1,68,28c.86,0,1.15.62,1.15,1.35Z" style="fill:#6d6e76"/><path d="M76.15,28.16a3.65,3.65,0,0,1,1.52.36l.51-1.63A6.18,6.18,0,0,0,76,26.44a4.09,4.09,0,0,0-4.4,4,3,3,0,0,0,3.22,3.11,6.21,6.21,0,0,0,2-.27l.34-1.76a3.64,3.64,0,0,1-1.51.3,1.5,1.5,0,0,1-1.63-1.48,2,2,0,0,1,2.08-2.19" style="fill:#6d6e76"/><path d="M82.09,26.43a7.22,7.22,0,0,0-2.5.4l-.24,1.71A4.26,4.26,0,0,1,81.56,28c.77,0,1.26.4,1.26.88a.83.83,0,0,1,0,.27c-.33,0-.8-.06-1.27-.06-2.07,0-3.75.82-3.75,2.49,0,1.32.81,2,2.28,2a2.57,2.57,0,0,0,2.28-1.12v0l0,0-.11,1h1.93c.26-2,.86-3.58.86-4.65,0-1.67-1.33-2.32-3-2.32M80.79,32a.75.75,0,0,1-.8-.68c0-.6.83-1,2-1a3.61,3.61,0,0,1,.63,0A1.77,1.77,0,0,1,80.79,32" style="fill:#6d6e76"/></g></g></svg>