<?xml version="1.0" encoding="UTF-8"?><svg xmlns="http://www.w3.org/2000/svg" xmlns:xlink="http://www.w3.org/1999/xlink" viewBox="0 0 955.14 1084.33"><defs><style>.ab{fill:url(#u);}.ac{fill:url(#t);}.ad{fill:url(#v);}.ae{fill:url(#e);}.af{fill:url(#g);}.ag{fill:url(#p);}.ah{fill:url(#q);}.ai{fill:url(#i);}.aj{fill:url(#k);}.ak{fill:url(#j);}.al{fill:url(#m);}.am{fill:url(#l);}.an{fill:url(#x);}.ao{fill:url(#w);}.ap{fill:url(#y);}.aq{fill:url(#aa);}.ar{fill:url(#a`);}.as{fill:none;}.at,.au,.av,.aw,.ax,.ay{mix-blend-mode:overlay;}.at,.b`,.ba{opacity:.8;}.au{fill:url(#s);}.au,.av,.aw,.ax,.ay{opacity:.4;}.av{fill:url(#r);}.aw{fill:url(#o);}.ax{fill:url(#f);}.ay{fill:url(#n);}.bb,.bc,.ba{fill:#fff;}.bd{fill:#f198f2;}.be,.bf,.bg{fill:#9875ec;}.bh{fill:#cebdf6;}.bi{fill:#bea8f3;}.bj{fill:#d5c7f7;}.bk,.bl{fill:#e1d6f9;}.bl,.bm,.bf{mix-blend-mode:multiply;}.bf{opacity:.3;}.bn{fill:#f8caf8;}.bn,.bg,.bc,.bo{opacity:.2;}.bp{fill:#9570eb;mix-blend-mode:color-dodge;opacity:.7;}.bq{opacity:.6;}.br{opacity:.5;}.bs{clip-path:url(#h);}.bt{isolation:isolate;}</style><linearGradient id="e" x1="649.08" y1="-166" x2="335.13" y2="1142.13" gradientTransform="matrix(1, 0, 0, 1, 0, 0)" gradientUnits="userSpaceOnUse"><stop offset="0" stop-color="#d5c7f7"/><stop offset=".38" stop-color="#cebdf6"/><stop offset="1" stop-color="#6530e3"/></linearGradient><linearGradient id="f" x1="255.15" y1="199.18" x2="703.43" y2="865.8" gradientTransform="matrix(1, 0, 0, 1, 0, 0)" gradientUnits="userSpaceOnUse"><stop offset="0" stop-color="#fff"/><stop offset="1" stop-color="#784ae6"/></linearGradient><linearGradient id="g" x1="489.03" y1="33.33" x2="522.71" y2="1056.33" xlink:href="#e"/><clipPath id="h"><path d="M302,423.17v119.01s39.73,11.17,49.55,15.76c9.82,4.58,16.27,7.63,19.18,11.75,2.9,4.12,2.24,7.24,2.24,7.24l.11,373.1-368.32,6.22L0,458.28l302-35.11Z" style="fill:none;"/></clipPath><linearGradient id="i" x1="378.53" y1="765.27" x2="154.54" y2="763.78" gradientTransform="matrix(1, 0, 0, 1, 0, 0)" gradientUnits="userSpaceOnUse"><stop offset=".02" stop-color="#a282ee"/><stop offset=".05" stop-color="#9f7eed"/><stop offset=".24" stop-color="#8d67ea"/><stop offset=".46" stop-color="#8156e7"/><stop offset=".69" stop-color="#7a4de6"/><stop offset="1" stop-color="#784ae6"/></linearGradient><linearGradient id="j" x1="227.43" y1="585.07" x2="413.07" y2="585.07" xlink:href="#i"/><linearGradient id="k" x1="227.17" y1="583.66" x2="356.31" y2="584.29" xlink:href="#i"/><linearGradient id="l" x1="689.86" y1="528.93" x2="727.94" y2="112.62" gradientTransform="matrix(1, 0, 0, 1, 0, 0)" gradientUnits="userSpaceOnUse"><stop offset="0" stop-color="#d5c7f7"/><stop offset=".51" stop-color="#cebdf6"/><stop offset="1" stop-color="#6530e3"/></linearGradient><radialGradient id="m" cx="726.59" cy="415.96" fx="726.59" fy="415.96" r="583.95" gradientTransform="matrix(1, 0, 0, 1, 0, 0)" gradientUnits="userSpaceOnUse"><stop offset="0" stop-color="#d5c7f7"/><stop offset=".18" stop-color="#9d7ced"/><stop offset=".32" stop-color="#7445e5"/><stop offset=".39" stop-color="#6530e3"/><stop offset=".49" stop-color="#cebdf6"/></radialGradient><linearGradient id="n" x1="755.74" y1="267.08" x2="736.22" y2="466.03" xlink:href="#f"/><linearGradient id="o" x1="647.79" y1="346.05" x2="723.14" y2="346.05" xlink:href="#f"/><linearGradient id="p" x1="758.11" y1="1027.02" x2="730.46" y2="480.77" xlink:href="#e"/><linearGradient id="q" x1="120.35" y1="504.59" x2="1163.97" y2="788.67" xlink:href="#e"/><linearGradient id="r" x1="464.52" y1="864.26" x2="926.09" y2="553.62" xlink:href="#f"/><linearGradient id="s" x1="772.79" y1="466.32" x2="720.14" y2="917.8" xlink:href="#f"/><linearGradient id="t" x1="781.32" y1="-173.98" x2="819.4" y2="114.14" xlink:href="#e"/><linearGradient id="u" x1="792.69" y1="-175.48" x2="830.77" y2="112.64" xlink:href="#e"/><linearGradient id="v" x1="655.03" y1="-157.29" x2="693.11" y2="130.83" xlink:href="#e"/><linearGradient id="w" x1="463.85" y1="-132.02" x2="501.93" y2="156.1" xlink:href="#e"/><linearGradient id="x" x1="421.05" y1="-126.37" x2="459.13" y2="161.75" xlink:href="#e"/><linearGradient id="y" x1="538.45" y1="-134.37" x2="749.78" y2="210.23" xlink:href="#f"/><linearGradient id="a`" x1="431.78" y1="-68.96" x2="643.11" y2="275.64" xlink:href="#f"/><linearGradient id="aa" x1="396.2" y1="-47.14" x2="607.53" y2="297.46" xlink:href="#f"/></defs><g style="isolation:isolate;"><g id="a"/><g id="b"><g id="c"><g id="d"><g><path d="M174.78,517.32c30.8,5.55,52.56,39.69,48.63,76.27-3.93,36.54-32.06,61.7-62.86,56.15-30.8-5.55-52.56-39.69-48.63-76.24,3.93-36.58,32.06-61.73,62.86-56.18Z" style="fill:#bea8f3;"/><path d="M166.3,519.8c30.8,5.55,52.56,39.69,48.63,76.27-3.93,36.54-32.06,61.7-62.86,56.15-30.8-5.55-52.56-39.69-48.63-76.24,3.93-36.58,32.06-61.73,62.86-56.18Z" style="fill:#d5c7f7;"/><g style="opacity:.5;"><path d="M214.95,596.08c-1.8,16.71-8.65,31.06-18.55,41.17,8.74-9.94,14.78-23.43,16.45-38.94,3.94-36.58-17.82-70.72-48.62-76.29-16.58-2.96-32.38,2.91-44.04,14.69,11.82-13.24,28.53-20.09,46.09-16.92,30.8,5.57,52.56,39.71,48.66,76.29Z" style="fill:#fff;"/></g><path d="M160.22,640.35c-2.31,0-4.63-.21-6.95-.62-25.03-4.51-42.82-32.22-39.64-61.77,1.69-15.75,9.12-29.62,20.37-38.05,9.16-6.86,20.21-9.55,31.1-7.59h0c25.03,4.51,42.82,32.22,39.64,61.77-1.69,15.74-9.12,29.61-20.39,38.04-7.21,5.4-15.59,8.22-24.13,8.22Zm-2.07-104.71c-7.71,0-15.27,2.55-21.78,7.43-10.38,7.77-17.24,20.64-18.82,35.31-2.96,27.54,13.38,53.31,36.42,57.46,9.79,1.76,19.74-.68,28.02-6.87,10.39-7.78,17.25-20.65,18.83-35.31,2.96-27.53-13.38-53.31-36.42-57.46h0c-2.08-.38-4.17-.56-6.25-.56Z" style="fill:#bea8f3;"/></g><path d="M722.13,939.59c0,6.38-7.54,12.38-18.38,13.96l-365.06,54.23-9.17,1.37-4.93,.73c-31.01,4.63-60.7-6.64-66.31-25.15-2.23-7.24,5.87-14.56,17.99-16.36l379.19-56.33c30.97-4.63,60.66,6.64,66.31,25.15,.26,.81,.34,1.58,.34,2.4Z" style="fill:#9875ec; opacity:.2;"/><g style="opacity:.2;"><path d="M536.38,1002.08c-3.1,0-5.84-2.25-6.34-5.42-.56-3.51,1.84-6.8,5.34-7.35l411.12-65.04c3.48-.56,6.79,1.83,7.35,5.34,.56,3.51-1.84,6.8-5.34,7.35l-411.12,65.04c-.34,.05-.68,.08-1.01,.08Z" style="fill:#9875ec;"/></g><g><path d="M606.14,123.68l-251.35,35.71c-28.52,4.01-51.72,32.25-51.77,63.03l-1.27,684.93c0,39.13,38.41,68.13,66.92,64.12l236-51.32c28.52-4.01,51.66-32.25,51.72-63.02l21.95-675.05c.06-30.78-35.33-63.14-72.19-58.4Z" style="fill:url(#e);"/><path d="M658.66,141.84c-12.67-8.9-28.55-13.88-44.64-11.82l-251.31,35.67c-28.55,4.06-51.76,32.25-51.76,63.08l-1.28,684.91c0,19.08,9.04,35.67,21.71,47.27-16.52-11.39-29.62-30.76-29.62-53.61l1.21-684.91c.07-30.76,23.28-59.02,51.83-63.08l251.31-35.67c19.65-2.56,38.87,5.48,52.54,18.16Z" style="fill:url(#f); mix-blend-mode:overlay; opacity:.4;"/><path d="M627.1,139.5l-251.35,35.71c-28.52,4.01-51.72,32.25-51.77,63.03l-1.27,684.93c-.06,30.78,23.05,52.52,51.57,48.51l251.35-35.71c28.52-4.01,51.66-32.25,51.72-63.02l1.27-684.93c.06-30.78-22.99-52.52-51.51-48.52Z" style="fill:#fff;"/><path d="M678.6,188.04l-1.28,684.91c-.07,30.76-23.21,59.02-51.69,63.01l-251.38,35.75c-15.81,2.21-29.9-3.49-39.3-14.24,9.4,9.97,23.07,15.16,38.3,13.03l251.38-35.75c28.55-3.99,51.69-32.18,51.69-63.01l1.28-684.91c0-12.39-3.7-23.35-10.04-31.68,6.98,8.54,11.04,19.86,11.04,32.89Z" style="fill:url(#g);"/><path d="M647.11,172.85l-291.56,41.36c-14.71,2.07-26.66,16.67-26.69,32.55l-1.24,670.22c-.03,15.88,11.87,27.13,26.58,25.06l291.56-41.36c14.71-2.07,26.66-16.67,26.69-32.55l1.25-670.22c.03-15.88-11.87-27.13-26.58-25.07Z" style="fill:#e1d6f9;"/><path d="M673.67,197.91l-1.24,670.22c0,15.89-11.95,30.5-26.69,32.56l-291.56,41.36c-5.35,.73-10.37-.3-14.52-2.66,3.38,1.2,7.11,1.63,11.05,1.07l291.56-41.36c14.74-2.06,26.69-16.66,26.69-32.56l1.24-670.22c.04-10.11-4.76-18.29-12.04-22.4,9.17,3.26,15.55,12.38,15.51,23.99Z" style="fill:#e1d6f9; mix-blend-mode:multiply;"/><g><path d="M479.1,185.03l64.73-9.1c2.62-.37,4.79-2.95,4.8-5.78,0-2.83-2.16-4.87-4.78-4.5l-64.73,9.1c-2.68,.38-4.79,3.01-4.8,5.84,0,2.83,2.1,4.81,4.78,4.44Z" style="fill:#e1d6f9;"/><path d="M437.01,193.6c3.99-.56,7.19-4.46,7.2-8.77,0-4.31-3.18-7.37-7.17-6.81-3.99,.56-7.25,4.53-7.26,8.84,0,4.31,3.24,7.3,7.23,6.74Z" style="fill:#e1d6f9;"/></g><g style="mix-blend-mode:multiply;"><path d="M548.62,170.14c0,2.83-2.14,5.44-4.8,5.78l-64.73,9.12c-1.41,.21-2.7-.26-3.56-1.2,.34,.04,.69,.04,1.07,0l64.73-9.08c2.61-.39,4.8-2.96,4.8-5.78,0-1.37-.47-2.53-1.29-3.34,2.14,.21,3.77,2.06,3.77,4.5Z" style="fill:#e1d6f9;"/><path d="M444.23,184.83c-.04,4.33-3.21,8.22-7.2,8.78-1.84,.26-3.47-.21-4.75-1.24,.69,.13,1.46,.17,2.23,.04,3.98-.56,7.2-4.45,7.2-8.78,0-2.36-.99-4.37-2.53-5.57,2.91,.56,5.05,3.26,5.05,6.77Z" style="fill:#e1d6f9;"/></g><path d="M678.61,188.02l-.09,38.21-355.33,430.9,.77-418.86c.04-30.8,23.26-59.03,51.79-63.06l251.32-35.73c28.53-3.98,51.58,17.78,51.53,48.53Z" style="fill:#fff; opacity:.2;"/></g><path d="M678.01,480.04l-4.25,288.54-179.01,25.15c-12.25,1.71-22.19-7.58-22.15-20.82l.47-241.86c0-13.19,9.94-25.32,22.19-27.03l182.75-23.98Z" style="fill:#9875ec; opacity:.2;"/><g style="clip-path:url(#h);"><g><g><path d="M373,576.5v309.02c-.82,5.44-7.25,11.61-21.36,18.76-78.78,40.01-252.09,21.89-252.09,21.89v-308.64s63.58,6.64,131.21,3h.15c43.99-2.36,89.69-9.12,120.73-24.89,14.04-7.11,20.47-13.24,21.32-18.72,.03-.13,.03-.3,.03-.43Z" style="fill:#cebdf6;"/><path d="M392.01,414.32v308.64s-7.4,2.57-19.01,6.94v-153.4c.09-.56,.09-1.07,0-1.58-2.19-23.69-110.62-34.4-138.03-60.96-2.47-2.4-3.78-4.97-4.05-7.67v-1.97c2.38-34.91,161.09-90,161.09-90Z" style="fill:#cebdf6;"/><path d="M373,574.92c.09,.51,.09,1.03,0,1.58,0,.13,0,.3-.03,.43-.85,5.48-7.28,11.61-21.32,18.72-31.04,15.76-76.74,22.53-120.73,24.89v-114.25c.27,2.7,1.58,5.27,4.05,7.67,27.42,26.56,135.84,37.27,138.03,60.96Z" style="fill:#cebdf6;"/></g><g><path d="M373.01,635.04v225.15c-2.66,1.63-5.65,3.3-9.04,5.01-35.3,17.95-87.3,25.62-137.33,28.32h-.17c-6.81,.39-13.58,.64-20.3,.81-.17-.43-.34-.86-.56-1.29-7.5-17.91-28.66-31.91-55.26-36.54v-143.16c30.37-5.27,53.55-22.7,57.62-44.21,.09-.39,.17-.81,.21-1.2l18.29,.43h.17c50.03-2.7,102.04-10.41,137.33-28.32,3.38-1.71,6.38-3.38,9.04-5.01Z" style="fill:url(#i);"/><path d="M392.03,440.21v282.77s-7.41,2.57-19.02,6.94v-153.4c.09-.56,.09-1.07,0-1.58-2.1-22.75-102.25-33.54-134.42-57.92,31.44-29.3,116.26-62.97,153.44-76.81Z" style="fill:url(#j);"/><path d="M355.15,593.83c-1.11,.6-2.27,1.2-3.51,1.84-31.01,15.76-76.72,22.53-120.71,24.89v-73.77l.3,.3c21.12,20.43,84.43,32.64,123.93,46.73Z" style="fill:url(#k);"/></g><g style="mix-blend-mode:multiply;"><path d="M373.01,576.5v3.73c0,.13,0,.3-.04,.43-.86,5.48-7.28,11.61-21.33,18.72-31.01,15.76-76.72,22.53-120.71,24.89h-.17c-67.6,3.64-131.21-3-131.21-3v-3.73s63.61,6.64,131.21,3h.17c43.99-2.36,89.7-9.12,120.71-24.89,5.05-2.57,9.17-5.01,12.34-7.37,1.07-.77,2.01-1.54,2.87-2.27,.34-.26,.69-.6,1.03-.94,.47-.39,.9-.86,1.29-1.28,.34-.34,.64-.73,.94-1.07s.56-.73,.81-1.07,.47-.69,.69-1.07c.17-.3,.34-.6,.51-.9,.17-.39,.34-.77,.43-1.16,.13-.3,.21-.64,.3-.99,.04-.21,.09-.39,.13-.6,.04-.13,.04-.3,.04-.43Z" style="fill:#f198f2;"/><path d="M373.01,881.42v3.73c0,.13,0,.3-.04,.43-.86,5.48-7.28,11.61-21.33,18.72-31.01,15.76-76.72,22.53-120.71,24.89h-.17c-67.6,3.64-131.21-3-131.21-3v-3.73s63.61,6.64,131.21,3h.17c43.99-2.36,89.7-9.12,120.71-24.89,5.05-2.57,9.17-5.01,12.34-7.37,1.07-.77,2.01-1.54,2.87-2.27,.34-.26,.69-.6,1.03-.94,.47-.39,.9-.86,1.29-1.28,.34-.34,.64-.73,.94-1.07,.3-.34,.56-.73,.81-1.07,.26-.34,.47-.69,.69-1.07,.17-.3,.34-.6,.51-.9,.17-.39,.34-.77,.43-1.16,.13-.3,.21-.64,.3-.99,.04-.21,.09-.39,.13-.6,.04-.13,.04-.3,.04-.43Z" style="fill:#f198f2;"/><path d="M392.03,414.32v3.73s-156.01,54.15-160.98,89.1c-.04-.26-.09-.56-.13-.86v-1.97c2.36-34.91,161.11-90,161.11-90Z" style="fill:#f198f2;"/><path d="M373.01,574.92c.09,.51,.09,1.03,0,1.58,0,.13,0,.3-.04,.43-.04,.21-.09,.39-.13,.6-.51-2.14-1.88-4.2-4.03-6.13-.34-.34-.73-.64-1.11-.99-2.83-2.31-6.68-4.54-11.31-6.68-1.03-.43-2.1-.9-3.21-1.37-.81-.39-1.63-.73-2.48-1.03-.73-.3-1.46-.6-2.18-.86-14.14-5.44-32.64-10.5-50.85-15.85-2.53-.73-5.05-1.5-7.54-2.23-.34-.13-.73-.21-1.07-.34-.94-.3-1.88-.6-2.83-.86-3.51-1.07-6.94-2.18-10.28-3.3-.26-.09-.56-.21-.86-.3-2.48-.81-4.93-1.67-7.28-2.53-.21-.09-.43-.17-.64-.26-.86-.3-1.71-.64-2.57-.94-1.5-.56-3-1.16-4.41-1.71-3.43-1.41-6.64-2.83-9.64-4.28-.73-.34-1.41-.73-2.1-1.07-4.11-2.14-7.71-4.37-10.71-6.73-.99-.77-1.88-1.58-2.74-2.4-2.48-2.4-3.81-4.97-4.07-7.67v-3.73c.04,.3,.09,.6,.13,.86v.13c.13,.51,.26,1.03,.43,1.54,.04,.04,.04,.09,.09,.17,.21,.56,.47,1.11,.81,1.67,.26,.51,.6,.99,.99,1.46,.04,.09,.13,.17,.21,.26,.39,.56,.86,1.07,1.41,1.58,27.42,26.56,135.84,37.27,138.02,60.96Z" style="fill:#f198f2;"/><polygon points="99.54 617.54 99.54 926.18 102.97 926.42 101.26 617.54 99.54 617.54" style="fill:#f198f2;"/></g><path d="M373.01,675.39v158.75c-26.56-11.18-44.68-38.64-44.59-73.21,.09-34.44,18.12-66.91,44.59-85.54Z" style="fill:#cebdf6;"/><path d="M318.57,608c-15.84,4.29-43.61,9.94-79.29,12.21,14.99-14.18,35.73-21.33,58.73-18.12,7.11,.99,14.01,3.17,20.56,5.91Z" style="fill:#cebdf6;"/><g><path d="M211.09,843.06c1.53,.46,2.71,1.23,3.46,2.27,.75,1.04,1.1,2.52,1.09,4.35l-.04,23.15c0,.64,.12,1.09,.31,1.4,.35,.5,1.02,1.09,2,1.71l2.8-2.86,.79,.82-6.78,6.9-6.21-3.54,1.74-2.71,.04-20.68c0-1.4-.07-2.37-.23-2.9-.27-.81-.71-1.47-1.26-1.9l-1.02-.37c-.35,.05-.83,.37-1.42,.96l-.91,.93-.79-.87,6.42-6.68Z" style="fill:#cebdf6;"/><path d="M248.57,844.67c2.12,2.89,3.21,6.43,3.21,10.72,0,4.2-1.04,8.17-3.05,11.89-1.97,3.72-4.69,6.99-8.12,9.89-2.44-.29-4.68-1.17-6.68-2.58-1.96-1.46-3.49-3.41-4.55-5.86-1.06-2.44-1.56-5.05-1.56-7.81,0-3.99,1.08-8.01,3.21-12.08,2.13-4.04,4.97-7.32,8.51-9.77,3.85,.9,6.88,2.77,9.04,5.61Zm-1.3,21.16c.51-1.69,.79-3.47,.8-5.42,0-2.63-.5-5.11-1.48-7.39-1.02-2.23-2.51-4.06-4.47-5.49-2-1.37-4.36-2.27-7.04-2.75-2.37,3.22-3.55,6.87-3.56,10.94,0,2.85,.54,5.49,1.68,7.87,1.14,2.39,2.78,4.24,4.91,5.64,2.12,1.36,4.28,2.03,6.53,2.05,1.22-2,2.13-3.82,2.65-5.47" style="fill:#cebdf6;"/><path d="M275.29,840.92c2.16,2.88,3.21,6.43,3.21,10.72,0,4.2-1,8.16-3.01,11.89-2.01,3.72-4.73,6.99-8.16,9.89-2.44-.29-4.64-1.17-6.64-2.59-2-1.46-3.49-3.41-4.55-5.86-1.06-2.44-1.56-5.05-1.56-7.81,0-3.99,1.08-8.01,3.17-12.08,2.13-4.04,4.97-7.32,8.51-9.77,3.89,.9,6.92,2.76,9.04,5.61Zm-1.26,21.15c.51-1.69,.79-3.47,.8-5.42,0-2.63-.5-5.11-1.48-7.39-1.02-2.23-2.51-4.06-4.51-5.48-2-1.37-4.32-2.28-7-2.75-2.37,3.22-3.59,6.87-3.6,10.95,0,2.85,.58,5.48,1.72,7.87,1.14,2.39,2.79,4.24,4.91,5.64,2.12,1.36,4.28,2.03,6.49,2.06,1.26-2,2.13-3.82,2.69-5.47" style="fill:#cebdf6;"/></g><path d="M392.01,414.32v308.64s-7.4,2.57-19.01,6.94v-153.4c.09-.56,.09-1.07,0-1.58-2.19-23.69-110.62-34.4-138.03-60.96-2.47-2.4-3.78-4.97-4.05-7.67v-1.97c2.38-34.91,161.09-90,161.09-90Z" style="fill:#9875ec; mix-blend-mode:multiply; opacity:.3;"/><path d="M372.02,571.67c4.71,8.16-6.5,16.96-20.38,23.98-31.01,15.76-76.72,22.53-120.71,24.89v-71.67s19.61-2.08,45.14,0c64.26,5.23,95.96,22.79,95.96,22.79Z" style="fill:#9875ec; mix-blend-mode:multiply; opacity:.3;"/><path d="M373.01,576.5v82.38c-27.72,66.7-95.65,166.04-261.35,268.37-7.71-.6-12.12-1.07-12.12-1.07v-308.64s63.61,6.64,131.21,3h.17c43.99-2.36,89.7-9.12,120.71-24.89,14.05-7.11,20.48-13.24,21.33-18.72,.04-.13,.04-.3,.04-.43Z" style="fill:#f8caf8; opacity:.2;"/></g></g><g><path d="M678.73,252.37l-.21,126.45c-9,6.3-19.23,10.58-30.11,12.12-36.37,5.1-65.84-22.57-65.75-61.81,.09-39.32,29.64-75.26,66.01-80.4,10.84-1.5,21.08-.13,30.07,3.64Z" style="fill:#9875ec; opacity:.2;"/><g><path d="M707.21,269.65c36.37-5.11,65.82,22.55,65.75,61.85-.07,39.26-29.64,75.22-66.02,80.33-36.37,5.11-65.82-22.55-65.75-61.81,.07-39.3,29.64-75.26,66.02-80.37Z" style="fill:url(#l);"/><path d="M716.66,274.96c36.37-5.11,65.82,22.55,65.75,61.85-.07,39.26-29.64,75.22-66.02,80.33-36.37,5.11-65.82-22.55-65.75-61.81,.07-39.3,29.64-75.26,66.02-80.37Z" style="fill:url(#m);"/><path d="M782.42,336.82c-.09,39.24-29.64,75.22-66.01,80.32-3.17,.43-6.3,.64-9.34,.56,2.14-.04,4.28-.21,6.47-.56,36.37-5.1,65.93-41.08,66.01-80.32,.09-35.73-24.25-61.81-55.99-62.41,33.11-.94,58.9,25.62,58.86,62.41Z" style="fill:url(#n); mix-blend-mode:overlay; opacity:.4;"/><path d="M650.66,355.33c-.09,35.68,24.2,61.77,55.99,62.37-33.11,.94-58.94-25.62-58.86-62.37,.09-39.28,29.64-75.26,66.01-80.36,3.17-.43,6.3-.64,9.34-.56-2.14,.04-4.28,.26-6.47,.56-36.37,5.1-65.97,41.08-66.01,80.36Z" style="fill:url(#o); mix-blend-mode:overlay; opacity:.4;"/><path d="M754.9,309.23c2.08-.29,4.16,.33,5.66,1.91,2.81,2.97,2.59,8.19-.54,11.7l-52.08,58.16-34.06-20.28c-3.5-2.06-4.38-7.09-2-11.16,1.48-2.54,3.89-4.15,6.33-4.49,1.47-.21,2.96,.04,4.27,.82l24.16,14.38,43.14-48.2c1.46-1.62,3.29-2.58,5.12-2.84Z" style="fill:#fff;"/></g></g><g><path d="M347.41,13.09c32.92-4.63,59.57,20.41,59.51,55.98-.07,35.56-26.83,68.11-59.75,72.74-32.95,4.63-59.6-20.41-59.54-55.97,.07-35.56,26.83-68.11,59.78-72.74Z" style="fill:#bea8f3;"/><path d="M339.79,7.69c32.92-4.63,59.57,20.41,59.51,55.98s-26.83,68.11-59.75,72.74c-32.95,4.63-59.6-20.41-59.54-55.97,.07-35.56,26.83-68.11,59.78-72.74Z" style="fill:#d5c7f7;"/><g style="opacity:.5;"><path d="M399.32,63.66c-.09,35.55-26.86,68.11-59.76,72.74-3.17,.43-6.25,.6-9.25,.51,2.1-.04,4.2-.21,6.38-.51,32.94-4.63,59.67-37.18,59.76-72.74,.09-32.17-21.76-55.69-50.25-56.46,29.9-.81,53.16,23.22,53.12,56.46Z" style="fill:#fff;"/></g><path d="M333.52,124.67c-10.07,0-19.47-3.45-26.98-9.98-9.79-8.52-15.38-21.68-15.36-36.09,.05-28.63,21.73-54.96,48.31-58.7l.27,1.95-.27-1.95c12.43-1.74,24.25,1.64,33.32,9.54,9.78,8.52,15.38,21.67,15.35,36.09-.05,28.63-21.73,54.96-48.31,58.7-2.14,.3-4.25,.45-6.34,.45Zm12.3-101.29c-1.9,0-3.83,.13-5.77,.41h0c-24.72,3.47-44.88,28.06-44.93,54.81-.02,13.27,5.08,25.35,14.01,33.12,8.19,7.13,18.91,10.19,30.18,8.61,24.72-3.47,44.88-28.06,44.93-54.81,.03-13.47-4.95-25.23-14-33.12-6.78-5.91-15.29-9.02-24.42-9.02Z" style="fill:#bea8f3;"/></g><g><path d="M210.82,166.16c36.06,4.69,61.99,38.16,57.96,74.76-4.02,36.57-36.48,62.43-72.53,57.74-36.02-4.69-61.99-38.16-57.96-74.73,4.03-36.6,36.52-62.46,72.54-57.77Z" style="fill:#bea8f3;"/><path d="M203.68,168.54c36.06,4.69,61.99,38.16,57.96,74.76-4.02,36.57-36.48,62.43-72.53,57.74-36.02-4.69-61.99-38.16-57.96-74.73,4.03-36.6,36.52-62.46,72.54-57.77Z" style="fill:#d5c7f7;"/><g style="opacity:.5;"><path d="M261.64,243.32c-3.77,34.06-32.26,58.86-65.28,58.26,32.08-.6,59.24-25.02,62.93-58.26,3.98-36.63-21.93-70.08-58-74.79-2.44-.34-4.84-.51-7.24-.51,3.17-.09,6.38,.09,9.64,.51,36.07,4.71,61.98,38.17,57.96,74.79Z" style="fill:#fff;"/></g><path d="M197.34,288.98c-2.29,0-4.59-.15-6.9-.45-29.19-3.8-50.29-30.97-47.03-60.57,1.59-14.49,8.68-27.35,19.97-36.21,11.09-8.71,24.94-12.5,38.96-10.68,29.19,3.8,50.29,30.98,47.03,60.6-1.59,14.48-8.68,27.33-19.95,36.19-9.27,7.28-20.45,11.12-32.08,11.12Zm-1.88-104.41c-10.74,0-21.08,3.55-29.65,10.28-10.44,8.2-17.01,20.11-18.48,33.54-3.02,27.48,16.54,52.7,43.62,56.23,13,1.68,25.78-1.81,36.03-9.86,10.43-8.2,16.99-20.1,18.47-33.52,3.02-27.5-16.54-52.73-43.62-56.26h0c-2.13-.28-4.26-.41-6.37-.41Z" style="fill:#bea8f3;"/></g><g><path d="M169.1,376.02c36.17,6.52,53.81,27.47,39.44,46.8-14.36,19.31-55.3,29.7-91.47,23.18-36.14-6.52-53.81-27.47-39.45-46.78,14.37-19.33,55.35-29.71,91.49-23.19Z" style="fill:#bea8f3;"/><path d="M169.1,365.38c36.17,6.52,53.81,27.47,39.44,46.8-14.36,19.31-55.3,29.7-91.47,23.18-36.14-6.52-53.81-27.47-39.45-46.78,14.37-19.33,55.35-29.71,91.49-23.19Z" style="fill:#d5c7f7;"/><g style="opacity:.5;"><path d="M208.52,412.18c-14.35,19.32-55.3,29.69-91.46,23.17-7.75-1.37-14.61-3.43-20.52-6,5.14,1.97,10.97,3.56,17.35,4.71,36.15,6.55,77.11-3.86,91.46-23.17,11.31-15.16,2.83-31.36-18.81-40.74,23.99,9.17,33.8,26.13,21.98,42.02Z" style="fill:#fff;"/></g><path d="M139.98,431.54c-6,0-12.03-.5-17.9-1.56-18.25-3.29-31.56-11.36-35.6-21.58-2.43-6.14-1.37-12.53,3.06-18.5,11.78-15.84,45.24-24.42,74.56-19.14h0c18.25,3.29,31.56,11.36,35.6,21.57,2.43,6.15,1.36,12.55-3.08,18.53-9.41,12.66-32.69,20.69-56.64,20.69Zm5.98-58.73c-22.77,0-44.72,7.45-53.5,19.26-3.64,4.9-4.54,10.08-2.6,14.98,3.57,9.04,15.86,16.27,32.86,19.34,28.1,5.08,59.94-2.88,70.97-17.72,3.65-4.91,4.56-10.1,2.62-15.01-3.57-9.03-15.86-16.26-32.86-19.33-5.74-1.03-11.64-1.53-17.49-1.53Z" style="fill:#bea8f3;"/></g><circle cx="199.96" cy="96.27" r="16.99" style="fill:#d5c7f7;"/><circle cx="717.97" cy="12.02" r="12.02" transform="translate(185.9 494.22) rotate(-43.14)" style="fill:#d5c7f7;"/><circle cx="223.86" cy="345.44" r="8.47" transform="translate(-178.69 259.47) rotate(-45)" style="fill:#d5c7f7;"/><path d="M117.44,306.27c0,3.31-2.68,5.99-5.99,5.99s-5.99-2.68-5.99-5.99,2.68-5.99,5.99-5.99,5.99,2.68,5.99,5.99Z" style="fill:#d5c7f7;"/><circle cx="80.42" cy="531.7" r="13.07" style="fill:#d5c7f7;"/><polygon points="67.35 494.24 69.14 507.48 82.37 509.27 69.14 511.06 67.35 524.3 65.56 511.06 52.32 509.27 65.56 507.48 67.35 494.24" style="fill:#d5c7f7;"/><polygon points="186.55 333.99 188.34 347.23 201.58 349.02 188.34 350.81 186.55 364.04 184.76 350.81 171.52 349.02 184.76 347.23 186.55 333.99" style="fill:#d5c7f7;"/><polygon points="415.76 103.44 418.29 122.14 436.99 124.67 418.29 127.2 415.76 145.9 413.23 127.2 394.53 124.67 413.23 122.14 415.76 103.44" style="fill:#d5c7f7;"/><polygon points="756.19 99.5 758.72 118.2 777.42 120.73 758.72 123.26 756.19 141.96 753.66 123.26 734.96 120.73 753.66 118.2 756.19 99.5" style="fill:#d5c7f7;"/><polygon points="893.35 341.86 894.78 352.47 905.4 353.91 894.78 355.34 893.35 365.96 891.91 355.34 881.3 353.91 891.91 352.47 893.35 341.86" style="fill:#d5c7f7;"/><g><path d="M927.37,499.47c12.21-1.72,22.11,7.6,22.09,20.82l-.45,241.85c-.02,13.22-9.97,25.33-22.18,27.04l-374.03,52.57c-12.25,1.72-22.15-7.6-22.13-20.81l.45-241.85c.02-13.22,9.97-25.33,22.22-27.05l374.03-52.57Z" style="fill:url(#p);"/><path d="M933.05,503.69c12.21-1.72,22.11,7.6,22.09,20.82l-.45,241.85c-.02,13.22-9.97,25.33-22.18,27.04l-374.03,52.57c-12.25,1.72-22.15-7.6-22.13-20.81l.45-241.85c.02-13.22,9.97-25.33,22.22-27.05l374.03-52.57Z" style="fill:url(#q);"/><g style="opacity:.6;"><path d="M692.26,580.09v3.5l-6.53,.92c-1.06,.15-1.9,.61-2.57,1.4-.64,.75-.97,1.63-.97,2.56l-.03,18.42c0,.97,.32,1.72,.96,2.33,.67,.56,1.51,.79,2.57,.64l6.53-.92v3.5l-6.08,.85c-2.51,.35-4.4-.04-5.72-1.14-1.35-1.13-1.99-3.02-1.98-5.62l.03-16.65c0-2.64,.65-4.7,2-6.18,1.32-1.5,3.22-2.43,5.72-2.78l6.08-.85Z" style="fill:#fff;"/><path d="M711.48,595.56l5.92,13.35-4.08,.57-5.5-12.61-4.18,.59-.02,13.39-3.73,.52,.06-32.37,8.04-1.13c2.44-.34,4.27-.01,5.53,.96,1.22,.97,1.86,2.72,1.85,5.22v4.44c-.01,3.47-1.3,5.84-3.88,7.06Zm-3.02-2.25c1.09-.15,1.9-.54,2.38-1.17,.52-.59,.77-1.5,.78-2.68v-5.31c.01-1.18-.24-1.98-.76-2.42-.48-.45-1.28-.62-2.38-.46l-4.82,.68-.02,12.04,4.82-.68" style="fill:#fff;"/><polygon points="738.8 573.55 738.8 576.91 728.22 578.4 728.2 589.01 737.72 587.68 737.71 591.04 728.19 592.38 728.17 604.04 738.75 602.55 738.74 605.91 724.44 607.92 724.5 575.56 738.8 573.55" style="fill:#fff;"/><path d="M760.88,572.14c1.28,.93,1.96,2.67,1.95,5.24l-.03,17.87c0,2.64-.59,4.59-1.71,5.86-1.13,1.27-2.99,2.09-5.6,2.45l-8.81,1.24,.06-32.37,8.29-1.17c2.57-.36,4.53-.08,5.85,.88Zm-1.81,24.08l.03-18.73c0-1.01-.29-1.8-.86-2.31-.58-.51-1.32-.72-2.25-.59l-5.53,.78-.05,25.43,5.46-.77c1.09-.15,1.9-.51,2.41-1.14,.51-.63,.77-1.5,.78-2.68" style="fill:#fff;"/><polygon points="783.64 567.24 783.63 570.61 779.78 571.15 779.73 596.79 783.59 596.25 783.58 599.61 772.14 601.22 772.14 597.86 776 597.31 776.05 571.68 772.19 572.22 772.2 568.85 783.64 567.24" style="fill:#fff;"/><polygon points="809.74 563.58 809.73 567.08 802.92 568.04 802.87 596.9 799.14 597.43 799.19 568.56 792.38 569.52 792.38 566.02 809.74 563.58" style="fill:#fff;"/><path d="M854.26,557.32v3.5l-6.53,.92c-1.06,.15-1.9,.61-2.57,1.4-.64,.75-.97,1.63-.97,2.56l-.03,18.42c0,.97,.32,1.72,.96,2.33,.67,.56,1.51,.79,2.57,.64l6.52-.92v3.5l-6.08,.85c-2.51,.35-4.4-.04-5.72-1.14-1.35-1.13-1.99-3.02-1.98-5.62l.03-16.65c0-2.64,.65-4.7,2-6.18,1.32-1.5,3.22-2.43,5.73-2.78l6.07-.85Z" style="fill:#fff;"/><path d="M873.03,554.68l7.04,31.37-3.79,.53-1.62-7.96-8.36,1.17-1.69,8.42-3.83,.54,7.32-33.39,4.92-.69Zm-6.05,21.56l7.01-.98-3.5-17.16-3.5,18.15" style="fill:#fff;"/><path d="M896.62,569.54l5.92,13.35-4.08,.57-5.5-12.61-4.18,.59-.02,13.39-3.73,.52,.06-32.37,8.04-1.13c2.44-.34,4.27-.01,5.53,.96,1.22,.97,1.86,2.72,1.85,5.22v4.44c-.01,3.47-1.3,5.84-3.88,7.06Zm-3.02-2.25c1.09-.15,1.9-.54,2.38-1.17,.52-.59,.77-1.5,.78-2.68v-5.31c.01-1.18-.24-1.98-.76-2.42-.48-.45-1.28-.62-2.38-.46l-4.82,.68-.02,12.04,4.82-.68" style="fill:#fff;"/><path d="M922.88,549.38c1.28,.93,1.96,2.67,1.95,5.24l-.03,17.87c0,2.64-.59,4.59-1.71,5.86-1.13,1.27-2.99,2.09-5.6,2.45l-8.81,1.24,.06-32.37,8.29-1.17c2.57-.36,4.53-.08,5.85,.88Zm-1.81,24.08l.03-18.73c0-1.01-.29-1.8-.86-2.31-.58-.51-1.32-.72-2.25-.59l-5.53,.78-.05,25.43,5.46-.77c1.09-.15,1.9-.51,2.41-1.14,.52-.63,.77-1.5,.78-2.68" style="fill:#fff;"/></g><path d="M947.51,784.92c-3.85,4.5-9.18,7.7-14.99,8.47l-374.04,52.6c-12.26,1.72-22.15-7.64-22.09-20.85l.41-241.84c.06-8.23,3.91-15.99,9.77-21.15-4.38,4.98-7.11,11.61-7.11,18.54l-.47,241.84c0,13.21,9.89,22.51,22.15,20.79l373.98-52.54c4.56-.59,8.83-2.72,12.38-5.86Z" style="fill:url(#r); mix-blend-mode:overlay; opacity:.4;"/><path d="M955.13,524.54l-.41,241.84c-.06,8.23-3.91,16.05-9.83,21.2,4.5-5.03,7.34-11.79,7.4-18.84l.41-241.84c.06-13.21-9.83-22.51-22.09-20.79l-373.98,52.54c-4.56,.59-8.83,2.72-12.38,5.86,3.85-4.38,9.06-7.46,14.81-8.23l373.98-52.6c12.2-1.72,22.15,7.58,22.09,20.85Z" style="fill:url(#s); mix-blend-mode:overlay; opacity:.4;"/><path d="M661.21,625.36l-63.09,8.87c-5.89,.83-10.7,6.67-10.71,13.04l-.1,55.45c-.01,6.36,4.77,10.86,10.66,10.03l63.09-8.87c5.93-.83,10.73-6.68,10.75-13.04l.1-55.45c.01-6.36-4.77-10.86-10.7-10.03Z" style="fill:#9570eb; mix-blend-mode:color-dodge; opacity:.7;"/><path d="M900.32,729.72c-11.41,1.6-20.67,13.66-20.69,26.91-.02,13.26,9.2,22.71,20.61,21.11,11.41-1.6,20.67-13.66,20.69-26.91,.02-13.26-9.2-22.71-20.61-21.11Z" style="fill:#fff; opacity:.8;"/><g style="opacity:.8;"><path d="M885.39,698.54v-5.66c.01-.82-.21-1.53-.71-2.03-.46-.55-1.03-.76-1.71-.66l-8.67,1.22-.84,.57c-.23,.32-.38,.71-.38,1.12,0,.41,.15,.76,.38,1.01l.84,.33,8.67-1.22v5.83c-.01,.41-.13,.8-.36,1.12l-.88,.57-4.91,.69-.84,.57c-.27,.32-.38,.71-.38,1.12,0,.41,.11,.76,.38,1.01l.84,.33,4.91-.69,.84,.33c.23,.26,.38,.6,.38,1.01v5.91l-8.57,1.2-.88,.57c-.23,.32-.34,.7-.34,1.12,0,.41,.11,.76,.34,1.02l.87,.33,8.56-1.2c.68-.1,1.26-.46,1.75-1.15,.5-.64,.73-1.42,.73-2.24v-5.91c.01-1.07-.33-2.05-1.01-2.89,.65-.91,.99-2.03,.99-3.34Z" style="fill:#fff;"/><path d="M614.98,727.85l-8.67,1.22-.88,.57c-.23,.32-.34,.71-.34,1.12,0,.41,.11,.76,.34,1.02l.87,.33,8.67-1.22v7.35l-7.39,1.04c-.68,.1-1.26,.46-1.71,1.14-.5,.69-.73,1.41-.73,2.28l-.02,10.43,11.03-1.55,.88-.57c.23-.32,.34-.7,.34-1.12,0-.41-.11-.76-.34-1.02l-.87-.33-8.59,1.21v-7.39l7.39-1.04c.65-.09,1.22-.5,1.71-1.14,.5-.69,.72-1.41,.73-2.28v-7.35c.02-.82-.21-1.53-.71-2.03-.49-.55-1.06-.75-1.71-.66Z" style="fill:#fff;"/><path d="M796.06,711.1v-5.66c.01-.82-.21-1.53-.71-2.03-.46-.55-1.02-.76-1.71-.66l-8.67,1.22-.84,.57c-.23,.32-.34,.71-.34,1.12,0,.41,.11,.76,.34,1.02l.84,.33,8.67-1.22v5.83c-.01,.41-.13,.8-.36,1.12l-.88,.57-4.91,.69-.84,.57c-.27,.32-.38,.71-.38,1.12,0,.41,.11,.76,.38,1.01l.84,.33,4.91-.69,.84,.33c.23,.26,.38,.6,.38,1.01v5.91l-8.57,1.2-.88,.57c-.23,.32-.34,.71-.34,1.12,0,.41,.11,.76,.34,1.02l.87,.33,8.56-1.2c.68-.1,1.26-.46,1.75-1.15,.5-.64,.73-1.41,.73-2.24v-5.91c.01-1.07-.33-2.05-1.01-2.89,.69-.92,.99-2.03,.99-3.34Z" style="fill:#fff;"/><path d="M811.48,700.23l-8.63,1.21-.88,.57c-.23,.32-.34,.7-.34,1.12,0,.41,.11,.76,.34,1.02l.87,.33,8.63-1.21v7.35l-7.35,1.03c-.68,.1-1.26,.46-1.71,1.14-.5,.69-.73,1.42-.73,2.28l-.02,10.43,11.03-1.55,.84-.57c.27-.32,.38-.71,.38-1.12,0-.41-.11-.76-.38-1.01l-.84-.33-8.59,1.21v-7.39l7.35-1.03c.68-.1,1.26-.5,1.75-1.15,.5-.69,.73-1.41,.73-2.28v-7.35c.02-.82-.21-1.53-.7-2.03-.49-.55-1.06-.75-1.75-.66Z" style="fill:#fff;"/><path d="M704.27,715.3l-8.63,1.21-.88,.57c-.23,.32-.34,.71-.34,1.12,0,.41,.11,.76,.34,1.02l.87,.33,8.63-1.21v7.35l-7.35,1.03c-.68,.1-1.26,.46-1.71,1.14-.5,.69-.73,1.41-.73,2.28l-.02,10.43,11.03-1.55,.88-.57c.23-.32,.34-.7,.34-1.12,0-.41-.11-.76-.34-1.02l-.87-.33-8.59,1.21v-7.39l7.35-1.03c.68-.1,1.26-.5,1.75-1.15,.5-.69,.72-1.42,.73-2.28v-7.35c.02-.82-.21-1.53-.7-2.03-.49-.55-1.06-.75-1.75-.66Z" style="fill:#fff;"/><path d="M865.1,692.69l-8.67,1.22-.88,.57c-.23,.32-.34,.7-.34,1.12,0,.41,.11,.76,.34,1.02l.87,.33,8.67-1.22v7.35l-7.39,1.04c-.65,.09-1.22,.46-1.71,1.14-.5,.68-.72,1.41-.73,2.28l-.02,10.43,11.03-1.55,.88-.57c.23-.32,.34-.71,.34-1.12,0-.41-.11-.76-.34-1.02l-.87-.33-8.59,1.21v-7.39l7.39-1.04c.65-.09,1.26-.5,1.71-1.14,.5-.69,.73-1.41,.73-2.28v-7.35c.02-.82-.21-1.53-.7-2.03-.46-.55-1.06-.75-1.71-.66Z" style="fill:#fff;"/><path d="M901.97,700.56l-.88,.57-.34,1.12v6.28l-2.45,.34,.04-20.85-6.08,.86-.88,.57c-.23,.32-.34,.7-.34,1.12,0,.41,.11,.76,.34,1.02l.87,.33,3.65-.51-.03,17.81-3.73,.52-.84,.57-.38,1.08c0,.41,.11,.76,.38,1.06l.84,.33,9.81-1.38,.84-.57c.27-.32,.38-.71,.38-1.12v-7.8c.01-.41-.1-.76-.36-1.01l-.84-.33Z" style="fill:#fff;"/><path d="M920.68,698.38l-.84-.33-.88,.57-.34,1.12v6.28l-2.45,.34,.04-20.85-6.08,.86-.88,.57c-.23,.32-.34,.71-.34,1.12,0,.41,.11,.76,.34,1.02l.87,.33,3.65-.51-.03,17.81-3.73,.52-.88,.57-.34,1.07c0,.41,.11,.76,.34,1.06l.87,.33,9.81-1.38,.84-.57c.23-.32,.34-.71,.34-1.12v-7.8c.02-.41-.1-.76-.33-1.02Z" style="fill:#fff;"/><path d="M687.55,730.7l-.88,.57-.34,1.12v6.28l-2.45,.34,.04-20.85-6.08,.86-.88,.57c-.23,.32-.34,.71-.34,1.12,0,.41,.11,.76,.34,1.02l.87,.33,3.69-.52-.03,17.81-3.73,.52-.88,.57-.34,1.07c0,.41,.11,.76,.34,1.06l.87,.33,9.77-1.37,.88-.57c.23-.32,.34-.7,.34-1.12v-7.8c.02-.41-.1-.76-.33-1.02l-.87-.33Z" style="fill:#fff;"/><path d="M598.22,743.25l-.88,.57-.34,1.12v6.28l-2.45,.34,.04-20.85-6.08,.86-.84,.57c-.27,.32-.38,.71-.38,1.12,0,.41,.11,.76,.38,1.01l.84,.33,3.69-.52-.03,17.81-3.73,.52-.88,.57-.34,1.07c0,.41,.11,.76,.34,1.06l.87,.33,9.77-1.37,.88-.57c.23-.32,.34-.71,.34-1.12v-7.8c.02-.41-.1-.76-.33-1.02l-.87-.33Z" style="fill:#fff;"/><path d="M830.47,710.61l-.84,.57-.34,1.12v6.28l-2.45,.34,.04-20.85-6.08,.86-.88,.57c-.23,.32-.34,.7-.34,1.12,0,.41,.11,.76,.34,1.02l.87,.33,3.65-.51-.03,17.81-3.73,.52-.88,.57-.34,1.07c0,.41,.11,.76,.34,1.06l.87,.33,9.77-1.37,.88-.57c.23-.32,.34-.7,.34-1.12v-7.8c.02-.41-.1-.76-.33-1.02l-.87-.33Z" style="fill:#fff;"/><path d="M776.31,718.18l.02-8.87c0-.41-.11-.76-.34-1.02l-.87-.33-.84,.57c-.23,.32-.34,.7-.34,1.12l-.02,8.87-4.87,.68,.02-11.49c0-.41-.11-.76-.38-1.06l-.84-.33-.88,.57c-.23,.36-.38,.75-.38,1.16l-.03,14.57,7.34-1.03v6.28c-.01,.41,.1,.76,.33,1.02l.84,.33,.88-.57c.23-.32,.34-.7,.34-1.12v-6.32l.89-.57c.23-.32,.34-.7,.34-1.12,0-.41-.11-.76-.34-1.02l-.87-.33Z" style="fill:#fff;"/><path d="M740.61,723.2l.02-8.87c0-.41-.11-.76-.38-1.01l-.84-.33-.88,.57c-.23,.32-.34,.7-.34,1.12l-.02,8.87-4.87,.68,.02-11.49c0-.41-.11-.76-.34-1.06l-.87-.33-.88,.57c-.23,.36-.34,.75-.34,1.16l-.03,14.57,7.3-1.03v6.28c-.01,.41,.1,.76,.33,1.02l.87,.33,.84-.57c.27-.32,.38-.71,.38-1.12v-6.32l.85-.57c.27-.32,.38-.71,.38-1.12,0-.41-.11-.76-.38-1.01l-.84-.33Z" style="fill:#fff;"/><path d="M724.6,721.14v-5.66c.01-.82-.21-1.53-.71-2.03-.46-.55-1.03-.76-1.71-.66l-8.67,1.22-.84,.57c-.27,.32-.38,.71-.38,1.12,0,.41,.11,.76,.38,1.01l.84,.33,8.67-1.22v5.83c-.01,.41-.13,.8-.35,1.12l-.88,.57-4.91,.69-.88,.57c-.23,.32-.34,.71-.34,1.12,0,.41,.11,.76,.34,1.02l.87,.33,4.87-.68,.87,.33c.23,.26,.34,.61,.34,1.02v5.91l-8.57,1.2-.84,.57c-.23,.32-.34,.71-.34,1.12,0,.41,.11,.76,.34,1.02l.84,.33,8.59-1.21c.68-.1,1.26-.46,1.75-1.15,.46-.64,.72-1.41,.73-2.24v-5.91c.01-1.07-.33-2.05-1.01-2.89,.65-.91,.99-2.03,.99-3.34Z" style="fill:#fff;"/><path d="M651.27,735.75l.02-8.87c0-.41-.11-.76-.38-1.01l-.84-.33-.88,.57c-.23,.32-.34,.71-.34,1.12l-.02,8.87-4.87,.68,.02-11.49c0-.41-.11-.76-.34-1.06l-.87-.33-.88,.57c-.23,.36-.34,.75-.34,1.16l-.03,14.57,7.3-1.03v6.28c-.01,.41,.1,.76,.33,1.02l.87,.33,.84-.57c.27-.32,.38-.71,.38-1.12v-6.32l.85-.57c.23-.32,.38-.71,.38-1.12,0-.41-.15-.76-.38-1.01l-.84-.33Z" style="fill:#fff;"/><path d="M635.27,733.69v-5.66c.01-.82-.21-1.53-.71-2.03-.46-.55-1.03-.76-1.71-.66l-8.67,1.22-.84,.57c-.27,.32-.38,.71-.38,1.12,0,.41,.11,.76,.38,1.01l.84,.33,8.67-1.22v5.83c-.01,.41-.13,.8-.36,1.12l-.88,.57-4.91,.69-.88,.57c-.23,.32-.34,.7-.34,1.12,0,.41,.11,.76,.34,1.02l.87,.33,4.87-.68,.87,.33c.23,.26,.34,.61,.34,1.02v5.91l-8.57,1.2-.84,.57c-.23,.32-.34,.7-.34,1.12,0,.41,.11,.76,.34,1.02l.84,.33,8.59-1.21c.68-.1,1.26-.46,1.75-1.15,.46-.64,.73-1.42,.73-2.24v-5.91c.01-1.07-.33-2.05-1.01-2.89,.65-.91,.99-2.03,.99-3.34Z" style="fill:#fff;"/></g><path d="M893.35,509.27l-269.74,327.53-65.11,9.17c-12.25,1.71-22.15-7.58-22.15-20.82l.47-241.86c0-13.19,9.98-25.32,22.19-27.03l334.34-46.99Z" style="fill:#fff; opacity:.2;"/></g><g><path d="M862.57,454.37c-.45,0-.91-.05-1.36-.15-3.47-.75-5.67-4.17-4.92-7.64,.39-1.82,.78-3.64,1.15-5.46,.71-3.48,4.11-5.71,7.58-5.01,3.48,.71,5.72,4.1,5.01,7.58-.38,1.87-.78,3.74-1.18,5.61-.65,3.01-3.31,5.07-6.27,5.07Z" style="fill:url(#t);"/><path d="M867.95,425c-.32,0-.64-.02-.96-.07-3.51-.53-5.93-3.79-5.4-7.3,1.26-8.41,2.28-16.98,3.05-25.46,.32-3.53,3.49-6.12,6.98-5.82,3.53,.32,6.14,3.44,5.82,6.98-.79,8.72-1.84,17.54-3.14,26.2-.48,3.19-3.22,5.48-6.35,5.48Z" style="fill:url(#u);"/><path d="M872.65,372.07c-.06,0-.13,0-.19,0-3.55-.1-6.34-3.06-6.24-6.61,.1-3.74,.16-7.49,.17-11.24,.2-105.63-38.29-198.96-108.37-262.81-63.21-57.6-146.45-84.71-234.45-76.34-3.5,.33-6.66-2.25-7-5.79-.33-3.53,2.25-6.67,5.79-7,91.62-8.72,178.39,19.56,244.32,79.63,72.79,66.32,112.77,163.04,112.56,272.33,0,3.87-.06,7.73-.18,11.59-.1,3.48-2.95,6.24-6.42,6.24Z" style="fill:url(#v);"/><path d="M468.91,24.51c-2.87,0-5.48-1.94-6.22-4.85-.87-3.44,1.21-6.94,4.65-7.81,9.65-2.45,19.49-4.52,29.25-6.17,3.51-.59,6.81,1.77,7.41,5.27,.59,3.5-1.77,6.81-5.27,7.4-9.42,1.59-18.92,3.6-28.22,5.96-.53,.13-1.06,.2-1.59,.2Z" style="fill:url(#w);"/><path d="M438.24,33.72c-2.66,0-5.15-1.67-6.07-4.33-1.16-3.35,.61-7.01,3.97-8.17,2.02-.7,4.04-1.38,6.07-2.05,3.37-1.1,7,.73,8.11,4.1,1.11,3.37-.72,7-4.1,8.11-1.96,.65-3.92,1.31-5.87,1.99-.7,.24-1.41,.36-2.1,.36Z" style="fill:url(#x);"/></g><g style="mix-blend-mode:overlay; opacity:.8;"><path d="M878.57,329.03c-7.03-95.91-45.96-180.21-111.42-239.89C701.23,29.09,614.44,.82,522.81,9.51c-2.1,.21-3.9,1.41-4.88,3.13-.73-.9-1.24-2.06-1.37-3.34-.34-3.56,2.27-6.68,5.78-7.03,91.63-8.74,178.42,19.58,244.34,79.63,67.13,61.17,106.36,148.22,111.89,247.13Z" style="fill:url(#y);"/><path d="M504.01,10.93c.26,1.58-.09,3.13-.86,4.41-1.37-1.8-3.68-2.83-6.13-2.4-9.72,1.63-19.58,3.73-29.21,6.17-1.76,.43-3.13,1.5-3.94,2.91-.56-.69-.94-1.46-1.2-2.36-.86-3.43,1.24-6.94,4.67-7.8,9.64-2.48,19.49-4.54,29.26-6.21,3.47-.56,6.81,1.8,7.41,5.27Z" style="fill:url(#a`);"/><path d="M449.73,28.53c-1.63-2.06-4.41-2.96-7.07-2.1-2.01,.64-4.07,1.33-6.08,2.01-1.5,.51-2.66,1.54-3.38,2.83-.43-.56-.77-1.2-1.03-1.88-1.16-3.34,.6-7.03,3.98-8.18,2.01-.69,4.03-1.37,6.04-2.06,3.38-1.07,7.03,.73,8.1,4.11,.6,1.84,.34,3.77-.56,5.27Z" style="fill:url(#aa);"/></g><path d="M338.7,1007.78c-1.07,5.05-3.51,11.35-8.74,18.16-19.02,24.72-73.81,54.92-226.91,58.39h-.09c-2.31,0-4.24-1.84-4.28-4.16-.04-2.4,1.84-4.33,4.2-4.41,148.9-3.38,201.76-31.53,219.92-54.57,3.51-4.45,5.57-8.57,6.73-12.04l9.17-1.37Z" style="fill:#9875ec; opacity:.2;"/></g></g></g></g></svg>