<?xml version="1.0" encoding="UTF-8"?><svg xmlns="http://www.w3.org/2000/svg" xmlns:xlink="http://www.w3.org/1999/xlink" viewBox="0 0 1062.55 1003.78"><defs><style>.v{fill:url(#u);}.w{fill:url(#e);}.x{fill:url(#g);}.y{fill:url(#p);}.a`{fill:url(#o);}.aa{fill:url(#q);}.ab{fill:url(#r);}.ac{fill:url(#i);}.ad{fill:url(#h);}.ae{fill:url(#n);}.af{fill:none;}.ag{fill:url(#k);}.ag,.ah,.ai,.aj,.ak{mix-blend-mode:overlay;opacity:.4;}.ah{fill:url(#j);}.ai{fill:url(#s);}.aj{fill:url(#t);}.ak{fill:url(#f);}.al,.am,.an{fill:#fff;}.ao{fill:#f198f2;}.ap{fill:#6d3be4;}.aq,.ar,.as,.at{fill:#9875ec;}.au{fill:#cebdf6;}.av{fill:#bea8f3;}.aw{fill:#c0abf3;}.ax{fill:#d5c7f7;}.ay{fill:#d3c4f7;}.b`,.ba{fill:#e1d6f9;}.ba,.bb,.ar{mix-blend-mode:multiply;}.ar{opacity:.3;}.as,.bc{opacity:.15;}.bd{fill:#f8caf8;}.bd,.at,.am,.be{opacity:.2;}.bf{fill:#9570eb;mix-blend-mode:color-dodge;opacity:.7;}.bg{opacity:.6;}.bh{opacity:.5;}.bi,.an{opacity:.8;}.bj{clip-path:url(#l);}.bk{isolation:isolate;}</style><linearGradient id="e" x1="649.08" y1="-173.15" x2="335.13" y2="1134.98" gradientTransform="matrix(1, 0, 0, 1, 0, 0)" gradientUnits="userSpaceOnUse"><stop offset="0" stop-color="#d5c7f7"/><stop offset=".38" stop-color="#cebdf6"/><stop offset="1" stop-color="#6530e3"/></linearGradient><linearGradient id="f" x1="255.15" y1="192.04" x2="703.43" y2="858.65" gradientTransform="matrix(1, 0, 0, 1, 0, 0)" gradientUnits="userSpaceOnUse"><stop offset="0" stop-color="#fff"/><stop offset="1" stop-color="#784ae6"/></linearGradient><linearGradient id="g" x1="489.03" y1="26.18" x2="522.71" y2="1049.19" xlink:href="#e"/><linearGradient id="h" x1="811.18" y1="420.64" x2="864.28" y2="-159.95" gradientTransform="matrix(1, 0, 0, 1, 0, 0)" gradientUnits="userSpaceOnUse"><stop offset="0" stop-color="#d5c7f7"/><stop offset=".51" stop-color="#cebdf6"/><stop offset="1" stop-color="#6530e3"/></linearGradient><radialGradient id="i" cx="859.74" cy="261" fx="859.74" fy="261" r="814.38" gradientTransform="matrix(1, 0, 0, 1, 0, 0)" gradientUnits="userSpaceOnUse"><stop offset="0" stop-color="#d5c7f7"/><stop offset=".18" stop-color="#9d7ced"/><stop offset=".32" stop-color="#7445e5"/><stop offset=".39" stop-color="#6530e3"/><stop offset=".49" stop-color="#cebdf6"/></radialGradient><linearGradient id="j" x1="900.39" y1="53.37" x2="873.18" y2="330.83" xlink:href="#f"/><linearGradient id="k" x1="749.85" y1="163.51" x2="854.93" y2="163.51" xlink:href="#f"/><clipPath id="l"><path id="m" d="M302,416.03v119.01s39.73,11.17,49.55,15.76c9.82,4.58,16.27,7.63,19.18,11.75,2.9,4.12,2.24,7.24,2.24,7.24l.11,373.1-368.32,6.22L0,451.13l302-35.11Z" style="fill:none;"/></clipPath><linearGradient id="n" x1="378.53" y1="758.13" x2="154.54" y2="756.64" gradientTransform="matrix(1, 0, 0, 1, 0, 0)" gradientUnits="userSpaceOnUse"><stop offset=".02" stop-color="#a282ee"/><stop offset=".05" stop-color="#9f7eed"/><stop offset=".24" stop-color="#8d67ea"/><stop offset=".46" stop-color="#8156e7"/><stop offset=".69" stop-color="#7a4de6"/><stop offset="1" stop-color="#784ae6"/></linearGradient><linearGradient id="o" x1="227.43" y1="577.92" x2="413.07" y2="577.92" xlink:href="#n"/><linearGradient id="p" x1="227.17" y1="576.51" x2="356.31" y2="577.15" xlink:href="#n"/><linearGradient id="q" x1="865.51" y1="1057.05" x2="837.87" y2="510.81" xlink:href="#e"/><linearGradient id="r" x1="227.75" y1="534.62" x2="1271.37" y2="818.71" xlink:href="#e"/><linearGradient id="s" x1="571.93" y1="894.29" x2="1033.49" y2="583.66" xlink:href="#f"/><linearGradient id="t" x1="880.19" y1="496.36" x2="827.54" y2="947.83" xlink:href="#f"/><linearGradient id="u" x1="646.08" y1="168.18" x2="430.05" y2="582.37" xlink:href="#e"/></defs><g style="isolation:isolate;"><g id="a"/><g id="b"><g id="c"><g id="d"><path d="M722.13,932.44c0,6.38-7.54,12.38-18.38,13.96l-365.06,54.23-9.17,1.37-4.93,.73c-31.01,4.63-60.7-6.64-66.31-25.15-2.23-7.24,5.87-14.56,17.99-16.36l379.19-56.33c30.97-4.63,60.66,6.64,66.31,25.15,.26,.81,.34,1.58,.34,2.4Z" style="fill:#9875ec; opacity:.2;"/><g style="opacity:.2;"><path d="M641.91,981.76c-3.1,0-5.84-2.25-6.34-5.42-.56-3.51,1.84-6.8,5.34-7.35l411.12-65.04c3.48-.56,6.79,1.83,7.35,5.34,.56,3.51-1.84,6.8-5.34,7.35l-411.12,65.04c-.34,.05-.68,.08-1.01,.08Z" style="fill:#9875ec;"/></g><g><path d="M606.14,116.53l-251.35,35.71c-28.52,4.01-51.72,32.25-51.77,63.03l-1.27,684.93c0,39.13,38.41,68.13,66.92,64.12l236-51.32c28.52-4.01,51.66-32.25,51.72-63.02l21.95-675.05c.06-30.78-35.33-63.14-72.19-58.4Z" style="fill:url(#e);"/><path d="M658.66,134.69c-12.67-8.9-28.55-13.88-44.64-11.82l-251.31,35.67c-28.55,4.06-51.76,32.25-51.76,63.08l-1.28,684.91c0,19.08,9.04,35.67,21.72,47.27-16.52-11.39-29.62-30.76-29.62-53.61l1.21-684.91c.07-30.76,23.28-59.02,51.83-63.08l251.31-35.67c19.65-2.56,38.87,5.48,52.54,18.16Z" style="fill:url(#f); mix-blend-mode:overlay; opacity:.4;"/><path d="M627.1,132.36l-251.35,35.71c-28.52,4.01-51.72,32.25-51.77,63.03l-1.27,684.93c-.06,30.78,23.05,52.52,51.57,48.51l251.35-35.71c28.52-4.01,51.66-32.25,51.72-63.02l1.27-684.93c.06-30.78-22.99-52.52-51.51-48.52Z" style="fill:#fff;"/><path d="M678.6,180.9l-1.28,684.91c-.07,30.76-23.21,59.02-51.69,63.01l-251.38,35.75c-15.81,2.21-29.9-3.49-39.3-14.24,9.4,9.97,23.07,15.16,38.3,13.03l251.38-35.75c28.55-3.99,51.69-32.18,51.69-63.01l1.28-684.91c0-12.39-3.7-23.35-10.04-31.68,6.98,8.54,11.04,19.86,11.04,32.89Z" style="fill:url(#g);"/><path d="M647.11,165.71l-291.56,41.36c-14.71,2.07-26.66,16.67-26.69,32.55l-1.24,670.22c-.03,15.88,11.87,27.13,26.58,25.06l291.56-41.36c14.71-2.07,26.66-16.67,26.69-32.55l1.25-670.22c.03-15.88-11.87-27.13-26.58-25.07Z" style="fill:#e1d6f9;"/><path d="M673.67,190.77l-1.24,670.22c0,15.89-11.95,30.5-26.69,32.56l-291.56,41.36c-5.35,.73-10.37-.3-14.52-2.66,3.38,1.2,7.11,1.63,11.05,1.07l291.56-41.36c14.74-2.06,26.69-16.66,26.69-32.56l1.24-670.22c.04-10.11-4.75-18.29-12.04-22.4,9.17,3.26,15.55,12.38,15.51,23.99Z" style="fill:#e1d6f9; mix-blend-mode:multiply;"/><g><path d="M479.1,177.89l64.73-9.1c2.62-.37,4.79-2.95,4.8-5.78,0-2.83-2.16-4.87-4.78-4.5l-64.73,9.1c-2.68,.38-4.79,3.01-4.8,5.84,0,2.83,2.1,4.81,4.78,4.44Z" style="fill:#e1d6f9;"/><path d="M437.01,186.45c3.99-.56,7.19-4.46,7.2-8.77,0-4.31-3.18-7.37-7.17-6.81-3.99,.56-7.25,4.53-7.26,8.84,0,4.31,3.24,7.3,7.23,6.74Z" style="fill:#e1d6f9;"/></g><g style="mix-blend-mode:multiply;"><path d="M548.62,162.99c0,2.83-2.14,5.44-4.8,5.78l-64.73,9.12c-1.41,.21-2.7-.26-3.56-1.2,.34,.04,.69,.04,1.07,0l64.73-9.08c2.61-.39,4.8-2.96,4.8-5.78,0-1.37-.47-2.53-1.29-3.34,2.14,.21,3.77,2.06,3.77,4.5Z" style="fill:#e1d6f9;"/><path d="M444.22,177.69c-.04,4.33-3.21,8.22-7.2,8.78-1.84,.26-3.47-.21-4.75-1.24,.69,.13,1.46,.17,2.23,.04,3.98-.56,7.2-4.45,7.2-8.78,0-2.36-.99-4.37-2.53-5.57,2.91,.56,5.05,3.26,5.05,6.77Z" style="fill:#e1d6f9;"/></g><path d="M678.61,180.87l-.09,38.21-355.33,430.9,.77-418.86c.04-30.8,23.26-59.03,51.79-63.06l251.32-35.73c28.53-3.98,51.58,17.78,51.53,48.53Z" style="fill:#fff; opacity:.2;"/></g><g><path d="M835.37,59.04c50.73-7.13,91.8,31.45,91.7,86.26-.1,54.75-41.34,104.9-92.06,112.03-50.73,7.13-91.8-31.45-91.7-86.2,.1-54.8,41.34-104.95,92.06-112.08Z" style="fill:url(#h);"/><path d="M845.89,64.36c50.73-7.13,91.8,31.46,91.7,86.26-.1,54.75-41.34,104.9-92.06,112.03-50.73,7.13-91.8-31.45-91.7-86.2,.1-54.8,41.34-104.95,92.06-112.08Z" style="fill:url(#i);"/><path d="M937.61,150.63c-.12,54.72-41.34,104.9-92.06,112.01-4.42,.6-8.78,.9-13.02,.78,2.99-.06,5.97-.3,9.02-.78,50.72-7.11,91.94-57.29,92.06-112.01,.12-49.82-33.81-86.2-78.08-87.04,46.18-1.31,82.14,35.72,82.08,87.04Z" style="fill:url(#j); mix-blend-mode:overlay; opacity:.4;"/><path d="M753.85,176.44c-.12,49.76,33.75,86.15,78.08,86.98-46.18,1.31-82.2-35.72-82.08-86.98,.12-54.78,41.34-104.96,92.06-112.07,4.42-.6,8.78-.9,13.02-.78-2.99,.06-5.97,.36-9.02,.78-50.72,7.11-92,57.29-92.06,112.07Z" style="fill:url(#k); mix-blend-mode:overlay; opacity:.4;"/><path d="M899.23,112.15c2.91-.41,5.8,.46,7.89,2.67,3.92,4.15,3.61,11.42-.75,16.32l-72.63,81.11-47.5-28.28c-4.87-2.88-6.11-9.88-2.79-15.56,2.07-3.55,5.42-5.79,8.83-6.27,2.05-.29,4.13,.06,5.96,1.14l33.69,20.05,60.17-67.22c2.04-2.26,4.59-3.6,7.14-3.95Z" style="fill:#fff;"/></g><g><g style="opacity:.15;"><path d="M600.97,719.92c7.89-1.11,14.26,4.88,14.25,13.36l-.08,41.33c-.02,8.48-6.41,16.27-14.3,17.38l-190.07,26.71c-7.86,1.1-14.26-4.88-14.25-13.36l.08-41.33c.02-8.48,6.45-16.27,14.3-17.38l190.07-26.71Z" style="fill:#9875ec;"/></g><path d="M607.18,723.55c7.89-1.11,14.26,4.88,14.25,13.36l-.08,41.33c-.02,8.48-6.41,16.27-14.3,17.38l-190.07,26.71c-7.86,1.1-14.26-4.88-14.25-13.36l.08-41.33c.02-8.48,6.45-16.27,14.3-17.38l190.07-26.71Z" style="fill:#fff;"/><g><polygon points="433.4 773.7 432.73 781.98 439.87 778.02 441.14 782.1 433.79 784.79 439.06 790.72 435.45 794 431.08 786.95 426.53 795.26 423.04 792.9 428.4 785.55 421.13 784.87 422.51 780.34 429.54 782.43 428.9 774.34 433.4 773.7" style="fill:#c0abf3;"/><polygon points="460.37 769.91 459.7 778.19 466.88 774.22 468.11 778.31 460.76 781 466.03 786.93 462.46 790.21 458.05 783.16 453.5 791.47 450.01 789.11 455.37 781.76 448.14 781.08 449.48 776.55 456.51 778.64 455.87 770.55 460.37 769.91" style="fill:#c0abf3;"/><polygon points="487.37 766.12 486.71 774.4 493.85 770.43 495.11 774.51 487.73 777.21 493.04 783.13 489.43 786.42 485.05 779.37 480.47 787.68 476.98 785.32 482.34 777.97 475.11 777.28 476.45 772.76 483.52 774.84 482.88 766.75 487.37 766.12" style="fill:#c0abf3;"/><polygon points="514.35 762.33 513.68 770.61 520.82 766.64 522.08 770.72 514.74 773.42 520.01 779.34 516.4 782.63 512.02 775.58 507.48 783.88 503.98 781.52 509.31 774.18 502.08 773.49 503.46 768.97 510.49 771.05 509.85 762.96 514.35 762.33" style="fill:#c0abf3;"/><polygon points="541.35 758.53 540.68 766.81 547.83 762.84 549.05 766.93 541.71 769.63 547.01 775.55 543.41 778.83 538.99 771.79 534.45 780.09 530.95 777.73 536.32 770.39 529.08 769.7 530.43 765.18 537.46 767.26 536.82 759.17 541.35 758.53" style="fill:#c0abf3;"/><polygon points="568.32 754.74 567.65 763.02 574.8 759.05 576.02 763.14 568.68 765.84 573.98 771.76 570.38 775.04 566 767.99 561.42 776.3 557.93 773.94 563.29 766.59 556.05 765.91 557.4 761.39 564.46 763.47 563.83 755.37 568.32 754.74" style="fill:#c0abf3;"/><polygon points="595.29 750.95 594.62 759.23 601.77 755.26 603.03 759.34 595.68 762.04 600.96 767.97 597.35 771.25 592.97 764.2 588.43 772.5 584.93 770.14 590.3 762.8 583.02 762.12 584.4 757.59 591.43 759.68 590.8 751.58 595.29 750.95" style="fill:#c0abf3;"/></g></g><g><g><path d="M174.78,510.18c30.8,5.55,52.56,39.69,48.63,76.27-3.93,36.54-32.06,61.7-62.86,56.15-30.8-5.55-52.56-39.69-48.63-76.24,3.93-36.58,32.06-61.73,62.86-56.18Z" style="fill:#bea8f3;"/><path d="M166.3,512.66c30.8,5.55,52.56,39.69,48.63,76.27-3.93,36.54-32.06,61.7-62.86,56.15-30.8-5.55-52.56-39.69-48.63-76.24,3.93-36.58,32.06-61.73,62.86-56.18Z" style="fill:#d5c7f7;"/><g style="opacity:.5;"><path d="M214.95,588.93c-1.8,16.71-8.65,31.06-18.55,41.17,8.74-9.94,14.78-23.43,16.45-38.94,3.94-36.58-17.82-70.72-48.62-76.29-16.58-2.96-32.38,2.91-44.04,14.69,11.82-13.24,28.53-20.09,46.09-16.92,30.8,5.57,52.56,39.71,48.66,76.29Z" style="fill:#fff;"/></g><path d="M160.22,633.21c-2.31,0-4.63-.21-6.95-.62-25.03-4.51-42.82-32.22-39.64-61.77,1.69-15.75,9.12-29.62,20.37-38.05,9.16-6.86,20.21-9.55,31.1-7.59h0c25.03,4.51,42.82,32.22,39.64,61.77-1.69,15.74-9.12,29.61-20.39,38.04-7.21,5.4-15.59,8.22-24.13,8.22Zm-2.07-104.71c-7.71,0-15.27,2.55-21.78,7.43-10.38,7.77-17.24,20.64-18.82,35.31-2.96,27.54,13.38,53.31,36.42,57.46,9.79,1.76,19.74-.68,28.02-6.87,10.39-7.78,17.25-20.65,18.83-35.31,2.96-27.53-13.38-53.31-36.42-57.46h0c-2.08-.38-4.17-.56-6.25-.56Z" style="fill:#bea8f3;"/></g><g style="clip-path:url(#l);"><g><g><path d="M373,569.36v309.02c-.82,5.44-7.25,11.61-21.36,18.76-78.78,40.01-252.09,21.89-252.09,21.89v-308.64s63.58,6.64,131.21,3h.15c43.99-2.36,89.69-9.12,120.73-24.89,14.04-7.11,20.47-13.24,21.32-18.72,.03-.13,.03-.3,.03-.43Z" style="fill:#cebdf6;"/><path d="M392.01,407.18v308.64s-7.4,2.57-19.01,6.94v-153.4c.09-.56,.09-1.07,0-1.58-2.19-23.69-110.62-34.4-138.03-60.96-2.47-2.4-3.78-4.97-4.05-7.67v-1.97c2.38-34.91,161.09-90,161.09-90Z" style="fill:#cebdf6;"/><path d="M373,567.77c.09,.51,.09,1.03,0,1.58,0,.13,0,.3-.03,.43-.85,5.48-7.28,11.61-21.32,18.72-31.04,15.76-76.74,22.53-120.73,24.89v-114.25c.27,2.7,1.58,5.27,4.05,7.67,27.42,26.56,135.84,37.27,138.03,60.96Z" style="fill:#cebdf6;"/></g><g><path d="M373.01,627.89v225.15c-2.66,1.63-5.65,3.3-9.04,5.01-35.3,17.95-87.3,25.62-137.33,28.32h-.17c-6.81,.39-13.58,.64-20.3,.81-.17-.43-.34-.86-.56-1.29-7.5-17.91-28.66-31.91-55.26-36.54v-143.16c30.37-5.27,53.55-22.7,57.62-44.21,.09-.39,.17-.81,.21-1.2l18.29,.43h.17c50.03-2.7,102.04-10.41,137.33-28.32,3.38-1.71,6.38-3.38,9.04-5.01Z" style="fill:url(#n);"/><path d="M392.03,433.07v282.77s-7.41,2.57-19.02,6.94v-153.4c.09-.56,.09-1.07,0-1.58-2.1-22.75-102.25-33.54-134.42-57.92,31.44-29.3,116.26-62.97,153.44-76.81Z" style="fill:url(#o);"/><path d="M355.15,586.68c-1.11,.6-2.27,1.2-3.51,1.84-31.01,15.76-76.72,22.53-120.71,24.89v-73.77l.3,.3c21.12,20.43,84.43,32.64,123.93,46.73Z" style="fill:url(#p);"/></g><g style="mix-blend-mode:multiply;"><path d="M373.01,569.36v3.73c0,.13,0,.3-.04,.43-.86,5.48-7.28,11.61-21.33,18.72-31.01,15.76-76.72,22.53-120.71,24.89h-.17c-67.6,3.64-131.21-3-131.21-3v-3.73s63.61,6.64,131.21,3h.17c43.99-2.36,89.7-9.12,120.71-24.89,5.05-2.57,9.17-5.01,12.34-7.37,1.07-.77,2.01-1.54,2.87-2.27,.34-.26,.69-.6,1.03-.94,.47-.39,.9-.86,1.29-1.29,.34-.34,.64-.73,.94-1.07,.3-.34,.56-.73,.81-1.07,.26-.34,.47-.69,.69-1.07,.17-.3,.34-.6,.51-.9,.17-.39,.34-.77,.43-1.16,.13-.3,.21-.64,.3-.99,.04-.21,.09-.39,.13-.6,.04-.13,.04-.3,.04-.43Z" style="fill:#f198f2;"/><path d="M373.01,874.27v3.73c0,.13,0,.3-.04,.43-.86,5.48-7.28,11.61-21.33,18.72-31.01,15.76-76.72,22.53-120.71,24.89h-.17c-67.6,3.64-131.21-3-131.21-3v-3.73s63.61,6.64,131.21,3h.17c43.99-2.36,89.7-9.12,120.71-24.89,5.05-2.57,9.17-5.01,12.34-7.37,1.07-.77,2.01-1.54,2.87-2.27,.34-.26,.69-.6,1.03-.94,.47-.39,.9-.86,1.29-1.29,.34-.34,.64-.73,.94-1.07,.3-.34,.56-.73,.81-1.07,.26-.34,.47-.69,.69-1.07,.17-.3,.34-.6,.51-.9,.17-.39,.34-.77,.43-1.16,.13-.3,.21-.64,.3-.99,.04-.21,.09-.39,.13-.6,.04-.13,.04-.3,.04-.43Z" style="fill:#f198f2;"/><path d="M392.03,407.18v3.73s-156.01,54.15-160.98,89.1c-.04-.26-.09-.56-.13-.86v-1.97c2.36-34.91,161.11-90,161.11-90Z" style="fill:#f198f2;"/><path d="M373.01,567.77c.09,.51,.09,1.03,0,1.58,0,.13,0,.3-.04,.43-.04,.21-.09,.39-.13,.6-.51-2.14-1.88-4.2-4.03-6.13-.34-.34-.73-.64-1.11-.99-2.83-2.31-6.68-4.54-11.31-6.68-1.03-.43-2.1-.9-3.21-1.37-.81-.39-1.63-.73-2.48-1.03-.73-.3-1.46-.6-2.18-.86-14.14-5.44-32.64-10.5-50.85-15.85-2.53-.73-5.05-1.5-7.54-2.23-.34-.13-.73-.21-1.07-.34-.94-.3-1.88-.6-2.83-.86-3.51-1.07-6.94-2.18-10.28-3.3-.26-.09-.56-.21-.86-.3-2.48-.81-4.93-1.67-7.28-2.53-.21-.09-.43-.17-.64-.26-.86-.3-1.71-.64-2.57-.94-1.5-.56-3-1.16-4.41-1.71-3.43-1.41-6.64-2.83-9.64-4.28-.73-.34-1.41-.73-2.1-1.07-4.11-2.14-7.71-4.37-10.71-6.73-.99-.77-1.88-1.58-2.74-2.4-2.48-2.4-3.81-4.97-4.07-7.67v-3.73c.04,.3,.09,.6,.13,.86v.13c.13,.51,.26,1.03,.43,1.54,.04,.04,.04,.09,.09,.17,.21,.56,.47,1.11,.81,1.67,.26,.51,.6,.99,.99,1.46,.04,.09,.13,.17,.21,.26,.39,.56,.86,1.07,1.41,1.58,27.42,26.56,135.84,37.27,138.02,60.96Z" style="fill:#f198f2;"/><polygon points="99.54 610.39 99.54 919.04 102.97 919.28 101.26 610.39 99.54 610.39" style="fill:#f198f2;"/></g><path d="M373.01,668.24v158.75c-26.56-11.18-44.68-38.64-44.59-73.21,.09-34.44,18.12-66.91,44.59-85.54Z" style="fill:#cebdf6;"/><path d="M318.57,600.86c-15.84,4.29-43.61,9.94-79.29,12.21,14.99-14.18,35.73-21.33,58.73-18.12,7.11,.99,14.01,3.17,20.56,5.91Z" style="fill:#cebdf6;"/><g><path d="M211.09,835.92c1.53,.46,2.71,1.23,3.46,2.27,.75,1.04,1.1,2.52,1.09,4.35l-.04,23.15c0,.64,.12,1.09,.31,1.4,.35,.5,1.02,1.09,2,1.71l2.8-2.86,.79,.82-6.78,6.9-6.21-3.54,1.74-2.71,.04-20.68c0-1.4-.07-2.37-.23-2.9-.27-.81-.71-1.47-1.26-1.9l-1.02-.37c-.35,.05-.83,.37-1.42,.96l-.91,.93-.79-.87,6.42-6.68Z" style="fill:#cebdf6;"/><path d="M248.57,837.53c2.12,2.89,3.21,6.43,3.21,10.72,0,4.2-1.04,8.17-3.05,11.89-1.97,3.72-4.69,6.99-8.12,9.89-2.44-.29-4.68-1.17-6.68-2.58-1.96-1.46-3.49-3.41-4.55-5.86-1.06-2.44-1.56-5.05-1.56-7.81,0-3.99,1.08-8.01,3.21-12.08,2.13-4.04,4.97-7.32,8.51-9.77,3.85,.9,6.88,2.77,9.04,5.61Zm-1.3,21.16c.51-1.69,.79-3.47,.8-5.42,0-2.63-.5-5.11-1.48-7.39-1.02-2.23-2.51-4.06-4.47-5.49-2-1.37-4.36-2.27-7.04-2.75-2.37,3.22-3.55,6.87-3.56,10.94,0,2.85,.54,5.49,1.68,7.87,1.14,2.39,2.78,4.24,4.91,5.64,2.12,1.36,4.28,2.03,6.53,2.05,1.22-2,2.13-3.82,2.65-5.47" style="fill:#cebdf6;"/><path d="M275.29,833.77c2.16,2.88,3.21,6.43,3.21,10.72,0,4.2-1,8.16-3.01,11.89-2.01,3.72-4.73,6.99-8.16,9.89-2.44-.29-4.64-1.17-6.64-2.59-2-1.46-3.49-3.41-4.55-5.86-1.06-2.44-1.56-5.05-1.56-7.81,0-3.99,1.08-8.01,3.17-12.08,2.13-4.04,4.97-7.32,8.51-9.77,3.89,.9,6.92,2.76,9.04,5.61Zm-1.26,21.15c.51-1.69,.79-3.47,.8-5.42,0-2.63-.5-5.11-1.48-7.39-1.02-2.23-2.51-4.06-4.51-5.48-2-1.37-4.32-2.28-7-2.75-2.37,3.22-3.59,6.87-3.6,10.95,0,2.85,.58,5.48,1.72,7.87,1.14,2.39,2.78,4.24,4.91,5.64,2.12,1.36,4.28,2.03,6.49,2.06,1.26-2,2.13-3.82,2.69-5.47" style="fill:#cebdf6;"/></g><path d="M392.01,407.18v308.64s-7.4,2.57-19.01,6.94v-153.4c.09-.56,.09-1.07,0-1.58-2.19-23.69-110.62-34.4-138.03-60.96-2.47-2.4-3.78-4.97-4.05-7.67v-1.97c2.38-34.91,161.09-90,161.09-90Z" style="fill:#9875ec; mix-blend-mode:multiply; opacity:.3;"/><path d="M372.02,564.52c4.71,8.16-6.5,16.96-20.38,23.98-31.01,15.76-76.72,22.53-120.71,24.89v-71.67s19.61-2.08,45.14,0c64.26,5.23,95.96,22.79,95.96,22.79Z" style="fill:#9875ec; mix-blend-mode:multiply; opacity:.3;"/><path d="M373.01,569.36v82.38c-27.72,66.7-95.65,166.04-261.35,268.37-7.71-.6-12.12-1.07-12.12-1.07v-308.64s63.61,6.64,131.21,3h.17c43.99-2.36,89.7-9.12,120.71-24.89,14.05-7.11,20.48-13.24,21.33-18.72,.04-.13,.04-.3,.04-.43Z" style="fill:#f8caf8; opacity:.2;"/></g></g><g><path d="M347.41,5.94c32.92-4.63,59.57,20.41,59.51,55.98-.07,35.56-26.83,68.11-59.75,72.74-32.95,4.63-59.6-20.41-59.54-55.97,.07-35.56,26.83-68.11,59.78-72.74Z" style="fill:#bea8f3;"/><path d="M339.79,.55c32.92-4.63,59.57,20.41,59.51,55.98-.07,35.56-26.83,68.11-59.75,72.74-32.95,4.63-59.6-20.41-59.54-55.97,.07-35.56,26.83-68.11,59.78-72.74Z" style="fill:#d5c7f7;"/><g style="opacity:.5;"><path d="M399.32,56.52c-.09,35.55-26.86,68.11-59.76,72.74-3.17,.43-6.25,.6-9.25,.51,2.1-.04,4.2-.21,6.38-.51,32.94-4.63,59.67-37.18,59.76-72.74,.09-32.17-21.76-55.69-50.25-56.46,29.9-.81,53.16,23.22,53.12,56.46Z" style="fill:#fff;"/></g><path d="M333.52,117.52c-10.07,0-19.47-3.45-26.98-9.98-9.79-8.52-15.38-21.68-15.36-36.09,.05-28.63,21.73-54.96,48.31-58.7l.27,1.95-.27-1.95c12.43-1.74,24.25,1.64,33.32,9.54,9.78,8.52,15.38,21.67,15.35,36.09-.05,28.63-21.73,54.96-48.31,58.7-2.14,.3-4.25,.45-6.34,.45Zm12.3-101.29c-1.9,0-3.83,.13-5.77,.41h0c-24.72,3.47-44.88,28.06-44.93,54.81-.02,13.27,5.08,25.35,14.01,33.12,8.19,7.13,18.91,10.19,30.18,8.61,24.72-3.47,44.88-28.06,44.93-54.81,.03-13.47-4.95-25.23-14-33.12-6.78-5.91-15.29-9.02-24.42-9.02Z" style="fill:#bea8f3;"/></g><g><path d="M210.82,159.02c36.06,4.69,61.99,38.16,57.96,74.76-4.02,36.57-36.48,62.43-72.53,57.74-36.02-4.69-61.99-38.16-57.96-74.73,4.03-36.6,36.52-62.46,72.54-57.77Z" style="fill:#bea8f3;"/><path d="M203.68,161.4c36.06,4.69,61.99,38.16,57.96,74.76-4.02,36.57-36.48,62.43-72.53,57.74-36.02-4.69-61.99-38.16-57.96-74.73,4.03-36.6,36.52-62.46,72.54-57.77Z" style="fill:#d5c7f7;"/><g style="opacity:.5;"><path d="M261.64,236.17c-3.77,34.06-32.26,58.86-65.28,58.26,32.08-.6,59.24-25.02,62.93-58.26,3.98-36.63-21.93-70.08-58-74.79-2.44-.34-4.84-.51-7.24-.51,3.17-.09,6.38,.09,9.64,.51,36.07,4.71,61.98,38.17,57.96,74.79Z" style="fill:#fff;"/></g><path d="M197.34,281.83c-2.29,0-4.59-.15-6.9-.45-29.19-3.8-50.29-30.97-47.03-60.57,1.59-14.49,8.68-27.35,19.97-36.21,11.09-8.71,24.94-12.5,38.96-10.68,29.19,3.8,50.29,30.98,47.03,60.6-1.59,14.48-8.68,27.33-19.95,36.19-9.27,7.28-20.45,11.12-32.08,11.12Zm-1.88-104.41c-10.74,0-21.08,3.55-29.65,10.28-10.44,8.2-17.01,20.11-18.48,33.54-3.02,27.48,16.54,52.7,43.62,56.23,13,1.68,25.78-1.81,36.03-9.86,10.43-8.2,16.99-20.1,18.47-33.52,3.02-27.5-16.54-52.73-43.62-56.26h0c-2.13-.28-4.26-.41-6.37-.41Z" style="fill:#bea8f3;"/></g><g><path d="M169.1,368.87c36.17,6.52,53.81,27.47,39.44,46.8-14.36,19.31-55.3,29.7-91.47,23.18-36.14-6.52-53.81-27.47-39.45-46.78,14.37-19.33,55.35-29.71,91.49-23.19Z" style="fill:#bea8f3;"/><path d="M169.1,358.23c36.17,6.52,53.81,27.47,39.44,46.8-14.36,19.31-55.3,29.7-91.47,23.18-36.14-6.52-53.81-27.47-39.45-46.78,14.37-19.33,55.35-29.71,91.49-23.19Z" style="fill:#d5c7f7;"/><g style="opacity:.5;"><path d="M208.52,405.04c-14.35,19.32-55.3,29.69-91.46,23.17-7.75-1.37-14.61-3.43-20.52-6,5.14,1.97,10.97,3.56,17.35,4.71,36.15,6.55,77.11-3.86,91.46-23.17,11.31-15.16,2.83-31.36-18.81-40.74,23.99,9.17,33.8,26.13,21.98,42.02Z" style="fill:#fff;"/></g><path d="M139.98,424.39c-6,0-12.03-.5-17.9-1.56-18.25-3.29-31.56-11.36-35.6-21.58-2.43-6.14-1.37-12.53,3.06-18.5,11.78-15.84,45.24-24.42,74.56-19.14h0c18.25,3.29,31.56,11.36,35.6,21.57,2.43,6.15,1.36,12.55-3.08,18.53-9.41,12.66-32.69,20.69-56.64,20.69Zm5.98-58.73c-22.76,0-44.72,7.45-53.5,19.26-3.64,4.9-4.54,10.08-2.6,14.98,3.57,9.04,15.86,16.27,32.86,19.34,28.1,5.08,59.94-2.88,70.97-17.72,3.65-4.91,4.56-10.1,2.62-15.01-3.57-9.03-15.86-16.26-32.86-19.33-5.74-1.03-11.64-1.53-17.49-1.53Z" style="fill:#bea8f3;"/></g><circle cx="199.96" cy="89.12" r="16.99" transform="translate(79.82 272.14) rotate(-80.74)" style="fill:#d5c7f7;"/><circle cx="223.86" cy="338.29" r="8.47" style="fill:#d5c7f7;"/><path d="M117.44,299.12c0,3.31-2.68,5.99-5.99,5.99s-5.99-2.68-5.99-5.99,2.68-5.99,5.99-5.99,5.99,2.68,5.99,5.99Z" style="fill:#d5c7f7;"/><circle cx="80.42" cy="524.55" r="13.07" style="fill:#d5c7f7;"/><polygon points="67.35 487.1 69.14 500.33 82.37 502.12 69.14 503.92 67.35 517.15 65.56 503.92 52.32 502.12 65.56 500.33 67.35 487.1" style="fill:#d5c7f7;"/><polygon points="186.55 326.84 188.34 340.08 201.58 341.87 188.34 343.66 186.55 356.9 184.76 343.66 171.52 341.87 184.76 340.08 186.55 326.84" style="fill:#d5c7f7;"/><polygon points="415.76 96.29 418.29 114.99 436.99 117.52 418.29 120.05 415.76 138.75 413.23 120.05 394.53 117.52 413.23 114.99 415.76 96.29" style="fill:#d5c7f7;"/></g><g><path d="M676.66,682.57l68.79-6.29,35.73,122.34-179.01,25.15c-12.25,1.71-22.19-7.58-22.15-20.82l.47-241.86c0-13.19,9.94-25.32,22.19-27.03l74.49-10.45,.21,.21-.72,158.74Z" style="fill:#9875ec; opacity:.15;"/><g><g style="opacity:.2;"><path d="M995.85,278.16l-.77,414.59-284.62,40,.77-414.59,7.73-1.09c.12,4.42,3.46,7.47,7.57,6.9,4.11-.58,7.46-4.57,7.6-9.03l10.29-1.45c.12,4.42,3.43,7.48,7.54,6.9,4.14-.58,7.46-4.57,7.57-9.02l10.31-1.45c.09,4.42,3.41,7.48,7.54,6.9,4.11-.58,7.43-4.57,7.57-9.02l10.29-1.45c.12,4.42,3.46,7.47,7.57,6.9,4.11-.58,7.46-4.57,7.6-9.03l10.29-1.45c.09,4.42,3.41,7.48,7.52,6.9,4.14-.58,7.49-4.58,7.6-9.03l10.29-1.45c.12,4.42,3.43,7.48,7.54,6.9,4.14-.58,7.46-4.57,7.6-9.03l10.29-1.45c.09,4.42,3.41,7.48,7.57,6.9,4.11-.58,7.43-4.57,7.54-9.02l10.31-1.45c.09,4.42,3.43,7.48,7.54,6.9,4.11-.58,7.46-4.57,7.6-9.03l10.29-1.45c.12,4.42,3.43,7.48,7.54,6.9,4.14-.58,7.46-4.57,7.57-9.02l10.31-1.45c.09,4.42,3.41,7.48,7.54,6.9,4.11-.58,7.43-4.57,7.57-9.02l10.29-1.45c.12,4.42,3.46,7.47,7.57,6.9,4.11-.58,7.46-4.57,7.6-9.03l7.5-1.05Z" style="fill:#9875ec;"/></g><g><path d="M993.73,281.88l-.76,409.18-280.9,39.48,.76-409.18,7.63-1.07c.12,4.36,3.41,7.38,7.47,6.81,4.06-.57,7.36-4.51,7.5-8.91l10.15-1.43c.12,4.36,3.39,7.38,7.44,6.81,4.08-.57,7.36-4.51,7.47-8.91l10.18-1.43c.09,4.36,3.36,7.38,7.44,6.81,4.06-.57,7.34-4.51,7.47-8.91l10.15-1.43c.12,4.36,3.41,7.38,7.47,6.81,4.06-.57,7.36-4.51,7.5-8.91l10.15-1.43c.09,4.36,3.36,7.38,7.42,6.81,4.08-.57,7.39-4.52,7.5-8.91l10.15-1.43c.12,4.36,3.39,7.38,7.44,6.81,4.08-.57,7.36-4.51,7.5-8.91l10.15-1.43c.09,4.36,3.36,7.38,7.47,6.81,4.06-.57,7.34-4.51,7.45-8.9l10.18-1.43c.09,4.36,3.39,7.38,7.44,6.81,4.06-.57,7.36-4.51,7.5-8.91l10.15-1.43c.12,4.36,3.39,7.38,7.44,6.81,4.08-.57,7.36-4.51,7.47-8.91l10.18-1.43c.09,4.36,3.36,7.38,7.44,6.81,4.06-.57,7.34-4.51,7.47-8.91l10.15-1.43c.12,4.36,3.41,7.38,7.47,6.81,4.06-.57,7.36-4.51,7.5-8.91l7.41-1.04Z" style="fill:#fff;"/><g><polygon points="859.24 467.94 859.22 477.43 741.82 493.93 741.84 484.44 859.24 467.94" style="fill:#d3c4f7;"/><polygon points="964.62 453.13 964.6 462.62 898.44 471.92 898.46 462.43 964.62 453.13" style="fill:#d3c4f7;"/><polygon points="805.1 500.75 805.08 510.24 741.77 519.14 741.79 509.65 805.1 500.75" style="fill:#d3c4f7;"/><polygon points="964.57 478.34 964.55 487.83 913.29 495.03 913.3 485.54 964.57 478.34" style="fill:#d3c4f7;"/><polygon points="836.82 521.52 836.8 530.98 741.72 544.34 741.74 534.88 836.82 521.52" style="fill:#d3c4f7;"/><polygon points="964.53 503.57 964.51 513.03 909.18 520.81 909.2 511.35 964.53 503.57" style="fill:#d3c4f7;"/><g><path d="M875.41,409.26c1.11-.16,2.01,.7,2.01,1.92,0,1.2-.91,2.3-2.02,2.46s-2.01-.7-2.01-1.89c0-1.22,.91-2.33,2.02-2.49Z" style="fill:#c0abf3;"/><path d="M882.85,408.22c1.13-.16,2.04,.69,2.04,1.92,0,1.2-.91,2.3-2.04,2.46-1.11,.16-2.01-.7-2.01-1.89,0-1.22,.91-2.33,2.02-2.49Z" style="fill:#c0abf3;"/><path d="M890.3,407.17c1.11-.16,2.01,.7,2.01,1.92,0,1.2-.91,2.3-2.02,2.46-1.13,.16-2.04-.69-2.04-1.89,0-1.22,.91-2.33,2.04-2.49Z" style="fill:#c0abf3;"/><path d="M897.74,406.12c1.11-.16,2.01,.7,2.01,1.92,0,1.2-.91,2.3-2.02,2.46-1.11,.16-2.01-.7-2.01-1.89,0-1.22,.91-2.33,2.02-2.49Z" style="fill:#c0abf3;"/><path d="M905.17,405.08c1.13-.16,2.04,.69,2.04,1.92,0,1.2-.91,2.3-2.04,2.46-1.11,.16-2.01-.7-2.01-1.89,0-1.22,.91-2.33,2.02-2.49Z" style="fill:#c0abf3;"/><path d="M912.62,404.03c1.11-.16,2.01,.7,2.01,1.92,0,1.2-.91,2.3-2.02,2.46-1.13,.16-2.04-.69-2.04-1.89,0-1.22,.91-2.33,2.04-2.49Z" style="fill:#c0abf3;"/><polygon points="939 376.54 938.98 385.48 767.72 409.55 767.73 400.61 939 376.54" style="fill:#c0abf3;"/><polygon points="898.24 569.79 898.21 586.81 807.79 599.51 807.82 582.49 898.24 569.79" style="fill:#c0abf3;"/><polygon points="844.42 446.21 844.4 457.47 741.86 471.88 741.88 460.62 844.42 446.21" style="fill:#c0abf3;"/><polygon points="964.66 429.31 964.64 440.57 919.24 446.95 919.27 435.69 964.66 429.31" style="fill:#c0abf3;"/><path d="M793.59,420.76c1.11-.16,2.01,.7,2.01,1.92,0,1.2-.91,2.3-2.02,2.46-1.13,.16-2.04-.69-2.04-1.89,0-1.22,.91-2.33,2.04-2.49Z" style="fill:#c0abf3;"/><path d="M801.02,419.72c1.11-.16,2.01,.7,2.01,1.92,0,1.2-.91,2.3-2.02,2.46-1.11,.16-2.01-.7-2.01-1.89,0-1.22,.91-2.33,2.02-2.49Z" style="fill:#c0abf3;"/><path d="M808.45,418.67c1.13-.16,2.01,.7,2.01,1.92,0,1.2-.89,2.3-2.02,2.46-1.11,.16-2.01-.7-2.01-1.89,0-1.22,.91-2.33,2.02-2.49Z" style="fill:#c0abf3;"/><path d="M815.91,417.62c1.11-.16,2.01,.7,2.01,1.92,0,1.2-.91,2.3-2.02,2.46-1.13,.16-2.04-.69-2.04-1.89,0-1.22,.91-2.33,2.04-2.49Z" style="fill:#c0abf3;"/><path d="M823.34,416.58c1.11-.16,2.01,.7,2.01,1.92,0,1.2-.91,2.3-2.02,2.46-1.13,.16-2.01-.7-2.01-1.89,0-1.22,.89-2.33,2.02-2.49Z" style="fill:#c0abf3;"/><path d="M830.77,415.53c1.11-.16,2.01,.7,2.01,1.92,0,1.2-.91,2.3-2.02,2.46-1.11,.16-2.01-.7-2.01-1.89,0-1.22,.91-2.33,2.02-2.49Z" style="fill:#c0abf3;"/><path d="M838.2,414.49c1.13-.16,2.04,.69,2.04,1.92,0,1.2-.91,2.3-2.04,2.46-1.11,.16-2.01-.7-2.01-1.89,0-1.22,.91-2.33,2.02-2.49Z" style="fill:#c0abf3;"/><path d="M845.66,413.44c1.11-.16,2.01,.7,2.01,1.92,0,1.2-.91,2.3-2.02,2.46-1.13,.16-2.01-.7-2.01-1.89,0-1.22,.89-2.33,2.02-2.49Z" style="fill:#c0abf3;"/><path d="M853.09,412.4c1.11-.16,2.01,.7,2.01,1.92,0,1.2-.91,2.3-2.02,2.46s-2.01-.7-2.01-1.89c0-1.22,.91-2.33,2.02-2.49Z" style="fill:#c0abf3;"/><path d="M860.52,411.35c1.13-.16,2.04,.69,2.04,1.92,0,1.2-.91,2.3-2.04,2.46-1.11,.16-2.01-.7-2.01-1.89,0-1.22,.91-2.33,2.02-2.49Z" style="fill:#c0abf3;"/><path d="M867.98,410.3c1.11-.16,2.01,.7,2.01,1.92,0,1.2-.91,2.3-2.02,2.46-1.13,.16-2.04-.69-2.04-1.89,0-1.22,.91-2.33,2.04-2.49Z" style="fill:#c0abf3;"/></g><polygon points="759.33 623.8 759.28 654.01 750.06 655.31 750.11 625.1 759.33 623.8" style="fill:#6d3be4;"/><polygon points="772.84 621.91 772.78 652.12 763.59 653.41 763.64 623.2 772.84 621.91" style="fill:#6d3be4;"/><polygon points="786.37 620.01 786.31 650.21 777.09 651.51 777.15 621.3 786.37 620.01" style="fill:#6d3be4;"/><polygon points="813.4 616.21 813.34 646.42 804.15 647.71 790.62 649.61 790.67 619.4 804.2 617.5 813.4 616.21" style="fill:#6d3be4;"/><polygon points="826.93 614.3 826.87 644.51 817.65 645.81 817.71 615.6 826.93 614.3" style="fill:#6d3be4;"/><polygon points="840.46 612.4 840.4 642.61 831.18 643.91 831.23 613.7 840.46 612.4" style="fill:#6d3be4;"/><polygon points="853.96 610.51 853.9 640.72 844.71 642.01 844.76 611.8 853.96 610.51" style="fill:#6d3be4;"/><polygon points="863.08 609.22 863.02 639.43 858.41 640.08 858.47 609.87 863.08 609.22" style="fill:#6d3be4;"/><polygon points="869.86 608.27 869.8 638.48 865.19 639.13 865.25 608.92 869.86 608.27" style="fill:#6d3be4;"/><polygon points="876.61 607.32 876.55 637.53 871.94 638.18 872 607.97 876.61 607.32" style="fill:#6d3be4;"/><polygon points="890.64 605.35 890.58 635.56 878.69 637.23 878.75 607.02 890.64 605.35" style="fill:#6d3be4;"/><polygon points="901.73 603.79 901.67 634 892.45 635.3 892.5 605.09 901.73 603.79" style="fill:#6d3be4;"/><polygon points="915.25 601.89 915.2 632.1 905.98 633.4 906.03 603.19 915.25 601.89" style="fill:#6d3be4;"/><polygon points="928.78 599.99 928.73 630.2 919.51 631.5 919.56 601.29 928.78 599.99" style="fill:#6d3be4;"/><polygon points="955.81 596.19 955.76 626.4 946.54 627.7 933.01 629.6 933.07 599.39 946.59 597.49 955.81 596.19" style="fill:#6d3be4;"/></g></g></g><path d="M995.41,540v265.99l-284.95,40.05v-289.62l261.55-36.76c12.36-1.74,23.4,7.86,23.4,20.34Z" style="fill:#9875ec; opacity:.2;"/><g><path d="M1034.78,529.51c12.21-1.72,22.11,7.6,22.09,20.82l-.45,241.85c-.02,13.22-9.97,25.33-22.18,27.04l-374.03,52.57c-12.25,1.72-22.15-7.6-22.13-20.81l.45-241.85c.02-13.22,9.97-25.33,22.22-27.05l374.03-52.57Z" style="fill:url(#q);"/><path d="M1040.46,533.73c12.21-1.72,22.11,7.6,22.09,20.82l-.45,241.85c-.02,13.22-9.97,25.33-22.18,27.04l-374.03,52.57c-12.25,1.72-22.15-7.6-22.13-20.81l.45-241.85c.02-13.22,9.97-25.33,22.22-27.05l374.03-52.57Z" style="fill:url(#r);"/><g style="opacity:.6;"><path d="M799.67,610.12v3.5l-6.53,.92c-1.06,.15-1.9,.61-2.57,1.4-.64,.75-.97,1.63-.97,2.56l-.03,18.42c0,.97,.32,1.72,.96,2.33,.67,.56,1.51,.79,2.57,.64l6.52-.92v3.5l-6.08,.85c-2.51,.35-4.4-.04-5.72-1.14-1.35-1.13-1.99-3.02-1.98-5.62l.03-16.65c0-2.64,.65-4.7,2-6.18,1.32-1.5,3.22-2.43,5.72-2.78l6.08-.85Z" style="fill:#fff;"/><path d="M818.89,625.59l5.92,13.35-4.08,.57-5.5-12.61-4.18,.59-.02,13.39-3.73,.52,.06-32.37,8.04-1.13c2.44-.34,4.27-.01,5.53,.96,1.22,.97,1.86,2.72,1.85,5.22v4.44c-.01,3.47-1.3,5.84-3.88,7.06Zm-3.02-2.25c1.09-.15,1.9-.54,2.38-1.17,.52-.59,.77-1.5,.78-2.68v-5.31c.01-1.18-.24-1.98-.76-2.42-.48-.45-1.28-.62-2.38-.46l-4.82,.68-.02,12.04,4.82-.68" style="fill:#fff;"/><polygon points="846.21 603.58 846.2 606.95 835.63 608.43 835.61 619.05 845.12 617.71 845.12 621.08 835.6 622.41 835.58 634.07 846.16 632.58 846.15 635.95 831.85 637.96 831.91 605.59 846.21 603.58" style="fill:#fff;"/><path d="M868.29,602.18c1.28,.93,1.96,2.67,1.95,5.24l-.03,17.87c0,2.64-.59,4.59-1.71,5.86-1.13,1.27-2.99,2.09-5.6,2.45l-8.81,1.24,.06-32.37,8.29-1.17c2.57-.36,4.53-.08,5.85,.88Zm-1.81,24.08l.03-18.73c0-1.01-.29-1.8-.86-2.31-.58-.51-1.32-.72-2.25-.59l-5.53,.78-.05,25.43,5.46-.77c1.09-.15,1.9-.51,2.41-1.14,.51-.63,.77-1.5,.78-2.68" style="fill:#fff;"/><polygon points="891.05 597.28 891.04 600.64 887.19 601.19 887.14 626.82 890.99 626.28 890.99 629.65 879.55 631.25 879.55 627.89 883.41 627.35 883.46 601.71 879.6 602.25 879.61 598.89 891.05 597.28" style="fill:#fff;"/><polygon points="917.15 593.61 917.14 597.11 910.33 598.07 910.27 626.94 906.55 627.46 906.6 598.6 899.78 599.55 899.79 596.05 917.15 593.61" style="fill:#fff;"/><path d="M961.67,587.35v3.5l-6.53,.92c-1.06,.15-1.9,.61-2.57,1.4-.64,.75-.97,1.63-.97,2.56l-.03,18.42c0,.97,.32,1.72,.96,2.33,.67,.56,1.51,.79,2.57,.64l6.52-.92v3.5l-6.08,.85c-2.51,.35-4.4-.04-5.72-1.14-1.35-1.13-1.99-3.02-1.98-5.62l.03-16.65c0-2.64,.65-4.7,2-6.18,1.32-1.5,3.22-2.43,5.73-2.78l6.07-.85Z" style="fill:#fff;"/><path d="M980.44,584.72l7.04,31.37-3.79,.53-1.62-7.96-8.36,1.17-1.69,8.42-3.82,.54,7.32-33.39,4.92-.69Zm-6.05,21.56l7.01-.98-3.5-17.16-3.5,18.15" style="fill:#fff;"/><path d="M1004.03,599.57l5.92,13.35-4.08,.57-5.5-12.61-4.18,.59-.02,13.39-3.73,.52,.06-32.37,8.04-1.13c2.44-.34,4.27-.01,5.53,.96,1.22,.97,1.86,2.72,1.85,5.22v4.44c-.01,3.47-1.3,5.84-3.88,7.06Zm-3.02-2.25c1.09-.15,1.9-.54,2.38-1.17,.52-.59,.77-1.5,.78-2.68v-5.31c.01-1.18-.24-1.98-.76-2.42-.48-.45-1.28-.62-2.38-.46l-4.82,.68-.02,12.04,4.82-.68" style="fill:#fff;"/><path d="M1030.29,579.41c1.28,.93,1.96,2.67,1.95,5.24l-.03,17.87c0,2.64-.59,4.59-1.71,5.86s-2.99,2.09-5.6,2.45l-8.81,1.24,.06-32.37,8.29-1.17c2.57-.36,4.53-.08,5.85,.88Zm-1.81,24.08l.03-18.73c0-1.01-.29-1.8-.86-2.31-.58-.51-1.32-.72-2.25-.59l-5.53,.78-.05,25.43,5.46-.77c1.09-.15,1.9-.51,2.41-1.14,.52-.63,.77-1.5,.78-2.68" style="fill:#fff;"/></g><path d="M1054.92,814.96c-3.85,4.5-9.18,7.7-14.99,8.47l-374.04,52.6c-12.26,1.72-22.15-7.64-22.09-20.85l.41-241.84c.06-8.23,3.91-15.99,9.77-21.15-4.38,4.98-7.11,11.61-7.11,18.54l-.47,241.84c0,13.21,9.89,22.51,22.15,20.79l373.98-52.54c4.56-.59,8.83-2.72,12.38-5.86Z" style="fill:url(#s); mix-blend-mode:overlay; opacity:.4;"/><path d="M1062.54,554.57l-.41,241.84c-.06,8.23-3.91,16.05-9.83,21.2,4.5-5.03,7.34-11.79,7.4-18.84l.41-241.84c.06-13.21-9.83-22.51-22.09-20.79l-373.98,52.54c-4.56,.59-8.83,2.72-12.38,5.86,3.85-4.38,9.06-7.46,14.81-8.23l373.98-52.6c12.2-1.72,22.15,7.58,22.09,20.85Z" style="fill:url(#t); mix-blend-mode:overlay; opacity:.4;"/><path d="M768.62,655.4l-63.09,8.87c-5.89,.83-10.7,6.67-10.71,13.04l-.1,55.45c-.01,6.36,4.77,10.86,10.66,10.03l63.09-8.87c5.93-.83,10.73-6.68,10.75-13.04l.1-55.45c.01-6.36-4.77-10.86-10.7-10.03Z" style="fill:#9570eb; mix-blend-mode:color-dodge; opacity:.7;"/><path d="M1007.72,759.76c-11.41,1.6-20.67,13.66-20.69,26.91-.02,13.26,9.2,22.71,20.61,21.11,11.41-1.6,20.67-13.66,20.69-26.91,.02-13.26-9.2-22.71-20.61-21.11Z" style="fill:#fff; opacity:.8;"/><g style="opacity:.8;"><path d="M992.8,728.58v-5.66c.01-.82-.21-1.53-.71-2.03-.46-.55-1.03-.76-1.71-.66l-8.67,1.22-.84,.57c-.23,.32-.38,.71-.38,1.12,0,.41,.15,.76,.38,1.01l.84,.33,8.67-1.22v5.83c-.01,.41-.13,.8-.36,1.12l-.88,.57-4.91,.69-.84,.57c-.27,.32-.38,.71-.38,1.12,0,.41,.11,.76,.38,1.01l.84,.33,4.91-.69,.84,.33c.23,.26,.38,.6,.38,1.01v5.91l-8.57,1.2-.88,.57c-.23,.32-.34,.7-.34,1.12,0,.41,.11,.76,.34,1.02l.87,.33,8.56-1.2c.68-.1,1.26-.46,1.75-1.15,.5-.64,.73-1.42,.73-2.24v-5.91c.01-1.07-.33-2.05-1.01-2.89,.65-.91,.99-2.03,.99-3.34Z" style="fill:#fff;"/><path d="M722.39,757.88l-8.67,1.22-.88,.57c-.23,.32-.34,.71-.34,1.12,0,.41,.11,.76,.34,1.02l.87,.33,8.67-1.22v7.35l-7.39,1.04c-.68,.1-1.26,.46-1.71,1.14-.5,.69-.73,1.41-.73,2.28l-.02,10.43,11.03-1.55,.88-.57c.23-.32,.34-.7,.34-1.12,0-.41-.11-.76-.34-1.02l-.87-.33-8.59,1.21v-7.39l7.39-1.04c.65-.09,1.22-.5,1.71-1.14,.5-.69,.72-1.41,.73-2.28v-7.35c.02-.82-.21-1.53-.71-2.03-.49-.55-1.06-.75-1.71-.66Z" style="fill:#fff;"/><path d="M903.47,741.13v-5.66c.01-.82-.21-1.53-.71-2.03-.46-.55-1.02-.76-1.71-.66l-8.67,1.22-.84,.57c-.23,.32-.34,.71-.34,1.12,0,.41,.11,.76,.34,1.02l.84,.33,8.67-1.22v5.83c-.01,.41-.13,.8-.36,1.12l-.88,.57-4.91,.69-.84,.57c-.27,.32-.38,.71-.38,1.12,0,.41,.11,.76,.38,1.01l.84,.33,4.91-.69,.84,.33c.23,.26,.38,.6,.38,1.01v5.91l-8.57,1.2-.88,.57c-.23,.32-.34,.71-.34,1.12,0,.41,.11,.76,.34,1.02l.87,.33,8.56-1.2c.68-.1,1.26-.46,1.75-1.15,.5-.64,.73-1.41,.73-2.24v-5.91c.01-1.07-.33-2.05-1.01-2.89,.69-.92,.99-2.03,.99-3.34Z" style="fill:#fff;"/><path d="M918.89,730.26l-8.63,1.21-.88,.57c-.23,.32-.34,.7-.34,1.12,0,.41,.11,.76,.34,1.02l.87,.33,8.63-1.21v7.35l-7.35,1.03c-.68,.1-1.26,.46-1.71,1.14-.5,.69-.73,1.42-.73,2.28l-.02,10.43,11.03-1.55,.84-.57c.27-.32,.38-.71,.38-1.12,0-.41-.11-.76-.38-1.01l-.84-.33-8.59,1.21v-7.39l7.35-1.03c.68-.1,1.26-.5,1.75-1.15,.5-.69,.73-1.41,.73-2.28v-7.35c.02-.82-.21-1.53-.7-2.03-.49-.55-1.06-.75-1.75-.66Z" style="fill:#fff;"/><path d="M811.68,745.33l-8.63,1.21-.88,.57c-.23,.32-.34,.7-.34,1.12,0,.41,.11,.76,.34,1.02l.87,.33,8.63-1.21v7.35l-7.35,1.03c-.68,.1-1.26,.46-1.71,1.14-.5,.69-.73,1.41-.73,2.28l-.02,10.43,11.03-1.55,.88-.57c.23-.32,.34-.7,.34-1.12,0-.41-.11-.76-.34-1.02l-.87-.33-8.59,1.21v-7.39l7.35-1.03c.68-.1,1.26-.5,1.75-1.15,.5-.69,.72-1.42,.73-2.28v-7.35c.01-.82-.21-1.53-.71-2.03-.49-.55-1.06-.75-1.75-.66Z" style="fill:#fff;"/><path d="M972.51,722.73l-8.67,1.22-.88,.57c-.23,.32-.34,.7-.34,1.12,0,.41,.11,.76,.34,1.02l.87,.33,8.67-1.22v7.35l-7.39,1.04c-.65,.09-1.22,.46-1.71,1.14-.5,.68-.73,1.41-.73,2.28l-.02,10.43,11.03-1.55,.88-.57c.23-.32,.34-.7,.34-1.12,0-.41-.11-.76-.34-1.02l-.87-.33-8.59,1.21v-7.39l7.39-1.04c.65-.09,1.26-.5,1.71-1.14,.5-.69,.73-1.41,.73-2.28v-7.35c.02-.82-.21-1.53-.7-2.03-.46-.55-1.06-.75-1.71-.66Z" style="fill:#fff;"/><path d="M1009.37,730.6l-.88,.57-.34,1.12v6.28l-2.45,.34,.04-20.85-6.08,.86-.88,.57c-.23,.32-.34,.7-.34,1.12,0,.41,.11,.76,.34,1.02l.87,.33,3.65-.51-.03,17.81-3.73,.52-.84,.57-.38,1.08c0,.41,.11,.76,.38,1.06l.84,.33,9.81-1.38,.84-.57c.27-.32,.38-.71,.38-1.12v-7.8c.02-.41-.1-.76-.36-1.01l-.84-.33Z" style="fill:#fff;"/><path d="M1028.08,728.42l-.84-.33-.88,.57-.34,1.12v6.28l-2.45,.34,.04-20.85-6.08,.86-.88,.57c-.23,.32-.34,.71-.34,1.12,0,.41,.11,.76,.34,1.02l.87,.33,3.65-.51-.03,17.81-3.73,.52-.88,.57-.34,1.07c0,.41,.11,.76,.34,1.06l.87,.33,9.81-1.38,.84-.57c.23-.32,.34-.71,.34-1.12v-7.8c.02-.41-.1-.76-.33-1.02Z" style="fill:#fff;"/><path d="M794.96,760.73l-.88,.57-.34,1.12v6.28l-2.45,.34,.04-20.85-6.08,.86-.88,.57c-.23,.32-.34,.71-.34,1.12,0,.41,.11,.76,.34,1.02l.87,.33,3.69-.52-.03,17.81-3.73,.52-.88,.57-.34,1.07c0,.41,.11,.76,.34,1.06l.87,.33,9.77-1.37,.88-.57c.23-.32,.34-.7,.34-1.12v-7.8c.02-.41-.1-.76-.33-1.02l-.87-.33Z" style="fill:#fff;"/><path d="M705.63,773.29l-.88,.57-.34,1.12v6.28l-2.45,.34,.04-20.85-6.08,.86-.84,.57c-.27,.32-.38,.71-.38,1.12,0,.41,.11,.76,.38,1.01l.84,.33,3.69-.52-.03,17.81-3.73,.52-.88,.57-.34,1.07c0,.41,.11,.76,.34,1.06l.87,.33,9.77-1.37,.88-.57c.23-.32,.34-.71,.34-1.12v-7.8c.02-.41-.1-.76-.33-1.02l-.87-.33Z" style="fill:#fff;"/><path d="M937.88,740.64l-.84,.57-.34,1.12v6.28l-2.45,.34,.04-20.85-6.08,.86-.88,.57c-.23,.32-.34,.7-.34,1.12,0,.41,.11,.76,.34,1.02l.87,.33,3.65-.51-.03,17.81-3.73,.52-.88,.57-.34,1.07c0,.41,.11,.76,.34,1.06l.87,.33,9.77-1.37,.88-.57c.23-.32,.34-.71,.34-1.12v-7.8c.02-.41-.1-.76-.33-1.02l-.87-.33Z" style="fill:#fff;"/><path d="M883.72,748.21l.02-8.87c0-.41-.11-.76-.34-1.02l-.87-.33-.84,.57c-.23,.32-.34,.7-.34,1.12l-.02,8.87-4.87,.68,.02-11.49c0-.41-.11-.76-.38-1.06l-.84-.33-.88,.57c-.23,.36-.38,.75-.38,1.16l-.03,14.57,7.34-1.03v6.28c-.01,.41,.1,.76,.33,1.02l.84,.33,.88-.57c.23-.32,.34-.71,.34-1.12v-6.32l.89-.57c.23-.32,.34-.7,.34-1.12,0-.41-.11-.76-.34-1.02l-.87-.33Z" style="fill:#fff;"/><path d="M848.01,753.23l.02-8.87c0-.41-.11-.76-.38-1.01l-.84-.33-.88,.57c-.23,.32-.34,.7-.34,1.12l-.02,8.87-4.87,.68,.02-11.49c0-.41-.11-.76-.34-1.06l-.87-.33-.88,.57c-.23,.36-.34,.75-.34,1.16l-.03,14.57,7.3-1.03v6.28c-.01,.41,.1,.76,.33,1.02l.87,.33,.84-.57c.27-.32,.38-.71,.38-1.12v-6.32l.85-.57c.27-.32,.38-.71,.38-1.12,0-.41-.11-.76-.38-1.01l-.84-.33Z" style="fill:#fff;"/><path d="M832.01,751.17v-5.66c.01-.82-.21-1.53-.71-2.03-.46-.55-1.03-.76-1.71-.66l-8.67,1.22-.84,.57c-.27,.32-.38,.71-.38,1.12,0,.41,.11,.76,.38,1.01l.84,.33,8.67-1.22v5.83c-.01,.41-.13,.8-.36,1.12l-.88,.57-4.91,.69-.88,.57c-.23,.32-.34,.71-.34,1.12,0,.41,.11,.76,.34,1.02l.87,.33,4.87-.68,.87,.33c.23,.26,.34,.61,.34,1.02v5.91l-8.57,1.2-.84,.57c-.23,.32-.34,.71-.34,1.12,0,.41,.11,.76,.34,1.02l.84,.33,8.59-1.21c.68-.1,1.26-.46,1.75-1.15,.46-.64,.72-1.41,.73-2.24v-5.91c.01-1.07-.33-2.05-1.01-2.89,.65-.91,.99-2.03,.99-3.34Z" style="fill:#fff;"/><path d="M758.68,765.79l.02-8.87c0-.41-.11-.76-.38-1.01l-.84-.33-.88,.57c-.23,.32-.34,.71-.34,1.12l-.02,8.87-4.87,.68,.02-11.49c0-.41-.11-.76-.34-1.06l-.87-.33-.88,.57c-.23,.36-.34,.75-.34,1.16l-.03,14.57,7.3-1.03v6.28c-.01,.41,.1,.76,.33,1.02l.87,.33,.84-.57c.27-.32,.38-.71,.38-1.12v-6.32l.85-.57c.23-.32,.38-.71,.38-1.12,0-.41-.15-.76-.38-1.01l-.84-.33Z" style="fill:#fff;"/><path d="M742.68,763.73v-5.66c.01-.82-.21-1.53-.71-2.03-.46-.55-1.03-.76-1.71-.66l-8.67,1.22-.84,.57c-.27,.32-.38,.71-.38,1.12,0,.41,.11,.76,.38,1.01l.84,.33,8.67-1.22v5.83c-.01,.41-.13,.8-.36,1.12l-.88,.57-4.91,.69-.88,.57c-.23,.32-.34,.7-.34,1.12,0,.41,.11,.76,.34,1.02l.87,.33,4.87-.68,.87,.33c.23,.26,.34,.61,.34,1.02v5.91l-8.57,1.2-.84,.57c-.23,.32-.34,.7-.34,1.12,0,.41,.11,.76,.34,1.02l.84,.33,8.59-1.21c.68-.1,1.26-.46,1.75-1.15,.46-.64,.73-1.42,.73-2.24v-5.91c.01-1.07-.33-2.05-1.01-2.89,.65-.91,.99-2.03,.99-3.34Z" style="fill:#fff;"/></g><path d="M1000.76,539.3l-269.74,327.53-65.11,9.17c-12.25,1.71-22.15-7.58-22.15-20.82l.47-241.86c0-13.19,9.98-25.32,22.19-27.03l334.34-46.99Z" style="fill:#fff; opacity:.2;"/></g></g><g><path d="M501.06,300.19c2.15,1.28,42.98,25.66,119.02,14.97,7.97-1.12,16.3-2.64,24.98-4.63l-.2,107.11c-.08,43.41-11.66,87.69-34.13,126.95-21.27,37.09-55.55,78.49-110.33,110.92-54.72-17.04-88.83-48.83-109.97-79.96-22.37-32.96-33.76-74.01-33.68-117.42l.2-107.11c8.67-.45,17.01-1.27,24.97-2.39,76.04-10.69,116.98-46.56,119.13-48.44Z" style="fill:#9875ec; opacity:.15;"/><path d="M509.94,306.36c2.15,1.28,42.98,25.66,119.02,14.97,7.97-1.12,16.3-2.64,24.98-4.63l-.2,107.11c-.08,43.41-11.66,87.69-34.13,126.95-21.27,37.09-55.55,78.49-110.33,110.92-54.72-17.04-88.83-48.83-109.97-79.96-22.37-32.96-33.76-74.01-33.68-117.42l.2-107.11c8.67-.45,17.01-1.27,24.97-2.39,76.04-10.69,116.98-46.56,119.13-48.44Z" style="fill:#fff;"/><g><path d="M502.33,633.43c-38.71-13.13-69.42-36.11-91.31-68.35-19.3-28.43-29.46-64.03-29.39-102.94l.16-88.94c4.37-.4,8.72-.91,13.02-1.51,58.53-8.23,96.38-32.08,111.05-42.95,12.12,5.54,37.26,14.32,74.85,14.32,11.84,0,24.16-.89,36.63-2.64,3.19-.45,6.41-.96,9.64-1.53l5.63,3.01c-.07,39.21-16.34,160.53-36.09,195.04-22.64,39.47-54.31,71.91-94.18,96.49Z" style="fill:#9875ec; opacity:.15;"/><path d="M507.96,636.44c-38.71-13.13-69.42-36.11-91.31-68.35-19.3-28.43-29.46-64.03-29.39-102.94l.16-88.94c4.37-.4,8.72-.91,13.02-1.51,58.53-8.23,96.38-32.08,111.05-42.95,12.12,5.54,37.26,14.32,74.85,14.32,11.84,0,24.16-.89,36.63-2.64,3.19-.45,6.41-.96,9.64-1.53l-.16,85.37c-.07,39.21-10.55,78.17-30.3,112.68-22.64,39.47-54.31,71.91-94.18,96.49Z" style="fill:url(#u);"/></g><path d="M639.84,319.57c-22.36,67.17-77.15,189.12-202.28,304.06-15.98-13.07-28.49-27.54-38.25-41.89-22.36-32.98-33.76-74.02-33.67-117.42l.21-107.13c8.65-.43,17.01-1.24,24.97-2.4,76.04-10.67,116.94-46.52,119.13-48.41,2.14,1.24,42.97,25.66,119,14.95,3.56-.51,7.2-1.07,10.88-1.76Z" style="fill:#fff; opacity:.2;"/></g></g></g></g></g></svg>