<?xml version="1.0" encoding="UTF-8"?><svg xmlns="http://www.w3.org/2000/svg" xmlns:xlink="http://www.w3.org/1999/xlink" viewBox="0 0 1246.65 1210"><defs><style>.q{fill:url(#e);}.r{fill:url(#g);}.s{fill:url(#p);}.t{fill:url(#o);}.u{fill:url(#i);}.v{fill:url(#h);}.w{fill:url(#n);}.x{fill:none;}.y{fill:url(#k);}.y,.a`,.aa{mix-blend-mode:overlay;opacity:.4;}.a`{fill:url(#j);}.aa{fill:url(#f);}.ab,.ac,.ad{fill:#fff;}.ae{fill:#f198f2;}.af{fill:#6d3be4;}.ag,.ah,.ai{fill:#9875ec;}.aj{fill:#cebdf6;}.ak{fill:#bea8f3;}.al{fill:#c0abf3;}.am{fill:#d5c7f7;}.an{fill:#d3c4f7;}.ao,.ap{fill:#e1d6f9;}.ap,.aq,.ah{mix-blend-mode:multiply;}.ah{opacity:.3;}.ar{fill:#f8caf8;}.ar,.ai,.ac,.as{opacity:.2;}.at{fill:#9570eb;mix-blend-mode:color-dodge;opacity:.7;}.au{opacity:.6;}.av{opacity:.5;}.aw,.ad{opacity:.8;}.ax{clip-path:url(#l);}.ay{isolation:isolate;}</style><linearGradient id="e" x1="1584.45" y1="959.07" x2="-207.8" y2="1004.77" gradientTransform="translate(7.39 1.25) rotate(.61)" gradientUnits="userSpaceOnUse"><stop offset="0" stop-color="#d5c7f7"/><stop offset=".38" stop-color="#cebdf6"/><stop offset="1" stop-color="#6530e3"/></linearGradient><linearGradient id="f" x1="746.5" y1="1207.66" x2="550.38" y2="781.15" gradientTransform="translate(7.39 1.25) rotate(.61)" gradientUnits="userSpaceOnUse"><stop offset="0" stop-color="#fff"/><stop offset="1" stop-color="#784ae6"/></linearGradient><linearGradient id="g" x1="1276.05" y1="748.98" x2="-52.7" y2="1155.09" xlink:href="#e"/><linearGradient id="h" x1="724.59" y1="1211.8" x2="681.58" y2="361.95" gradientTransform="matrix(1, 0, 0, 1, 0, 0)" xlink:href="#e"/><linearGradient id="i" x1="-267.65" y1="399" x2="1356.03" y2="840.98" gradientTransform="matrix(1, 0, 0, 1, 0, 0)" xlink:href="#e"/><linearGradient id="j" x1="267.82" y1="958.58" x2="985.93" y2="475.29" gradientTransform="matrix(1, 0, 0, 1, 0, 0)" xlink:href="#f"/><linearGradient id="k" x1="747.43" y1="339.47" x2="665.51" y2="1041.88" gradientTransform="matrix(1, 0, 0, 1, 0, 0)" xlink:href="#f"/><clipPath id="l"><path id="m" d="M370.64,533.14v119.01s39.73,11.17,49.55,15.76c9.82,4.58,16.27,7.63,19.18,11.75,2.9,4.12,2.24,7.24,2.24,7.24l.11,373.1-368.32,6.22-4.76-497.97,302-35.11Z" style="fill:none;"/></clipPath><linearGradient id="n" x1="447.17" y1="875.24" x2="223.18" y2="873.75" gradientTransform="matrix(1, 0, 0, 1, 0, 0)" gradientUnits="userSpaceOnUse"><stop offset=".02" stop-color="#a282ee"/><stop offset=".05" stop-color="#9f7eed"/><stop offset=".24" stop-color="#8d67ea"/><stop offset=".46" stop-color="#8156e7"/><stop offset=".69" stop-color="#7a4de6"/><stop offset="1" stop-color="#784ae6"/></linearGradient><linearGradient id="o" x1="296.08" y1="695.04" x2="481.71" y2="695.04" xlink:href="#n"/><linearGradient id="p" x1="295.81" y1="693.63" x2="424.96" y2="694.26" xlink:href="#n"/></defs><g style="isolation:isolate;"><g id="a"/><g id="b"><g id="c"><g id="d"><g><path d="M289.04,1208.98l911.54-132.14c22.31-3.23,29.27-36.22,10.67-50.54l-201.58-155.22c-22.75-17.52-50.37-24.9-77.64-20.74L20.91,989.18c-22.46,3.42-28.39,32.48-10.1,50.83l203.24,149.58c22.18,16.33,48.74,23.19,74.98,19.39Z" style="fill:#9875ec; opacity:.2;"/><path d="M312.22,1170.5l888.39-128.79c38.25-8.17,56.24-58.44,40.15-79.45l-207.91-129.66c-22.75-17.52-50.37-24.9-77.64-20.74L40.96,920.53c-24.47,2.99-29.32,63.98-3.11,83.85l199.38,146.74c22.18,16.33,48.74,23.19,74.98,19.39Z" style="fill:url(#e);"/><path d="M1200.6,1041.73l-888.4,128.75c-26.22,3.83-52.79-3.05-74.98-19.39L37.87,1004.39c-14.24-10.82-19.05-33.83-16.83-53.17,1.3,14.58,6.68,28.86,17,36.68l199.36,146.7c22.19,16.34,48.76,23.22,74.98,19.39l888.4-128.79c42.67-13.03,41.47-28.82,45.22-50.24,4.24,23.99-13.53,59.96-45.39,66.77Z" style="fill:url(#f); mix-blend-mode:overlay; opacity:.4;"/><path d="M312.56,1138.48l911.54-132.14c22.31-3.23,29.27-36.22,10.67-50.54l-201.58-155.22c-22.75-17.52-50.37-24.9-77.64-20.74L44.43,918.68c-22.46,3.42-28.39,32.48-10.1,50.83l203.24,149.58c22.18,16.33,48.74,23.19,74.98,19.39Z" style="fill:#fff;"/><path d="M342.45,1124.16l852.5-123.64c11.35-1.65,15.2-16.09,6.18-23.17l-214.12-167.89c-16.45-12.9-37.48-18.48-58.17-15.42L70.37,920.9c-11.48,1.7-15.19,16.41-5.9,23.35l221.41,165.52c16.2,12.11,36.55,17.29,56.57,14.38Z" style="fill:#e1d6f9;"/><path d="M1205.95,989.8c-.47-3.04-2.01-5.95-4.84-8.18l-214.1-167.88c-16.45-12.89-37.48-18.46-58.17-15.42L70.35,925.2c-6.17,.9-10.07,5.53-10.97,10.71-1.07-6.64,3.17-13.84,10.97-14.99l858.49-126.88c20.69-3.04,41.72,2.53,58.17,15.42l214.1,167.88c4.16,3.26,5.57,8.05,4.84,12.47Z" style="fill:#e1d6f9; mix-blend-mode:multiply;"/><g><g><path d="M1072.85,849.22c-.03,2.66-3.89,4.78-8.62,4.73-4.73-.05-8.55-2.25-8.52-4.91,.03-2.66,3.89-4.78,8.62-4.73,4.73,.05,8.55,2.25,8.52,4.91Z" style="fill:#e1d6f9;"/><path d="M1076.08,860.42h0c-2.04,.7-2.49,3.38-.8,4.71l40.6,32.05c2.87,2.27,6.7,2.92,10.16,1.73h0c2.04-.7,2.49-3.38,.8-4.71l-40.6-32.05c-2.87-2.27-6.7-2.92-10.16-1.73Z" style="fill:#e1d6f9;"/></g><g><path d="M1072.87,846.81c-.03,2.66-3.89,4.78-8.62,4.73-4.73-.05-8.55-2.25-8.52-4.91s3.89-4.78,8.62-4.73c4.73,.05,8.55,2.25,8.52,4.91Z" style="fill:#e1d6f9;"/><path d="M1076.11,858.01h0c-2.04,.7-2.49,3.38-.8,4.71l40.6,32.05c2.87,2.27,6.7,2.92,10.16,1.73h0c2.04-.7,2.49-3.38,.8-4.71l-40.6-32.05c-2.87-2.27-6.7-2.92-10.16-1.73Z" style="fill:#e1d6f9;"/></g><g style="mix-blend-mode:multiply;"><path d="M1072.88,846.83c0,.4-.12,.79-.3,1.19-.88-2.07-4.23-3.66-8.24-3.7-4.01-.04-7.39,1.48-8.32,3.53-.18-.4-.28-.8-.28-1.2,.03-2.68,3.88-4.8,8.62-4.75,4.74,.05,8.55,2.26,8.52,4.94Z" style="fill:#e1d6f9;"/><path d="M1127.89,893.95c0,.4-.12,.79-.3,1.15-.18-.33-.43-.66-.75-.91l-40.6-32.04c-2.87-2.27-6.7-2.93-10.18-1.74-.73,.25-1.24,.75-1.5,1.36-.71-1.38-.11-3.22,1.52-3.78,3.48-1.19,7.31-.54,10.18,1.74l40.6,32.04c.72,.59,1.03,1.39,1.03,2.18Z" style="fill:#e1d6f9;"/></g></g></g><path d="M1245.43,979.71c-.3-8.06-3.73-16.06-10.7-21.45l-201.58-155.21c-22.73-17.51-50.37-24.91-77.62-20.75L45.02,919.46c-13.9,1.68-21.3,14.99-21.82,27.45-.46-13.33,7.42-26.14,21.24-28.22l911.12-138.88c27.25-4.12,54.89,3.24,77.62,20.75l201.58,155.25c7.69,5.91,11.02,15.03,10.67,23.89Z" style="fill:url(#g);"/><path d="M1027.29,866.42c0,6.38-7.54,12.38-18.38,13.96l-556.53,77.63-9.17,1.37-4.93,.73c-31.01,4.63-60.7-6.64-66.31-25.15-2.23-7.24,5.87-14.56,17.99-16.36l570.66-79.73c30.97-4.63,60.66,6.64,66.31,25.15,.26,.81,.34,1.58,.34,2.4Z" style="fill:#9875ec; opacity:.2;"/><g><g><g style="opacity:.2;"><path d="M927.37,0l-1.2,645.02-442.81,62.23,1.2-645.02,12.03-1.69c.19,6.87,5.38,11.63,11.77,10.73,6.39-.9,11.61-7.12,11.82-14.05l16-2.25c.19,6.87,5.34,11.63,11.73,10.74,6.43-.9,11.61-7.12,11.78-14.04l16.04-2.25c.15,6.88,5.3,11.64,11.73,10.74,6.39-.9,11.57-7.11,11.78-14.04l16-2.25c.19,6.87,5.38,11.63,11.77,10.73,6.39-.9,11.61-7.12,11.82-14.05l16-2.25c.15,6.88,5.3,11.64,11.69,10.74,6.43-.9,11.65-7.12,11.82-14.05l16-2.25c.19,6.87,5.34,11.63,11.73,10.74,6.43-.9,11.61-7.12,11.82-14.05l16-2.25c.15,6.88,5.3,11.64,11.77,10.73,6.39-.9,11.57-7.11,11.74-14.03l16.04-2.25c.15,6.88,5.34,11.63,11.73,10.74,6.39-.9,11.61-7.12,11.82-14.05l16-2.25c.19,6.87,5.34,11.63,11.73,10.74,6.43-.9,11.61-7.12,11.78-14.04l16.04-2.25c.15,6.88,5.3,11.64,11.73,10.74,6.39-.9,11.57-7.11,11.78-14.04l16-2.25c.19,6.87,5.38,11.63,11.77,10.73,6.39-.9,11.61-7.12,11.82-14.05l11.68-1.64Z" style="fill:#9875ec;"/></g><g><path d="M924.07,5.78l-1.18,636.61-437.03,61.42,1.18-636.6,11.88-1.67c.18,6.78,5.31,11.48,11.62,10.59,6.31-.89,11.46-7.02,11.66-13.86l15.8-2.22c.18,6.78,5.27,11.48,11.58,10.6,6.35-.89,11.46-7.02,11.62-13.86l15.83-2.23c.14,6.79,5.23,11.49,11.58,10.6,6.31-.89,11.42-7.02,11.62-13.86l15.8-2.22c.18,6.78,5.31,11.48,11.62,10.59,6.31-.89,11.46-7.02,11.66-13.86l15.8-2.22c.14,6.79,5.23,11.49,11.54,10.6,6.35-.89,11.49-7.03,11.66-13.86l15.8-2.22c.18,6.78,5.27,11.48,11.58,10.6,6.35-.89,11.46-7.02,11.66-13.86l15.8-2.22c.14,6.79,5.23,11.49,11.62,10.59,6.31-.89,11.42-7.02,11.59-13.85l15.83-2.23c.14,6.79,5.27,11.48,11.58,10.6,6.31-.89,11.46-7.02,11.66-13.86l15.8-2.22c.18,6.78,5.27,11.48,11.58,10.6,6.35-.89,11.46-7.02,11.62-13.86l15.83-2.23c.14,6.79,5.23,11.49,11.58,10.6,6.31-.89,11.42-7.02,11.62-13.86l15.8-2.22c.18,6.78,5.31,11.48,11.62,10.59,6.31-.89,11.46-7.02,11.66-13.86l11.52-1.62Z" style="fill:#fff;"/><g><polygon points="714.82 295.26 714.79 310.03 532.14 335.7 532.17 320.93 714.82 295.26" style="fill:#d3c4f7;"/><polygon points="878.77 272.22 878.75 286.98 775.82 301.45 775.85 286.69 878.77 272.22" style="fill:#d3c4f7;"/><polygon points="630.59 346.31 630.56 361.07 532.07 374.91 532.09 360.15 630.59 346.31" style="fill:#d3c4f7;"/><polygon points="878.7 311.44 878.67 326.2 798.91 337.41 798.94 322.65 878.7 311.44" style="fill:#d3c4f7;"/><polygon points="679.94 378.62 679.92 393.34 531.99 414.13 532.02 399.41 679.94 378.62" style="fill:#d3c4f7;"/><polygon points="878.63 350.7 878.6 365.42 792.53 377.51 792.55 362.79 878.63 350.7" style="fill:#d3c4f7;"/><g><path d="M739.99,203.97c1.72-.24,3.13,1.08,3.13,2.99,0,1.86-1.42,3.58-3.14,3.83-1.72,.24-3.13-1.08-3.13-2.94,0-1.9,1.42-3.63,3.14-3.87Z" style="fill:#c0abf3;"/><path d="M751.55,202.34c1.76-.25,3.17,1.08,3.17,2.98,0,1.86-1.42,3.58-3.18,3.83-1.72,.24-3.13-1.08-3.13-2.94,0-1.9,1.42-3.63,3.14-3.87Z" style="fill:#c0abf3;"/><path d="M763.15,200.71c1.72-.24,3.13,1.08,3.13,2.99,0,1.86-1.42,3.58-3.14,3.83-1.76,.25-3.17-1.08-3.17-2.94,0-1.9,1.42-3.63,3.18-3.87Z" style="fill:#c0abf3;"/><path d="M774.72,199.08c1.72-.24,3.13,1.08,3.13,2.99,0,1.86-1.42,3.58-3.14,3.83s-3.13-1.08-3.13-2.94c0-1.9,1.42-3.63,3.14-3.87Z" style="fill:#c0abf3;"/><path d="M786.28,197.46c1.76-.25,3.17,1.08,3.17,2.98,0,1.86-1.42,3.58-3.18,3.83-1.72,.24-3.13-1.08-3.13-2.94,0-1.9,1.42-3.63,3.14-3.87Z" style="fill:#c0abf3;"/><path d="M797.88,195.83c1.72-.24,3.13,1.08,3.13,2.99,0,1.86-1.42,3.58-3.14,3.83-1.76,.25-3.17-1.08-3.17-2.94,0-1.9,1.42-3.63,3.18-3.87Z" style="fill:#c0abf3;"/><polygon points="838.91 153.06 838.88 166.97 572.43 204.42 572.46 190.5 838.91 153.06" style="fill:#c0abf3;"/><polygon points="775.5 453.71 775.45 480.19 634.77 499.96 634.82 473.48 775.5 453.71" style="fill:#c0abf3;"/><polygon points="691.76 261.45 691.73 278.97 532.2 301.39 532.24 283.87 691.76 261.45" style="fill:#c0abf3;"/><polygon points="878.84 235.16 878.81 252.68 808.18 262.6 808.21 245.09 878.84 235.16" style="fill:#c0abf3;"/><path d="M612.68,221.86c1.72-.24,3.13,1.08,3.13,2.99,0,1.86-1.42,3.58-3.14,3.83-1.76,.25-3.17-1.08-3.17-2.94,0-1.9,1.42-3.63,3.18-3.87Z" style="fill:#c0abf3;"/><path d="M624.24,220.23c1.72-.24,3.13,1.08,3.13,2.99,0,1.86-1.42,3.58-3.14,3.83-1.72,.24-3.13-1.08-3.13-2.94,0-1.9,1.42-3.63,3.14-3.87Z" style="fill:#c0abf3;"/><path d="M635.81,218.61c1.76-.25,3.13,1.08,3.13,2.99,0,1.86-1.38,3.58-3.14,3.83-1.72,.24-3.13-1.08-3.13-2.94,0-1.9,1.42-3.63,3.14-3.87Z" style="fill:#c0abf3;"/><path d="M647.41,216.98c1.72-.24,3.13,1.08,3.13,2.99,0,1.86-1.42,3.58-3.14,3.83-1.76,.25-3.17-1.08-3.17-2.94,0-1.9,1.42-3.63,3.18-3.87Z" style="fill:#c0abf3;"/><path d="M658.97,215.35c1.72-.24,3.13,1.08,3.13,2.99,0,1.86-1.42,3.58-3.14,3.83-1.76,.25-3.13-1.08-3.13-2.94,0-1.9,1.38-3.62,3.14-3.87Z" style="fill:#c0abf3;"/><path d="M670.53,213.73c1.72-.24,3.13,1.08,3.13,2.99,0,1.86-1.42,3.58-3.14,3.83-1.72,.24-3.13-1.08-3.13-2.94,0-1.9,1.42-3.63,3.14-3.87Z" style="fill:#c0abf3;"/><path d="M682.1,212.1c1.76-.25,3.17,1.08,3.17,2.98,0,1.86-1.42,3.58-3.18,3.83-1.72,.24-3.13-1.08-3.13-2.94,0-1.9,1.42-3.63,3.14-3.87Z" style="fill:#c0abf3;"/><path d="M693.7,210.47c1.72-.24,3.13,1.08,3.13,2.99,0,1.86-1.42,3.58-3.14,3.83-1.76,.25-3.13-1.08-3.13-2.94,0-1.9,1.38-3.62,3.14-3.87Z" style="fill:#c0abf3;"/><path d="M705.26,208.85c1.72-.24,3.13,1.08,3.13,2.99,0,1.86-1.42,3.58-3.14,3.83-1.72,.24-3.13-1.08-3.13-2.94,0-1.9,1.42-3.63,3.14-3.87Z" style="fill:#c0abf3;"/><path d="M716.82,207.22c1.76-.25,3.17,1.08,3.17,2.98,0,1.86-1.42,3.58-3.18,3.83-1.72,.24-3.13-1.08-3.13-2.94,0-1.9,1.42-3.63,3.14-3.87Z" style="fill:#c0abf3;"/><path d="M728.43,205.59c1.72-.24,3.13,1.08,3.13,2.99,0,1.86-1.42,3.58-3.14,3.83-1.76,.25-3.17-1.08-3.17-2.94,0-1.9,1.42-3.63,3.18-3.87Z" style="fill:#c0abf3;"/></g><polygon points="559.39 537.75 559.3 584.75 544.96 586.77 545.04 539.77 559.39 537.75" style="fill:#6d3be4;"/><polygon points="580.4 534.8 580.31 581.8 566 583.81 566.09 536.81 580.4 534.8" style="fill:#6d3be4;"/><polygon points="601.45 531.84 601.36 578.84 587.01 580.86 587.1 533.86 601.45 531.84" style="fill:#6d3be4;"/><polygon points="643.5 525.93 643.42 572.93 629.11 574.94 608.06 577.9 608.15 530.9 629.2 527.94 643.5 525.93" style="fill:#6d3be4;"/><polygon points="664.55 522.97 664.46 569.98 650.12 571.99 650.21 524.99 664.55 522.97" style="fill:#6d3be4;"/><polygon points="685.6 520.02 685.51 567.02 671.17 569.03 671.25 522.03 685.6 520.02" style="fill:#6d3be4;"/><polygon points="706.61 517.06 706.52 564.06 692.21 566.08 692.3 519.07 706.61 517.06" style="fill:#6d3be4;"/><polygon points="720.8 515.07 720.71 562.07 713.54 563.08 713.62 516.08 720.8 515.07" style="fill:#6d3be4;"/><polygon points="731.34 513.59 731.25 560.59 724.08 561.6 724.17 514.6 731.34 513.59" style="fill:#6d3be4;"/><polygon points="741.84 512.11 741.76 559.11 734.58 560.12 734.67 513.12 741.84 512.11" style="fill:#6d3be4;"/><polygon points="763.68 509.04 763.59 556.04 745.09 558.64 745.18 511.64 763.68 509.04" style="fill:#6d3be4;"/><polygon points="780.92 506.62 780.84 553.62 766.49 555.64 766.58 508.64 780.92 506.62" style="fill:#6d3be4;"/><polygon points="801.97 503.66 801.88 550.66 787.54 552.68 787.63 505.68 801.97 503.66" style="fill:#6d3be4;"/><polygon points="823.02 500.7 822.93 547.7 808.59 549.72 808.67 502.72 823.02 500.7" style="fill:#6d3be4;"/><polygon points="865.08 494.79 864.99 541.79 850.64 543.81 829.6 546.77 829.68 499.77 850.73 496.81 865.08 494.79" style="fill:#6d3be4;"/></g></g></g><path d="M926.67,407.39v413.83l-443.33,62.31V432.94l406.92-57.2c19.23-2.7,36.41,12.23,36.41,31.65Z" style="fill:#9875ec; opacity:.2;"/><g><path d="M987.93,391.05c18.99-2.67,34.4,11.83,34.37,32.39l-.7,376.27c-.04,20.56-15.51,39.4-34.5,42.07l-581.91,81.78c-19.05,2.68-34.46-11.82-34.43-32.38l.7-376.27c.04-20.56,15.51-39.4,34.56-42.08l581.91-81.78Z" style="fill:url(#h);"/><path d="M996.77,397.61c18.99-2.67,34.4,11.83,34.37,32.39l-.7,376.27c-.04,20.56-15.51,39.4-34.5,42.07l-581.91,81.78c-19.05,2.68-34.46-11.82-34.43-32.38l.7-376.27c.04-20.56,15.51-39.4,34.56-42.08l581.91-81.78Z" style="fill:url(#i);"/><g style="opacity:.6;"><path d="M622.14,516.47v5.45l-10.16,1.43c-1.65,.23-2.95,.95-4,2.18-1,1.17-1.5,2.53-1.51,3.99l-.05,28.66c0,1.51,.49,2.68,1.49,3.62,1.05,.88,2.35,1.24,4,1l10.15-1.43v5.45l-9.46,1.33c-3.9,.55-6.85-.06-8.9-1.77-2.1-1.76-3.09-4.69-3.08-8.74l.05-25.91c0-4.1,1.01-7.32,3.12-9.61,2.05-2.34,5.01-3.78,8.91-4.33l9.45-1.33Z" style="fill:#fff;"/><path d="M652.04,540.54l9.21,20.78-6.35,.89-8.56-19.63-6.5,.91-.04,20.83-5.8,.82,.09-50.36,12.5-1.76c3.8-.53,6.65-.02,8.6,1.49,1.9,1.51,2.89,4.23,2.88,8.12v6.91c-.02,5.4-2.03,9.08-6.03,10.99Zm-4.69-3.49c1.7-.24,2.95-.85,3.7-1.82,.8-.92,1.2-2.33,1.21-4.16l.02-8.26c0-1.84-.39-3.07-1.19-3.77-.75-.7-2-.96-3.7-.72l-7.5,1.05-.03,18.73,7.5-1.05" style="fill:#fff;"/><polygon points="694.55 506.29 694.54 511.53 678.09 513.84 678.06 530.35 692.86 528.27 692.85 533.51 678.05 535.59 678.02 553.72 694.47 551.41 694.46 556.65 672.21 559.78 672.3 509.42 694.55 506.29" style="fill:#fff;"/><path d="M728.9,504.11c2,1.45,3.04,4.16,3.03,8.15l-.05,27.8c0,4.1-.91,7.14-2.67,9.12-1.75,1.97-4.66,3.24-8.71,3.81l-13.7,1.93,.09-50.36,12.9-1.81c4-.56,7.05-.13,9.1,1.37Zm-2.82,37.47l.05-29.15c0-1.57-.45-2.8-1.34-3.59-.9-.79-2.05-1.12-3.5-.91l-8.6,1.21-.07,39.56,8.5-1.19c1.7-.24,2.95-.79,3.75-1.77,.8-.98,1.2-2.33,1.21-4.16" style="fill:#fff;"/><polygon points="764.31 496.49 764.3 501.72 758.3 502.56 758.23 542.45 764.23 541.61 764.22 546.84 746.42 549.35 746.43 544.11 752.43 543.27 752.5 503.38 746.5 504.22 746.51 498.99 764.31 496.49" style="fill:#fff;"/><polygon points="804.92 490.78 804.91 496.23 794.31 497.72 794.22 542.63 788.42 543.44 788.51 498.54 777.9 500.03 777.91 494.57 804.92 490.78" style="fill:#fff;"/><path d="M874.18,481.05v5.45l-10.16,1.43c-1.65,.23-2.95,.95-4,2.18-1,1.17-1.5,2.53-1.51,3.99l-.05,28.66c0,1.51,.49,2.68,1.49,3.62,1.05,.88,2.35,1.24,4,1l10.15-1.43v5.45l-9.46,1.33c-3.9,.55-6.85-.06-8.9-1.77-2.1-1.76-3.09-4.69-3.08-8.74l.05-25.91c0-4.1,1.01-7.32,3.12-9.61,2.05-2.34,5.01-3.78,8.91-4.33l9.45-1.33Z" style="fill:#fff;"/><path d="M903.38,476.94l10.96,48.81-5.9,.83-2.53-12.38-13,1.83-2.62,13.1-5.95,.84,11.4-51.95,7.65-1.08Zm-9.41,33.54l10.9-1.53-5.45-26.7-5.45,28.23" style="fill:#fff;"/><path d="M940.09,500.06l9.21,20.78-6.35,.89-8.56-19.63-6.5,.91-.04,20.83-5.8,.82,.09-50.36,12.5-1.76c3.8-.53,6.65-.02,8.6,1.49,1.9,1.51,2.89,4.23,2.88,8.12v6.91c-.02,5.4-2.03,9.08-6.03,10.99Zm-4.69-3.49c1.7-.24,2.95-.85,3.7-1.82,.8-.92,1.2-2.33,1.21-4.16l.02-8.26c0-1.84-.39-3.07-1.19-3.77-.75-.7-2-.96-3.7-.72l-7.5,1.05-.03,18.73,7.5-1.05" style="fill:#fff;"/><path d="M980.94,468.68c2,1.45,3.04,4.16,3.03,8.15l-.05,27.8c0,4.1-.91,7.14-2.67,9.12-1.75,1.97-4.66,3.24-8.71,3.81l-13.7,1.93,.09-50.36,12.9-1.81c4-.56,7.05-.13,9.1,1.37Zm-2.82,37.47l.05-29.15c0-1.57-.44-2.8-1.34-3.59-.9-.79-2.05-1.12-3.5-.91l-8.6,1.21-.07,39.56,8.5-1.19c1.7-.24,2.95-.79,3.75-1.77,.8-.98,1.2-2.33,1.21-4.16" style="fill:#fff;"/></g><path d="M1019.26,835.15c-5.99,7-14.28,11.98-23.31,13.18l-581.94,81.83c-19.08,2.67-34.46-11.89-34.37-32.44l.65-376.26c.09-12.81,6.08-24.88,15.2-32.9-6.82,7.74-11.06,18.06-11.06,28.84l-.74,376.26c0,20.55,15.39,35.02,34.46,32.35l581.85-81.74c7.1-.92,13.73-4.24,19.26-9.12Z" style="fill:url(#j); mix-blend-mode:overlay; opacity:.4;"/><path d="M1031.12,430.04l-.65,376.26c-.09,12.81-6.08,24.97-15.3,32.99,7-7.83,11.43-18.34,11.52-29.3l.65-376.26c.09-20.55-15.3-35.02-34.37-32.35l-581.85,81.74c-7.1,.92-13.73,4.24-19.26,9.12,5.99-6.82,14.1-11.61,23.04-12.81l581.85-81.83c18.98-2.67,34.46,11.8,34.37,32.44Z" style="fill:url(#k); mix-blend-mode:overlay; opacity:.4;"/><path d="M573.84,586.91l-98.16,13.8c-9.17,1.29-16.64,10.38-16.66,20.28l-.16,86.28c-.02,9.9,7.42,16.9,16.59,15.61l98.16-13.8c9.23-1.3,16.7-10.39,16.72-20.29l.16-86.28c.02-9.9-7.42-16.9-16.65-15.6Z" style="fill:#9570eb; mix-blend-mode:color-dodge; opacity:.7;"/><path d="M945.84,749.27c-17.75,2.49-32.16,21.25-32.2,41.87-.04,20.63,14.31,35.34,32.06,32.84,17.75-2.49,32.16-21.25,32.2-41.87,.04-20.63-14.31-35.34-32.06-32.84Z" style="fill:#fff; opacity:.8;"/><g style="opacity:.8;"><path d="M922.62,700.76l.02-8.81c0-1.28-.35-2.38-1.12-3.16-.71-.86-1.6-1.18-2.66-1.03l-13.49,1.9-1.3,.89c-.36,.5-.59,1.1-.59,1.74,0,.64,.23,1.18,.59,1.58l1.3,.52,13.49-1.9-.02,9.07c0,.64-.18,1.24-.54,1.74l-1.36,.89-7.63,1.07-1.3,.89c-.42,.51-.59,1.1-.59,1.74,0,.64,.18,1.19,.59,1.58l1.3,.52,7.63-1.07,1.3,.52c.35,.4,.59,.94,.59,1.58l-.02,9.2-13.31,1.87-1.36,.89c-.36,.5-.53,1.1-.54,1.74,0,.64,.18,1.19,.53,1.59l1.36,.51,13.31-1.87c1.06-.15,1.95-.72,2.72-1.79,.77-1,1.13-2.2,1.13-3.48l.02-9.2c0-1.66-.53-3.18-1.59-4.5,1.01-1.42,1.54-3.15,1.55-5.2Z" style="fill:#fff;"/><path d="M501.91,746.35l-13.49,1.9-1.36,.89c-.36,.5-.53,1.1-.54,1.74,0,.64,.18,1.19,.53,1.59l1.36,.51,13.49-1.9-.02,11.43-11.48,1.61c-1.06,.15-1.95,.72-2.66,1.78-.77,1.07-1.13,2.2-1.13,3.54l-.03,16.22,17.16-2.41,1.36-.89c.36-.5,.53-1.1,.54-1.74,0-.64-.18-1.19-.53-1.59l-1.36-.51-13.37,1.88,.02-11.5,11.48-1.61c1.01-.14,1.89-.78,2.67-1.78,.77-1.07,1.13-2.2,1.13-3.54l.02-11.43c0-1.28-.35-2.38-1.12-3.16-.77-.85-1.65-1.17-2.66-1.03Z" style="fill:#fff;"/><path d="M783.64,720.29l.02-8.81c0-1.28-.35-2.38-1.12-3.16-.71-.86-1.59-1.18-2.66-1.03l-13.49,1.9-1.3,.88c-.36,.5-.53,1.1-.54,1.74,0,.64,.18,1.19,.53,1.59l1.3,.52,13.49-1.9-.02,9.07c0,.64-.18,1.24-.54,1.74l-1.36,.89-7.63,1.07-1.3,.89c-.41,.51-.59,1.11-.59,1.74,0,.64,.18,1.19,.59,1.58l1.3,.52,7.63-1.07,1.3,.52c.35,.4,.59,.94,.59,1.58l-.02,9.2-13.31,1.87-1.36,.89c-.36,.5-.53,1.1-.54,1.74,0,.64,.18,1.19,.53,1.59l1.36,.51,13.31-1.87c1.07-.15,1.95-.72,2.72-1.79,.77-1,1.13-2.2,1.13-3.48l.02-9.2c0-1.66-.53-3.18-1.59-4.5,1.07-1.43,1.54-3.15,1.55-5.2Z" style="fill:#fff;"/><path d="M807.62,703.38l-13.43,1.89-1.36,.89c-.36,.5-.53,1.1-.54,1.74s.18,1.19,.53,1.59l1.36,.51,13.43-1.89-.02,11.43-11.42,1.6c-1.06,.15-1.95,.72-2.67,1.78-.77,1.07-1.13,2.2-1.13,3.54l-.03,16.22,17.16-2.41,1.3-.89c.42-.5,.59-1.1,.59-1.74,0-.64-.18-1.19-.59-1.58l-1.3-.52-13.37,1.88,.02-11.5,11.42-1.6c1.07-.15,1.95-.79,2.72-1.79,.77-1.07,1.13-2.2,1.13-3.54l.02-11.43c0-1.28-.35-2.38-1.12-3.16-.77-.85-1.65-1.17-2.72-1.02Z" style="fill:#fff;"/><path d="M640.83,726.83l-13.43,1.89-1.36,.89c-.36,.5-.53,1.1-.54,1.74,0,.64,.17,1.19,.53,1.59l1.36,.51,13.43-1.89-.02,11.43-11.42,1.6c-1.06,.15-1.95,.72-2.66,1.78-.77,1.07-1.13,2.2-1.13,3.54l-.03,16.22,17.16-2.41,1.36-.89c.36-.5,.53-1.1,.54-1.73,0-.64-.17-1.19-.53-1.59l-1.36-.51-13.37,1.88,.02-11.5,11.42-1.6c1.06-.15,1.95-.78,2.72-1.79,.77-1.07,1.13-2.2,1.13-3.54l.02-11.43c0-1.28-.35-2.38-1.12-3.16-.77-.85-1.65-1.17-2.72-1.02Z" style="fill:#fff;"/><path d="M891.05,691.66l-13.49,1.9-1.36,.89c-.36,.5-.53,1.1-.54,1.74,0,.64,.18,1.19,.53,1.59l1.36,.51,13.49-1.9-.02,11.43-11.48,1.61c-1.01,.14-1.89,.71-2.67,1.78-.77,1.07-1.13,2.2-1.13,3.54l-.03,16.22,17.16-2.41,1.36-.89c.36-.5,.53-1.1,.54-1.74,0-.64-.18-1.19-.53-1.59l-1.36-.51-13.37,1.88,.02-11.5,11.48-1.61c1.01-.14,1.95-.78,2.67-1.78,.77-1.07,1.13-2.2,1.13-3.54l.02-11.43c0-1.28-.35-2.38-1.12-3.16-.71-.86-1.65-1.17-2.66-1.03Z" style="fill:#fff;"/><path d="M948.4,703.9l-1.36,.89-.54,1.74-.02,9.77-3.79,.53,.06-32.44-9.47,1.33-1.36,.89c-.36,.5-.53,1.1-.54,1.74,0,.64,.17,1.19,.53,1.59l1.36,.51,5.68-.8-.05,27.72-5.8,.82-1.3,.88-.59,1.68c0,.64,.18,1.19,.59,1.64l1.3,.52,15.27-2.15,1.3-.89c.42-.51,.59-1.1,.6-1.74l.02-12.13c0-.64-.18-1.19-.59-1.58l-1.3-.52Z" style="fill:#fff;"/><path d="M977.51,700.51l-1.3-.52-1.36,.89-.54,1.74-.02,9.77-3.79,.53,.06-32.44-9.47,1.33-1.36,.89c-.36,.5-.53,1.1-.54,1.74,0,.64,.17,1.19,.53,1.59l1.36,.51,5.68-.8-.05,27.72-5.8,.82-1.36,.89-.54,1.67c0,.64,.18,1.19,.53,1.65l1.36,.51,15.26-2.15,1.3-.89c.36-.5,.53-1.1,.54-1.74l.02-12.13c0-.64-.18-1.19-.53-1.59Z" style="fill:#fff;"/><path d="M614.82,750.78l-1.36,.89-.54,1.74-.02,9.77-3.79,.53,.06-32.44-9.47,1.33-1.36,.89c-.36,.5-.53,1.1-.54,1.74,0,.64,.18,1.19,.53,1.59l1.36,.51,5.74-.81-.05,27.72-5.8,.81-1.36,.89-.54,1.67c0,.64,.18,1.19,.53,1.65l1.36,.51,15.21-2.14,1.36-.89c.36-.5,.53-1.1,.54-1.73l.02-12.13c0-.64-.18-1.19-.53-1.59l-1.36-.51Z" style="fill:#fff;"/><path d="M475.84,770.32l-1.36,.89-.54,1.74-.02,9.77-3.79,.53,.06-32.44-9.47,1.33-1.3,.89c-.41,.51-.59,1.1-.59,1.74,0,.64,.17,1.19,.59,1.58l1.3,.52,5.74-.81-.05,27.72-5.8,.81-1.36,.89-.54,1.67c0,.64,.18,1.19,.53,1.65l1.36,.51,15.21-2.14,1.36-.89c.36-.5,.53-1.1,.54-1.74l.02-12.13c0-.64-.18-1.19-.53-1.59l-1.36-.51Z" style="fill:#fff;"/><path d="M837.17,719.53l-1.3,.89-.54,1.74-.02,9.77-3.79,.53,.06-32.44-9.47,1.33-1.36,.89c-.36,.5-.53,1.1-.54,1.74,0,.64,.18,1.19,.53,1.59l1.36,.51,5.68-.8-.05,27.72-5.8,.82-1.36,.89-.54,1.67c0,.64,.17,1.19,.53,1.65l1.36,.51,15.21-2.14,1.36-.89c.36-.5,.53-1.1,.54-1.74l.02-12.13c0-.64-.18-1.19-.53-1.59l-1.36-.51Z" style="fill:#fff;"/><path d="M752.92,731.31l.03-13.79c0-.64-.17-1.19-.53-1.59l-1.36-.51-1.3,.89c-.36,.5-.53,1.1-.54,1.73l-.03,13.79-7.57,1.06,.03-17.88c0-.64-.18-1.19-.59-1.64l-1.3-.52-1.36,.89c-.36,.56-.59,1.17-.6,1.81l-.04,22.67,11.42-1.6-.02,9.77c0,.64,.17,1.19,.53,1.59l1.3,.52,1.36-.89c.36-.5,.53-1.1,.54-1.74l.02-9.83,1.36-.89c.36-.5,.53-1.1,.54-1.74,0-.64-.18-1.19-.53-1.59l-1.36-.51Z" style="fill:#fff;"/><path d="M697.36,739.12l.03-13.79c0-.64-.18-1.19-.59-1.58l-1.3-.52-1.36,.89c-.36,.5-.53,1.1-.54,1.74l-.03,13.79-7.57,1.06,.03-17.88c0-.64-.18-1.19-.53-1.65l-1.36-.51-1.36,.89c-.36,.56-.53,1.16-.54,1.8l-.04,22.67,11.36-1.6-.02,9.77c0,.64,.18,1.19,.53,1.59l1.36,.51,1.3-.89c.42-.5,.59-1.1,.6-1.74l.02-9.83,1.3-.89c.42-.51,.59-1.1,.6-1.74,0-.64-.18-1.19-.59-1.58l-1.3-.52Z" style="fill:#fff;"/><path d="M672.46,735.92l.02-8.81c0-1.28-.35-2.38-1.12-3.16-.71-.86-1.6-1.18-2.66-1.03l-13.49,1.9-1.3,.89c-.42,.51-.59,1.1-.59,1.74,0,.64,.17,1.19,.59,1.58l1.3,.52,13.49-1.9-.02,9.07c0,.64-.18,1.24-.54,1.74l-1.36,.89-7.63,1.07-1.36,.89c-.36,.5-.53,1.1-.54,1.74,0,.64,.17,1.19,.53,1.59l1.36,.51,7.57-1.06,1.36,.51c.35,.4,.53,.95,.53,1.59l-.02,9.2-13.31,1.87-1.3,.89c-.36,.5-.53,1.1-.54,1.74,0,.64,.18,1.19,.53,1.59l1.3,.52,13.37-1.88c1.06-.15,1.95-.72,2.72-1.79,.71-.99,1.13-2.2,1.13-3.48l.02-9.2c0-1.66-.53-3.18-1.59-4.5,1.01-1.42,1.54-3.15,1.55-5.2Z" style="fill:#fff;"/><path d="M558.37,758.65l.03-13.79c0-.64-.18-1.19-.59-1.58l-1.3-.52-1.36,.89c-.36,.5-.53,1.1-.54,1.74l-.03,13.79-7.57,1.06,.03-17.88c0-.64-.18-1.19-.53-1.65l-1.36-.51-1.36,.89c-.36,.56-.53,1.16-.54,1.8l-.04,22.67,11.36-1.6-.02,9.77c0,.64,.18,1.19,.53,1.59l1.36,.51,1.3-.89c.41-.51,.59-1.1,.59-1.74l.02-9.83,1.3-.89c.36-.5,.59-1.1,.6-1.74,0-.64-.23-1.18-.59-1.58l-1.3-.52Z" style="fill:#fff;"/><path d="M533.48,755.45l.02-8.81c0-1.28-.35-2.38-1.12-3.16-.71-.86-1.6-1.18-2.66-1.03l-13.49,1.9-1.3,.89c-.41,.51-.59,1.1-.59,1.74,0,.64,.18,1.19,.59,1.58l1.3,.52,13.49-1.9-.02,9.07c0,.64-.18,1.24-.54,1.74l-1.36,.89-7.63,1.07-1.36,.89c-.36,.5-.53,1.1-.54,1.74,0,.64,.18,1.19,.53,1.59l1.36,.51,7.57-1.06,1.36,.51c.35,.4,.53,.95,.53,1.59l-.02,9.2-13.31,1.87-1.3,.89c-.36,.5-.53,1.1-.54,1.74,0,.64,.18,1.19,.53,1.59l1.3,.52,13.37-1.88c1.07-.15,1.95-.72,2.72-1.79,.71-.99,1.13-2.2,1.13-3.48l.02-9.2c0-1.66-.53-3.18-1.59-4.5,1.01-1.42,1.54-3.15,1.55-5.2Z" style="fill:#fff;"/></g><path d="M935,406.29l-419.67,509.57-101.3,14.26c-19.06,2.67-34.46-11.8-34.46-32.39l.73-376.28c0-20.53,15.53-39.39,34.52-42.05l520.17-73.11Z" style="fill:#fff; opacity:.2;"/></g></g><path d="M444.64,996.4c4.23,6.67,3.15,15.38-2.57,20.83-33.99,32.38-110.94,61.76-268.9,64.9h-.1c-2.64,0-4.83-1.84-4.88-4.16-.05-2.4,2.16-3.85,4.78-4.41,170.03-36.57,222.57-85.4,243.27-108.44,4-4.46,12.38,11.56,13.7,8.09l14.7,23.19Z" style="fill:#9875ec; opacity:.2;"/><g><g><path d="M243.42,627.29c30.8,5.55,52.56,39.69,48.63,76.27-3.93,36.54-32.06,61.7-62.86,56.15-30.8-5.55-52.56-39.69-48.63-76.24,3.93-36.58,32.06-61.73,62.86-56.18Z" style="fill:#bea8f3;"/><path d="M234.94,629.77c30.8,5.55,52.56,39.69,48.63,76.27-3.93,36.54-32.06,61.7-62.86,56.15-30.8-5.55-52.56-39.69-48.63-76.24,3.93-36.58,32.06-61.73,62.86-56.18Z" style="fill:#d5c7f7;"/><g style="opacity:.5;"><path d="M283.59,706.05c-1.8,16.71-8.65,31.06-18.55,41.17,8.74-9.94,14.78-23.43,16.45-38.94,3.94-36.58-17.82-70.72-48.62-76.29-16.58-2.96-32.38,2.91-44.04,14.69,11.82-13.24,28.53-20.09,46.09-16.92,30.8,5.57,52.56,39.71,48.66,76.29Z" style="fill:#fff;"/></g><path d="M228.86,750.32c-2.31,0-4.63-.21-6.95-.62-25.03-4.51-42.82-32.22-39.64-61.77,1.69-15.75,9.12-29.62,20.37-38.05,9.16-6.86,20.21-9.55,31.1-7.59h0c25.03,4.51,42.82,32.22,39.64,61.77-1.69,15.74-9.12,29.61-20.39,38.04-7.21,5.4-15.59,8.22-24.13,8.22Zm-2.07-104.71c-7.71,0-15.27,2.55-21.78,7.43-10.38,7.77-17.24,20.64-18.82,35.31-2.96,27.54,13.38,53.31,36.42,57.46,9.79,1.76,19.74-.68,28.02-6.87,10.39-7.78,17.25-20.65,18.83-35.31,2.96-27.53-13.38-53.31-36.42-57.46h0c-2.08-.38-4.17-.56-6.25-.56Z" style="fill:#bea8f3;"/></g><g style="clip-path:url(#l);"><g><g><path d="M441.65,686.47v309.02c-.82,5.44-7.25,11.61-21.36,18.76-78.78,40.01-252.09,21.89-252.09,21.89v-308.64s63.58,6.64,131.21,3h.15c43.99-2.36,89.69-9.12,120.73-24.89,14.04-7.11,20.47-13.24,21.32-18.72,.03-.13,.03-.3,.03-.43Z" style="fill:#cebdf6;"/><path d="M460.66,524.29v308.64s-7.4,2.57-19.01,6.94v-153.4c.09-.56,.09-1.07,0-1.58-2.19-23.69-110.62-34.4-138.03-60.96-2.47-2.4-3.78-4.97-4.05-7.67v-1.97c2.38-34.91,161.09-90,161.09-90Z" style="fill:#cebdf6;"/><path d="M441.65,684.88c.09,.51,.09,1.03,0,1.58,0,.13,0,.3-.03,.43-.85,5.48-7.28,11.61-21.32,18.72-31.04,15.76-76.74,22.53-120.73,24.89v-114.25c.27,2.7,1.58,5.27,4.05,7.67,27.42,26.56,135.84,37.27,138.03,60.96Z" style="fill:#cebdf6;"/></g><g><path d="M441.65,745.01v225.15c-2.66,1.63-5.65,3.3-9.04,5.01-35.3,17.95-87.3,25.62-137.33,28.32h-.17c-6.81,.39-13.58,.64-20.3,.81-.17-.43-.34-.86-.56-1.28-7.5-17.91-28.66-31.91-55.26-36.54v-143.16c30.37-5.27,53.55-22.7,57.62-44.21,.09-.39,.17-.81,.21-1.2l18.29,.43h.17c50.03-2.7,102.04-10.41,137.33-28.32,3.38-1.71,6.38-3.38,9.04-5.01Z" style="fill:url(#n);"/><path d="M460.67,550.18v282.77s-7.41,2.57-19.02,6.94v-153.4c.09-.56,.09-1.07,0-1.58-2.1-22.75-102.25-33.54-134.42-57.92,31.44-29.3,116.26-62.97,153.44-76.81Z" style="fill:url(#o);"/><path d="M423.79,703.8c-1.11,.6-2.27,1.2-3.51,1.84-31.01,15.76-76.72,22.53-120.71,24.89v-73.77l.3,.3c21.12,20.43,84.43,32.64,123.93,46.73Z" style="fill:url(#p);"/></g><g style="mix-blend-mode:multiply;"><path d="M441.65,686.47v3.73c0,.13,0,.3-.04,.43-.86,5.48-7.28,11.61-21.33,18.72-31.01,15.76-76.72,22.53-120.71,24.89h-.17c-67.6,3.64-131.21-3-131.21-3v-3.73s63.61,6.64,131.21,3h.17c43.99-2.36,89.7-9.12,120.71-24.89,5.05-2.57,9.17-5.01,12.34-7.37,1.07-.77,2.01-1.54,2.87-2.27,.34-.26,.69-.6,1.03-.94,.47-.39,.9-.86,1.28-1.28,.34-.34,.64-.73,.94-1.07,.3-.34,.56-.73,.81-1.07,.26-.34,.47-.69,.69-1.07,.17-.3,.34-.6,.51-.9,.17-.39,.34-.77,.43-1.16,.13-.3,.21-.64,.3-.99,.04-.21,.09-.39,.13-.6,.04-.13,.04-.3,.04-.43Z" style="fill:#f198f2;"/><path d="M441.65,991.39v3.73c0,.13,0,.3-.04,.43-.86,5.48-7.28,11.61-21.33,18.72-31.01,15.76-76.72,22.53-120.71,24.89h-.17c-67.6,3.64-131.21-3-131.21-3v-3.73s63.61,6.64,131.21,3h.17c43.99-2.36,89.7-9.12,120.71-24.89,5.05-2.57,9.17-5.01,12.34-7.37,1.07-.77,2.01-1.54,2.87-2.27,.34-.26,.69-.6,1.03-.94,.47-.39,.9-.86,1.28-1.28,.34-.34,.64-.73,.94-1.07,.3-.34,.56-.73,.81-1.07,.26-.34,.47-.69,.69-1.07,.17-.3,.34-.6,.51-.9,.17-.39,.34-.77,.43-1.16,.13-.3,.21-.64,.3-.99,.04-.21,.09-.39,.13-.6,.04-.13,.04-.3,.04-.43Z" style="fill:#f198f2;"/><path d="M460.67,524.29v3.73s-156.01,54.15-160.98,89.1c-.04-.26-.09-.56-.13-.86v-1.97c2.36-34.91,161.11-90,161.11-90Z" style="fill:#f198f2;"/><path d="M441.65,684.88c.09,.51,.09,1.03,0,1.58,0,.13,0,.3-.04,.43-.04,.21-.09,.39-.13,.6-.51-2.14-1.88-4.2-4.03-6.13-.34-.34-.73-.64-1.11-.99-2.83-2.31-6.68-4.54-11.31-6.68-1.03-.43-2.1-.9-3.21-1.37-.81-.39-1.63-.73-2.48-1.03-.73-.3-1.46-.6-2.18-.86-14.14-5.44-32.64-10.5-50.85-15.85-2.53-.73-5.05-1.5-7.54-2.23-.34-.13-.73-.21-1.07-.34-.94-.3-1.88-.6-2.83-.86-3.51-1.07-6.94-2.18-10.28-3.3-.26-.09-.56-.21-.86-.3-2.48-.81-4.93-1.67-7.28-2.53-.21-.09-.43-.17-.64-.26-.86-.3-1.71-.64-2.57-.94-1.5-.56-3-1.16-4.41-1.71-3.43-1.41-6.64-2.83-9.64-4.28-.73-.34-1.41-.73-2.1-1.07-4.11-2.14-7.71-4.37-10.71-6.73-.99-.77-1.88-1.58-2.74-2.4-2.48-2.4-3.81-4.97-4.07-7.67v-3.73c.04,.3,.09,.6,.13,.86v.13c.13,.51,.26,1.03,.43,1.54,.04,.04,.04,.09,.09,.17,.21,.56,.47,1.11,.81,1.67,.26,.51,.6,.99,.99,1.46,.04,.09,.13,.17,.21,.26,.39,.56,.86,1.07,1.41,1.58,27.42,26.56,135.84,37.27,138.02,60.96Z" style="fill:#f198f2;"/><polygon points="168.18 727.51 168.18 1036.15 171.61 1036.39 169.9 727.51 168.18 727.51" style="fill:#f198f2;"/></g><path d="M441.65,785.36v158.75c-26.56-11.18-44.68-38.64-44.59-73.21,.09-34.44,18.12-66.91,44.59-85.54Z" style="fill:#cebdf6;"/><path d="M387.21,717.97c-15.84,4.29-43.61,9.94-79.29,12.21,14.99-14.18,35.73-21.33,58.73-18.12,7.11,.99,14.01,3.17,20.56,5.91Z" style="fill:#cebdf6;"/><g><path d="M279.73,953.03c1.53,.46,2.71,1.23,3.46,2.27,.75,1.04,1.1,2.52,1.09,4.35l-.04,23.15c0,.64,.12,1.09,.31,1.4,.35,.5,1.02,1.09,2,1.71l2.8-2.86,.79,.82-6.78,6.9-6.21-3.54,1.74-2.71,.04-20.68c0-1.4-.07-2.37-.23-2.9-.27-.81-.71-1.47-1.26-1.9l-1.02-.37c-.35,.05-.83,.37-1.42,.96l-.91,.93-.78-.87,6.42-6.68Z" style="fill:#cebdf6;"/><path d="M317.21,954.64c2.12,2.89,3.21,6.43,3.21,10.72,0,4.2-1.04,8.17-3.05,11.89-1.97,3.72-4.69,6.99-8.12,9.89-2.44-.29-4.68-1.17-6.68-2.58-1.96-1.46-3.49-3.41-4.55-5.86-1.06-2.44-1.56-5.05-1.56-7.81,0-3.99,1.08-8.01,3.21-12.08,2.13-4.04,4.97-7.32,8.51-9.77,3.85,.9,6.88,2.77,9.04,5.61Zm-1.3,21.16c.51-1.69,.79-3.47,.8-5.42,0-2.63-.5-5.11-1.48-7.39-1.02-2.23-2.51-4.06-4.47-5.49-2-1.37-4.36-2.27-7.04-2.75-2.37,3.22-3.55,6.87-3.56,10.94,0,2.85,.54,5.49,1.68,7.87,1.14,2.39,2.79,4.24,4.91,5.64,2.12,1.36,4.28,2.03,6.53,2.05,1.22-2,2.13-3.82,2.65-5.47" style="fill:#cebdf6;"/><path d="M343.93,950.89c2.16,2.88,3.21,6.43,3.21,10.72,0,4.2-1,8.16-3.01,11.89-2.01,3.72-4.73,6.99-8.16,9.89-2.44-.29-4.64-1.17-6.64-2.59-2-1.46-3.49-3.41-4.55-5.86-1.06-2.44-1.56-5.05-1.56-7.81,0-3.99,1.08-8.01,3.17-12.08,2.13-4.04,4.97-7.32,8.51-9.77,3.89,.9,6.92,2.76,9.04,5.61Zm-1.26,21.15c.51-1.69,.79-3.47,.8-5.42,0-2.63-.5-5.11-1.48-7.39-1.02-2.23-2.51-4.06-4.51-5.48-2-1.37-4.32-2.28-7-2.75-2.37,3.22-3.59,6.87-3.6,10.95,0,2.85,.58,5.48,1.72,7.87,1.14,2.39,2.78,4.24,4.91,5.64,2.12,1.36,4.28,2.03,6.49,2.06,1.26-2,2.13-3.82,2.69-5.47" style="fill:#cebdf6;"/></g><path d="M460.66,524.29v308.64s-7.4,2.57-19.01,6.94v-153.4c.09-.56,.09-1.07,0-1.58-2.19-23.69-110.62-34.4-138.03-60.96-2.47-2.4-3.78-4.97-4.05-7.67v-1.97c2.38-34.91,161.09-90,161.09-90Z" style="fill:#9875ec; mix-blend-mode:multiply; opacity:.3;"/><path d="M440.66,681.64c4.71,8.16-6.5,16.96-20.38,23.98-31.01,15.76-76.72,22.53-120.71,24.89v-71.67s19.61-2.08,45.14,0c64.26,5.23,95.96,22.79,95.96,22.79Z" style="fill:#9875ec; mix-blend-mode:multiply; opacity:.3;"/><path d="M441.65,686.47v82.38c-27.72,66.7-95.65,166.04-261.35,268.37-7.71-.6-12.12-1.07-12.12-1.07v-308.64s63.61,6.64,131.21,3h.17c43.99-2.36,89.7-9.12,120.71-24.89,14.05-7.11,20.48-13.24,21.33-18.72,.04-.13,.04-.3,.04-.43Z" style="fill:#f8caf8; opacity:.2;"/></g></g><g><path d="M416.05,123.06c32.92-4.63,59.57,20.41,59.51,55.98-.07,35.56-26.83,68.11-59.75,72.74-32.95,4.63-59.6-20.41-59.54-55.97,.07-35.56,26.83-68.11,59.78-72.74Z" style="fill:#bea8f3;"/><path d="M408.44,117.66c32.92-4.63,59.57,20.41,59.51,55.98-.07,35.56-26.83,68.11-59.75,72.74-32.95,4.63-59.6-20.41-59.54-55.97,.07-35.56,26.83-68.11,59.78-72.74Z" style="fill:#d5c7f7;"/><g style="opacity:.5;"><path d="M467.96,173.63c-.09,35.55-26.86,68.11-59.76,72.74-3.17,.43-6.25,.6-9.25,.51,2.1-.04,4.2-.21,6.38-.51,32.94-4.63,59.67-37.18,59.76-72.74,.09-32.17-21.76-55.69-50.25-56.46,29.9-.81,53.16,23.22,53.12,56.46Z" style="fill:#fff;"/></g><path d="M402.16,234.64c-10.07,0-19.47-3.45-26.98-9.98-9.79-8.52-15.38-21.68-15.36-36.09,.05-28.63,21.73-54.96,48.31-58.7l.27,1.95-.27-1.95c12.43-1.74,24.25,1.64,33.32,9.54,9.78,8.52,15.38,21.67,15.35,36.09-.05,28.63-21.73,54.96-48.31,58.7-2.14,.3-4.25,.45-6.34,.45Zm12.3-101.29c-1.9,0-3.83,.13-5.77,.41h0c-24.72,3.47-44.88,28.06-44.93,54.81-.02,13.27,5.08,25.35,14.01,33.12,8.19,7.13,18.91,10.19,30.18,8.61,24.72-3.47,44.88-28.06,44.93-54.81,.03-13.47-4.95-25.23-14-33.12-6.78-5.91-15.29-9.02-24.42-9.02Z" style="fill:#bea8f3;"/></g><g><path d="M279.46,276.13c36.06,4.69,61.99,38.16,57.96,74.76-4.02,36.57-36.48,62.43-72.53,57.74-36.02-4.69-61.99-38.16-57.96-74.73,4.03-36.6,36.52-62.46,72.54-57.77Z" style="fill:#bea8f3;"/><path d="M272.32,278.51c36.06,4.69,61.99,38.16,57.96,74.76-4.02,36.57-36.48,62.43-72.53,57.74-36.02-4.69-61.99-38.16-57.96-74.73,4.03-36.6,36.52-62.46,72.54-57.77Z" style="fill:#d5c7f7;"/><g style="opacity:.5;"><path d="M330.28,353.29c-3.77,34.06-32.26,58.86-65.28,58.26,32.08-.6,59.24-25.02,62.93-58.26,3.98-36.63-21.93-70.08-58-74.79-2.44-.34-4.84-.51-7.24-.51,3.17-.09,6.38,.09,9.64,.51,36.07,4.71,61.98,38.17,57.96,74.79Z" style="fill:#fff;"/></g><path d="M265.98,398.95c-2.29,0-4.59-.15-6.9-.45-29.19-3.8-50.29-30.97-47.03-60.57,1.59-14.49,8.68-27.35,19.97-36.21,11.09-8.71,24.94-12.5,38.96-10.68,29.19,3.8,50.29,30.98,47.03,60.6-1.59,14.48-8.68,27.33-19.95,36.19-9.27,7.28-20.45,11.12-32.08,11.12Zm-1.88-104.41c-10.74,0-21.08,3.55-29.65,10.28-10.44,8.2-17.01,20.11-18.48,33.54-3.02,27.48,16.54,52.7,43.62,56.23,13,1.68,25.78-1.81,36.03-9.86,10.43-8.2,16.99-20.1,18.47-33.52,3.02-27.5-16.54-52.73-43.62-56.26h0c-2.13-.28-4.26-.41-6.37-.41Z" style="fill:#bea8f3;"/></g><g><path d="M237.74,485.99c36.17,6.52,53.81,27.47,39.44,46.8-14.36,19.31-55.3,29.7-91.47,23.18-36.14-6.52-53.81-27.47-39.45-46.78,14.37-19.33,55.35-29.71,91.49-23.19Z" style="fill:#bea8f3;"/><path d="M237.74,475.35c36.17,6.52,53.81,27.47,39.44,46.8-14.36,19.31-55.3,29.7-91.47,23.18-36.14-6.52-53.81-27.47-39.45-46.78,14.37-19.33,55.35-29.71,91.49-23.19Z" style="fill:#d5c7f7;"/><g style="opacity:.5;"><path d="M277.16,522.15c-14.35,19.32-55.3,29.69-91.46,23.17-7.75-1.37-14.61-3.43-20.52-6,5.14,1.97,10.97,3.56,17.35,4.71,36.15,6.55,77.11-3.86,91.46-23.17,11.31-15.16,2.83-31.36-18.81-40.74,23.99,9.17,33.8,26.13,21.98,42.02Z" style="fill:#fff;"/></g><path d="M208.62,541.51c-6,0-12.03-.5-17.9-1.56-18.25-3.29-31.56-11.36-35.6-21.58-2.43-6.14-1.37-12.53,3.06-18.5,11.78-15.84,45.24-24.42,74.56-19.14h0c18.25,3.29,31.56,11.36,35.6,21.57,2.43,6.15,1.36,12.55-3.08,18.53-9.41,12.66-32.69,20.69-56.64,20.69Zm5.98-58.73c-22.77,0-44.72,7.45-53.5,19.26-3.64,4.9-4.54,10.08-2.6,14.98,3.57,9.04,15.86,16.27,32.86,19.34,28.1,5.08,59.94-2.88,70.97-17.72,3.65-4.91,4.56-10.1,2.62-15.01-3.57-9.03-15.86-16.26-32.86-19.33-5.74-1.03-11.64-1.53-17.49-1.53Z" style="fill:#bea8f3;"/></g><circle cx="268.6" cy="206.24" r="16.99" style="fill:#d5c7f7;"/><circle cx="292.5" cy="455.41" r="8.47" transform="translate(-220.21 281.96) rotate(-38.6)" style="fill:#d5c7f7;"/><path d="M186.09,416.24c0,3.31-2.68,5.99-5.99,5.99s-5.99-2.68-5.99-5.99,2.68-5.99,5.99-5.99,5.99,2.68,5.99,5.99Z" style="fill:#d5c7f7;"/><circle cx="149.06" cy="641.67" r="13.07" style="fill:#d5c7f7;"/><polygon points="135.99 604.21 137.78 617.45 151.01 619.24 137.78 621.03 135.99 634.27 134.2 621.03 120.96 619.24 134.2 617.45 135.99 604.21" style="fill:#d5c7f7;"/><polygon points="255.19 443.96 256.98 457.2 270.22 458.99 256.98 460.78 255.19 474.01 253.4 460.78 240.16 458.99 253.4 457.2 255.19 443.96" style="fill:#d5c7f7;"/><polygon points="484.41 213.41 486.93 232.11 505.64 234.64 486.93 237.17 484.41 255.87 481.88 237.17 463.18 234.64 481.88 232.11 484.41 213.41" style="fill:#d5c7f7;"/></g></g></g></g></g></svg>