<?xml version="1.0" encoding="UTF-8"?><svg xmlns="http://www.w3.org/2000/svg" xmlns:xlink="http://www.w3.org/1999/xlink" viewBox="0 0 1014.28 1203.51"><defs><style>.aw{fill:url(#v);}.ax{fill:url(#e);}.ay{fill:url(#g);}.b`{fill:url(#f);}.ba{fill:url(#p);}.bb{fill:url(#o);}.bc{fill:url(#s);}.bd{fill:url(#r);}.be{fill:url(#i);}.bf{fill:url(#h);}.bg{fill:url(#m);}.bh{fill:url(#n);}.bi{fill:url(#x);}.bj{fill:url(#w);}.bk{fill:url(#y);}.bl{fill:url(#aa);}.bm{fill:url(#ag);}.bn{fill:url(#ab);}.bo{fill:url(#ah);}.bp{fill:url(#ai);}.bq{fill:url(#ad);}.br{fill:url(#ao);}.bs{fill:url(#aj);}.bt{fill:url(#ae);}.bu{fill:url(#ap);}.bv{fill:url(#af);}.bw{fill:url(#a`);}.bx{fill:url(#as);}.by{fill:url(#aq);}.c`{fill:url(#ar);}.ca{fill:url(#al);}.cb{fill:url(#am);}.cc{fill:url(#ac);}.cd{fill:url(#an);}.ce{fill:url(#at);}.cf{fill:url(#au);}.cg{fill:url(#ak);}.ch{fill:url(#av);}.ci{fill:none;}.cj{fill:url(#j);mix-blend-mode:overlay;opacity:.4;}.ck,.cl{fill:#f8caf8;}.cm{fill:#f6bdf7;}.cn,.co{fill:#fff;}.cp,.cq{fill:#f198f2;}.cr,.cs,.ct,.cu{fill:#9875ec;}.cv{fill:#8b63ea;}.cw{fill:#916beb;}.cx{fill:#cebdf6;}.cy{fill:#bea8f3;}.d`{fill:#d5c7f7;}.da{fill:#c8b5f5;}.db{fill:#a282ee;}.dc{fill:#7c4fe7;}.cq,.dd,.cs,.ct,.de,.df{mix-blend-mode:multiply;}.cs{opacity:.3;}.ct,.df{opacity:.72;}.de{fill:url(#u);}.cl,.cu,.co,.dg{opacity:.2;}.dh,.di{opacity:.5;}.dj{clip-path:url(#k);}.dk{fill:url(#t);mix-blend-mode:soft-light;}.dl{isolation:isolate;}.di{fill:url(#q);}</style><linearGradient id="e" x1="266.01" y1="633.58" x2="1433.15" y2="320.17" gradientTransform="matrix(1, 0, 0, 1, 0, 0)" gradientUnits="userSpaceOnUse"><stop offset="0" stop-color="#6530e3"/><stop offset=".62" stop-color="#cebdf6"/><stop offset="1" stop-color="#d5c7f7"/></linearGradient><linearGradient id="f" x1="247.04" y1="370.38" x2="423.13" y2="370.38" gradientTransform="matrix(1, 0, 0, 1, 0, 0)" gradientUnits="userSpaceOnUse"><stop offset=".02" stop-color="#a282ee"/><stop offset=".05" stop-color="#9f7eed"/><stop offset=".24" stop-color="#8d67ea"/><stop offset=".46" stop-color="#8156e7"/><stop offset=".69" stop-color="#7a4de6"/><stop offset="1" stop-color="#784ae6"/></linearGradient><linearGradient id="g" x1="78.06" y1="408.05" x2="390.61" y2="408.05" xlink:href="#f"/><linearGradient id="h" x1="239.63" y1="482.29" x2="520.05" y2="482.29" xlink:href="#f"/><linearGradient id="i" x1="-138.82" y1="495.79" x2="722.55" y2="730.26" gradientTransform="matrix(1, 0, 0, 1, 0, 0)" gradientUnits="userSpaceOnUse"><stop offset="0" stop-color="#d5c7f7"/><stop offset=".38" stop-color="#cebdf6"/><stop offset=".8" stop-color="#6530e3"/></linearGradient><linearGradient id="j" x1="-112.28" y1="437.62" x2="736.74" y2="668.73" gradientTransform="matrix(1, 0, 0, 1, 0, 0)" gradientUnits="userSpaceOnUse"><stop offset="0" stop-color="#fff"/><stop offset="1" stop-color="#784ae6"/></linearGradient><clipPath id="k"><path id="l" d="M209.92,516.2v82.73s27.62,7.77,34.44,10.95,11.31,5.31,13.33,8.17c2.02,2.86,1.56,5.03,1.56,5.03l.07,259.35L3.31,886.75,0,540.6l209.92-24.4Z" style="fill:none;"/></clipPath><linearGradient id="m" x1="263.12" y1="754" x2="107.42" y2="752.96" xlink:href="#f"/><linearGradient id="n" x1="158.09" y1="628.73" x2="287.13" y2="628.73" xlink:href="#f"/><linearGradient id="o" x1="157.91" y1="627.75" x2="247.68" y2="628.19" xlink:href="#f"/><linearGradient id="p" x1="891.76" y1="380.89" x2="647.97" y2="810.87" gradientTransform="matrix(1, 0, 0, 1, 0, 0)" gradientUnits="userSpaceOnUse"><stop offset=".11" stop-color="#fff"/><stop offset=".23" stop-color="#f5f1fd"/><stop offset=".46" stop-color="#dbcff8"/><stop offset=".53" stop-color="#d3c4f7"/><stop offset=".63" stop-color="#e3d9f9"/><stop offset=".78" stop-color="#f7f4fd"/><stop offset=".87" stop-color="#fff"/><stop offset=".9" stop-color="#faf8fe"/><stop offset=".94" stop-color="#ede7fb"/><stop offset=".99" stop-color="#d8cbf8"/><stop offset="1" stop-color="#d3c4f7"/></linearGradient><linearGradient id="q" x1="886.82" y1="443.95" x2="715.09" y2="813.38" gradientTransform="matrix(1, 0, 0, 1, 0, 0)" gradientUnits="userSpaceOnUse"><stop offset="0" stop-color="#d3c4f7"/><stop offset="1" stop-color="#a282ee"/></linearGradient><linearGradient id="r" x1="259.65" y1="1199.92" x2="546.07" y2="658.89" gradientTransform="matrix(1, 0, 0, 1, 0, 0)" gradientUnits="userSpaceOnUse"><stop offset=".11" stop-color="#a282ee"/><stop offset=".11" stop-color="#a786ee"/><stop offset=".15" stop-color="#c99df2"/><stop offset=".19" stop-color="#e2aff4"/><stop offset=".23" stop-color="#f0b9f6"/><stop offset=".25" stop-color="#f6bdf7"/><stop offset=".41" stop-color="#fbe8fc"/><stop offset=".5" stop-color="#fff"/><stop offset=".54" stop-color="#ddd2f8"/><stop offset=".59" stop-color="#b298f1"/><stop offset=".62" stop-color="#a282ee"/><stop offset=".64" stop-color="#a685ee"/><stop offset=".68" stop-color="#b58ff0"/><stop offset=".71" stop-color="#cca0f2"/><stop offset=".75" stop-color="#edb6f6"/><stop offset=".75" stop-color="#f6bdf7"/><stop offset="1" stop-color="#f6bdf7"/></linearGradient><linearGradient id="s" x1="387.38" y1="738.65" x2="698.64" y2="738.65" gradientTransform="matrix(1, 0, 0, 1, 0, 0)" gradientUnits="userSpaceOnUse"><stop offset="0" stop-color="#b9a1f2"/><stop offset="1" stop-color="#8459e8"/></linearGradient><linearGradient id="t" x1="531.96" y1="745.77" x2="698.63" y2="745.77" gradientTransform="matrix(1, 0, 0, 1, 0, 0)" gradientUnits="userSpaceOnUse"><stop offset="0" stop-color="#fff"/><stop offset=".11" stop-color="#e8e0fa"/><stop offset=".55" stop-color="#8f68ea"/><stop offset=".86" stop-color="#561de0"/><stop offset="1" stop-color="#4100dc"/></linearGradient><linearGradient id="u" x1="378.22" y1="717.1" x2="760.6" y2="690.84" gradientTransform="matrix(1, 0, 0, 1, 0, 0)" gradientUnits="userSpaceOnUse"><stop offset="0" stop-color="#8459e8"/><stop offset=".25" stop-color="#8155e7"/><stop offset=".47" stop-color="#794ae6"/><stop offset=".68" stop-color="#6b38e3"/><stop offset=".88" stop-color="#581fe0"/><stop offset="1" stop-color="#4b0dde"/></linearGradient><linearGradient id="v" x1="215.13" y1="1033.79" x2="287.38" y2="1033.79" gradientTransform="matrix(1, 0, 0, 1, 0, 0)" gradientUnits="userSpaceOnUse"><stop offset="0" stop-color="#b196f1"/><stop offset=".39" stop-color="#cab8f5"/><stop offset=".78" stop-color="#ded3f8"/><stop offset="1" stop-color="#e6defa"/></linearGradient><linearGradient id="w" x1="156.83" y1="1000.14" x2="229.09" y2="1000.14" xlink:href="#v"/><linearGradient id="x" x1="98.54" y1="966.48" x2="170.79" y2="966.48" xlink:href="#v"/><linearGradient id="y" x1="251.92" y1="1012.55" x2="324.17" y2="1012.55" xlink:href="#v"/><linearGradient id="a`" x1="193.63" y1="978.89" x2="265.88" y2="978.89" xlink:href="#v"/><linearGradient id="aa" x1="135.34" y1="945.24" x2="207.59" y2="945.24" xlink:href="#v"/><linearGradient id="ab" x1="288.71" y1="991.31" x2="360.97" y2="991.31" xlink:href="#v"/><linearGradient id="ac" x1="230.42" y1="957.65" x2="302.67" y2="957.65" xlink:href="#v"/><linearGradient id="ad" x1="172.13" y1="924" x2="244.38" y2="924" xlink:href="#v"/><linearGradient id="ae" x1="325.51" y1="970.06" x2="397.76" y2="970.06" xlink:href="#v"/><linearGradient id="af" x1="267.22" y1="936.41" x2="339.47" y2="936.41" xlink:href="#v"/><linearGradient id="ag" x1="208.92" y1="902.75" x2="281.18" y2="902.75" xlink:href="#v"/><linearGradient id="ah" x1="362.3" y1="948.82" x2="434.55" y2="948.82" xlink:href="#v"/><linearGradient id="ai" x1="304.01" y1="915.16" x2="376.26" y2="915.16" xlink:href="#v"/><linearGradient id="aj" x1="245.72" y1="881.51" x2="317.97" y2="881.51" xlink:href="#v"/><linearGradient id="ak" x1="257.18" y1="1012.55" x2="318.91" y2="1012.55" xlink:href="#v"/><linearGradient id="al" x1="198.89" y1="978.89" x2="260.62" y2="978.89" xlink:href="#v"/><linearGradient id="am" x1="140.6" y1="945.24" x2="202.33" y2="945.24" xlink:href="#v"/><linearGradient id="an" x1="293.98" y1="991.31" x2="355.7" y2="991.31" xlink:href="#v"/><linearGradient id="ao" x1="235.68" y1="957.65" x2="297.41" y2="957.65" xlink:href="#v"/><linearGradient id="ap" x1="177.39" y1="924" x2="239.12" y2="924" xlink:href="#v"/><linearGradient id="aq" x1="330.77" y1="970.06" x2="392.5" y2="970.06" xlink:href="#v"/><linearGradient id="ar" x1="272.48" y1="936.41" x2="334.21" y2="936.41" xlink:href="#v"/><linearGradient id="as" x1="214.19" y1="902.75" x2="275.91" y2="902.75" xlink:href="#v"/><linearGradient id="at" x1="367.57" y1="948.82" x2="429.29" y2="948.82" xlink:href="#v"/><linearGradient id="au" x1="309.27" y1="915.16" x2="371" y2="915.16" xlink:href="#v"/><linearGradient id="av" x1="250.98" y1="881.51" x2="312.71" y2="881.51" xlink:href="#v"/></defs><g style="isolation:isolate;"><g id="a"/><g id="b"><g id="c"><g id="d"><g><g><path d="M429.63,449.67c5.76-1.37,10.44,6.08,10.43,16.64l-.21,229.81c-.01,10.56-4.71,20.24-10.47,21.61l-206.8,67.5c-5.78,1.38-10.46-6.07-10.44-16.63l.21-229.81c.01-10.56,10.1-22,15.88-23.37l201.41-65.74Z" style="fill:url(#e);"/><path d="M440.03,466.33l-.15,229.77c0,4.99-1.03,9.7-2.79,13.52,1.03-3.38,1.76-7.2,1.76-11.17l.15-229.77c0-10.58-4.55-18.07-10.43-16.6l-201.42,65.67c-3.97,.88-10.14,6.76-13.37,13.81,2.94-8.08,9.99-15.13,14.4-16.16l201.42-65.67c5.73-1.47,10.43,6.02,10.43,16.6Z" style="fill:#9875ec; mix-blend-mode:multiply; opacity:.72;"/><path d="M430.39,392.06c.1,8.54-.82,16.56-1.34,24.58-10.9,13.89-22.63,22.01-43.3,29.62-2.06-.31-6.89-.93-9.36-1.23-.1,0-.1,.1-.21,.1-2.88-.41-5.86-.93-8.74-1.34-4.11-.51-8.33-1.13-12.24-1.75-1.13-.1-2.26-.31-3.5-.51-1.65-.21-3.29-.51-4.73-.72,.1,0,.21-.1,.31-.1-5.97-1.03-12.03-2.06-18-3.19-18.31-3.7-36.72-9.46-53.69-17.69-9.87-4.73-20.78-10.7-28.29-19.13-1.75-1.95-3.39-4.11-4.73-6.38-.62-.93-1.13-1.75-1.54-2.78-1.03-1.85-1.75-3.91-2.37-5.97-.41-1.23-.62-2.47-.82-3.7-.21-1.54-.31-3.19-.31-4.73v-.62c.21-13.06,8.13-25.92,18.1-34.77,18.93-16.56,44.33-22.83,68.4-30.14,24.07-7.3,49.17-17.28,63.26-38.06,1.34-1.95,2.47-3.7,3.5-5.25,.1-.1,.21-.31,.31-.41,1.13-1.65,2.06-3.09,2.78-4.42l.1-.1c.72-1.23,1.44-2.37,2.16-3.5,.62-1.03,1.23-1.95,1.75-2.88,4.63-7.3,7.3-10.9,8.43-7.51,15.84,44.74,24.69,97.41,23.97,142.87,0-.1,.1-.21,.1-.31Z" style="fill:#cebdf6;"/><path d="M406.32,249.5c-3.19,2.78-7.51,10.8-17.9,26.13-14.09,20.78-39.19,30.75-63.26,38.06-24.07,7.3-49.47,13.58-68.4,30.14-9.98,8.85-17.9,21.7-18.1,34.77v.62c0,1.54,.1,3.19,.31,4.73,.21,1.23,.41,2.47,.82,3.7,.72,2.37,1.54,4.63,2.78,6.69-.62-.93-1.13-1.75-1.54-2.78-1.03-1.85-1.75-3.91-2.37-5.97-.41-1.23-.62-2.47-.82-3.7-.21-1.54-.31-3.19-.31-4.73v-.62c.21-13.06,8.13-25.92,18.1-34.77,18.93-16.56,44.33-22.83,68.4-30.14,24.07-7.3,49.17-17.28,63.26-38.06,1.34-1.95,2.47-3.7,3.5-5.25,.1-.1,.21-.31,.31-.41,1.13-1.65,2.06-3.09,2.78-4.42l.1-.1c.82-1.34,1.54-2.47,2.16-3.5,.62-1.03,1.23-1.95,1.75-2.88,4.63-7.3,7.3-10.9,8.43-7.51Z" style="fill:#f198f2; mix-blend-mode:multiply;"/><path d="M412.02,417.75s-1.79,9.03-45.9,26.02c-15.74-1.95-21.26-3.18-36.79-6.27-7.3-1.44-14.61-3.29-21.91-5.45-10.9-3.29-21.6-7.3-31.78-12.24-7.51-3.6-15.53-7.92-22.32-13.47-2.16-1.75-4.11-3.6-5.97-5.66-.21-1.44-.31-3.09-.31-4.53v-.62c.21-13.06,8.13-25.92,18.1-34.77,18.93-16.56,44.33-22.83,68.4-30.14,21.91-6.69,44.74-15.53,59.25-32.81,2.26,.51,4.63,.72,6.99,.72,3.5,0,6.99-.51,10.29-1.54,7.61,30.24,12.34,62.02,13.06,91.65-6.79,6.99-11.11,17.49-11.11,29.11Z" style="fill:url(#f);"/><path d="M397.31,441.3c-3.6,1.85-7.41,3.39-11.62,4.94-1.95-.31-6.79-.82-9.36-1.23,0,.1-.1,.1-.1,.1-2.98-.41-5.86-.82-8.85-1.23-4.11-.62-8.33-1.23-12.14-1.75-1.23-.21-2.37-.41-3.5-.62-1.65-.21-3.29-.51-4.73-.72-5.86-1.03-11.83-2.06-17.69-3.29-18.31-3.7-36.72-9.46-53.69-17.69-9.87-4.73-20.78-10.7-28.29-19.13-3.91-4.32-6.99-9.36-8.64-15.12-.41-1.23-.62-2.47-.82-3.7-.21-1.54-.31-3.19-.31-4.73v-.62c.1-9.36,4.32-18.72,10.39-26.43,13.58,30.86,54.82,100.59,149.35,91.23Z" style="fill:#9875ec; mix-blend-mode:multiply; opacity:.3;"/><g><path d="M365.19,416.87c.89-.08,1.67,.07,2.27,.46,.61,.38,1.1,1.08,1.48,2.03l4.83,12.02c.13,.33,.29,.54,.46,.66,.29,.19,.76,.35,1.4,.47l.85-2.07,.58,.26-2.07,5-3.96-.54,.33-1.77-4.31-10.74c-.29-.73-.53-1.21-.73-1.45-.31-.36-.67-.62-1.05-.72l-.61,.02c-.17,.1-.35,.37-.53,.8l-.27,.67-.59-.28,1.93-4.81Z" style="fill:#cebdf6;"/><path d="M384.97,409.85c1.7,1.05,3.01,2.66,3.91,4.89,.88,2.18,1.17,4.46,.91,6.81-.25,2.34-.97,4.61-2.14,6.83-1.33,.36-2.67,.37-4.01,.06-1.33-.35-2.53-1.04-3.59-2.08-1.06-1.04-1.87-2.29-2.44-3.72-.83-2.07-1.12-4.38-.87-6.94,.26-2.54,1.04-4.84,2.37-6.85,2.19-.34,4.15,0,5.86,1.02Zm3.76,11.25c-.09-.98-.31-1.96-.72-2.98-.55-1.37-1.33-2.55-2.32-3.52-1-.95-2.15-1.58-3.47-1.91-1.33-.29-2.74-.27-4.23,.05-.55,2.17-.4,4.31,.45,6.42,.59,1.48,1.43,2.73,2.52,3.73,1.09,1,2.33,1.61,3.73,1.9,1.39,.26,2.65,.16,3.82-.3,.22-1.29,.3-2.43,.23-3.39" style="fill:#cebdf6;"/><path d="M398.04,402.31c1.72,1.04,3.01,2.66,3.91,4.89,.88,2.18,1.19,4.44,.93,6.8-.26,2.35-.99,4.62-2.16,6.84-1.33,.36-2.65,.36-3.99,.05-1.35-.34-2.53-1.04-3.59-2.08-1.06-1.04-1.87-2.29-2.44-3.72-.83-2.07-1.12-4.38-.89-6.93,.26-2.54,1.04-4.84,2.37-6.85,2.21-.35,4.17-.02,5.86,1.02Zm3.78,11.24c-.09-.98-.31-1.96-.72-2.98-.55-1.37-1.33-2.55-2.32-3.52-1-.95-2.15-1.58-3.49-1.9-1.33-.29-2.72-.28-4.21,.04-.55,2.17-.42,4.32,.43,6.44,.59,1.48,1.45,2.72,2.54,3.72,1.09,1,2.33,1.61,3.73,1.9,1.39,.26,2.65,.16,3.8-.29,.24-1.3,.3-2.43,.25-3.4" style="fill:#cebdf6;"/></g><path d="M307.41,432.04c-10.9-3.29-21.6-7.3-31.78-12.24-7.51-3.6-15.53-7.92-22.32-13.47,4.42-1.85,9.15-2.78,14.09-2.78,17.28,0,32.19,11.52,40.01,28.49Z" style="fill:#cebdf6;"/><g><g><path d="M429.12,399.77c24.14,4.35,41.18,31.1,38.1,59.76-3.08,28.63-25.12,48.35-49.26,44-24.14-4.35-41.19-31.1-38.11-59.74,3.08-28.66,25.12-48.37,49.26-44.02Z" style="fill:#bea8f3;"/><path d="M422.48,401.72c24.14,4.35,41.18,31.1,38.1,59.76-3.08,28.63-25.12,48.35-49.26,44-24.14-4.35-41.18-31.1-38.11-59.74,3.08-28.66,25.12-48.37,49.26-44.02Z" style="fill:#d5c7f7;"/><g style="opacity:.5;"><path d="M460.6,461.49c-1.41,13.09-6.78,24.34-14.53,32.26,6.85-7.79,11.58-18.36,12.89-30.51,3.09-28.67-13.96-55.42-38.1-59.78-12.99-2.32-25.38,2.28-34.51,11.51,9.26-10.37,22.36-15.74,36.12-13.26,24.13,4.36,41.19,31.12,38.13,59.78Z" style="fill:#fff;"/></g><path d="M417.71,496.18c-1.81,0-3.63-.16-5.45-.49-19.62-3.53-33.55-25.25-31.06-48.4,1.33-12.34,7.15-23.21,15.96-29.81,7.18-5.37,15.84-7.48,24.37-5.95h0c19.62,3.53,33.55,25.25,31.06,48.4-1.33,12.33-7.15,23.2-15.98,29.81-5.65,4.23-12.22,6.44-18.91,6.44Zm-1.62-82.05c-6.04,0-11.96,2-17.07,5.82-8.13,6.09-13.51,16.18-14.74,27.67-2.32,21.58,10.48,41.78,28.54,45.03,7.67,1.38,15.47-.53,21.96-5.39,8.14-6.1,13.52-16.18,14.76-27.67,2.32-21.57-10.48-41.78-28.54-45.03h0c-1.63-.29-3.27-.44-4.9-.44Z" style="fill:#bea8f3;"/></g><g><path d="M564.4,4.66c25.8-3.63,46.68,16,46.63,43.86-.05,27.87-21.02,53.37-46.82,57-25.82,3.63-46.7-15.99-46.65-43.86,.05-27.87,21.02-53.37,46.84-57Z" style="fill:#bea8f3;"/><path d="M558.43,.43c25.8-3.63,46.68,16,46.63,43.86-.05,27.87-21.02,53.37-46.82,57-25.82,3.63-46.7-15.99-46.65-43.86,.05-27.87,21.02-53.37,46.84-57Z" style="fill:#d5c7f7;"/><g style="opacity:.5;"><path d="M605.07,44.29c-.07,27.86-21.05,53.37-46.83,57-2.48,.34-4.9,.47-7.25,.4,1.64-.03,3.29-.17,5-.4,25.81-3.63,46.76-29.14,46.83-57,.07-25.21-17.05-43.64-39.37-44.24,23.43-.64,41.66,18.19,41.62,44.24Z" style="fill:#fff;"/></g><path d="M553.51,92.09c-7.89,0-15.26-2.7-21.14-7.82-7.67-6.68-12.06-16.99-12.03-28.28,.04-22.43,17.03-43.07,37.86-46l.22,1.53-.22-1.53c9.74-1.36,19,1.28,26.11,7.47,7.67,6.68,12.05,16.98,12.03,28.28-.04,22.43-17.03,43.07-37.86,46-1.67,.23-3.33,.35-4.97,.35Zm9.64-79.37c-1.49,0-3,.11-4.52,.32h0c-19.37,2.72-35.17,21.99-35.21,42.95-.02,10.4,3.98,19.86,10.98,25.95,6.42,5.59,14.82,7.98,23.65,6.74,19.37-2.72,35.17-21.99,35.21-42.95,.02-10.56-3.88-19.77-10.97-25.95-5.31-4.63-11.98-7.07-19.13-7.07Z" style="fill:#bea8f3;"/></g><g><path d="M457.37,124.61c28.25,3.68,48.57,29.9,45.42,58.58-3.15,28.65-28.59,48.92-56.84,45.25-28.23-3.67-48.57-29.9-45.42-58.56,3.15-28.68,28.61-48.95,56.84-45.27Z" style="fill:#bea8f3;"/><path d="M451.77,126.47c28.25,3.68,48.57,29.9,45.42,58.58-3.15,28.65-28.59,48.92-56.84,45.25-28.23-3.67-48.57-29.9-45.42-58.56,3.15-28.68,28.61-48.95,56.84-45.27Z" style="fill:#d5c7f7;"/><g style="opacity:.5;"><path d="M497.19,185.06c-2.95,26.69-25.28,46.12-51.16,45.65,25.14-.47,46.42-19.6,49.31-45.65,3.12-28.7-17.19-54.92-45.45-58.61-1.91-.27-3.79-.4-5.67-.4,2.48-.07,5,.07,7.55,.4,28.26,3.69,48.57,29.91,45.42,58.61Z" style="fill:#fff;"/></g><path d="M446.8,220.84c-1.79,0-3.59-.12-5.4-.35-22.87-2.98-39.4-24.27-36.85-47.46,1.25-11.35,6.8-21.43,15.65-28.38,8.69-6.82,19.54-9.8,30.53-8.37,22.87,2.98,39.4,24.28,36.85,47.49-1.25,11.35-6.8,21.41-15.63,28.35-7.26,5.7-16.03,8.72-25.14,8.72Zm-1.47-81.82c-8.42,0-16.52,2.78-23.23,8.06-8.18,6.43-13.33,15.76-14.48,26.28-2.37,21.53,12.96,41.3,34.18,44.06,10.18,1.31,20.2-1.42,28.23-7.73,8.17-6.42,13.31-15.75,14.47-26.26,2.37-21.55-12.96-41.32-34.18-44.08h0c-1.67-.22-3.34-.32-4.99-.32Z" style="fill:#bea8f3;"/></g><g><path d="M424.67,289.05c28.35,5.11,42.17,21.53,30.9,36.67-11.25,15.13-43.33,23.27-71.68,18.16-28.32-5.11-42.17-21.53-30.91-36.66,11.26-15.15,43.37-23.28,71.69-18.17Z" style="fill:#bea8f3;"/><path d="M424.67,280.71c28.35,5.11,42.17,21.53,30.9,36.67-11.25,15.13-43.33,23.27-71.68,18.16-28.32-5.11-42.17-21.53-30.91-36.66,11.26-15.15,43.37-23.28,71.69-18.17Z" style="fill:#d5c7f7;"/><g style="opacity:.5;"><path d="M455.56,317.39c-11.25,15.14-43.33,23.26-71.67,18.16-6.08-1.07-11.45-2.69-16.08-4.7,4.03,1.54,8.59,2.79,13.59,3.69,28.33,5.14,60.42-3.02,71.66-18.16,8.86-11.88,2.22-24.57-14.74-31.92,18.8,7.18,26.48,20.48,17.22,32.93Z" style="fill:#fff;"/></g><path d="M401.85,332.55c-4.7,0-9.43-.39-14.03-1.22-14.3-2.58-24.73-8.9-27.9-16.91-1.9-4.81-1.07-9.82,2.4-14.49,9.23-12.41,35.45-19.13,58.43-15h0c14.3,2.58,24.73,8.9,27.89,16.9,1.9,4.82,1.07,9.84-2.41,14.52-7.38,9.92-25.62,16.21-44.38,16.21Zm4.69-46.02c-17.84,0-35.04,5.84-41.93,15.1-2.85,3.84-3.56,7.9-2.04,11.74,2.8,7.09,12.43,12.75,25.75,15.15,22.02,3.98,46.97-2.26,55.62-13.88,2.86-3.85,3.57-7.92,2.05-11.77-2.8-7.08-12.43-12.74-25.75-15.15-4.5-.81-9.12-1.2-13.7-1.2Z" style="fill:#bea8f3;"/></g><circle cx="448.86" cy="69.84" r="13.32" style="fill:#d5c7f7;"/><circle cx="467.59" cy="265.08" r="6.64" transform="translate(131.03 684.17) rotate(-80.78)" style="fill:#d5c7f7;"/><circle cx="379.5" cy="234.39" r="4.69" style="fill:#d5c7f7;"/><circle cx="355.18" cy="411.04" r="10.24" transform="translate(-107.44 695.79) rotate(-80.78)" style="fill:#d5c7f7;"/><polygon points="344.94 381.69 346.34 392.06 356.71 393.46 346.34 394.87 344.94 405.24 343.54 394.87 333.16 393.46 343.54 392.06 344.94 381.69" style="fill:#d5c7f7;"/><polygon points="438.35 256.11 439.75 266.49 450.12 267.89 439.75 269.29 438.35 279.66 436.94 269.29 426.57 267.89 436.94 266.49 438.35 256.11" style="fill:#d5c7f7;"/><polygon points="617.96 75.46 619.94 90.11 634.59 92.09 619.94 94.07 617.96 108.73 615.98 94.07 601.32 92.09 615.98 90.11 617.96 75.46" style="fill:#d5c7f7;"/></g><g><path d="M391.79,624.11l-1.19,.32-27.3,7.26c-7.1-4.01-13.52-9.15-19.18-15.06-10.12-10.41-17.95-23.19-23.35-36.3-9.99-24.31-12.4-50.59-16.19-76.38-3.18-21.33-8.74-42.08-16.83-61.48-.87-2.06-1.73-4.11-2.67-6.13-.35-.8-.71-1.61-1.09-2.38-.84-1.83-1.7-3.6-2.6-5.4-1.06-2.15-2.15-4.27-3.31-6.39-1.35-2.54-2.76-5.04-4.27-7.55-1.16-1.99-2.34-3.98-3.63-5.91-1.32-2.15-2.73-4.24-4.18-6.33-1.41-2.09-2.86-4.11-4.37-6.13-.06-.03-.1-.1-.13-.16-1.41-1.89-2.89-3.79-4.43-5.65-.06-.1-.16-.22-.26-.35-1.51-1.93-3.08-3.79-4.72-5.65-1.54-1.8-3.15-3.57-4.79-5.3-.13-.1-.22-.19-.32-.32-1.73-1.86-3.5-3.66-5.33-5.4-1.8-1.83-3.66-3.57-5.56-5.24-1.83-1.67-3.69-3.31-5.62-4.88-.06-.03-.13-.1-.16-.13-1.83-1.54-3.69-3.02-5.59-4.46-.32-.26-.67-.51-1.03-.77-1.64-1.25-3.31-2.47-5.01-3.66-.42-.32-.87-.61-1.28-.9-1.93-1.35-3.89-2.63-5.88-3.92-44.2-28.2-68.93-32.5-120.93-43.07-15.84-3.21-32.15-5.69-48.47-6.3-2.28-.1-3.6-2.57-2.34-4.5,28.84-43.84,84.86-115.41,151.6-131.75,4.14-1,8.51-.71,12.43,1,33.76,14.81,60.16,31.54,81.94,52.9v.03c23.64,23.19,41.82,51.81,58.07,89.26,26.4,60.83,19.4,122.09,11.76,186.13-5.3,44.61-5.17,103.07,36.2,130.95Z" style="fill:#cebdf6;"/><path d="M390.61,624.44l-26.63,9.73c-18.28-10.34-33.56-34.95-41.76-53.99-12.85-29.81-14.07-67.45-17.6-91.51-8.67-58.62-39.19-108.6-85.08-145.89-52.52-42.72-89.19-42.43-125.93-50.01,.06-.51,.06-1.03,.06-1.54,0-10.47-6.46-19.46-15.61-23.16,24.15-33.85,58.14-70.98,105.32-86.14,4.46,2.95,10.41,4.72,16.99,4.72,5.36,0,10.31-1.19,14.39-3.21,64.53,30.58,102.42,65.46,128.34,137.28,18.73,51.9,19.08,98.86,11.95,158.64-4.95,41.63-12.69,109.72,35.56,145.08Z" style="fill:url(#g);"/><ellipse cx="306.81" cy="357.39" rx="24.04" ry="36.53" style="fill:#cebdf6;"/></g><path d="M518.51,501.57c-49.68,7.51-200.78,26.13-260.33,33.43-11.01-50.3-17.49-101.83-20.26-153.15,.21,1.23,.41,2.47,.82,3.7,4.73,17.18,22.01,27.05,36.93,34.25,16.97,8.23,35.38,13.99,53.69,17.69,15.53,3.09,31.17,5.66,46.9,7.61,46.8,5.86,94.42,6.79,141.43,3.91,1.85,17.49,2.16,35.07,.82,52.56Z" style="fill:#cebdf6;"/><path d="M518.47,501.57c-.51,.1-1.03,.21-1.54,.21,1.23-16.87,.82-33.84-.93-50.71-47.01,2.88-94.63,1.95-141.43-3.91-15.74-1.95-31.37-4.53-46.9-7.61-18.31-3.7-36.72-9.46-53.69-17.69-13.68-6.58-29.42-15.43-35.49-30.24-.21-3.29-.41-6.48-.62-9.77,.21,1.23,.41,2.47,.82,3.7,4.73,17.18,22.01,27.05,36.93,34.25,16.97,8.23,35.38,13.99,53.69,17.69,15.53,3.09,31.17,5.66,46.9,7.61,46.8,5.86,94.42,6.79,141.43,3.91,1.85,17.49,2.16,35.07,.82,52.56Z" style="fill:#f198f2; mix-blend-mode:multiply;"/><path d="M494.41,495.2v30.86c-61.1,8.43-174.65,22.42-228.03,28.9-1.13,.1-2.26,.31-3.39,.41-8.54-38.88-16.15-74.26-20.37-112.01-1.34-11.11-2.37-22.42-2.98-34.15,.21,1.23,11.31,19.23,36,31.58,16.87,8.33,35.38,13.99,53.69,17.69,15.53,3.09,31.17,5.66,46.9,7.61,28.9,3.6,58.73,5.14,88.35,5.04,4.83,14.09,16.35,23.97,29.83,24.07Z" style="fill:url(#h);"/><g><path d="M418.51,485.19c.8,.41,1.37,.95,1.67,1.6,.3,.65,.35,1.5,.16,2.5l-2.37,12.73c-.07,.35-.05,.61,.03,.8,.14,.31,.45,.7,.93,1.15l1.83-1.29,.35,.53-4.43,3.11-3.06-2.58,1.23-1.31,2.11-11.38c.14-.77,.2-1.31,.17-1.62-.07-.47-.24-.88-.5-1.17l-.53-.3c-.2,0-.49,.12-.88,.39l-.59,.42-.34-.56,4.21-3.02Z" style="fill:#cebdf6;"/><path d="M438.97,489.87c.87,1.8,1.12,3.86,.68,6.22-.43,2.31-1.4,4.39-2.88,6.24-1.46,1.85-3.29,3.37-5.47,4.62-1.31-.41-2.46-1.12-3.42-2.1-.93-1-1.58-2.23-1.91-3.68-.33-1.45-.35-2.93-.07-4.45,.41-2.2,1.4-4.3,2.99-6.33,1.58-2.01,3.48-3.53,5.67-4.52,2.03,.89,3.5,2.22,4.41,4Zm-2.86,11.51c.45-.88,.79-1.83,.99-2.9,.27-1.45,.24-2.86-.07-4.22-.33-1.33-.97-2.49-1.91-3.47-.96-.96-2.17-1.69-3.59-2.22-1.63,1.53-2.65,3.42-3.07,5.66-.29,1.57-.26,3.07,.13,4.5,.38,1.43,1.1,2.61,2.13,3.6,1.03,.96,2.15,1.55,3.38,1.79,.88-.98,1.56-1.89,2.01-2.74" style="fill:#cebdf6;"/><path d="M454.05,490.5c.9,1.8,1.12,3.86,.68,6.22-.43,2.31-1.38,4.39-2.86,6.24-1.48,1.84-3.31,3.37-5.49,4.62-1.31-.41-2.43-1.12-3.39-2.1-.95-1.01-1.58-2.23-1.91-3.68-.33-1.45-.35-2.93-.07-4.45,.41-2.2,1.4-4.3,2.97-6.33,1.58-2.01,3.48-3.53,5.67-4.52,2.05,.89,3.53,2.22,4.41,4Zm-2.83,11.51c.45-.88,.79-1.83,.99-2.9,.27-1.45,.24-2.86-.07-4.22-.33-1.33-.97-2.49-1.93-3.47-.96-.96-2.15-1.69-3.57-2.22-1.63,1.53-2.67,3.42-3.09,5.66-.29,1.57-.24,3.07,.15,4.5,.38,1.43,1.1,2.61,2.13,3.6,1.03,.96,2.15,1.55,3.36,1.79,.9-.97,1.56-1.89,2.03-2.74" style="fill:#cebdf6;"/></g><path d="M518.47,501.57c-49.68,7.51-200.78,26.13-260.33,33.43-1.03-4.73-2.06-9.46-2.98-14.3,35.69-9.36,131.45-35.59,212.09-70.15,16.87,0,33.63-.51,50.4-1.54,1.85,17.49,2.16,35.07,.82,52.56Z" style="fill:#9875ec; mix-blend-mode:multiply; opacity:.3;"/><path d="M276.04,513.3c0,15.22-3.5,29.52-9.67,41.66-1.13,.1-2.26,.31-3.39,.41-8.54-38.88-16.15-74.26-20.37-112.01,19.95,13.99,33.43,40.01,33.43,69.94Z" style="fill:#cebdf6;"/><g><path d="M528.15,481.57c9.76-1.37,17.67,6.08,17.65,16.64l-.36,229.81c-.02,10.56-7.97,20.24-17.72,21.61l-298.91,42.01c-9.79,1.38-17.7-6.07-17.68-16.63l.36-229.81c.02-8.14-3.9-25.3,23.93-32.15-15.99,5.53-16.69,11.77-6.17,10.54l298.91-42.01Z" style="fill:url(#i);"/><path d="M545.81,498.21l-.29,229.77c-.15,7.2-3.82,13.96-9.26,17.92,3.67-3.97,5.88-9.4,5.88-14.98l.44-229.77c0-10.58-7.93-18.07-17.63-16.75l-298.97,42.02c-10.28,1.32-7.79-7.35,7.35-12.78,.59-.15,1.32-.44,2.06-.59-16.01,5.58-16.6,11.75-6.17,10.58l298.97-42.02c9.7-1.47,17.63,6.02,17.63,16.6Z" style="fill:url(#j); mix-blend-mode:overlay; opacity:.4;"/><path d="M488.66,487.19c-45.25,84.62-126.93,213.32-242.99,302.05l-16.9,2.35c-9.7,1.47-17.63-6.02-17.63-16.6l.29-229.77c0-8.23-3.82-25.27,23.95-32.17-16.01,5.58-16.6,11.75-6.17,10.58l259.45-36.43Z" style="fill:#fff; opacity:.2;"/><g style="mix-blend-mode:multiply; opacity:.72;"><path d="M226.75,539.15c-.27,0-.53,0-.8-.01-.4-.01-.72-.37-.69-.77,.01-.39,.34-.69,.73-.69,.2,.06,.47,.01,.72,.01h.04c1.33,0,2.73-.09,4.1-.26l2.35-.33c.39,0,.77,.23,.83,.63,.06,.4-.23,.77-.63,.83l-2.37,.33c-1.45,.17-2.88,.26-4.29,.26Z" style="fill:#9875ec;"/><path d="M248.19,774.77c-.36,0-.67-.26-.73-.63-.06-.4,.23-.77,.63-.83l14.46-2.02c.4-.01,.77,.23,.83,.63,.06,.4-.23,.77-.63,.83l-14.46,2.02h-.1Zm28.94-4.06c-.36,0-.67-.26-.73-.63-.06-.4,.23-.77,.63-.83l14.48-2.04c.4-.01,.77,.23,.83,.63,.06,.4-.23,.77-.63,.83l-14.48,2.04h-.1Zm28.95-4.06c-.36,0-.67-.26-.73-.63-.06-.4,.23-.77,.63-.83l14.48-2.04c.4-.01,.77,.23,.83,.63,.06,.4-.23,.77-.63,.83l-14.48,2.04h-.1Zm28.95-4.07c-.36,0-.67-.26-.73-.63-.06-.4,.23-.77,.63-.83l14.48-2.02h.1c.36,0,.67,.26,.73,.63,.06,.4-.23,.77-.63,.83l-14.48,2.02h-.1Zm28.95-4.06c-.36,0-.67-.26-.73-.63-.06-.4,.23-.77,.63-.83l14.48-2.04c.42-.01,.77,.23,.83,.63,.06,.4-.23,.77-.63,.83l-14.48,2.04h-.1Zm28.94-4.07c-.36,0-.67-.26-.73-.63-.06-.4,.23-.77,.63-.83l14.48-2.02h.1c.36,0,.67,.26,.73,.63,.06,.4-.23,.77-.63,.83l-14.48,2.02h-.1Zm28.95-4.06c-.36,0-.67-.26-.73-.63-.06-.4,.23-.77,.63-.83l14.48-2.04c.43-.01,.77,.23,.83,.63,.06,.4-.23,.77-.63,.83l-14.48,2.04h-.1Zm28.95-4.06c-.36,0-.67-.26-.73-.63-.06-.4,.23-.77,.63-.83l14.48-2.04h.1c.36,0,.67,.26,.73,.63,.06,.4-.23,.77-.63,.83l-14.48,2.04h-.1Zm28.95-4.07c-.36,0-.67-.26-.73-.63-.06-.4,.23-.77,.63-.83l14.48-2.02c.44,.06,.77,.23,.83,.63,.06,.4-.23,.77-.63,.83l-14.48,2.02h-.1Zm28.95-4.06c-.36,0-.67-.26-.73-.63-.06-.4,.23-.77,.63-.83l14.48-2.04h.1c.36,0,.67,.26,.73,.63,.06,.4-.23,.77-.63,.83l-14.48,2.04h-.1Zm22.02-12.25h0c-.4,0-.73-.33-.73-.73l.03-14.62c0-.4,.33-.73,.73-.73h0c.4,0,.73,.33,.73,.73l-.03,14.62c0,.4-.33,.73-.73,.73Zm.06-29.22h0c-.4,0-.73-.33-.73-.73v-14.62c.01-.4,.34-.73,.75-.73h0c.4,0,.73,.33,.73,.73v14.62c-.01,.4-.34,.73-.75,.73Zm.04-29.24h0c-.4,0-.73-.33-.73-.73l.03-14.62c0-.4,.33-.73,.73-.73h0c.4,0,.73,.33,.73,.73l-.03,14.62c0,.4-.33,.73-.73,.73Zm.04-29.24h0c-.4,0-.73-.33-.73-.73l.03-14.61c0-.4,.33-.73,.73-.73h0c.4,0,.73,.33,.73,.73l-.03,14.61c0,.4-.33,.73-.73,.73Zm.04-29.22h0c-.4,0-.73-.33-.73-.73l.03-14.62c0-.4,.33-.73,.73-.73h0c.4,0,.73,.33,.73,.73l-.03,14.62c0,.4-.33,.73-.73,.73Zm.06-29.24h0c-.4,0-.73-.33-.73-.73v-14.62c.01-.4,.34-.73,.75-.73h0c.4,0,.73,.33,.73,.73v14.62c-.01,.4-.34,.73-.75,.73Zm.04-29.22h0c-.4,0-.73-.33-.73-.73l.03-14.62c0-.4,.33-.73,.73-.73h0c.4,0,.73,.33,.73,.73l-.03,14.62c0,.4-.33,.73-.73,.73Zm-283.25-14.02c-.36,0-.67-.26-.73-.63-.06-.4,.23-.77,.63-.83l14.48-2.04c.4,.01,.77,.23,.83,.63,.06,.4-.23,.77-.63,.83l-14.48,2.04h-.1Zm28.95-4.06c-.36,0-.67-.26-.73-.63-.06-.4,.23-.77,.63-.83l14.48-2.04c.4,0,.77,.23,.83,.63,.06,.4-.23,.77-.63,.83l-14.48,2.04h-.1Zm28.95-4.07c-.36,0-.67-.26-.73-.63-.06-.4,.23-.77,.63-.83l14.46-2.04c.42,.01,.77,.23,.83,.63,.06,.4-.23,.77-.63,.83l-14.46,2.04h-.1Zm28.94-4.06c-.36,0-.67-.26-.73-.63-.06-.4,.23-.77,.63-.83l14.48-2.04c.42,0,.77,.23,.83,.63,.06,.4-.23,.77-.63,.83l-14.48,2.04h-.1Zm196.45-3.03h0c-.4,0-.73-.33-.73-.73l.03-14.62c0-.4,.33-.73,.73-.73h0c.4,0,.73,.33,.73,.73l-.03,14.62c0,.4-.33,.73-.73,.73Zm-167.5-1.05c-.36,0-.67-.26-.73-.63-.06-.4,.23-.77,.63-.83l14.48-2.04c.43,.01,.77,.23,.83,.63,.06,.4-.23,.77-.63,.83l-14.48,2.04h-.1Zm28.95-4.06c-.36,0-.67-.26-.73-.63-.06-.4,.23-.77,.63-.83l14.48-2.04c.43,0,.77,.23,.83,.63,.06,.4-.23,.77-.63,.83l-14.48,2.04h-.1Zm28.95-4.07c-.36,0-.67-.26-.73-.63-.06-.4,.23-.77,.63-.83l14.48-2.04c.43,.01,.77,.23,.83,.63,.06,.4-.23,.77-.63,.83l-14.48,2.04h-.1Zm28.94-4.06c-.36,0-.67-.26-.73-.63-.06-.4,.23-.77,.63-.83l14.48-2.04c.44,0,.77,.23,.83,.63,.06,.4-.23,.77-.63,.83l-14.48,2.04h-.1Zm28.95-4.07c-.36,0-.67-.26-.73-.63-.06-.4,.23-.77,.63-.83l14.48-2.04c.46,.01,.77,.23,.83,.63,.06,.4-.23,.77-.63,.83l-14.48,2.04h-.1Zm28.95-4.06c-.36,0-.67-.26-.73-.63-.06-.4,.23-.77,.63-.83l14.4-2.07c.42-.09,.79,.16,.88,.56,.09,.4-.16,.79-.56,.88-.16,.03-.33,.07-.5,.1l-.33,.06-13.69,1.94h-.1Z" style="fill:#9875ec;"/><path d="M226.55,777.83h-.22c-.4,0-.73-.33-.73-.73s.33-.73,.73-.73l7.17-1h.1c.36,0,.67,.26,.73,.63,.06,.4-.23,.77-.63,.83l-7.16,1Z" style="fill:#9875ec;"/></g><path d="M491.13,604.11c-11.51,1.62-20.86,13.78-20.88,27.16-.02,13.38,9.28,22.92,20.79,21.3,11.51-1.62,20.86-13.78,20.88-27.16,.02-13.38-9.28-22.92-20.79-21.3Z" style="fill:#9875ec; mix-blend-mode:multiply; opacity:.72;"/><path d="M491.12,608.68c-9.34,1.31-16.92,11.18-16.94,22.03-.02,10.85,7.53,18.59,16.87,17.28,9.34-1.31,16.92-11.18,16.94-22.03,.02-10.85-7.53-18.59-16.87-17.28Z" style="fill:#9875ec; mix-blend-mode:multiply; opacity:.72;"/></g><g><path d="M116.61,269.26c.71,.54,1.18,1.18,1.37,1.87,.19,.69,.08,1.54-.27,2.49l-4.54,12.13c-.12,.33-.15,.59-.11,.79,.09,.33,.32,.77,.72,1.29l2.02-.95,.25,.59-4.9,2.3-2.57-3.07,1.44-1.08,4.05-10.84c.27-.73,.42-1.26,.44-1.56,.01-.48-.08-.91-.29-1.24l-.46-.39c-.2-.04-.51,.03-.93,.23l-.66,.31-.24-.61,4.67-2.25Z" style="fill:#cebdf6;"/><path d="M135.96,277.41c.55,1.93,.43,4-.41,6.24-.82,2.2-2.14,4.08-3.92,5.64-1.76,1.56-3.82,2.75-6.19,3.6-1.22-.63-2.23-1.52-3-2.66-.74-1.15-1.17-2.47-1.25-3.96-.08-1.49,.16-2.95,.7-4.4,.78-2.09,2.13-3.99,4.04-5.71,1.9-1.7,4.03-2.87,6.37-3.47,1.85,1.22,3.07,2.79,3.65,4.7Zm-4.81,10.84c.6-.78,1.09-1.66,1.47-2.69,.52-1.38,.73-2.78,.66-4.17-.1-1.37-.52-2.62-1.28-3.75-.78-1.11-1.84-2.04-3.15-2.81-1.87,1.23-3.2,2.91-4,5.05-.56,1.49-.79,2.98-.66,4.46,.13,1.47,.63,2.76,1.47,3.91,.85,1.13,1.85,1.9,3.02,2.35,1.03-.81,1.86-1.59,2.45-2.35" style="fill:#cebdf6;"/><path d="M150.7,280.65c.57,1.93,.43,4-.41,6.24-.82,2.2-2.12,4.09-3.9,5.65-1.78,1.56-3.85,2.74-6.21,3.6-1.22-.63-2.2-1.52-2.98-2.65-.77-1.16-1.17-2.47-1.25-3.96s.16-2.95,.7-4.4c.78-2.09,2.13-3.99,4.02-5.72,1.9-1.7,4.03-2.87,6.37-3.47,1.87,1.23,3.09,2.8,3.65,4.7Zm-4.78,10.85c.6-.78,1.09-1.66,1.47-2.69,.52-1.38,.73-2.78,.66-4.17-.1-1.37-.52-2.62-1.3-3.75-.78-1.11-1.82-2.04-3.13-2.81-1.87,1.23-3.22,2.9-4.02,5.04-.56,1.49-.76,2.99-.63,4.46,.13,1.47,.63,2.76,1.47,3.91,.85,1.13,1.85,1.9,3,2.35,1.05-.8,1.86-1.59,2.48-2.35" style="fill:#cebdf6;"/></g><g style="opacity:.2;"><path d="M305.51,320.9c.29,24.57-1.8,49.11-5.52,71.5-2.63,15.74-6.07,30.38-10.02,43.23-.71,2.34-1.45,4.63-2.22,6.84-.87-2.06-1.73-4.11-2.67-6.13-.35-.8-.71-1.57-1.09-2.38-.84-1.83-1.7-3.63-2.6-5.4-1.06-2.15-2.15-4.27-3.31-6.39-1.35-2.54-2.76-5.04-4.27-7.55-1.16-1.99-2.38-3.95-3.63-5.91-1.35-2.15-2.73-4.24-4.18-6.33-1.41-2.06-2.89-4.11-4.37-6.13-.06-.03-.1-.1-.13-.16-1.45-1.89-2.92-3.79-4.43-5.65-.06-.1-.16-.22-.26-.35-1.54-1.89-3.12-3.79-4.72-5.65-1.57-1.77-3.18-3.57-4.79-5.3-.13-.1-.22-.19-.32-.32-1.73-1.83-3.5-3.63-5.33-5.4-1.8-1.8-3.66-3.53-5.56-5.24-1.83-1.67-3.73-3.28-5.62-4.88-.06-.03-.13-.1-.16-.13-1.83-1.51-3.69-3.02-5.59-4.46-.32-.26-.67-.51-1.03-.77-1.64-1.25-3.31-2.47-5.01-3.66-.42-.32-.87-.61-1.28-.9-1.93-1.35-3.89-2.63-5.88-3.92-44.2-28.2-68.93-32.5-120.93-43.07-15.84-3.21-32.15-5.69-48.47-6.3-2.28-.1-3.6-2.57-2.34-4.5,28.84-43.84,84.86-115.41,151.6-131.75,4.14-1,8.51-.71,12.43,1,33.76,14.81,60.16,31.54,81.94,52.9v.03c2.67,5.85,5.01,11.92,7.07,18.21v.03c8.54,25.98,12.33,55.47,12.69,84.89Z" style="fill:#f8caf8;"/></g></g><g style="clip-path:url(#k);"><g><g><path d="M259.28,622.78v214.81c-.57,3.78-5.04,8.07-14.84,13.04-54.76,27.81-175.23,15.22-175.23,15.22v-214.54s44.19,4.62,91.2,2.08h.11c30.58-1.64,62.34-6.34,83.92-17.3,9.76-4.94,14.23-9.2,14.82-13.01,.02-.09,.02-.21,.02-.3Z" style="fill:#cebdf6;"/><path d="M272.49,510.05v214.54s-5.15,1.79-13.21,4.82v-106.63c.06-.39,.06-.74,0-1.1-1.52-16.47-76.89-23.91-95.95-42.37-1.72-1.67-2.63-3.45-2.82-5.33v-1.37c1.65-24.27,111.98-62.56,111.98-62.56Z" style="fill:#cebdf6;"/><path d="M259.28,621.68c.06,.36,.06,.71,0,1.1,0,.09,0,.21-.02,.3-.59,3.81-5.06,8.07-14.82,13.01-21.58,10.96-53.34,15.66-83.92,17.3v-79.41c.19,1.88,1.1,3.66,2.82,5.33,19.06,18.46,94.42,25.91,95.95,42.37Z" style="fill:#cebdf6;"/></g><g><path d="M259.28,663.47v156.5c-1.85,1.13-3.93,2.29-6.28,3.48-24.54,12.48-60.68,17.81-95.46,19.68h-.12c-4.73,.27-9.44,.45-14.11,.57-.12-.3-.24-.6-.39-.89-5.21-12.45-19.92-22.18-38.41-25.4v-99.51c21.11-3.66,37.22-15.78,40.05-30.73,.06-.27,.12-.57,.15-.83l12.71,.3h.12c34.78-1.88,70.93-7.24,95.46-19.68,2.35-1.19,4.44-2.35,6.28-3.48Z" style="fill:url(#m);"/><path d="M272.5,528.05v196.55s-5.15,1.79-13.22,4.82v-106.63c.06-.39,.06-.74,0-1.1-1.46-15.81-71.08-23.31-93.44-40.26,21.86-20.37,80.81-43.77,106.66-53.39Z" style="fill:url(#n);"/><path d="M246.87,634.82c-.77,.42-1.58,.83-2.44,1.28-21.56,10.96-53.33,15.66-83.91,17.3v-51.27l.21,.21c14.68,14.2,58.69,22.69,86.14,32.49Z" style="fill:url(#o);"/></g><g style="mix-blend-mode:multiply;"><path d="M259.28,622.78v2.59c0,.09,0,.21-.03,.3-.6,3.81-5.06,8.07-14.83,13.01-21.56,10.96-53.33,15.66-83.91,17.3h-.12c-46.99,2.53-91.2-2.08-91.2-2.08v-2.59s44.22,4.62,91.2,2.08h.12c30.58-1.64,62.35-6.34,83.91-17.3,3.51-1.79,6.37-3.48,8.58-5.12,.74-.54,1.4-1.07,1.99-1.58,.24-.18,.48-.42,.71-.66,.33-.27,.63-.6,.89-.89,.24-.24,.45-.51,.65-.74,.21-.24,.39-.51,.57-.74,.18-.24,.33-.48,.48-.74,.12-.21,.24-.42,.36-.63,.12-.27,.24-.54,.3-.8,.09-.21,.15-.45,.21-.68,.03-.15,.06-.27,.09-.42,.03-.09,.03-.21,.03-.3Z" style="fill:#f198f2;"/><path d="M259.28,834.73v2.59c0,.09,0,.21-.03,.3-.6,3.81-5.06,8.07-14.83,13.01-21.56,10.96-53.33,15.66-83.91,17.3h-.12c-46.99,2.53-91.2-2.08-91.2-2.08v-2.59s44.22,4.62,91.2,2.08h.12c30.58-1.64,62.35-6.34,83.91-17.3,3.51-1.79,6.37-3.48,8.58-5.12,.74-.54,1.4-1.07,1.99-1.58,.24-.18,.48-.42,.71-.66,.33-.27,.63-.6,.89-.89,.24-.24,.45-.51,.65-.74,.21-.24,.39-.51,.57-.74,.18-.24,.33-.48,.48-.74,.12-.21,.24-.42,.36-.63,.12-.27,.24-.54,.3-.8,.09-.21,.15-.45,.21-.68,.03-.15,.06-.27,.09-.42,.03-.09,.03-.21,.03-.3Z" style="fill:#f198f2;"/><path d="M272.5,510.05v2.59s-108.44,37.64-111.9,61.93c-.03-.18-.06-.39-.09-.6v-1.37c1.64-24.27,111.99-62.56,111.99-62.56Z" style="fill:#f198f2;"/><path d="M259.28,621.68c.06,.36,.06,.71,0,1.1,0,.09,0,.21-.03,.3-.03,.15-.06,.27-.09,.42-.36-1.49-1.31-2.92-2.8-4.26-.24-.24-.51-.45-.77-.68-1.97-1.61-4.65-3.16-7.86-4.65-.71-.3-1.46-.63-2.23-.95-.57-.27-1.13-.51-1.73-.71-.51-.21-1.01-.42-1.52-.6-9.83-3.78-22.69-7.3-35.34-11.02-1.76-.51-3.51-1.04-5.24-1.55-.24-.09-.51-.15-.74-.24-.66-.21-1.31-.42-1.97-.6-2.44-.74-4.82-1.52-7.15-2.29-.18-.06-.39-.15-.6-.21-1.73-.57-3.42-1.16-5.06-1.76-.15-.06-.3-.12-.45-.18-.6-.21-1.19-.45-1.79-.66-1.04-.39-2.08-.8-3.07-1.19-2.38-.98-4.62-1.97-6.7-2.98-.51-.24-.98-.51-1.46-.74-2.86-1.49-5.36-3.04-7.44-4.67-.68-.54-1.31-1.1-1.91-1.67-1.73-1.67-2.65-3.45-2.83-5.33v-2.59c.03,.21,.06,.42,.09,.6v.09c.09,.36,.18,.71,.3,1.07,.03,.03,.03,.06,.06,.12,.15,.39,.33,.77,.57,1.16,.18,.36,.42,.68,.68,1.01,.03,.06,.09,.12,.15,.18,.27,.39,.6,.74,.98,1.1,19.06,18.46,94.42,25.91,95.94,42.37Z" style="fill:#f198f2;"/><polygon points="69.19 651.3 69.19 865.84 71.57 866.01 70.38 651.3 69.19 651.3" style="fill:#f198f2;"/></g><path d="M259.28,691.52v110.35c-18.46-7.77-31.06-26.86-31-50.89,.06-23.94,12.6-46.51,31-59.46Z" style="fill:#cebdf6;"/><path d="M221.44,644.68c-11.01,2.99-30.31,6.91-55.12,8.49,10.42-9.86,24.83-14.83,40.82-12.6,4.94,.68,9.74,2.2,14.29,4.11Z" style="fill:#cebdf6;"/><g><path d="M146.73,808.07c1.07,.32,1.89,.86,2.4,1.58,.52,.72,.76,1.75,.76,3.02l-.03,16.09c0,.44,.08,.76,.22,.97,.25,.35,.71,.76,1.39,1.19l1.95-1.99,.55,.57-4.71,4.79-4.32-2.46,1.21-1.88,.03-14.38c0-.97-.05-1.65-.16-2.01-.19-.56-.49-1.02-.87-1.32l-.71-.25c-.25,.03-.57,.26-.99,.67l-.63,.65-.55-.6,4.47-4.64Z" style="fill:#cebdf6;"/><path d="M172.78,809.19c1.47,2.01,2.23,4.47,2.23,7.45,0,2.92-.72,5.68-2.12,8.27-1.37,2.58-3.26,4.86-5.65,6.87-1.69-.2-3.25-.81-4.64-1.8-1.37-1.02-2.43-2.37-3.16-4.07-.74-1.7-1.09-3.51-1.08-5.43,0-2.77,.75-5.57,2.23-8.4,1.48-2.81,3.45-5.09,5.92-6.79,2.68,.63,4.78,1.93,6.28,3.9Zm-.9,14.71c.36-1.17,.55-2.41,.55-3.77,0-1.83-.35-3.55-1.03-5.14-.71-1.55-1.74-2.82-3.11-3.81-1.39-.96-3.03-1.58-4.89-1.91-1.64,2.24-2.47,4.77-2.47,7.61,0,1.98,.38,3.81,1.17,5.47,.79,1.66,1.94,2.94,3.41,3.92,1.47,.94,2.98,1.41,4.54,1.43,.85-1.39,1.48-2.66,1.84-3.8" style="fill:#cebdf6;"/><path d="M191.36,806.58c1.5,2,2.23,4.47,2.23,7.45,0,2.92-.69,5.68-2.09,8.26-1.4,2.59-3.29,4.86-5.67,6.88-1.69-.2-3.22-.82-4.62-1.8-1.39-1.01-2.43-2.37-3.16-4.07-.74-1.7-1.09-3.51-1.08-5.43,0-2.77,.75-5.57,2.2-8.4,1.48-2.81,3.45-5.09,5.92-6.79,2.71,.62,4.81,1.92,6.28,3.9Zm-.87,14.7c.36-1.17,.55-2.41,.55-3.77,0-1.83-.35-3.55-1.03-5.14-.71-1.55-1.74-2.82-3.14-3.81-1.39-.96-3-1.58-4.86-1.91-1.64,2.24-2.5,4.78-2.5,7.61,0,1.98,.4,3.81,1.19,5.47,.79,1.66,1.94,2.94,3.41,3.92,1.47,.94,2.98,1.41,4.51,1.43,.88-1.39,1.48-2.66,1.87-3.8" style="fill:#cebdf6;"/></g><path d="M272.49,510.05v214.54s-5.15,1.79-13.21,4.82v-106.63c.06-.39,.06-.74,0-1.1-1.52-16.47-76.89-23.91-95.95-42.37-1.72-1.67-2.63-3.45-2.82-5.33v-1.37c1.65-24.27,111.98-62.56,111.98-62.56Z" style="fill:#9875ec; mix-blend-mode:multiply; opacity:.3;"/><path d="M258.59,619.42c3.27,5.67-4.52,11.79-14.16,16.67-21.56,10.96-53.33,15.66-83.91,17.3v-49.82s13.63-1.45,31.37,0c44.66,3.64,66.7,15.84,66.7,15.84Z" style="fill:#9875ec; mix-blend-mode:multiply; opacity:.3;"/><path d="M259.28,622.78v57.26c-19.27,46.36-66.49,115.41-181.66,186.55-5.36-.42-8.43-.74-8.43-.74v-214.54s44.22,4.62,91.2,2.08h.12c30.58-1.64,62.35-6.34,83.91-17.3,9.77-4.94,14.23-9.2,14.83-13.01,.03-.09,.03-.21,.03-.3Z" style="fill:#f8caf8; opacity:.2;"/></g></g></g><path d="M748.62,882.39l6.27,8.75c5.97,8.33,3.47,19.99-5.39,25.13l-488.82,282.88c-10.07,5.85-22.51,5.83-32.57-.05l-185.37-108.33c-20.15-11.78-21.58-40.37-2.71-54.1l162.29-125.07s-119.72,12.8-145.58,7h0c-.48-6.95,4.98-12.86,11.95-12.89,33.35-.16,122.76-2.52,161.06-22.51,47.54-24.82,9.37-81.98,9.37-81.98l73.59-54.32,270-44.51,165.91,180.02Z" style="fill:#9875ec; opacity:.2;"/><g><path d="M743.99,867.41s76.76,0,111.49-54.47c26.34-41.3,75.92-162.58,158.8-153.83-31.53-30.14-152.74-107.41-152.74-107.41l-149.42,146.09v87.86l31.88,81.75Z" style="fill:#9875ec; opacity:.2;"/><g><path d="M974.34,505.09c-25.21,51.17-130.4,22.96-130.4,177.9,0,113.49-83.71,137.49-99.34,145.31l-181.16-104.53c0-.07,.07-.07,.07-.07,19.95-11.46,98.8-40.04,98.8-148.07,0-152.41,91.85-131.2,129.46-175.88l182.57,105.34Z" style="fill:url(#p);"/><path d="M974.35,505.11c-25.21,51.15-130.41,22.91-130.41,177.86,0,113.49-83.71,137.49-99.34,145.3l-.61-.34c17.93-8.36,98.33-33.56,98.33-144.83,0-154.94,105.2-126.7,130.41-177.86l-181.63-104.8c.27-.2,.47-.4,.67-.67l182.58,105.34Z" style="fill:url(#q); opacity:.5;"/><g><path d="M906.21,504.03c-1.75,1.28-3.64,2.43-5.53,3.57-1.89,1.15-3.84,2.22-5.86,3.3l-.67-.34-104.53-60.39-.67-.4c1.62-.74,3.23-1.55,4.78-2.36,2.56-1.28,4.99-2.63,7.41-4.04l.67,.4,103.65,59.85,.74,.4Z" style="fill:#916beb;"/><g><polygon points="763.27 465.74 757.43 462.37 739.81 472.55 745.65 475.92 763.27 465.74" style="fill:#a282ee;"/><polygon points="769.91 469.58 767.97 468.46 750.35 478.63 752.29 479.75 769.91 469.58" style="fill:#a282ee;"/><polygon points="765.3 466.92 764.64 466.54 747.02 476.71 747.68 477.09 765.3 466.92" style="fill:#a282ee;"/><polygon points="774.13 472.02 771.21 470.33 753.59 480.5 756.51 482.19 774.13 472.02" style="fill:#a282ee;"/><polygon points="781.06 476.02 779.11 474.89 761.49 485.07 763.44 486.19 781.06 476.02" style="fill:#a282ee;"/><polygon points="776.45 473.36 775.79 472.97 758.17 483.15 758.83 483.53 776.45 473.36" style="fill:#a282ee;"/><polygon points="814.21 495.16 812.26 494.03 794.64 504.21 796.59 505.33 814.21 495.16" style="fill:#a282ee;"/><polygon points="809.6 492.49 808.94 492.11 791.32 502.29 791.98 502.67 809.6 492.49" style="fill:#a282ee;"/><polygon points="818.42 497.59 815.51 495.9 797.89 506.08 800.8 507.76 818.42 497.59" style="fill:#a282ee;"/><polygon points="825.36 501.59 823.41 500.47 805.79 510.64 807.74 511.76 825.36 501.59" style="fill:#a282ee;"/><polygon points="820.75 498.93 820.09 498.55 802.47 508.72 803.13 509.1 820.75 498.93" style="fill:#a282ee;"/><polygon points="789.17 480.7 783.33 477.33 765.71 487.5 771.55 490.87 789.17 480.7" style="fill:#a282ee;"/><polygon points="795.82 484.54 793.87 483.41 776.25 493.59 778.2 494.71 795.82 484.54" style="fill:#a282ee;"/><polygon points="791.21 481.88 790.55 481.5 772.93 491.67 773.59 492.05 791.21 481.88" style="fill:#a282ee;"/><polygon points="800.03 486.97 797.11 485.29 779.49 495.46 782.41 497.14 800.03 486.97" style="fill:#a282ee;"/><polygon points="806.96 490.97 805.02 489.85 787.4 500.02 789.34 501.15 806.96 490.97" style="fill:#a282ee;"/><polygon points="836.12 507.8 834.17 506.68 816.55 516.85 818.5 517.98 836.12 507.8" style="fill:#a282ee;"/><polygon points="831.51 505.14 830.85 504.76 813.23 514.93 813.89 515.32 831.51 505.14" style="fill:#a282ee;"/><polygon points="840.33 510.24 837.41 508.55 819.79 518.73 822.71 520.41 840.33 510.24" style="fill:#a282ee;"/><polygon points="847.26 514.24 845.32 513.12 827.7 523.29 829.64 524.41 847.26 514.24" style="fill:#a282ee;"/><polygon points="842.65 511.58 841.99 511.2 824.37 521.37 825.03 521.75 842.65 511.58" style="fill:#a282ee;"/><polygon points="828.87 503.62 826.93 502.5 809.31 512.67 811.25 513.79 828.87 503.62" style="fill:#a282ee;"/><polygon points="802.35 488.31 801.69 487.93 784.07 498.1 784.73 498.48 802.35 488.31" style="fill:#a282ee;"/><polygon points="854.89 518.64 849.05 515.27 831.43 525.44 837.27 528.81 854.89 518.64" style="fill:#a282ee;"/><polygon points="861.53 522.48 859.59 521.36 841.97 531.53 843.91 532.65 861.53 522.48" style="fill:#a282ee;"/><polygon points="856.92 519.82 856.26 519.44 838.64 529.61 839.3 529.99 856.92 519.82" style="fill:#a282ee;"/><polygon points="865.75 524.91 862.83 523.23 845.21 533.4 848.13 535.09 865.75 524.91" style="fill:#a282ee;"/><polygon points="868.07 526.25 867.41 525.87 849.79 536.04 850.45 536.43 868.07 526.25" style="fill:#a282ee;"/></g><path d="M798.31,540.42c-1.35,1.42-2.56,2.97-3.77,4.52l-1.08-.61-98.2-56.68-1.15-.67c.94-1.75,1.95-3.37,3.03-4.99l1.08,.67,99.07,57.15,1.01,.61Z" style="fill:#a282ee;"/><g><path d="M710.7,558.22l1.42,.81c-.2,1.55-.4,3.24-.54,4.85-.07,.47-.13,.94-.13,1.48l-1.55-.88-31.74-18.33-1.55-.88c.27-2.16,.54-4.25,.88-6.27l1.42,.81,31.81,18.4Z" style="fill:#a282ee;"/><path d="M833.89,629.32c-.4,1.95-.74,4.04-1.01,6.13l-1.48-.88-25.27-14.63-1.48-.81c.27-2.02,.61-3.91,1.01-5.8,0-.07,.07-.2,.07-.27l1.42,.81,25.34,14.62,1.42,.81Z" style="fill:#a282ee;"/><path d="M725.72,594.2l1.48,.81c-.13,2.16-.27,4.31-.27,6.54l-1.62-.88-48.73-28.17-1.62-.88c0-2.29,.07-4.52,.13-6.67l1.62,.94,49,28.31Z" style="fill:#a282ee;"/><path d="M830.73,654.79c-.2,2.09-.34,4.25-.4,6.47l-1.55-.88-33.97-19.61-1.55-.94c0-2.02,.13-3.98,.34-5.86,0-.2,0-.34,.07-.54l1.55,.88,33.97,19.61,1.55,.88Z" style="fill:#a282ee;"/><path d="M713.59,614.49l1.62,.88c0,2.29-.07,4.51-.13,6.67l-1.55-.88-38.15-22.04-1.48-.81c.2-2.09,.4-4.25,.47-6.47l1.55,.88,37.67,21.77Z" style="fill:#a282ee;"/><path d="M829.85,681.55c0,2.22-.07,4.45-.27,6.61l-1.48-.88-21.16-12.2-1.55-.88c.07-.94,.07-1.89,.07-2.83,.07-1.21,.07-2.56,.07-3.84l1.55,.88,21.23,12.27,1.55,.88Z" style="fill:#a282ee;"/><path d="M731.52,652.16l1.42,.81c-.27,2.09-.61,4.11-1.01,6.13l-1.42-.81-59.51-34.3-1.35-.81c.47-1.95,.88-3.98,1.28-6l1.42,.81,59.17,34.17Z" style="fill:#a282ee;"/><path d="M827.56,707.56c-.27,2.09-.67,4.11-1.08,6.13l-1.42-.81-27.43-15.84-1.48-.88c.13-.54,.2-1.08,.27-1.68,.27-1.48,.47-2.97,.67-4.45l1.42,.81,27.56,15.91,1.48,.81Z" style="fill:#a282ee;"/><path d="M736.58,682.43l1.28,.74c-.54,1.95-1.15,3.84-1.82,5.66l-1.28-.74-71.64-41.38-1.28-.67c.81-1.75,1.55-3.57,2.22-5.46l1.28,.74,71.24,41.11Z" style="fill:#a282ee;"/><path d="M821.9,731.62c-.61,1.95-1.28,3.84-1.95,5.66l-1.28-.74-45.63-26.35-1.35-.74c.61-1.89,1.15-3.84,1.68-5.8l1.35,.81,45.83,26.42,1.35,.74Z" style="fill:#a282ee;"/></g><path d="M898.12,525.02c-1.55,.74-3.17,1.48-4.79,2.22l-.61-.34-135.13-77.98-.61-.34c1.15-.54,2.22-1.08,3.37-1.62,.47-.2,.94-.47,1.42-.67l.61,.34,135.13,77.98,.61,.4Z" style="fill:#a282ee;"/><path d="M817.99,572.17v.07c-.81,1.21-1.48,2.43-2.22,3.71l-1.15-.67-29.05-16.78-1.21-.67-96.04-55.47-1.28-.74c.54-1.42,1.15-2.76,1.75-4.04l1.21,.74,96.58,55.74,1.15,.67,29.18,16.85,1.08,.61Z" style="fill:#a282ee;"/></g></g><path d="M753.38,771.51v94.35c0,16.24-11.39,36-25.48,44.12l-208.25,120.21-255.42,147.49c-5.67,3.27-10.83,3.78-14.74,1.93l-1.2-.64-203.39-116.39c-3.82-2.36-6.14-7.22-6.14-14.05v-23.97c0-29.82,20.92-66.08,46.74-80.99l192.91-111.41c10.4-5.97,20.62-15.08,29.6-26.34l30.5-57.7c8.12-10.18,17.19-18.52,26.55-24.49l153.64-88.76,.09-.04,13.02-7.52,210.65,122.15,.04,.04,2.32,1.33,.04,.04c5.28,3.7,8.51,10.78,8.51,20.62Z" style="fill:#fff;"/><path d="M753.38,773.15v94.35c0,16.24-11.39,36-25.48,44.12l-208.25,120.21-255.42,147.49c-5.67,3.27-10.83,3.78-14.74,1.93l-1.2-.64-203.39-116.39c-3.82-2.36-6.14-7.22-6.14-14.05v-23.97c0-29.82,20.92-66.08,46.74-80.99l192.91-111.41c10.4-5.97,20.62-15.08,29.6-26.34l30.5-57.7c8.12-10.18,17.19-18.52,26.55-24.49l153.64-88.76,.09-.04,13.02-7.52,210.65,122.15,.04,.04,2.32,1.33,.04,.04c5.28,3.7,8.51,10.78,8.51,20.62Z" style="fill:url(#r);"/><path d="M753.38,773.15v94.35c0,16.24-11.39,36-25.48,44.12l-208.25,120.21-255.42,147.49c-5.67,3.27-10.83,3.78-14.74,1.93l-1.2-.64c-3.74-2.41-6.02-7.22-6.02-13.96v-24.02c0-29.82,20.97-66.08,46.79-80.99l192.91-111.36c10.4-6.02,20.58-15.12,29.56-26.38l30.5-57.7c8.98-11.21,19.2-20.32,29.6-26.34l148.65-85.8c8.55-4.94,16.33-5.71,22.17-2.96l.04,.04,2.32,1.33,.04,.04c5.28,3.7,8.51,10.78,8.51,20.62Z" style="fill:#a282ee;"/><path d="M749.73,757.81c-.69-.77-1.46-1.42-2.32-2.02l-.04-.04-2.32-1.33-.04-.04c-5.84-2.75-13.62-1.98-22.17,2.96l-148.65,85.8c-10.4,6.01-20.62,15.12-29.6,26.34l-30.5,57.7c-8.98,11.26-19.16,20.36-29.56,26.38l-192.91,111.36c-25.82,14.91-46.79,51.17-46.79,80.99v24.02c0,3.91,.77,7.13,2.15,9.67-2.92-2.62-4.68-7.05-4.68-12.93v-24.02c0-29.82,20.97-66.08,46.79-80.99l192.91-111.36c10.4-6.02,20.58-15.12,29.56-26.38l30.5-57.7c8.98-11.21,19.2-20.32,29.6-26.34l148.65-85.8c8.55-4.94,16.33-5.71,22.17-2.96l.04,.04,2.32,1.33,.04,.04c1.89,1.33,3.52,3.09,4.85,5.28Z" style="fill:#f6bdf7;"/><path d="M562.53,827.78l-173.75-100.31c-1.87-1.08-1.87-3.78,0-4.86l126.56-73.07c2.52-1.46,5.63-1.46,8.15,0l173.75,100.31c1.87,1.08,1.87,3.78,0,4.86l-126.56,73.07c-2.52,1.46-5.63,1.46-8.15,0Z" style="fill:url(#s);"/><path d="M697.22,754.74l-126.57,73.06c-2.49,1.42-5.59,1.42-8.09,0l-23.18-13.34c-11.39-51.9-10.04-107.77,6.74-151.57,0-.07,.07-.13,.07-.2l151.03,87.14c1.89,1.08,1.89,3.77,0,4.92Z" style="fill:url(#t); mix-blend-mode:soft-light;"/><path d="M697.92,754.12c-.17-.21-.39-.43-.69-.6l-173.75-100.32c-2.53-1.46-5.63-1.46-8.16,0l-126.53,73.08c-.3,.17-.52,.39-.69,.6-1.16-1.29-.9-3.35,.69-4.3l126.53-73.04c2.53-1.46,5.63-1.46,8.16,0l173.75,100.32c1.59,.9,1.85,3.01,.69,4.25Z" style="fill:url(#u); mix-blend-mode:multiply;"/><path d="M254.64,1064.92l-173.75-100.31c-1.87-1.08-.8-4.4,1.92-5.97l184.3-106.41c3.67-2.12,7.49-2.53,10.01-1.07l173.75,100.31c1.87,1.08,.8,4.4-1.92,5.97l-184.3,106.41c-3.67,2.12-7.49,2.53-10.01,1.07Z" style="fill:#a282ee;"/><g><path d="M246.7,1014.22l38.45,22.2c2.97,1.71,2.97,4.49,0,6.21l-18.6,10.74c-2.97,1.71-7.78,1.71-10.75,0l-38.45-22.2c-2.97-1.71-2.97-4.49,0-6.21l18.6-10.74c2.97-1.71,7.78-1.71,10.75,0Z" style="fill:url(#v);"/><path d="M188.41,980.56l38.45,22.2c2.97,1.71,2.97,4.49,0,6.21l-18.6,10.74c-2.97,1.71-7.78,1.71-10.75,0l-38.45-22.2c-2.97-1.71-2.97-4.49,0-6.21l18.6-10.74c2.97-1.71,7.78-1.71,10.75,0Z" style="fill:url(#w);"/><path d="M130.12,946.91l38.45,22.2c2.97,1.71,2.97,4.49,0,6.21l-18.6,10.74c-2.97,1.71-7.78,1.71-10.75,0l-38.45-22.2c-2.97-1.71-2.97-4.49,0-6.21l18.6-10.74c2.97-1.71,7.78-1.71,10.75,0Z" style="fill:url(#x);"/><path d="M283.5,992.98l38.45,22.2c2.97,1.71,2.97,4.49,0,6.21l-18.6,10.74c-2.97,1.71-7.78,1.71-10.75,0l-38.45-22.2c-2.97-1.71-2.97-4.49,0-6.21l18.6-10.74c2.97-1.71,7.78-1.71,10.75,0Z" style="fill:url(#y);"/><path d="M225.21,959.32l38.45,22.2c2.97,1.71,2.97,4.49,0,6.21l-18.6,10.74c-2.97,1.71-7.78,1.71-10.75,0l-38.45-22.2c-2.97-1.71-2.97-4.49,0-6.21l18.6-10.74c2.97-1.71,7.78-1.71,10.75,0Z" style="fill:url(#a`);"/><path d="M166.91,925.67l38.45,22.2c2.97,1.71,2.97,4.49,0,6.21l-18.6,10.74c-2.97,1.71-7.78,1.71-10.75,0l-38.45-22.2c-2.97-1.71-2.97-4.49,0-6.21l18.6-10.74c2.97-1.71,7.78-1.71,10.75,0Z" style="fill:url(#aa);"/><path d="M320.29,971.73l38.45,22.2c2.97,1.71,2.97,4.49,0,6.21l-18.6,10.74c-2.97,1.71-7.78,1.71-10.75,0l-38.45-22.2c-2.97-1.71-2.97-4.49,0-6.21l18.6-10.74c2.97-1.71,7.78-1.71,10.75,0Z" style="fill:url(#ab);"/><path d="M262,938.08l38.45,22.2c2.97,1.71,2.97,4.49,0,6.21l-18.6,10.74c-2.97,1.71-7.78,1.71-10.75,0l-38.45-22.2c-2.97-1.71-2.97-4.49,0-6.21l18.6-10.74c2.97-1.71,7.78-1.71,10.75,0Z" style="fill:url(#ac);"/><path d="M203.71,904.42l38.45,22.2c2.97,1.71,2.97,4.49,0,6.21l-18.6,10.74c-2.97,1.71-7.78,1.71-10.75,0l-38.45-22.2c-2.97-1.71-2.97-4.49,0-6.21l18.6-10.74c2.97-1.71,7.78-1.71,10.75,0Z" style="fill:url(#ad);"/><path d="M357.09,950.49l38.45,22.2c2.97,1.71,2.97,4.49,0,6.21l-18.6,10.74c-2.97,1.71-7.78,1.71-10.75,0l-38.45-22.2c-2.97-1.71-2.97-4.49,0-6.21l18.6-10.74c2.97-1.71,7.78-1.71,10.75,0Z" style="fill:url(#ae);"/><path d="M298.79,916.83l38.45,22.2c2.97,1.71,2.97,4.49,0,6.21l-18.6,10.74c-2.97,1.71-7.78,1.71-10.75,0l-38.45-22.2c-2.97-1.71-2.97-4.49,0-6.21l18.6-10.74c2.97-1.71,7.78-1.71,10.75,0Z" style="fill:url(#af);"/><path d="M240.5,883.18l38.45,22.2c2.97,1.71,2.97,4.49,0,6.21l-18.6,10.74c-2.97,1.71-7.78,1.71-10.75,0l-38.45-22.2c-2.97-1.71-2.97-4.49,0-6.21l18.6-10.74c2.97-1.71,7.78-1.71,10.75,0Z" style="fill:url(#ag);"/><path d="M393.88,929.25l38.45,22.2c2.97,1.71,2.97,4.49,0,6.21l-18.6,10.74c-2.97,1.71-7.78,1.71-10.75,0l-38.45-22.2c-2.97-1.71-2.97-4.49,0-6.21l18.6-10.74c2.97-1.71,7.78-1.71,10.75,0Z" style="fill:url(#ah);"/><path d="M335.59,895.59l38.45,22.2c2.97,1.71,2.97,4.49,0,6.21l-18.6,10.74c-2.97,1.71-7.78,1.71-10.75,0l-38.45-22.2c-2.97-1.71-2.97-4.49,0-6.21l18.6-10.74c2.97-1.71,7.78-1.71,10.75,0Z" style="fill:url(#ai);"/><path d="M277.3,861.94l38.45,22.2c2.97,1.71,2.97,4.49,0,6.21l-18.6,10.74c-2.97,1.71-7.78,1.71-10.75,0l-38.45-22.2c-2.97-1.71-2.97-4.49,0-6.21l18.6-10.74c2.97-1.71,7.78-1.71,10.75,0Z" style="fill:url(#aj);"/><g><path d="M257.87,1007.77c-.91-.53-.91-1.38,0-1.91l18.6-10.74c.91-.53,2.4-.53,3.31,0l38.45,22.2c.91,.53,.91,1.38,0,1.91l-18.6,10.74c-.91,.53-2.39,.53-3.31,0l-38.45-22.2Z" style="fill:url(#ak);"/><path d="M199.57,974.12c-.91-.53-.91-1.38,0-1.91l18.6-10.74c.91-.53,2.39-.53,3.31,0l38.45,22.2c.91,.53,.91,1.38,0,1.91l-18.6,10.74c-.91,.53-2.39,.53-3.31,0l-38.45-22.2Z" style="fill:url(#al);"/><path d="M141.28,940.46c-.91-.53-.91-1.38,0-1.91l18.6-10.74c.91-.53,2.39-.53,3.31,0l38.45,22.2c.91,.53,.91,1.38,0,1.91l-18.6,10.74c-.91,.53-2.39,.53-3.31,0l-38.45-22.2Z" style="fill:url(#am);"/><path d="M294.66,986.53c-.91-.53-.91-1.38,0-1.91l18.6-10.74c.91-.53,2.4-.53,3.31,0l38.45,22.2c.91,.53,.91,1.38,0,1.91l-18.6,10.74c-.91,.53-2.39,.53-3.31,0l-38.45-22.2Z" style="fill:url(#an);"/><path d="M236.37,952.88c-.91-.53-.91-1.38,0-1.91l18.6-10.74c.91-.53,2.39-.53,3.31,0l38.45,22.2c.91,.53,.91,1.38,0,1.91l-18.6,10.74c-.91,.53-2.39,.53-3.31,0l-38.45-22.2Z" style="fill:url(#ao);"/><path d="M178.08,919.22c-.91-.53-.91-1.38,0-1.91l18.6-10.74c.91-.53,2.39-.53,3.31,0l38.45,22.2c.91,.53,.91,1.38,0,1.91l-18.6,10.74c-.91,.53-2.39,.53-3.31,0l-38.45-22.2Z" style="fill:url(#ap);"/><path d="M331.45,965.29c-.91-.53-.91-1.38,0-1.91l18.6-10.74c.91-.53,2.4-.53,3.31,0l38.45,22.2c.91,.53,.91,1.38,0,1.91l-18.6,10.74c-.91,.53-2.39,.53-3.31,0l-38.45-22.2Z" style="fill:url(#aq);"/><path d="M273.16,931.63c-.91-.53-.91-1.38,0-1.91l18.6-10.74c.91-.53,2.4-.53,3.31,0l38.45,22.2c.91,.53,.91,1.38,0,1.91l-18.6,10.74c-.91,.53-2.39,.53-3.31,0l-38.45-22.2Z" style="fill:url(#ar);"/><path d="M214.87,897.98c-.91-.53-.91-1.38,0-1.91l18.6-10.74c.91-.53,2.4-.53,3.31,0l38.45,22.2c.91,.53,.91,1.38,0,1.91l-18.6,10.74c-.91,.53-2.39,.53-3.31,0l-38.45-22.2Z" style="fill:url(#as);"/><path d="M368.25,944.04c-.91-.53-.91-1.38,0-1.91l18.6-10.74c.91-.53,2.4-.53,3.31,0l38.45,22.2c.91,.53,.91,1.38,0,1.91l-18.6,10.74c-.91,.53-2.39,.53-3.31,0l-38.45-22.2Z" style="fill:url(#at);"/><path d="M309.96,910.39c-.91-.53-.91-1.38,0-1.91l18.6-10.74c.91-.53,2.39-.53,3.31,0l38.45,22.2c.91,.53,.91,1.38,0,1.91l-18.6,10.74c-.91,.53-2.39,.53-3.31,0l-38.45-22.2Z" style="fill:url(#au);"/><path d="M251.67,876.73c-.91-.53-.91-1.38,0-1.91l18.6-10.74c.91-.53,2.39-.53,3.31,0l38.45,22.2c.91,.53,.91,1.38,0,1.91l-18.6,10.74c-.91,.53-2.39,.53-3.31,0l-38.45-22.2Z" style="fill:url(#av);"/></g></g><g><path d="M246.7,1010.64l38.45,22.2c2.97,1.71,2.97,4.49,0,6.21l-18.6,10.74c-2.97,1.71-7.78,1.71-10.75,0l-38.45-22.2c-2.97-1.71-2.97-4.49,0-6.21l18.6-10.74c2.97-1.71,7.78-1.71,10.75,0Z" style="fill:#8b63ea;"/><path d="M188.41,976.98l38.45,22.2c2.97,1.71,2.97,4.49,0,6.21l-18.6,10.74c-2.97,1.71-7.78,1.71-10.75,0l-38.45-22.2c-2.97-1.71-2.97-4.49,0-6.21l18.6-10.74c2.97-1.71,7.78-1.71,10.75,0Z" style="fill:#c8b5f5;"/><path d="M130.12,943.33l38.45,22.2c2.97,1.71,2.97,4.49,0,6.21l-18.6,10.74c-2.97,1.71-7.78,1.71-10.75,0l-38.45-22.2c-2.97-1.71-2.97-4.49,0-6.21l18.6-10.74c2.97-1.71,7.78-1.71,10.75,0Z" style="fill:#7c4fe7;"/><path d="M283.5,989.4l38.45,22.2c2.97,1.71,2.97,4.49,0,6.21l-18.6,10.74c-2.97,1.71-7.78,1.71-10.75,0l-38.45-22.2c-2.97-1.71-2.97-4.49,0-6.21l18.6-10.74c2.97-1.71,7.78-1.71,10.75,0Z" style="fill:#fff;"/><path d="M225.21,955.74l38.45,22.2c2.97,1.71,2.97,4.49,0,6.21l-18.6,10.74c-2.97,1.71-7.78,1.71-10.75,0l-38.45-22.2c-2.97-1.71-2.97-4.49,0-6.21l18.6-10.74c2.97-1.71,7.78-1.71,10.75,0Z" style="fill:#fff;"/><path d="M166.91,922.09l38.45,22.2c2.97,1.71,2.97,4.49,0,6.21l-18.6,10.74c-2.97,1.71-7.78,1.71-10.75,0l-38.45-22.2c-2.97-1.71-2.97-4.49,0-6.21l18.6-10.74c2.97-1.71,7.78-1.71,10.75,0Z" style="fill:#fff;"/><path d="M320.29,968.15l38.45,22.2c2.97,1.71,2.97,4.49,0,6.21l-18.6,10.74c-2.97,1.71-7.78,1.71-10.75,0l-38.45-22.2c-2.97-1.71-2.97-4.49,0-6.21l18.6-10.74c2.97-1.71,7.78-1.71,10.75,0Z" style="fill:#fff;"/><path d="M262,934.5l38.45,22.2c2.97,1.71,2.97,4.49,0,6.21l-18.6,10.74c-2.97,1.71-7.78,1.71-10.75,0l-38.45-22.2c-2.97-1.71-2.97-4.49,0-6.21l18.6-10.74c2.97-1.71,7.78-1.71,10.75,0Z" style="fill:#fff;"/><path d="M203.71,900.84l38.45,22.2c2.97,1.71,2.97,4.49,0,6.21l-18.6,10.74c-2.97,1.71-7.78,1.71-10.75,0l-38.45-22.2c-2.97-1.71-2.97-4.49,0-6.21l18.6-10.74c2.97-1.71,7.78-1.71,10.75,0Z" style="fill:#fff;"/><path d="M357.09,946.91l38.45,22.2c2.97,1.71,2.97,4.49,0,6.21l-18.6,10.74c-2.97,1.71-7.78,1.71-10.75,0l-38.45-22.2c-2.97-1.71-2.97-4.49,0-6.21l18.6-10.74c2.97-1.71,7.78-1.71,10.75,0Z" style="fill:#fff;"/><path d="M298.79,913.25l38.45,22.2c2.97,1.71,2.97,4.49,0,6.21l-18.6,10.74c-2.97,1.71-7.78,1.71-10.75,0l-38.45-22.2c-2.97-1.71-2.97-4.49,0-6.21l18.6-10.74c2.97-1.71,7.78-1.71,10.75,0Z" style="fill:#fff;"/><path d="M240.5,879.6l38.45,22.2c2.97,1.71,2.97,4.49,0,6.21l-18.6,10.74c-2.97,1.71-7.78,1.71-10.75,0l-38.45-22.2c-2.97-1.71-2.97-4.49,0-6.21l18.6-10.74c2.97-1.71,7.78-1.71,10.75,0Z" style="fill:#fff;"/><path d="M393.88,925.67l38.45,22.2c2.97,1.71,2.97,4.49,0,6.21l-18.6,10.74c-2.97,1.71-7.78,1.71-10.75,0l-38.45-22.2c-2.97-1.71-2.97-4.49,0-6.21l18.6-10.74c2.97-1.71,7.78-1.71,10.75,0Z" style="fill:#fff;"/><path d="M335.59,892.01l38.45,22.2c2.97,1.71,2.97,4.49,0,6.21l-18.6,10.74c-2.97,1.71-7.78,1.71-10.75,0l-38.45-22.2c-2.97-1.71-2.97-4.49,0-6.21l18.6-10.74c2.97-1.71,7.78-1.71,10.75,0Z" style="fill:#fff;"/><path d="M277.3,858.36l38.45,22.2c2.97,1.71,2.97,4.49,0,6.21l-18.6,10.74c-2.97,1.71-7.78,1.71-10.75,0l-38.45-22.2c-2.97-1.71-2.97-4.49,0-6.21l18.6-10.74c2.97-1.71,7.78-1.71,10.75,0Z" style="fill:#fff;"/><g><path d="M257.87,1004.19c-.91-.53-.91-1.38,0-1.91l18.6-10.74c.91-.53,2.4-.53,3.31,0l38.45,22.2c.91,.53,.91,1.38,0,1.91l-18.6,10.74c-.91,.53-2.39,.53-3.31,0l-38.45-22.2Z" style="fill:#f6bdf7;"/><path d="M199.57,970.54c-.91-.53-.91-1.38,0-1.91l18.6-10.74c.91-.53,2.39-.53,3.31,0l38.45,22.2c.91,.53,.91,1.38,0,1.91l-18.6,10.74c-.91,.53-2.39,.53-3.31,0l-38.45-22.2Z" style="fill:#f6bdf7;"/><path d="M141.28,936.88c-.91-.53-.91-1.38,0-1.91l18.6-10.74c.91-.53,2.39-.53,3.31,0l38.45,22.2c.91,.53,.91,1.38,0,1.91l-18.6,10.74c-.91,.53-2.39,.53-3.31,0l-38.45-22.2Z" style="fill:#f6bdf7;"/><path d="M294.66,982.95c-.91-.53-.91-1.38,0-1.91l18.6-10.74c.91-.53,2.4-.53,3.31,0l38.45,22.2c.91,.53,.91,1.38,0,1.91l-18.6,10.74c-.91,.53-2.39,.53-3.31,0l-38.45-22.2Z" style="fill:#f6bdf7;"/><path d="M236.37,949.3c-.91-.53-.91-1.38,0-1.91l18.6-10.74c.91-.53,2.39-.53,3.31,0l38.45,22.2c.91,.53,.91,1.38,0,1.91l-18.6,10.74c-.91,.53-2.39,.53-3.31,0l-38.45-22.2Z" style="fill:#f6bdf7;"/><path d="M178.08,915.64c-.91-.53-.91-1.38,0-1.91l18.6-10.74c.91-.53,2.39-.53,3.31,0l38.45,22.2c.91,.53,.91,1.38,0,1.91l-18.6,10.74c-.91,.53-2.39,.53-3.31,0l-38.45-22.2Z" style="fill:#f6bdf7;"/><path d="M331.45,961.71c-.91-.53-.91-1.38,0-1.91l18.6-10.74c.91-.53,2.4-.53,3.31,0l38.45,22.2c.91,.53,.91,1.38,0,1.91l-18.6,10.74c-.91,.53-2.39,.53-3.31,0l-38.45-22.2Z" style="fill:#f6bdf7;"/><path d="M273.16,928.05c-.91-.53-.91-1.38,0-1.91l18.6-10.74c.91-.53,2.4-.53,3.31,0l38.45,22.2c.91,.53,.91,1.38,0,1.91l-18.6,10.74c-.91,.53-2.39,.53-3.31,0l-38.45-22.2Z" style="fill:#f6bdf7;"/><path d="M214.87,894.4c-.91-.53-.91-1.38,0-1.91l18.6-10.74c.91-.53,2.4-.53,3.31,0l38.45,22.2c.91,.53,.91,1.38,0,1.91l-18.6,10.74c-.91,.53-2.39,.53-3.31,0l-38.45-22.2Z" style="fill:#f6bdf7;"/><path d="M368.25,940.46c-.91-.53-.91-1.38,0-1.91l18.6-10.74c.91-.53,2.4-.53,3.31,0l38.45,22.2c.91,.53,.91,1.38,0,1.91l-18.6,10.74c-.91,.53-2.39,.53-3.31,0l-38.45-22.2Z" style="fill:#f6bdf7;"/><path d="M309.96,906.81c-.91-.53-.91-1.38,0-1.91l18.6-10.74c.91-.53,2.39-.53,3.31,0l38.45,22.2c.91,.53,.91,1.38,0,1.91l-18.6,10.74c-.91,.53-2.39,.53-3.31,0l-38.45-22.2Z" style="fill:#f6bdf7;"/><path d="M251.67,873.15c-.91-.53-.91-1.38,0-1.91l18.6-10.74c.91-.53,2.39-.53,3.31,0l38.45,22.2c.91,.53,.91,1.38,0,1.91l-18.6,10.74c-.91,.53-2.39,.53-3.31,0l-38.45-22.2Z" style="fill:#f6bdf7;"/></g></g></g></g></g></g></g></svg>